<svg width="1008" height="576" viewBox="0 0 1008 576" fill="none" xmlns="http://www.w3.org/2000/svg">
<rect width="1008" height="576" fill="#F4F4F4"/>
<rect x="48.5" y="48.5" width="239" height="479" fill="white"/>
<g clip-path="url(#clip0_3603_4487)">
<path d="M102.996 77H101.148V67.228H105.544C107.35 67.228 108.442 68.446 108.442 70.252C108.442 72.072 107.35 73.276 105.544 73.276H102.996V77ZM102.996 68.838V71.68H105.376C106.09 71.68 106.524 71.288 106.524 70.574V69.93C106.524 69.216 106.09 68.838 105.376 68.838H102.996ZM114.533 77V75.782H114.463C114.211 76.51 113.623 77.168 112.419 77.168C110.921 77.168 110.081 76.132 110.081 74.312V69.692H111.873V74.13C111.873 75.138 112.251 75.684 113.105 75.684C113.819 75.684 114.533 75.306 114.533 74.522V69.692H116.325V77H114.533ZM118.555 77V66.64H120.347V70.896H120.403C120.669 70.056 121.453 69.524 122.419 69.524C124.267 69.524 125.289 70.896 125.289 73.332C125.289 75.782 124.267 77.168 122.419 77.168C121.453 77.168 120.683 76.608 120.403 75.782H120.347V77H118.555ZM121.845 75.684C122.769 75.684 123.413 75.012 123.413 73.976V72.716C123.413 71.68 122.769 70.994 121.845 70.994C120.991 70.994 120.347 71.456 120.347 72.17V74.494C120.347 75.25 120.991 75.684 121.845 75.684ZM129.868 77H128.902C127.684 77 127.11 76.356 127.11 75.236V66.64H128.902V75.572H129.868V77ZM132.281 68.628C131.539 68.628 131.231 68.25 131.231 67.732V67.452C131.231 66.934 131.539 66.556 132.281 66.556C133.009 66.556 133.331 66.934 133.331 67.452V67.732C133.331 68.25 133.009 68.628 132.281 68.628ZM131.385 77V69.692H133.177V77H131.385ZM138.298 77.168C136.142 77.168 134.924 75.684 134.924 73.332C134.924 70.994 136.142 69.524 138.298 69.524C139.768 69.524 140.734 70.224 141.168 71.372L139.698 72.03C139.53 71.414 139.068 70.966 138.298 70.966C137.304 70.966 136.8 71.666 136.8 72.688V74.018C136.8 75.04 137.304 75.726 138.298 75.726C139.152 75.726 139.572 75.236 139.838 74.578L141.21 75.236C140.734 76.524 139.712 77.168 138.298 77.168ZM152.072 77L149.132 71.988L148.124 69.958H148.082V77H146.332V67.228H148.362L151.302 72.24L152.31 74.27H152.352V67.228H154.102V77H152.072ZM159.397 77.168C157.241 77.168 155.953 75.67 155.953 73.332C155.953 71.022 157.199 69.524 159.341 69.524C161.623 69.524 162.673 71.204 162.673 73.206V73.794H157.815V73.976C157.815 75.026 158.417 75.74 159.593 75.74C160.475 75.74 161.007 75.32 161.455 74.746L162.421 75.824C161.819 76.65 160.755 77.168 159.397 77.168ZM159.369 70.868C158.431 70.868 157.815 71.568 157.815 72.576V72.688H160.811V72.562C160.811 71.554 160.293 70.868 159.369 70.868ZM166.692 77C165.46 77 164.802 76.328 164.802 75.138V71.12H163.724V69.692H164.284C164.816 69.692 164.984 69.44 164.984 68.936V67.69H166.594V69.692H168.092V71.12H166.594V75.572H167.98V77H166.692ZM171.108 77L169.092 69.692H170.814L171.556 72.702L172.13 75.208H172.186L172.858 72.702L173.712 69.692H175.336L176.218 72.702L176.904 75.208H176.96L177.534 72.702L178.262 69.692H179.928L177.926 77H175.994L175.056 73.78L174.51 71.792H174.468L173.936 73.78L173.012 77H171.108ZM184.212 77.168C182.126 77.168 180.824 75.684 180.824 73.332C180.824 70.994 182.126 69.524 184.212 69.524C186.312 69.524 187.614 70.994 187.614 73.332C187.614 75.684 186.312 77.168 184.212 77.168ZM184.212 75.726C185.15 75.726 185.738 75.124 185.738 74.018V72.66C185.738 71.568 185.15 70.966 184.212 70.966C183.288 70.966 182.7 71.568 182.7 72.66V74.018C182.7 75.124 183.288 75.726 184.212 75.726ZM191.154 77H189.362V69.692H191.154V71.204H191.224C191.406 70.434 191.994 69.692 193.156 69.692H193.548V71.386H192.988C191.784 71.386 191.154 71.722 191.154 72.52V77ZM195.018 77V66.64H196.81V72.884H196.88L197.846 71.568L199.484 69.692H201.514L198.994 72.52L201.78 77H199.652L197.776 73.724L196.81 74.774V77H195.018Z" fill="black"/>
<g clip-path="url(#clip1_3603_4487)">
<rect width="20" height="20" transform="translate(64 62)" fill="white" fill-opacity="0.01" style="mix-blend-mode:multiply"/>
<path d="M74 74.5C73.5055 74.5 73.0222 74.3534 72.6111 74.0787C72.2 73.804 71.8795 73.4135 71.6903 72.9567C71.5011 72.4999 71.4516 71.9972 71.548 71.5123C71.6445 71.0273 71.8826 70.5819 72.2322 70.2322C72.5819 69.8826 73.0273 69.6445 73.5123 69.548C73.9972 69.4516 74.4999 69.5011 74.9567 69.6903C75.4135 69.8795 75.804 70.2 76.0787 70.6111C76.3534 71.0222 76.5 71.5055 76.5 72C76.4993 72.6628 76.2356 73.2983 75.7669 73.7669C75.2983 74.2356 74.6628 74.4993 74 74.5ZM74 70.75C73.7528 70.75 73.5111 70.8233 73.3055 70.9607C73.1 71.098 72.9398 71.2932 72.8452 71.5216C72.7505 71.7501 72.7258 72.0014 72.774 72.2439C72.8223 72.4863 72.9413 72.7091 73.1161 72.8839C73.2909 73.0587 73.5137 73.1778 73.7561 73.226C73.9986 73.2742 74.2499 73.2495 74.4784 73.1549C74.7068 73.0602 74.902 72.9 75.0393 72.6945C75.1767 72.4889 75.25 72.2472 75.25 72C75.2497 71.6686 75.1178 71.3508 74.8835 71.1165C74.6492 70.8822 74.3314 70.7503 74 70.75Z" fill="black"/>
<path d="M67.125 74.5C66.6305 74.5 66.1472 74.3534 65.7361 74.0787C65.325 73.804 65.0045 73.4135 64.8153 72.9567C64.6261 72.4999 64.5766 71.9972 64.673 71.5123C64.7695 71.0273 65.0076 70.5819 65.3572 70.2322C65.7069 69.8826 66.1523 69.6445 66.6373 69.548C67.1222 69.4516 67.6249 69.5011 68.0817 69.6903C68.5385 69.8795 68.929 70.2 69.2037 70.6111C69.4784 71.0222 69.625 71.5055 69.625 72C69.6243 72.6628 69.3606 73.2983 68.8919 73.7669C68.4233 74.2356 67.7878 74.4993 67.125 74.5ZM67.125 70.75C66.8778 70.75 66.6361 70.8233 66.4305 70.9607C66.225 71.098 66.0648 71.2932 65.9702 71.5216C65.8755 71.7501 65.8508 72.0014 65.899 72.2439C65.9473 72.4863 66.0663 72.7091 66.2411 72.8839C66.4159 73.0587 66.6387 73.1778 66.8811 73.226C67.1236 73.2742 67.3749 73.2495 67.6034 73.1549C67.8318 73.0602 68.027 72.9 68.1643 72.6945C68.3017 72.4889 68.375 72.2472 68.375 72C68.3746 71.6686 68.2428 71.3509 68.0085 71.1165C67.7741 70.8822 67.4564 70.7504 67.125 70.75Z" fill="black"/>
<path d="M70.25 81.375C69.7555 81.375 69.2722 81.2284 68.8611 80.9537C68.45 80.679 68.1295 80.2885 67.9403 79.8317C67.7511 79.3749 67.7016 78.8722 67.798 78.3873C67.8945 77.9023 68.1326 77.4569 68.4822 77.1072C68.8319 76.7576 69.2773 76.5195 69.7623 76.423C70.2472 76.3266 70.7499 76.3761 71.2067 76.5653C71.6635 76.7545 72.054 77.075 72.3287 77.4861C72.6034 77.8972 72.75 78.3805 72.75 78.875C72.7493 79.5378 72.4856 80.1733 72.0169 80.6419C71.5483 81.1106 70.9128 81.3743 70.25 81.375ZM70.25 77.625C70.0028 77.625 69.7611 77.6983 69.5555 77.8357C69.35 77.973 69.1898 78.1682 69.0952 78.3966C69.0005 78.6251 68.9758 78.8764 69.024 79.1189C69.0723 79.3613 69.1913 79.5841 69.3661 79.7589C69.5409 79.9337 69.7637 80.0527 70.0061 80.101C70.2486 80.1492 70.4999 80.1245 70.7284 80.0299C70.9568 79.9352 71.152 79.775 71.2893 79.5695C71.4267 79.3639 71.5 79.1222 71.5 78.875C71.4997 78.5436 71.3678 78.2258 71.1335 77.9915C70.8992 77.7572 70.5814 77.6253 70.25 77.625Z" fill="black"/>
<path d="M77.75 81.375C77.2555 81.375 76.7722 81.2284 76.3611 80.9537C75.95 80.679 75.6295 80.2885 75.4403 79.8317C75.2511 79.3749 75.2016 78.8722 75.298 78.3873C75.3945 77.9023 75.6326 77.4569 75.9822 77.1072C76.3319 76.7576 76.7773 76.5195 77.2623 76.423C77.7472 76.3266 78.2499 76.3761 78.7067 76.5653C79.1635 76.7545 79.554 77.075 79.8287 77.4861C80.1034 77.8972 80.25 78.3805 80.25 78.875C80.2493 79.5378 79.9856 80.1733 79.5169 80.6419C79.0483 81.1106 78.4128 81.3743 77.75 81.375ZM77.75 77.625C77.5028 77.625 77.2611 77.6983 77.0555 77.8357C76.85 77.973 76.6898 78.1682 76.5952 78.3966C76.5005 78.6251 76.4758 78.8764 76.524 79.1189C76.5722 79.3613 76.6913 79.5841 76.8661 79.7589C77.0409 79.9337 77.2637 80.0527 77.5061 80.101C77.7486 80.1492 77.9999 80.1245 78.2284 80.0299C78.4568 79.9352 78.652 79.775 78.7893 79.5695C78.9267 79.3639 79 79.1222 79 78.875C78.9997 78.5436 78.8678 78.2258 78.6335 77.9915C78.3992 77.7572 78.0814 77.6253 77.75 77.625Z" fill="black"/>
<path d="M80.875 74.5C80.3805 74.5 79.8972 74.3534 79.4861 74.0787C79.075 73.804 78.7545 73.4135 78.5653 72.9567C78.3761 72.4999 78.3266 71.9972 78.423 71.5123C78.5195 71.0273 78.7576 70.5819 79.1072 70.2322C79.4569 69.8826 79.9023 69.6445 80.3873 69.548C80.8722 69.4516 81.3749 69.5011 81.8317 69.6903C82.2885 69.8795 82.679 70.2 82.9537 70.6111C83.2284 71.0222 83.375 71.5055 83.375 72C83.3743 72.6628 83.1106 73.2983 82.6419 73.7669C82.1733 74.2356 81.5378 74.4993 80.875 74.5ZM80.875 70.75C80.6278 70.75 80.3861 70.8233 80.1805 70.9607C79.975 71.098 79.8148 71.2932 79.7201 71.5216C79.6255 71.7501 79.6008 72.0014 79.649 72.2439C79.6972 72.4863 79.8163 72.7091 79.9911 72.8839C80.1659 73.0587 80.3887 73.1778 80.6311 73.226C80.8736 73.2742 81.1249 73.2495 81.3534 73.1549C81.5818 73.0602 81.777 72.9 81.9143 72.6945C82.0517 72.4889 82.125 72.2472 82.125 72C82.1247 71.6686 81.9928 71.3508 81.7585 71.1165C81.5242 70.8822 81.2064 70.7503 80.875 70.75Z" fill="black"/>
<path d="M77.75 67.625C77.2555 67.625 76.7722 67.4784 76.3611 67.2037C75.95 66.929 75.6295 66.5385 75.4403 66.0817C75.2511 65.6249 75.2016 65.1222 75.298 64.6373C75.3945 64.1523 75.6326 63.7069 75.9822 63.3572C76.3319 63.0076 76.7773 62.7695 77.2623 62.673C77.7472 62.5766 78.2499 62.6261 78.7067 62.8153C79.1635 63.0045 79.554 63.325 79.8287 63.7361C80.1034 64.1472 80.25 64.6305 80.25 65.125C80.2493 65.7878 79.9856 66.4233 79.5169 66.8919C79.0483 67.3606 78.4128 67.6243 77.75 67.625ZM77.75 63.875C77.5028 63.875 77.2611 63.9483 77.0555 64.0857C76.85 64.223 76.6898 64.4182 76.5952 64.6466C76.5005 64.8751 76.4758 65.1264 76.524 65.3689C76.5722 65.6113 76.6913 65.8341 76.8661 66.0089C77.0409 66.1837 77.2637 66.3028 77.5061 66.351C77.7486 66.3992 77.9999 66.3745 78.2284 66.2799C78.4568 66.1852 78.652 66.025 78.7893 65.8195C78.9267 65.6139 79 65.3722 79 65.125C78.9997 64.7936 78.8678 64.4758 78.6335 64.2415C78.3992 64.0072 78.0814 63.8753 77.75 63.875Z" fill="black"/>
<path d="M70.25 67.625C69.7555 67.625 69.2722 67.4784 68.8611 67.2037C68.45 66.929 68.1295 66.5385 67.9403 66.0817C67.7511 65.6249 67.7016 65.1222 67.798 64.6373C67.8945 64.1523 68.1326 63.7069 68.4822 63.3572C68.8319 63.0076 69.2773 62.7695 69.7623 62.673C70.2472 62.5766 70.7499 62.6261 71.2067 62.8153C71.6635 63.0045 72.054 63.325 72.3287 63.7361C72.6034 64.1472 72.75 64.6305 72.75 65.125C72.7493 65.7878 72.4856 66.4233 72.0169 66.8919C71.5483 67.3606 70.9128 67.6243 70.25 67.625ZM70.25 63.875C70.0028 63.875 69.7611 63.9483 69.5555 64.0857C69.35 64.223 69.1898 64.4182 69.0952 64.6466C69.0005 64.8751 68.9758 65.1264 69.024 65.3689C69.0723 65.6113 69.1913 65.8341 69.3661 66.0089C69.5409 66.1837 69.7637 66.3028 70.0061 66.351C70.2486 66.3992 70.4999 66.3745 70.7284 66.2799C70.9568 66.1852 71.152 66.025 71.2893 65.8195C71.4267 65.6139 71.5 65.3722 71.5 65.125C71.4997 64.7936 71.3678 64.4758 71.1335 64.2415C70.8992 64.0072 70.5814 63.8753 70.25 63.875Z" fill="black"/>
</g>
<line x1="50" y1="48" x2="50" y2="96" stroke="#8D8D8D" stroke-width="4"/>
</g>
<rect x="48.5" y="48.5" width="239" height="479" stroke="#8D8D8D"/>
<rect width="89" height="74" transform="translate(124 288)" fill="white" style="mix-blend-mode:multiply"/>
<rect x="144.5" y="288" width="48" height="48" rx="8" fill="#0F62FE"/>
<rect width="20" height="20" transform="translate(158.5 302)" fill="white" fill-opacity="0.01" style="mix-blend-mode:multiply"/>
<path d="M176 304.5H161C160.668 304.5 160.351 304.632 160.116 304.866C159.882 305.101 159.75 305.418 159.75 305.75V315.75C159.75 316.082 159.882 316.399 160.116 316.634C160.351 316.868 160.668 317 161 317H166V319.5H163.5V320.75H173.5V319.5H171V317H176C176.332 317 176.649 316.868 176.884 316.634C177.118 316.399 177.25 316.082 177.25 315.75V305.75C177.25 305.418 177.118 305.101 176.884 304.866C176.649 304.632 176.332 304.5 176 304.5ZM169.75 319.5H167.25V317H169.75V319.5ZM176 315.75H161V305.75H176V315.75Z" fill="white"/>
<path d="M129.092 358H126.992L124.724 348.228H126.572L127.538 352.918L128.14 355.914H128.182L128.882 352.918L130.002 348.228H132.046L133.166 352.918L133.852 355.914H133.894L134.51 352.918L135.504 348.228H137.268L134.93 358H132.844L131.598 352.834L130.996 350.258H130.968L130.338 352.834L129.092 358ZM141.485 358.168C139.329 358.168 138.041 356.67 138.041 354.332C138.041 352.022 139.287 350.524 141.429 350.524C143.711 350.524 144.761 352.204 144.761 354.206V354.794H139.903V354.976C139.903 356.026 140.505 356.74 141.681 356.74C142.563 356.74 143.095 356.32 143.543 355.746L144.509 356.824C143.907 357.65 142.843 358.168 141.485 358.168ZM141.457 351.868C140.519 351.868 139.903 352.568 139.903 353.576V353.688H142.899V353.562C142.899 352.554 142.381 351.868 141.457 351.868ZM146.497 358V347.64H148.289V351.896H148.345C148.611 351.056 149.395 350.524 150.361 350.524C152.209 350.524 153.231 351.896 153.231 354.332C153.231 356.782 152.209 358.168 150.361 358.168C149.395 358.168 148.625 357.608 148.345 356.782H148.289V358H146.497ZM149.787 356.684C150.711 356.684 151.355 356.012 151.355 354.976V353.716C151.355 352.68 150.711 351.994 149.787 351.994C148.933 351.994 148.289 352.456 148.289 353.17V355.494C148.289 356.25 148.933 356.684 149.787 356.684ZM158.633 358V348.228H163.155C164.765 348.228 165.745 349.222 165.745 350.734C165.745 352.218 164.891 352.778 163.995 352.834V352.918C164.849 352.932 166.109 353.534 166.109 355.2C166.109 356.768 165.031 358 163.589 358H158.633ZM160.481 353.814V356.432H163.057C163.757 356.432 164.177 356.054 164.177 355.368V354.892C164.177 354.206 163.757 353.814 163.057 353.814H160.481ZM160.481 349.796V352.302H162.763C163.435 352.302 163.827 351.91 163.827 351.266V350.832C163.827 350.174 163.435 349.796 162.763 349.796H160.481ZM169.756 358H167.964V350.692H169.756V352.204H169.826C170.008 351.434 170.596 350.692 171.758 350.692H172.15V352.386H171.59C170.386 352.386 169.756 352.722 169.756 353.52V358ZM176.449 358.168C174.363 358.168 173.061 356.684 173.061 354.332C173.061 351.994 174.363 350.524 176.449 350.524C178.549 350.524 179.851 351.994 179.851 354.332C179.851 356.684 178.549 358.168 176.449 358.168ZM176.449 356.726C177.387 356.726 177.975 356.124 177.975 355.018V353.66C177.975 352.568 177.387 351.966 176.449 351.966C175.525 351.966 174.937 352.568 174.937 353.66V355.018C174.937 356.124 175.525 356.726 176.449 356.726ZM182.779 358L180.763 350.692H182.485L183.227 353.702L183.801 356.208H183.857L184.529 353.702L185.383 350.692H187.007L187.889 353.702L188.575 356.208H188.631L189.205 353.702L189.933 350.692H191.599L189.597 358H187.665L186.727 354.78L186.181 352.792H186.139L185.607 354.78L184.683 358H182.779ZM195.461 358.168C194.075 358.168 193.165 357.664 192.437 356.824L193.529 355.76C194.061 356.376 194.705 356.754 195.531 356.754C196.385 356.754 196.749 356.432 196.749 355.914C196.749 355.494 196.497 355.228 195.853 355.144L195.125 355.046C193.557 354.85 192.689 354.164 192.689 352.834C192.689 351.42 193.795 350.524 195.461 350.524C196.889 350.524 197.617 350.944 198.317 351.672L197.267 352.722C196.847 352.274 196.231 351.938 195.517 351.938C194.747 351.938 194.411 352.246 194.411 352.694C194.411 353.184 194.677 353.408 195.363 353.52L196.105 353.618C197.701 353.842 198.471 354.556 198.471 355.774C198.471 357.188 197.281 358.168 195.461 358.168ZM203.167 358.168C201.011 358.168 199.723 356.67 199.723 354.332C199.723 352.022 200.969 350.524 203.111 350.524C205.393 350.524 206.443 352.204 206.443 354.206V354.794H201.585V354.976C201.585 356.026 202.187 356.74 203.363 356.74C204.245 356.74 204.777 356.32 205.225 355.746L206.191 356.824C205.589 357.65 204.525 358.168 203.167 358.168ZM203.139 351.868C202.201 351.868 201.585 352.568 201.585 353.576V353.688H204.581V353.562C204.581 352.554 204.063 351.868 203.139 351.868ZM209.972 358H208.18V350.692H209.972V352.204H210.042C210.224 351.434 210.812 350.692 211.974 350.692H212.366V352.386H211.806C210.602 352.386 209.972 352.722 209.972 353.52V358Z" fill="black"/>
<rect x="384.5" y="48.5" width="575" height="479" fill="white"/>
<rect x="385" y="49" width="574" height="478" fill="#EDF5FF"/>
<g clip-path="url(#clip2_3603_4487)">
<path d="M441.18 77H436.742V75.516H438.03V68.712H436.742V67.228H441.18V68.712H439.878V75.516H441.18V77ZM443.228 77V67.228H447.75C449.36 67.228 450.34 68.222 450.34 69.734C450.34 71.218 449.486 71.778 448.59 71.834V71.918C449.444 71.932 450.704 72.534 450.704 74.2C450.704 75.768 449.626 77 448.184 77H443.228ZM445.076 72.814V75.432H447.652C448.352 75.432 448.772 75.054 448.772 74.368V73.892C448.772 73.206 448.352 72.814 447.652 72.814H445.076ZM445.076 68.796V71.302H447.358C448.03 71.302 448.422 70.91 448.422 70.266V69.832C448.422 69.174 448.03 68.796 447.358 68.796H445.076ZM452.671 77V67.228H454.757L457.263 72.002H457.319L459.797 67.228H461.799V77H460.049V69.986H459.993L459.237 71.54L457.235 75.236L455.233 71.54L454.477 69.986H454.421V77H452.671ZM471.523 77.168C468.947 77.168 467.309 75.474 467.309 72.184C467.309 68.894 468.947 67.06 471.523 67.06C473.273 67.06 474.407 67.802 475.093 69.314L473.511 70.154C473.231 69.286 472.615 68.698 471.523 68.698C470.151 68.698 469.269 69.692 469.269 71.358V72.898C469.269 74.578 470.151 75.53 471.523 75.53C472.629 75.53 473.315 74.858 473.637 73.976L475.135 74.858C474.435 76.314 473.273 77.168 471.523 77.168ZM479.518 77H478.552C477.334 77 476.76 76.356 476.76 75.236V66.64H478.552V75.572H479.518V77ZM483.933 77.168C481.847 77.168 480.545 75.684 480.545 73.332C480.545 70.994 481.847 69.524 483.933 69.524C486.033 69.524 487.335 70.994 487.335 73.332C487.335 75.684 486.033 77.168 483.933 77.168ZM483.933 75.726C484.871 75.726 485.459 75.124 485.459 74.018V72.66C485.459 71.568 484.871 70.966 483.933 70.966C483.009 70.966 482.421 71.568 482.421 72.66V74.018C482.421 75.124 483.009 75.726 483.933 75.726ZM493.452 77V75.782H493.382C493.13 76.51 492.542 77.168 491.338 77.168C489.84 77.168 489 76.132 489 74.312V69.692H490.792V74.13C490.792 75.138 491.17 75.684 492.024 75.684C492.738 75.684 493.452 75.306 493.452 74.522V69.692H495.244V77H493.452ZM502.01 77V75.782H501.94C501.674 76.608 500.89 77.168 499.924 77.168C498.09 77.168 497.068 75.782 497.068 73.332C497.068 70.896 498.09 69.524 499.924 69.524C500.89 69.524 501.688 70.056 501.94 70.896H502.01V66.64H503.802V77H502.01ZM500.498 75.684C501.352 75.684 502.01 75.25 502.01 74.494V72.17C502.01 71.456 501.352 70.994 500.498 70.994C499.574 70.994 498.944 71.68 498.944 72.716V73.976C498.944 75.012 499.574 75.684 500.498 75.684Z" fill="black"/>
<g clip-path="url(#clip3_3603_4487)">
<rect width="20" height="20" transform="translate(400 62)" fill="white" fill-opacity="0.01" style="mix-blend-mode:multiply"/>
<path d="M415.363 70.5313C414.742 69.3673 413.759 68.4369 412.563 67.8802C411.367 67.3235 410.022 67.1709 408.732 67.4452C407.441 67.7195 406.275 68.4059 405.408 69.401C404.542 70.396 404.023 71.6457 403.929 72.9617C402.856 73.0771 401.867 73.5995 401.168 74.4213C400.468 75.2431 400.11 76.3019 400.167 77.3797C400.224 78.4576 400.692 79.4725 401.475 80.2157C402.258 80.9589 403.296 81.3738 404.375 81.375H414.375C415.74 81.3759 417.055 80.8663 418.063 79.9466C419.071 79.0268 419.699 77.7633 419.822 76.4044C419.946 75.0455 419.557 73.6894 418.732 72.6026C417.907 71.5159 416.705 70.777 415.363 70.5313ZM414.375 80.4375H404.375C403.543 80.4394 402.742 80.1248 402.134 79.5576C401.526 78.9903 401.157 78.2129 401.102 77.3832C401.046 76.5535 401.308 75.7338 401.835 75.0904C402.362 74.4471 403.114 74.0283 403.938 73.9192C404.004 74.7463 404.239 75.5511 404.628 76.2841C404.656 76.34 404.695 76.3896 404.743 76.4302C404.79 76.4707 404.846 76.5013 404.905 76.5202C404.965 76.539 405.028 76.5457 405.09 76.5399C405.152 76.534 405.213 76.5158 405.268 76.4862C405.323 76.4566 405.372 76.4163 405.411 76.3676C405.45 76.3189 405.479 76.2628 405.497 76.2027C405.514 76.1426 405.519 76.0796 405.512 76.0175C405.504 75.9553 405.485 75.8953 405.454 75.841C404.834 74.6827 404.68 73.3317 405.023 72.0636C405.365 70.7955 406.179 69.7061 407.298 69.0176C408.416 68.3292 409.756 68.0936 411.042 68.359C412.329 68.6244 413.465 69.3708 414.22 70.4458C413.471 70.4665 412.734 70.6408 412.055 70.958C411.376 71.2751 410.77 71.7284 410.273 72.2896C410.231 72.3355 410.198 72.3894 410.177 72.4481C410.156 72.5068 410.147 72.5691 410.15 72.6314C410.153 72.6937 410.169 72.7548 410.196 72.811C410.223 72.8672 410.261 72.9174 410.308 72.9587C410.355 73 410.409 73.0315 410.468 73.0514C410.527 73.0714 410.59 73.0793 410.652 73.0747C410.714 73.0701 410.775 73.0532 410.831 73.0249C410.886 72.9965 410.936 72.9574 410.976 72.9097C411.477 72.3417 412.112 71.9083 412.823 71.649C413.535 71.3897 414.3 71.3128 415.049 71.4254C415.797 71.538 416.506 71.8364 417.11 72.2934C417.713 72.7504 418.193 73.3514 418.505 74.0415C418.816 74.7317 418.95 75.4889 418.894 76.244C418.837 76.9991 418.592 77.728 418.182 78.3641C417.771 79.0003 417.207 79.5233 416.542 79.8855C415.877 80.2477 415.132 80.4375 414.375 80.4375Z" fill="black"/>
<path d="M419.936 68.4093C419.905 68.3553 419.864 68.308 419.815 68.2701C419.765 68.2322 419.709 68.2044 419.649 68.1883C419.588 68.1721 419.526 68.168 419.464 68.1762C419.402 68.1844 419.343 68.2046 419.289 68.2358L417.401 69.3257C417.346 69.356 417.297 69.3971 417.258 69.4465C417.218 69.496 417.189 69.5528 417.172 69.6136C417.155 69.6744 417.15 69.7381 417.158 69.8007C417.166 69.8634 417.186 69.9239 417.218 69.9786C417.25 70.0334 417.292 70.0812 417.342 70.1194C417.392 70.1576 417.45 70.1854 417.511 70.201C417.572 70.2167 417.636 70.22 417.699 70.2107C417.761 70.2014 417.821 70.1797 417.875 70.1469L419.763 69.057C419.871 68.9942 419.951 68.8906 419.984 68.7692C420.016 68.6477 419.999 68.5182 419.936 68.4093Z" fill="black"/>
<path d="M414.173 66.9188C414.227 66.95 414.286 66.9702 414.348 66.9783C414.41 66.9865 414.472 66.9824 414.533 66.9663C414.593 66.9502 414.649 66.9224 414.699 66.8844C414.748 66.8465 414.789 66.7992 414.821 66.7453L415.91 64.8578C415.972 64.7489 415.988 64.6201 415.956 64.4993C415.923 64.3786 415.843 64.2757 415.735 64.2131C415.627 64.1505 415.498 64.1333 415.377 64.1652C415.256 64.1972 415.153 64.2756 415.089 64.3835L413.999 66.271C413.936 66.3799 413.919 66.5094 413.952 66.6308C413.984 66.7523 414.064 66.8559 414.173 66.9188Z" fill="black"/>
<path d="M410 65.8007C410.126 65.8007 410.246 65.7507 410.335 65.6618C410.424 65.5728 410.474 65.4522 410.474 65.3265V63.1467C410.475 63.084 410.463 63.0217 410.44 62.9636C410.416 62.9054 410.381 62.8525 410.337 62.8079C410.293 62.7632 410.241 62.7278 410.183 62.7036C410.125 62.6795 410.063 62.667 410 62.667C409.937 62.667 409.875 62.6795 409.817 62.7036C409.759 62.7278 409.707 62.7632 409.663 62.8079C409.619 62.8525 409.584 62.9054 409.56 62.9636C409.537 63.0217 409.525 63.084 409.526 63.1467V65.3265C409.526 65.4522 409.576 65.5728 409.665 65.6618C409.754 65.7507 409.874 65.8007 410 65.8007Z" fill="black"/>
<path d="M405.18 66.7452C405.243 66.8531 405.346 66.9315 405.467 66.9634C405.588 66.9954 405.717 66.9782 405.826 66.9156C405.934 66.853 406.013 66.7501 406.046 66.6294C406.079 66.5086 406.063 66.3797 406.001 66.2709L404.911 64.3834C404.88 64.329 404.839 64.2812 404.789 64.2429C404.74 64.2045 404.683 64.1763 404.623 64.1599C404.563 64.1435 404.5 64.1392 404.437 64.1472C404.375 64.1553 404.316 64.1755 404.261 64.2068C404.207 64.2381 404.16 64.2798 404.122 64.3295C404.084 64.3792 404.056 64.436 404.04 64.4965C404.024 64.557 404.02 64.62 404.029 64.682C404.037 64.744 404.058 64.8037 404.09 64.8577L405.18 66.7452Z" fill="black"/>
<path d="M402.599 69.3257L400.712 68.2358C400.658 68.2041 400.598 68.1834 400.536 68.1749C400.474 68.1663 400.411 68.1702 400.35 68.1861C400.29 68.2021 400.233 68.2299 400.183 68.2679C400.134 68.3059 400.092 68.3533 400.061 68.4075C400.029 68.4617 400.009 68.5215 400.001 68.5836C399.993 68.6456 399.997 68.7087 400.014 68.769C400.03 68.8294 400.058 68.8859 400.097 68.9354C400.135 68.9848 400.183 69.0261 400.237 69.057L402.125 70.1469C402.179 70.1786 402.239 70.1993 402.301 70.2078C402.363 70.2163 402.426 70.2125 402.486 70.1966C402.547 70.1806 402.603 70.1528 402.653 70.1148C402.703 70.0768 402.745 70.0294 402.776 69.9752C402.807 69.921 402.827 69.8612 402.835 69.7991C402.844 69.7371 402.839 69.674 402.823 69.6137C402.806 69.5533 402.778 69.4967 402.74 69.4473C402.701 69.3979 402.653 69.3565 402.599 69.3257Z" fill="black"/>
</g>
<line x1="386" y1="48" x2="386" y2="96" stroke="#0F62FE" stroke-width="4"/>
</g>
<rect x="384.5" y="48.5" width="575" height="479" stroke="#0F62FE"/>
<rect x="480.5" y="144.5" width="191" height="143" fill="white"/>
<rect x="481" y="145" width="190" height="142" fill="#E5F6FF"/>
<g clip-path="url(#clip4_3603_4487)">
<path d="M548.942 173.168C546.366 173.168 544.728 171.474 544.728 168.184C544.728 164.894 546.366 163.06 548.942 163.06C550.692 163.06 551.826 163.802 552.512 165.314L550.93 166.154C550.65 165.286 550.034 164.698 548.942 164.698C547.57 164.698 546.688 165.692 546.688 167.358V168.898C546.688 170.578 547.57 171.53 548.942 171.53C550.048 171.53 550.734 170.858 551.056 169.976L552.554 170.858C551.854 172.314 550.692 173.168 548.942 173.168ZM557.076 173.168C554.99 173.168 553.688 171.684 553.688 169.332C553.688 166.994 554.99 165.524 557.076 165.524C559.176 165.524 560.478 166.994 560.478 169.332C560.478 171.684 559.176 173.168 557.076 173.168ZM557.076 171.726C558.014 171.726 558.602 171.124 558.602 170.018V168.66C558.602 167.568 558.014 166.966 557.076 166.966C556.152 166.966 555.564 167.568 555.564 168.66V170.018C555.564 171.124 556.152 171.726 557.076 171.726ZM566.763 173V171.782H566.693C566.427 172.608 565.643 173.168 564.677 173.168C562.843 173.168 561.821 171.782 561.821 169.332C561.821 166.896 562.843 165.524 564.677 165.524C565.643 165.524 566.441 166.056 566.693 166.896H566.763V162.64H568.555V173H566.763ZM565.251 171.684C566.105 171.684 566.763 171.25 566.763 170.494V168.17C566.763 167.456 566.105 166.994 565.251 166.994C564.327 166.994 563.697 167.68 563.697 168.716V169.976C563.697 171.012 564.327 171.684 565.251 171.684ZM573.736 173.168C571.58 173.168 570.292 171.67 570.292 169.332C570.292 167.022 571.538 165.524 573.68 165.524C575.962 165.524 577.012 167.204 577.012 169.206V169.794H572.154V169.976C572.154 171.026 572.756 171.74 573.932 171.74C574.814 171.74 575.346 171.32 575.794 170.746L576.76 171.824C576.158 172.65 575.094 173.168 573.736 173.168ZM573.708 166.868C572.77 166.868 572.154 167.568 572.154 168.576V168.688H575.15V168.562C575.15 167.554 574.632 166.868 573.708 166.868ZM588.769 173H582.329V163.228H588.769V164.866H584.177V167.232H588.237V168.87H584.177V171.362H588.769V173ZM592.563 173H590.771V165.692H592.563V166.91H592.633C592.927 166.126 593.543 165.524 594.677 165.524C596.175 165.524 597.015 166.56 597.015 168.38V173H595.223V168.562C595.223 167.526 594.873 166.994 594.019 166.994C593.277 166.994 592.563 167.386 592.563 168.17V173ZM605.756 173.616C605.756 175.142 604.72 175.968 601.92 175.968C599.456 175.968 598.518 175.324 598.518 174.246C598.518 173.434 599.008 172.972 599.82 172.846V172.692C599.218 172.538 598.882 172.062 598.882 171.474C598.882 170.718 599.526 170.34 600.226 170.186V170.13C599.344 169.724 598.896 168.968 598.896 168.002C598.896 166.518 599.946 165.524 601.92 165.524C602.368 165.524 602.83 165.58 603.194 165.706V165.468C603.194 164.754 603.558 164.404 604.23 164.404H605.364V165.776H603.81V165.972C604.566 166.392 604.944 167.106 604.944 168.002C604.944 169.472 603.908 170.452 601.92 170.452C601.5 170.452 601.122 170.41 600.8 170.326C600.52 170.452 600.282 170.662 600.282 170.984C600.282 171.348 600.59 171.53 601.234 171.53H603.194C604.986 171.53 605.756 172.3 605.756 173.616ZM604.076 173.826C604.076 173.364 603.74 173.084 602.83 173.084H600.338C600.072 173.28 599.96 173.546 599.96 173.84C599.96 174.4 600.38 174.736 601.5 174.736H602.396C603.558 174.736 604.076 174.442 604.076 173.826ZM601.92 169.234C602.774 169.234 603.236 168.842 603.236 168.114V167.876C603.236 167.134 602.774 166.756 601.92 166.756C601.066 166.756 600.604 167.134 600.604 167.876V168.114C600.604 168.842 601.066 169.234 601.92 169.234ZM607.847 164.628C607.105 164.628 606.797 164.25 606.797 163.732V163.452C606.797 162.934 607.105 162.556 607.847 162.556C608.575 162.556 608.897 162.934 608.897 163.452V163.732C608.897 164.25 608.575 164.628 607.847 164.628ZM606.951 173V165.692H608.743V173H606.951ZM612.772 173H610.98V165.692H612.772V166.91H612.842C613.136 166.126 613.752 165.524 614.886 165.524C616.384 165.524 617.224 166.56 617.224 168.38V173H615.432V168.562C615.432 167.526 615.082 166.994 614.228 166.994C613.486 166.994 612.772 167.386 612.772 168.17V173ZM622.324 173.168C620.168 173.168 618.88 171.67 618.88 169.332C618.88 167.022 620.126 165.524 622.268 165.524C624.55 165.524 625.6 167.204 625.6 169.206V169.794H620.742V169.976C620.742 171.026 621.344 171.74 622.52 171.74C623.402 171.74 623.934 171.32 624.382 170.746L625.348 171.824C624.746 172.65 623.682 173.168 622.324 173.168ZM622.296 166.868C621.358 166.868 620.742 167.568 620.742 168.576V168.688H623.738V168.562C623.738 167.554 623.22 166.868 622.296 166.868Z" fill="black"/>
<rect width="48" height="48" transform="translate(480 144)" fill="#1192E8"/>
<g clip-path="url(#clip5_3603_4487)">
<path d="M506.5 171.125V173.625H500.25V167.375H502.75V166.125H499.675C499.306 166.125 499 166.425 499 166.8V169.875H495.25V171.125H499V174.2C499 174.569 499.3 174.875 499.675 174.875H507.081C507.45 174.875 507.756 174.575 507.756 174.2V171.125H506.506H506.5Z" fill="white"/>
<path d="M502.75 163H495.25V164.25H502.75V163Z" fill="white"/>
<path d="M512.125 169.875H504.625C504.281 169.875 504 169.594 504 169.25V161.75C504 161.406 504.281 161.125 504.625 161.125H512.125C512.469 161.125 512.75 161.406 512.75 161.75V169.25C512.75 169.594 512.469 169.875 512.125 169.875ZM505.25 168.625H511.5V162.375H505.25V168.625Z" fill="white"/>
</g>
</g>
<rect x="480.5" y="144.5" width="191" height="143" stroke="#1192E8"/>
<rect x="480.5" y="336.5" width="191" height="143" fill="white"/>
<rect x="481" y="337" width="190" height="142" fill="#E5F6FF"/>
<g clip-path="url(#clip6_3603_4487)">
<path d="M548.942 365.168C546.366 365.168 544.728 363.474 544.728 360.184C544.728 356.894 546.366 355.06 548.942 355.06C550.692 355.06 551.826 355.802 552.512 357.314L550.93 358.154C550.65 357.286 550.034 356.698 548.942 356.698C547.57 356.698 546.688 357.692 546.688 359.358V360.898C546.688 362.578 547.57 363.53 548.942 363.53C550.048 363.53 550.734 362.858 551.056 361.976L552.554 362.858C551.854 364.314 550.692 365.168 548.942 365.168ZM556.936 365H555.97C554.752 365 554.178 364.356 554.178 363.236V354.64H555.97V363.572H556.936V365ZM561.352 365.168C559.266 365.168 557.964 363.684 557.964 361.332C557.964 358.994 559.266 357.524 561.352 357.524C563.452 357.524 564.754 358.994 564.754 361.332C564.754 363.684 563.452 365.168 561.352 365.168ZM561.352 363.726C562.29 363.726 562.878 363.124 562.878 362.018V360.66C562.878 359.568 562.29 358.966 561.352 358.966C560.428 358.966 559.84 359.568 559.84 360.66V362.018C559.84 363.124 560.428 363.726 561.352 363.726ZM570.87 365V363.782H570.8C570.548 364.51 569.96 365.168 568.756 365.168C567.258 365.168 566.418 364.132 566.418 362.312V357.692H568.21V362.13C568.21 363.138 568.588 363.684 569.442 363.684C570.156 363.684 570.87 363.306 570.87 362.522V357.692H572.662V365H570.87ZM579.429 365V363.782H579.359C579.093 364.608 578.309 365.168 577.343 365.168C575.509 365.168 574.487 363.782 574.487 361.332C574.487 358.896 575.509 357.524 577.343 357.524C578.309 357.524 579.107 358.056 579.359 358.896H579.429V354.64H581.221V365H579.429ZM577.917 363.684C578.771 363.684 579.429 363.25 579.429 362.494V360.17C579.429 359.456 578.771 358.994 577.917 358.994C576.993 358.994 576.363 359.68 576.363 360.716V361.976C576.363 363.012 576.993 363.684 577.917 363.684ZM588.876 365H587.028V355.228H593.314V356.866H588.876V359.232H592.74V360.87H588.876V365ZM597.63 365.168C595.544 365.168 594.242 363.684 594.242 361.332C594.242 358.994 595.544 357.524 597.63 357.524C599.73 357.524 601.032 358.994 601.032 361.332C601.032 363.684 599.73 365.168 597.63 365.168ZM597.63 363.726C598.568 363.726 599.156 363.124 599.156 362.018V360.66C599.156 359.568 598.568 358.966 597.63 358.966C596.706 358.966 596.118 359.568 596.118 360.66V362.018C596.118 363.124 596.706 363.726 597.63 363.726ZM607.149 365V363.782H607.079C606.827 364.51 606.239 365.168 605.035 365.168C603.537 365.168 602.697 364.132 602.697 362.312V357.692H604.489V362.13C604.489 363.138 604.867 363.684 605.721 363.684C606.435 363.684 607.149 363.306 607.149 362.522V357.692H608.941V365H607.149ZM612.963 365H611.171V357.692H612.963V358.91H613.033C613.327 358.126 613.943 357.524 615.077 357.524C616.575 357.524 617.415 358.56 617.415 360.38V365H615.623V360.562C615.623 359.526 615.273 358.994 614.419 358.994C613.677 358.994 612.963 359.386 612.963 360.17V365ZM624.098 365V363.782H624.028C623.762 364.608 622.978 365.168 622.012 365.168C620.178 365.168 619.156 363.782 619.156 361.332C619.156 358.896 620.178 357.524 622.012 357.524C622.978 357.524 623.776 358.056 624.028 358.896H624.098V354.64H625.89V365H624.098ZM622.586 363.684C623.44 363.684 624.098 363.25 624.098 362.494V360.17C624.098 359.456 623.44 358.994 622.586 358.994C621.662 358.994 621.032 359.68 621.032 360.716V361.976C621.032 363.012 621.662 363.684 622.586 363.684ZM629.908 365H628.116V357.692H629.908V359.204H629.978C630.16 358.434 630.748 357.692 631.91 357.692H632.302V359.386H631.742C630.538 359.386 629.908 359.722 629.908 360.52V365ZM637.088 361.556L638.362 357.692H640.042L637.102 366.302C636.738 367.352 636.22 367.8 635.016 367.8H633.938V366.372H635.254L635.59 365.35L632.972 357.692H634.75L636.024 361.556L636.5 363.404H636.584L637.088 361.556Z" fill="black"/>
<rect width="48" height="48" transform="translate(480 336)" fill="#1192E8"/>
<rect width="20" height="20" transform="translate(494 350)" fill="white" fill-opacity="0.01" style="mix-blend-mode:multiply"/>
<path d="M509.625 356.875V355.625H504.625V364.375H505.875V360.625H509V359.375H505.875V356.875H509.625Z" fill="white"/>
<path d="M503.375 364.375H499.625C499.293 364.375 498.976 364.243 498.741 364.009C498.507 363.774 498.375 363.457 498.375 363.125V356.875C498.375 356.543 498.507 356.226 498.741 355.991C498.976 355.757 499.293 355.625 499.625 355.625H503.375V356.875H499.625V363.125H503.375V364.375Z" fill="white"/>
</g>
<rect x="480.5" y="336.5" width="191" height="143" stroke="#1192E8"/>
<rect x="500.5" y="216.5" width="104" height="47" fill="white"/>
<rect x="501" y="217" width="103" height="46" fill="#F4F4F4"/>
<g clip-path="url(#clip7_3603_4487)">
<path d="M554.086 245.154C553.33 245.154 552.966 244.72 552.966 244.132V243.88C552.966 243.278 553.33 242.844 554.086 242.844C554.856 242.844 555.206 243.278 555.206 243.88V244.132C555.206 244.72 554.856 245.154 554.086 245.154ZM557.366 246.372V237.692H559.158V245.882C559.158 247.1 558.57 247.8 557.226 247.8H556.246V246.372H557.366ZM558.262 236.628C557.52 236.628 557.212 236.25 557.212 235.732V235.452C557.212 234.934 557.52 234.556 558.262 234.556C558.99 234.556 559.312 234.934 559.312 235.452V235.732C559.312 236.25 558.99 236.628 558.262 236.628ZM563.789 245.168C562.403 245.168 561.493 244.664 560.765 243.824L561.857 242.76C562.389 243.376 563.033 243.754 563.859 243.754C564.713 243.754 565.077 243.432 565.077 242.914C565.077 242.494 564.825 242.228 564.181 242.144L563.453 242.046C561.885 241.85 561.017 241.164 561.017 239.834C561.017 238.42 562.123 237.524 563.789 237.524C565.217 237.524 565.945 237.944 566.645 238.672L565.595 239.722C565.175 239.274 564.559 238.938 563.845 238.938C563.075 238.938 562.739 239.246 562.739 239.694C562.739 240.184 563.005 240.408 563.691 240.52L564.433 240.618C566.029 240.842 566.799 241.556 566.799 242.774C566.799 244.188 565.609 245.168 563.789 245.168Z" fill="black"/>
<rect width="20" height="20" transform="translate(516 230)" fill="white" fill-opacity="0.01" style="mix-blend-mode:multiply"/>
<path d="M535.375 240L531 244.375L530.119 243.494L533.606 240L530.119 236.506L531 235.625L535.375 240Z" fill="black"/>
<path d="M516.625 240L521 235.625L521.881 236.506L518.394 240L521.881 243.494L521 244.375L516.625 240Z" fill="black"/>
<path d="M527.024 233.751L523.762 245.927L524.969 246.251L528.232 234.074L527.024 233.751Z" fill="black"/>
<line x1="502" y1="216" x2="502" y2="264" stroke="#8D8D8D" stroke-width="4"/>
</g>
<rect x="500.5" y="216.5" width="104" height="47" stroke="#8D8D8D"/>
<rect x="500.5" y="408.5" width="104" height="47" fill="white"/>
<rect x="501" y="409" width="103" height="46" fill="#F4F4F4"/>
<g clip-path="url(#clip8_3603_4487)">
<path d="M554.086 437.154C553.33 437.154 552.966 436.72 552.966 436.132V435.88C552.966 435.278 553.33 434.844 554.086 434.844C554.856 434.844 555.206 435.278 555.206 435.88V436.132C555.206 436.72 554.856 437.154 554.086 437.154ZM557.366 438.372V429.692H559.158V437.882C559.158 439.1 558.57 439.8 557.226 439.8H556.246V438.372H557.366ZM558.262 428.628C557.52 428.628 557.212 428.25 557.212 427.732V427.452C557.212 426.934 557.52 426.556 558.262 426.556C558.99 426.556 559.312 426.934 559.312 427.452V427.732C559.312 428.25 558.99 428.628 558.262 428.628ZM563.789 437.168C562.403 437.168 561.493 436.664 560.765 435.824L561.857 434.76C562.389 435.376 563.033 435.754 563.859 435.754C564.713 435.754 565.077 435.432 565.077 434.914C565.077 434.494 564.825 434.228 564.181 434.144L563.453 434.046C561.885 433.85 561.017 433.164 561.017 431.834C561.017 430.42 562.123 429.524 563.789 429.524C565.217 429.524 565.945 429.944 566.645 430.672L565.595 431.722C565.175 431.274 564.559 430.938 563.845 430.938C563.075 430.938 562.739 431.246 562.739 431.694C562.739 432.184 563.005 432.408 563.691 432.52L564.433 432.618C566.029 432.842 566.799 433.556 566.799 434.774C566.799 436.188 565.609 437.168 563.789 437.168Z" fill="black"/>
<rect width="20" height="20" transform="translate(516 422)" fill="white" fill-opacity="0.01" style="mix-blend-mode:multiply"/>
<path d="M535.375 432L531 436.375L530.119 435.494L533.606 432L530.119 428.506L531 427.625L535.375 432Z" fill="black"/>
<path d="M516.625 432L521 427.625L521.881 428.506L518.394 432L521.881 435.494L521 436.375L516.625 432Z" fill="black"/>
<path d="M527.024 425.751L523.762 437.927L524.969 438.251L528.232 426.074L527.024 425.751Z" fill="black"/>
<line x1="502" y1="408" x2="502" y2="456" stroke="#8D8D8D" stroke-width="4"/>
</g>
<rect x="500.5" y="408.5" width="104" height="47" stroke="#8D8D8D"/>
<rect width="63" height="110" transform="translate(809 287)" fill="white" style="mix-blend-mode:multiply"/>
<rect x="816.5" y="287" width="48" height="48" rx="8" fill="#0F62FE"/>
<g clip-path="url(#clip9_3603_4487)">
<rect width="20" height="20" transform="translate(830.5 301)" fill="white" fill-opacity="0.01" style="mix-blend-mode:multiply"/>
<path d="M840.5 317.25H843.625C846.038 317.25 848 315.288 848 312.875V311.625H846.75V312.875C846.75 314.6 845.35 316 843.625 316H840.5V317.25Z" fill="white"/>
<path d="M843.156 309.75C841.694 309.75 840.5 308.556 840.5 307.094C840.5 305.975 841.213 304.981 842.238 304.6C842.7 303.219 844.012 302.25 845.5 302.25C846.988 302.25 848.3 303.219 848.762 304.6C849.794 304.981 850.5 305.969 850.5 307.094C850.5 308.525 849.337 309.713 847.913 309.75H843.156ZM845.5 303.5C844.475 303.5 843.575 304.231 843.363 305.231L843.275 305.631L842.875 305.713C842.225 305.844 841.75 306.425 841.75 307.087C841.75 307.862 842.381 308.5 843.156 308.5H847.894C848.631 308.481 849.25 307.844 849.25 307.087C849.25 306.425 848.775 305.844 848.125 305.713L847.725 305.631L847.637 305.231C847.425 304.231 846.525 303.5 845.5 303.5Z" fill="white"/>
<path d="M833 309.75H834.25V308.5C834.25 306.775 835.65 305.375 837.375 305.375H839.875V304.125H837.375C834.963 304.125 833 306.088 833 308.5V309.75Z" fill="white"/>
<path d="M836.75 311.625H833C832.312 311.625 831.75 312.188 831.75 312.875V319.125C831.75 319.812 832.312 320.375 833 320.375H836.75C837.438 320.375 838 319.812 838 319.125V312.875C838 312.188 837.438 311.625 836.75 311.625ZM836.75 312.875V314.125H833V312.875H836.75ZM836.75 315.375V316.625H833V315.375H836.75ZM833 319.125V317.875H836.75V319.125H833Z" fill="white"/>
</g>
<path d="M815.433 357.168C812.857 357.168 811.219 355.474 811.219 352.184C811.219 348.894 812.857 347.06 815.433 347.06C817.183 347.06 818.317 347.802 819.003 349.314L817.421 350.154C817.141 349.286 816.525 348.698 815.433 348.698C814.061 348.698 813.179 349.692 813.179 351.358V352.898C813.179 354.578 814.061 355.53 815.433 355.53C816.539 355.53 817.225 354.858 817.547 353.976L819.045 354.858C818.345 356.314 817.183 357.168 815.433 357.168ZM823.427 357H822.461C821.243 357 820.669 356.356 820.669 355.236V346.64H822.461V355.572H823.427V357ZM827.842 357.168C825.756 357.168 824.454 355.684 824.454 353.332C824.454 350.994 825.756 349.524 827.842 349.524C829.942 349.524 831.244 350.994 831.244 353.332C831.244 355.684 829.942 357.168 827.842 357.168ZM827.842 355.726C828.78 355.726 829.368 355.124 829.368 354.018V352.66C829.368 351.568 828.78 350.966 827.842 350.966C826.918 350.966 826.33 351.568 826.33 352.66V354.018C826.33 355.124 826.918 355.726 827.842 355.726ZM837.361 357V355.782H837.291C837.039 356.51 836.451 357.168 835.247 357.168C833.749 357.168 832.909 356.132 832.909 354.312V349.692H834.701V354.13C834.701 355.138 835.079 355.684 835.933 355.684C836.647 355.684 837.361 355.306 837.361 354.522V349.692H839.153V357H837.361ZM845.92 357V355.782H845.85C845.584 356.608 844.8 357.168 843.834 357.168C842 357.168 840.978 355.782 840.978 353.332C840.978 350.896 842 349.524 843.834 349.524C844.8 349.524 845.598 350.056 845.85 350.896H845.92V346.64H847.712V357H845.92ZM844.408 355.684C845.262 355.684 845.92 355.25 845.92 354.494V352.17C845.92 351.456 845.262 350.994 844.408 350.994C843.484 350.994 842.854 351.68 842.854 352.716V353.976C842.854 355.012 843.484 355.684 844.408 355.684ZM851.744 357.168C850.26 357.168 849.42 356.314 849.42 355.012C849.42 353.514 850.554 352.772 852.542 352.772H853.788V352.24C853.788 351.428 853.382 350.952 852.43 350.952C851.59 350.952 851.114 351.372 850.764 351.876L849.7 350.924C850.232 350.084 851.086 349.524 852.556 349.524C854.53 349.524 855.58 350.462 855.58 352.128V355.572H856.308V357H855.314C854.544 357 854.068 356.496 853.956 355.74H853.872C853.634 356.678 852.836 357.168 851.744 357.168ZM852.346 355.866C853.144 355.866 853.788 355.502 853.788 354.816V353.85H852.64C851.702 353.85 851.24 354.172 851.24 354.746V354.984C851.24 355.572 851.646 355.866 852.346 355.866ZM859.71 357H857.918V349.692H859.71V350.91H859.78C860.074 350.126 860.69 349.524 861.824 349.524C863.322 349.524 864.162 350.56 864.162 352.38V357H862.37V352.562C862.37 351.526 862.02 350.994 861.166 350.994C860.424 350.994 859.71 351.386 859.71 352.17V357ZM868.591 357C867.359 357 866.701 356.328 866.701 355.138V351.12H865.623V349.692H866.183C866.715 349.692 866.883 349.44 866.883 348.936V347.69H868.493V349.692H869.991V351.12H868.493V355.572H869.879V357H868.591ZM825.179 375L822.239 369.988L821.231 367.958H821.189V375H819.439V365.228H821.469L824.409 370.24L825.417 372.27H825.459V365.228H827.209V375H825.179ZM832.448 375.168C830.362 375.168 829.06 373.684 829.06 371.332C829.06 368.994 830.362 367.524 832.448 367.524C834.548 367.524 835.85 368.994 835.85 371.332C835.85 373.684 834.548 375.168 832.448 375.168ZM832.448 373.726C833.386 373.726 833.974 373.124 833.974 372.018V370.66C833.974 369.568 833.386 368.966 832.448 368.966C831.524 368.966 830.936 369.568 830.936 370.66V372.018C830.936 373.124 831.524 373.726 832.448 373.726ZM840.749 375.168C839.083 375.168 837.935 374.51 837.109 373.544L838.355 372.34C839.027 373.124 839.853 373.544 840.861 373.544C841.995 373.544 842.583 372.998 842.583 372.172C842.583 371.514 842.275 371.108 841.253 370.926L840.329 370.786C838.355 370.478 837.403 369.54 837.403 367.944C837.403 366.194 838.761 365.06 840.945 365.06C842.415 365.06 843.507 365.564 844.291 366.502L843.031 367.692C842.555 367.09 841.883 366.684 840.847 366.684C839.797 366.684 839.251 367.104 839.251 367.832C839.251 368.574 839.671 368.882 840.609 369.05L841.519 369.218C843.493 369.568 844.417 370.45 844.417 372.06C844.417 373.908 843.087 375.168 840.749 375.168ZM852.729 375.98V377.492H851.371C850.083 377.492 849.495 376.834 849.495 375.7V375.112C847.367 374.79 846.009 373.068 846.009 370.114C846.009 366.81 847.703 365.06 850.265 365.06C852.841 365.06 854.521 366.81 854.521 370.114C854.521 372.984 853.261 374.678 851.231 375.07V375.98H852.729ZM850.265 373.53C851.665 373.53 852.561 372.536 852.561 370.87V369.358C852.561 367.692 851.665 366.698 850.265 366.698C848.865 366.698 847.969 367.692 847.969 369.358V370.87C847.969 372.536 848.865 373.53 850.265 373.53ZM862.254 375H856.556V365.228H858.404V373.362H862.254V375ZM810.347 393V383.228H813.903C816.451 383.228 818.117 384.866 818.117 388.114C818.117 391.362 816.451 393 813.903 393H810.347ZM812.195 391.362H813.903C815.275 391.362 816.157 390.55 816.157 388.884V387.344C816.157 385.678 815.275 384.866 813.903 384.866H812.195V391.362ZM821.853 393.168C820.369 393.168 819.529 392.314 819.529 391.012C819.529 389.514 820.663 388.772 822.651 388.772H823.897V388.24C823.897 387.428 823.491 386.952 822.539 386.952C821.699 386.952 821.223 387.372 820.873 387.876L819.809 386.924C820.341 386.084 821.195 385.524 822.665 385.524C824.639 385.524 825.689 386.462 825.689 388.128V391.572H826.417V393H825.423C824.653 393 824.177 392.496 824.065 391.74H823.981C823.743 392.678 822.945 393.168 821.853 393.168ZM822.455 391.866C823.253 391.866 823.897 391.502 823.897 390.816V389.85H822.749C821.811 389.85 821.349 390.172 821.349 390.746V390.984C821.349 391.572 821.755 391.866 822.455 391.866ZM830.255 393C829.023 393 828.365 392.328 828.365 391.138V387.12H827.287V385.692H827.847C828.379 385.692 828.547 385.44 828.547 384.936V383.69H830.157V385.692H831.655V387.12H830.157V391.572H831.543V393H830.255ZM835.175 393.168C833.691 393.168 832.851 392.314 832.851 391.012C832.851 389.514 833.985 388.772 835.973 388.772H837.219V388.24C837.219 387.428 836.813 386.952 835.861 386.952C835.021 386.952 834.545 387.372 834.195 387.876L833.131 386.924C833.663 386.084 834.517 385.524 835.987 385.524C837.961 385.524 839.011 386.462 839.011 388.128V391.572H839.739V393H838.745C837.975 393 837.499 392.496 837.387 391.74H837.303C837.065 392.678 836.267 393.168 835.175 393.168ZM835.777 391.866C836.575 391.866 837.219 391.502 837.219 390.816V389.85H836.071C835.133 389.85 834.671 390.172 834.671 390.746V390.984C834.671 391.572 835.077 391.866 835.777 391.866ZM841.349 393V382.64H843.141V386.896H843.197C843.463 386.056 844.247 385.524 845.213 385.524C847.061 385.524 848.083 386.896 848.083 389.332C848.083 391.782 847.061 393.168 845.213 393.168C844.247 393.168 843.477 392.608 843.197 391.782H843.141V393H841.349ZM844.639 391.684C845.563 391.684 846.207 391.012 846.207 389.976V388.716C846.207 387.68 845.563 386.994 844.639 386.994C843.785 386.994 843.141 387.456 843.141 388.17V390.494C843.141 391.25 843.785 391.684 844.639 391.684ZM851.71 393.168C850.226 393.168 849.386 392.314 849.386 391.012C849.386 389.514 850.52 388.772 852.508 388.772H853.754V388.24C853.754 387.428 853.348 386.952 852.396 386.952C851.556 386.952 851.08 387.372 850.73 387.876L849.666 386.924C850.198 386.084 851.052 385.524 852.522 385.524C854.496 385.524 855.546 386.462 855.546 388.128V391.572H856.274V393H855.28C854.51 393 854.034 392.496 853.922 391.74H853.838C853.6 392.678 852.802 393.168 851.71 393.168ZM852.312 391.866C853.11 391.866 853.754 391.502 853.754 390.816V389.85H852.606C851.668 389.85 851.206 390.172 851.206 390.746V390.984C851.206 391.572 851.612 391.866 852.312 391.866ZM860.278 393.168C858.892 393.168 857.982 392.664 857.254 391.824L858.346 390.76C858.878 391.376 859.522 391.754 860.348 391.754C861.202 391.754 861.566 391.432 861.566 390.914C861.566 390.494 861.314 390.228 860.67 390.144L859.942 390.046C858.374 389.85 857.506 389.164 857.506 387.834C857.506 386.42 858.612 385.524 860.278 385.524C861.706 385.524 862.434 385.944 863.134 386.672L862.084 387.722C861.664 387.274 861.048 386.938 860.334 386.938C859.564 386.938 859.228 387.246 859.228 387.694C859.228 388.184 859.494 388.408 860.18 388.52L860.922 388.618C862.518 388.842 863.288 389.556 863.288 390.774C863.288 392.188 862.098 393.168 860.278 393.168ZM867.985 393.168C865.829 393.168 864.541 391.67 864.541 389.332C864.541 387.022 865.787 385.524 867.929 385.524C870.211 385.524 871.261 387.204 871.261 389.206V389.794H866.403V389.976C866.403 391.026 867.005 391.74 868.181 391.74C869.063 391.74 869.595 391.32 870.043 390.746L871.009 391.824C870.407 392.65 869.343 393.168 867.985 393.168ZM867.957 386.868C867.019 386.868 866.403 387.568 866.403 388.576V388.688H869.399V388.562C869.399 387.554 868.881 386.868 867.957 386.868Z" fill="black"/>
<path d="M336.29 320V319.5H336.79V320H336.29ZM336.29 408V408.5H335.79V408H336.29ZM480 408L475 410.887V405.113L480 408ZM336.29 320.5H192V319.5H336.29V320.5ZM336.79 320V408H335.79V320H336.79ZM336.29 407.5L475.5 407.5V408.5L336.29 408.5V407.5Z" fill="#0043CE"/>
<path d="M336.29 304V304.5H336.79V304H336.29ZM336.29 216V215.5H335.79V216H336.29ZM480 216L475 213.113V218.887L480 216ZM336.29 303.5H192V304.5H336.29V303.5ZM336.79 304V216H335.79V304H336.79ZM336.29 216.5L475.5 216.5V215.5L336.29 215.5V216.5Z" fill="#0043CE"/>
<path d="M720.171 320V319.5H719.671V320H720.171ZM816 320L811 317.113V322.887L816 320ZM720.171 408V408.5H720.671V408H720.171ZM720.171 304H719.671V304.5H720.171V304ZM816 304L811 301.113V306.887L816 304ZM720.171 216H720.671V215.5L720.171 215.5V216ZM720.171 320.5H811.5V319.5H720.171V320.5ZM719.671 320V408H720.671V320H719.671ZM720.171 407.5H672V408.5H720.171V407.5ZM720.171 304.5H811.5V303.5H720.171V304.5ZM720.671 304V216H719.671V304H720.671ZM720.171 215.5L672 215.5L672 216.5L720.171 216.5V215.5Z" fill="#0043CE"/>
<defs>
<clipPath id="clip0_3603_4487">
<rect width="240" height="48" fill="white" transform="translate(48 48)"/>
</clipPath>
<clipPath id="clip1_3603_4487">
<rect width="20" height="20" fill="white" transform="translate(64 62)"/>
</clipPath>
<clipPath id="clip2_3603_4487">
<rect width="137" height="48" fill="white" transform="translate(384 48)"/>
</clipPath>
<clipPath id="clip3_3603_4487">
<rect width="20" height="20" fill="white" transform="translate(400 62)"/>
</clipPath>
<clipPath id="clip4_3603_4487">
<rect width="192" height="48" fill="white" transform="translate(480 144)"/>
</clipPath>
<clipPath id="clip5_3603_4487">
<rect width="20" height="20" fill="white" transform="translate(494 158)"/>
</clipPath>
<clipPath id="clip6_3603_4487">
<rect width="192" height="48" fill="white" transform="translate(480 336)"/>
</clipPath>
<clipPath id="clip7_3603_4487">
<rect width="105" height="48" fill="white" transform="translate(500 216)"/>
</clipPath>
<clipPath id="clip8_3603_4487">
<rect width="105" height="48" fill="white" transform="translate(500 408)"/>
</clipPath>
<clipPath id="clip9_3603_4487">
<rect width="20" height="20" fill="white" transform="translate(830.5 301)"/>
</clipPath>
</defs>
</svg>
