<svg width="1080" height="608" viewBox="0 0 1080 608" fill="none" xmlns="http://www.w3.org/2000/svg">
<rect width="1080" height="608" fill="#F4F4F4"/>
<rect width="1080" height="608" fill="#F4F4F4"/>
<rect width="48" height="92" transform="translate(48 48)" fill="white" style="mix-blend-mode:multiply"/>
<rect x="48" y="48" width="48" height="48" rx="8" fill="#565151"/>
<rect width="20" height="20" transform="translate(62 62)" fill="white" style="mix-blend-mode:multiply"/>
<path d="M78.6162 66.1162C78.5004 65.9997 78.3627 65.9074 78.211 65.8445C78.0593 65.7817 77.8966 65.7496 77.7324 65.75H72.625V63.25H71.375V69.5H66.2676C66.1034 69.4996 65.9407 69.5317 65.789 69.5945C65.6373 69.6574 65.4996 69.7497 65.3838 69.8662L63.25 72L65.3838 74.1338C65.4996 74.2503 65.6373 74.3426 65.789 74.4055C65.9407 74.4683 66.1034 74.5004 66.2676 74.5H71.375V80.75H72.625V70.75H77.7324C77.8966 70.7504 78.0593 70.7183 78.211 70.6555C78.3627 70.5926 78.5004 70.5003 78.6162 70.3838L80.75 68.25L78.6162 66.1162ZM66.2676 73.25L65.0176 72L66.2676 70.75H71.375V73.25H66.2676ZM77.7324 69.5H72.625V67H77.7324L78.9824 68.25L77.7324 69.5Z" fill="white"/>
<path d="M73.6458 118V116.502H71.4058V108.228H68.6198L66.1978 111.112L67.3458 112.078L69.4738 109.558H69.5998V116.502H66.9118V118H73.6458ZM76.2783 118.154C77.0483 118.154 77.3983 117.72 77.3983 117.132V116.88C77.3983 116.278 77.0483 115.844 76.2783 115.844C75.5223 115.844 75.1583 116.278 75.1583 116.88V117.132C75.1583 117.72 75.5223 118.154 76.2783 118.154Z" fill="black"/>
<path d="M60.3679 136V131.828H63.0839C64.8339 131.828 65.8139 130.75 65.8139 129.028C65.8139 127.306 64.8339 126.228 63.0839 126.228H59.1919V136H60.3679ZM60.3679 127.264H63.0839C64.0079 127.264 64.5539 127.768 64.5539 128.664V129.392C64.5539 130.288 64.0079 130.792 63.0839 130.792H60.3679V127.264ZM69.9141 136V135.02H68.8501V125.64H67.7301V134.838C67.7301 135.51 68.1501 136 68.9201 136H69.9141ZM77.5846 136V135.02H76.7586V131.044C76.7586 129.518 75.7226 128.608 73.9866 128.608C72.6846 128.608 71.8166 129.252 71.4246 130.022L72.0966 130.652C72.4886 129.994 73.0626 129.574 73.9306 129.574C75.0786 129.574 75.6386 130.134 75.6386 131.156V131.87H74.2106C72.1106 131.87 71.1306 132.626 71.1306 133.984C71.1306 135.328 72.0266 136.168 73.5526 136.168C74.5606 136.168 75.3306 135.706 75.6386 134.824H75.7086C75.7926 135.496 76.1286 136 76.9546 136H77.5846ZM73.7346 135.216C72.8666 135.216 72.3066 134.81 72.3066 134.096V133.802C72.3066 133.102 72.8806 132.71 74.1546 132.71H75.6386V133.9C75.6386 134.642 74.8406 135.216 73.7346 135.216ZM80.4631 136V130.988C80.4631 130.064 81.3311 129.616 82.2271 129.616C83.3051 129.616 83.8651 130.274 83.8651 131.562V136H84.9851V131.366C84.9851 129.616 84.0471 128.608 82.5631 128.608C81.4851 128.608 80.8691 129.14 80.5191 129.952H80.4631V128.776H79.3431V136H80.4631Z" fill="black"/>
<path fill-rule="evenodd" clip-rule="evenodd" d="M80.0002 343.5C75.8581 343.5 72.5002 340.142 72.5002 336H71.5002C71.5002 340.694 75.3058 344.5 80.0002 344.5H91.0132V346.887L96.0132 344L91.0132 341.113V343.5H80.0002Z" fill="#565151"/>
<path fill-rule="evenodd" clip-rule="evenodd" d="M80.0002 407.5C75.8581 407.5 72.5002 404.142 72.5002 400H71.5002C71.5002 404.694 75.3058 408.5 80.0002 408.5H91.0132V410.887L96.0132 408L91.0132 405.113V407.5H80.0002Z" fill="#565151"/>
<path fill-rule="evenodd" clip-rule="evenodd" d="M486 239.5H360C355.306 239.5 351.5 243.306 351.5 248V336C351.5 340.694 355.306 344.5 360 344.5H371V346.887L376 344L371 341.113V343.5H360C355.858 343.5 352.5 340.142 352.5 336V248C352.5 243.858 355.858 240.5 360 240.5H486V239.5Z" fill="#565151"/>
<path fill-rule="evenodd" clip-rule="evenodd" d="M640 240.5H737V239.5H640C635.306 239.5 631.5 243.306 631.5 248V336C631.5 340.694 635.306 344.5 640 344.5H651V346.887L656 344L651 341.113V343.5H640C635.858 343.5 632.5 340.142 632.5 336V248C632.5 243.858 635.858 240.5 640 240.5Z" fill="#565151"/>
<path fill-rule="evenodd" clip-rule="evenodd" d="M582 343.5H599.284C603.978 343.5 607.784 347.306 607.784 352V504C607.784 508.142 611.142 511.5 615.284 511.5H896V512.5H615.284C610.589 512.5 606.784 508.694 606.784 504V352C606.784 347.858 603.426 344.5 599.284 344.5H582V343.5Z" fill="#565151"/>
<path fill-rule="evenodd" clip-rule="evenodd" d="M863 343.5H880.088C884.783 343.5 888.588 347.306 888.588 352V416.5H887.588V352C887.588 347.858 884.23 344.5 880.088 344.5H863V343.5Z" fill="#565151"/>
<path fill-rule="evenodd" clip-rule="evenodd" d="M863 407.5H880.037C884.732 407.5 888.537 411.306 888.537 416V504C888.537 508.142 891.895 511.5 896.037 511.5H896.5V512.5H896.037C891.343 512.5 887.537 508.694 887.537 504V416C887.537 411.858 884.179 408.5 880.037 408.5H863V407.5Z" fill="#565151"/>
<path fill-rule="evenodd" clip-rule="evenodd" d="M632.5 400V335.5H631.5V400C631.5 404.694 635.306 408.5 640 408.5H651V410.887L656 408L651 405.113V407.5H640C635.858 407.5 632.5 404.142 632.5 400Z" fill="#565151"/>
<rect x="96.5" y="320.5" width="207" height="47" fill="white"/>
<path d="M100 320H96V368H100V320Z" fill="#8F8B8B"/>
<path d="M116.984 349.168C119.56 349.168 121.24 347.418 121.24 344.114C121.24 340.81 119.56 339.06 116.984 339.06C114.422 339.06 112.728 340.81 112.728 344.114C112.728 347.418 114.422 349.168 116.984 349.168ZM116.984 347.53C115.584 347.53 114.688 346.536 114.688 344.87V343.358C114.688 341.692 115.584 340.698 116.984 340.698C118.384 340.698 119.28 341.692 119.28 343.358V344.87C119.28 346.536 118.384 347.53 116.984 347.53ZM124.955 349V344.17C124.955 343.386 125.669 342.994 126.411 342.994C127.265 342.994 127.615 343.526 127.615 344.562V349H129.407V344.38C129.407 342.56 128.567 341.524 127.069 341.524C125.935 341.524 125.319 342.126 125.025 342.91H124.955V341.692H123.163V349H124.955ZM135.333 345.626V343.848H131.329V345.626H135.333ZM137.346 351.8H139.138V347.782H139.194C139.474 348.608 140.244 349.168 141.21 349.168C143.058 349.168 144.08 347.782 144.08 345.332C144.08 342.896 143.058 341.524 141.21 341.524C140.244 341.524 139.46 342.056 139.194 342.896H139.138V341.692H137.346V351.8ZM140.636 347.684C139.782 347.684 139.138 347.25 139.138 346.494V344.17C139.138 343.456 139.782 342.994 140.636 342.994C141.56 342.994 142.204 343.68 142.204 344.716V345.976C142.204 347.012 141.56 347.684 140.636 347.684ZM147.693 349V344.52C147.693 343.722 148.323 343.386 149.527 343.386H150.087V341.692H149.695C148.533 341.692 147.945 342.434 147.763 343.204H147.693V341.692H145.901V349H147.693ZM154.442 349.168C155.8 349.168 156.864 348.65 157.466 347.824L156.5 346.746C156.052 347.32 155.52 347.74 154.638 347.74C153.462 347.74 152.86 347.026 152.86 345.976V345.794H157.718V345.206C157.718 343.204 156.668 341.524 154.386 341.524C152.244 341.524 150.998 343.022 150.998 345.332C150.998 347.67 152.286 349.168 154.442 349.168ZM154.414 342.868C155.338 342.868 155.856 343.554 155.856 344.562V344.688H152.86V344.576C152.86 343.568 153.476 342.868 154.414 342.868ZM161.247 349V344.17C161.247 343.386 161.919 342.994 162.605 342.994C163.403 342.994 163.781 343.512 163.781 344.562V349H165.573V344.17C165.573 343.386 166.231 342.994 166.931 342.994C167.729 342.994 168.107 343.512 168.107 344.562V349H169.899V344.38C169.899 342.56 169.087 341.524 167.659 341.524C166.497 341.524 165.685 342.182 165.419 342.994H165.391C165.041 342.014 164.271 341.524 163.277 341.524C162.185 341.524 161.597 342.14 161.317 342.91H161.247V341.692H159.455V349H161.247ZM172.939 340.628C173.667 340.628 173.989 340.25 173.989 339.732V339.452C173.989 338.934 173.667 338.556 172.939 338.556C172.197 338.556 171.889 338.934 171.889 339.452V339.732C171.889 340.25 172.197 340.628 172.939 340.628ZM172.043 349H173.835V341.692H172.043V349ZM178.466 349.168C180.286 349.168 181.476 348.188 181.476 346.774C181.476 345.556 180.706 344.842 179.11 344.618L178.368 344.52C177.682 344.408 177.416 344.184 177.416 343.694C177.416 343.246 177.752 342.938 178.522 342.938C179.236 342.938 179.852 343.274 180.272 343.722L181.322 342.672C180.622 341.944 179.894 341.524 178.466 341.524C176.8 341.524 175.694 342.42 175.694 343.834C175.694 345.164 176.562 345.85 178.13 346.046L178.858 346.144C179.502 346.228 179.754 346.494 179.754 346.914C179.754 347.432 179.39 347.754 178.536 347.754C177.71 347.754 177.066 347.376 176.534 346.76L175.442 347.824C176.17 348.664 177.08 349.168 178.466 349.168ZM186.172 349.168C187.53 349.168 188.594 348.65 189.196 347.824L188.23 346.746C187.782 347.32 187.25 347.74 186.368 347.74C185.192 347.74 184.59 347.026 184.59 345.976V345.794H189.448V345.206C189.448 343.204 188.398 341.524 186.116 341.524C183.974 341.524 182.728 343.022 182.728 345.332C182.728 347.67 184.016 349.168 186.172 349.168ZM186.144 342.868C187.068 342.868 187.586 343.554 187.586 344.562V344.688H184.59V344.576C184.59 343.568 185.206 342.868 186.144 342.868ZM193.579 349.168C195.399 349.168 196.589 348.188 196.589 346.774C196.589 345.556 195.819 344.842 194.223 344.618L193.481 344.52C192.795 344.408 192.529 344.184 192.529 343.694C192.529 343.246 192.865 342.938 193.635 342.938C194.349 342.938 194.965 343.274 195.385 343.722L196.435 342.672C195.735 341.944 195.007 341.524 193.579 341.524C191.913 341.524 190.807 342.42 190.807 343.834C190.807 345.164 191.675 345.85 193.243 346.046L193.971 346.144C194.615 346.228 194.867 346.494 194.867 346.914C194.867 347.432 194.503 347.754 193.649 347.754C192.823 347.754 192.179 347.376 191.647 346.76L190.555 347.824C191.283 348.664 192.193 349.168 193.579 349.168ZM208.408 349H210.606L208.674 346.914C208.954 346.41 209.178 345.822 209.318 345.178H210.228V343.68H208.03C207.988 344.394 207.848 345.122 207.596 345.752L205.888 343.904C206.994 343.26 207.918 342.504 207.918 341.258C207.918 339.886 206.77 339.06 205.244 339.06C203.522 339.06 202.43 340.11 202.43 341.398C202.43 342.294 202.948 343.078 203.522 343.722C202.43 344.338 201.548 345.08 201.548 346.452C201.548 347.992 202.682 349.168 204.782 349.168C206.196 349.168 207.036 348.594 207.596 348.104L208.408 349ZM205.188 340.446C205.748 340.446 206.21 340.782 206.21 341.37V341.454C206.21 342.07 205.706 342.518 204.992 342.938C204.418 342.294 204.152 341.916 204.152 341.496V341.398C204.152 340.824 204.6 340.446 205.188 340.446ZM205.02 347.67C203.97 347.67 203.382 347.11 203.382 346.298V346.144C203.382 345.472 203.76 345.08 204.418 344.688L206.644 347.096C206.238 347.446 205.692 347.67 205.02 347.67ZM218.363 349.168C219.721 349.168 220.785 348.65 221.387 347.824L220.421 346.746C219.973 347.32 219.441 347.74 218.559 347.74C217.383 347.74 216.781 347.026 216.781 345.976V345.794H221.639V345.206C221.639 343.204 220.589 341.524 218.307 341.524C216.165 341.524 214.919 343.022 214.919 345.332C214.919 347.67 216.207 349.168 218.363 349.168ZM218.335 342.868C219.259 342.868 219.777 343.554 219.777 344.562V344.688H216.781V344.576C216.781 343.568 217.397 342.868 218.335 342.868ZM227.911 349H229.703V338.64H227.911V342.896H227.841C227.589 342.056 226.791 341.524 225.825 341.524C223.991 341.524 222.969 342.896 222.969 345.332C222.969 347.782 223.991 349.168 225.825 349.168C226.791 349.168 227.575 348.608 227.841 347.782H227.911V349ZM226.399 347.684C225.475 347.684 224.845 347.012 224.845 345.976V344.716C224.845 343.68 225.475 342.994 226.399 342.994C227.253 342.994 227.911 343.456 227.911 344.17V346.494C227.911 347.25 227.253 347.684 226.399 347.684ZM238.524 349.616C238.524 348.3 237.754 347.53 235.962 347.53H234.002C233.358 347.53 233.05 347.348 233.05 346.984C233.05 346.662 233.288 346.452 233.568 346.326C233.89 346.41 234.268 346.452 234.688 346.452C236.676 346.452 237.712 345.472 237.712 344.002C237.712 343.106 237.334 342.392 236.578 341.972V341.776H238.132V340.404H236.998C236.326 340.404 235.962 340.754 235.962 341.468V341.706C235.598 341.58 235.136 341.524 234.688 341.524C232.714 341.524 231.664 342.518 231.664 344.002C231.664 344.968 232.112 345.724 232.994 346.13V346.186C232.294 346.34 231.65 346.718 231.65 347.474C231.65 348.062 231.986 348.538 232.588 348.692V348.846C231.776 348.972 231.286 349.434 231.286 350.246C231.286 351.324 232.224 351.968 234.688 351.968C237.488 351.968 238.524 351.142 238.524 349.616ZM236.844 349.826C236.844 350.442 236.326 350.736 235.164 350.736H234.268C233.148 350.736 232.728 350.4 232.728 349.84C232.728 349.546 232.84 349.28 233.106 349.084H235.598C236.508 349.084 236.844 349.364 236.844 349.826ZM234.688 345.234C233.834 345.234 233.372 344.842 233.372 344.114V343.876C233.372 343.134 233.834 342.756 234.688 342.756C235.542 342.756 236.004 343.134 236.004 343.876V344.114C236.004 344.842 235.542 345.234 234.688 345.234ZM242.591 349.168C243.949 349.168 245.013 348.65 245.615 347.824L244.649 346.746C244.201 347.32 243.669 347.74 242.787 347.74C241.611 347.74 241.009 347.026 241.009 345.976V345.794H245.867V345.206C245.867 343.204 244.817 341.524 242.535 341.524C240.393 341.524 239.147 343.022 239.147 345.332C239.147 347.67 240.435 349.168 242.591 349.168ZM242.563 342.868C243.487 342.868 244.005 343.554 244.005 344.562V344.688H241.009V344.576C241.009 343.568 241.625 342.868 242.563 342.868Z" fill="black"/>
<rect x="96.5" y="320.5" width="207" height="47" stroke="#8F8B8B"/>
<rect x="96.5" y="384.5" width="207" height="47" fill="white"/>
<path d="M100 384H96V432H100V384Z" fill="#8F8B8B"/>
<path d="M118.888 413H120.918V403.228H119.168V410.27H119.126L118.118 408.24L115.178 403.228H113.148V413H114.898V405.958H114.94L115.948 407.988L118.888 413ZM126.157 413.168C128.257 413.168 129.559 411.684 129.559 409.332C129.559 406.994 128.257 405.524 126.157 405.524C124.07 405.524 122.768 406.994 122.768 409.332C122.768 411.684 124.07 413.168 126.157 413.168ZM126.157 411.726C125.232 411.726 124.644 411.124 124.644 410.018V408.66C124.644 407.568 125.232 406.966 126.157 406.966C127.095 406.966 127.683 407.568 127.683 408.66V410.018C127.683 411.124 127.095 411.726 126.157 411.726ZM133.099 413V408.17C133.099 407.386 133.813 406.994 134.555 406.994C135.409 406.994 135.759 407.526 135.759 408.562V413H137.551V408.38C137.551 406.56 136.711 405.524 135.213 405.524C134.079 405.524 133.463 406.126 133.169 406.91H133.099V405.692H131.307V413H133.099ZM143.478 409.626V407.848H139.474V409.626H143.478ZM149.211 413V411.516H147.909V404.712H149.211V403.228H144.773V404.712H146.061V411.516H144.773V413H149.211ZM151.259 413H156.215C157.657 413 158.735 411.768 158.735 410.2C158.735 408.534 157.475 407.932 156.621 407.918V407.834C157.517 407.778 158.371 407.218 158.371 405.734C158.371 404.222 157.391 403.228 155.781 403.228H151.259V413ZM153.107 408.814H155.683C156.383 408.814 156.803 409.206 156.803 409.892V410.368C156.803 411.054 156.383 411.432 155.683 411.432H153.107V408.814ZM153.107 404.796H155.389C156.061 404.796 156.453 405.174 156.453 405.832V406.266C156.453 406.91 156.061 407.302 155.389 407.302H153.107V404.796ZM160.702 413H162.452V405.986H162.508L163.264 407.54L165.266 411.236L167.268 407.54L168.024 405.986H168.08V413H169.83V403.228H167.828L165.35 408.002H165.294L162.788 403.228H160.702V413ZM178.532 413.168C179.946 413.168 180.968 412.524 181.444 411.236L180.072 410.578C179.806 411.236 179.386 411.726 178.532 411.726C177.538 411.726 177.034 411.04 177.034 410.018V408.688C177.034 407.666 177.538 406.966 178.532 406.966C179.302 406.966 179.764 407.414 179.932 408.03L181.402 407.372C180.968 406.224 180.002 405.524 178.532 405.524C176.376 405.524 175.158 406.994 175.158 409.332C175.158 411.684 176.376 413.168 178.532 413.168ZM185.744 413V411.572H184.778V402.64H182.986V411.236C182.986 412.356 183.56 413 184.778 413H185.744ZM190.159 413.168C192.259 413.168 193.561 411.684 193.561 409.332C193.561 406.994 192.259 405.524 190.159 405.524C188.073 405.524 186.771 406.994 186.771 409.332C186.771 411.684 188.073 413.168 190.159 413.168ZM190.159 411.726C189.235 411.726 188.647 411.124 188.647 410.018V408.66C188.647 407.568 189.235 406.966 190.159 406.966C191.097 406.966 191.685 407.568 191.685 408.66V410.018C191.685 411.124 191.097 411.726 190.159 411.726ZM199.678 413H201.47V405.692H199.678V410.522C199.678 411.306 198.964 411.684 198.25 411.684C197.396 411.684 197.018 411.138 197.018 410.13V405.692H195.226V410.312C195.226 412.132 196.066 413.168 197.564 413.168C198.768 413.168 199.356 412.51 199.608 411.782H199.678V413ZM208.236 413H210.028V402.64H208.236V406.896H208.166C207.914 406.056 207.116 405.524 206.15 405.524C204.316 405.524 203.294 406.896 203.294 409.332C203.294 411.782 204.316 413.168 206.15 413.168C207.116 413.168 207.9 412.608 208.166 411.782H208.236V413ZM206.724 411.684C205.8 411.684 205.17 411.012 205.17 409.976V408.716C205.17 407.68 205.8 406.994 206.724 406.994C207.578 406.994 208.236 407.456 208.236 408.17V410.494C208.236 411.25 207.578 411.684 206.724 411.684ZM215.723 415.8H217.515V411.782H217.571C217.851 412.608 218.621 413.168 219.587 413.168C221.435 413.168 222.457 411.782 222.457 409.332C222.457 406.896 221.435 405.524 219.587 405.524C218.621 405.524 217.837 406.056 217.571 406.896H217.515V405.692H215.723V415.8ZM219.013 411.684C218.159 411.684 217.515 411.25 217.515 410.494V408.17C217.515 407.456 218.159 406.994 219.013 406.994C219.937 406.994 220.581 407.68 220.581 408.716V409.976C220.581 411.012 219.937 411.684 219.013 411.684ZM226.07 413V408.52C226.07 407.722 226.7 407.386 227.904 407.386H228.464V405.692H228.072C226.91 405.692 226.322 406.434 226.14 407.204H226.07V405.692H224.278V413H226.07ZM232.764 413.168C234.864 413.168 236.166 411.684 236.166 409.332C236.166 406.994 234.864 405.524 232.764 405.524C230.678 405.524 229.376 406.994 229.376 409.332C229.376 411.684 230.678 413.168 232.764 413.168ZM232.764 411.726C231.84 411.726 231.252 411.124 231.252 410.018V408.66C231.252 407.568 231.84 406.966 232.764 406.966C233.702 406.966 234.29 407.568 234.29 408.66V410.018C234.29 411.124 233.702 411.726 232.764 411.726ZM241.501 413L243.951 405.692H242.243L241.249 408.842L240.535 411.446H240.437L239.723 408.842L238.701 405.692H236.937L239.373 413H241.501ZM246.203 404.628C246.931 404.628 247.253 404.25 247.253 403.732V403.452C247.253 402.934 246.931 402.556 246.203 402.556C245.461 402.556 245.153 402.934 245.153 403.452V403.732C245.153 404.25 245.461 404.628 246.203 404.628ZM245.307 413H247.099V405.692H245.307V413ZM253.872 413H255.664V402.64H253.872V406.896H253.802C253.55 406.056 252.752 405.524 251.786 405.524C249.952 405.524 248.93 406.896 248.93 409.332C248.93 411.782 249.952 413.168 251.786 413.168C252.752 413.168 253.536 412.608 253.802 411.782H253.872V413ZM252.36 411.684C251.436 411.684 250.806 411.012 250.806 409.976V408.716C250.806 407.68 251.436 406.994 252.36 406.994C253.214 406.994 253.872 407.456 253.872 408.17V410.494C253.872 411.25 253.214 411.684 252.36 411.684ZM260.844 413.168C262.202 413.168 263.266 412.65 263.868 411.824L262.902 410.746C262.454 411.32 261.922 411.74 261.04 411.74C259.864 411.74 259.262 411.026 259.262 409.976V409.794H264.12V409.206C264.12 407.204 263.07 405.524 260.788 405.524C258.646 405.524 257.4 407.022 257.4 409.332C257.4 411.67 258.688 413.168 260.844 413.168ZM260.816 406.868C261.74 406.868 262.258 407.554 262.258 408.562V408.688H259.262V408.576C259.262 407.568 259.878 406.868 260.816 406.868ZM267.649 413V408.52C267.649 407.722 268.279 407.386 269.483 407.386H270.043V405.692H269.651C268.489 405.692 267.901 406.434 267.719 407.204H267.649V405.692H265.857V413H267.649Z" fill="black"/>
<rect x="96.5" y="384.5" width="207" height="47" stroke="#8F8B8B"/>
<path fill-rule="evenodd" clip-rule="evenodd" d="M193.453 239.5H79.9999C75.3055 239.5 71.4999 243.306 71.4999 248V464C71.4999 468.694 75.3055 472.5 79.9999 472.5H91.0024V474.887L96.0024 472L91.0024 469.113V471.5H79.9999C75.8578 471.5 72.4999 468.142 72.4999 464V248C72.4999 243.858 75.8578 240.5 79.9999 240.5H193.453V239.5Z" fill="#565151"/>
<path fill-rule="evenodd" clip-rule="evenodd" d="M303 471.5H320.234C324.928 471.5 328.734 475.306 328.734 480V504C328.734 508.142 332.091 511.5 336.234 511.5H616V512.5H336.234C331.539 512.5 327.734 508.694 327.734 504V480C327.734 475.858 324.376 472.5 320.234 472.5H303V471.5Z" fill="#565151"/>
<path fill-rule="evenodd" clip-rule="evenodd" d="M303 407.5H320.234C324.928 407.5 328.734 411.306 328.734 416V480H327.734V416C327.734 411.858 324.376 408.5 320.234 408.5H303V407.5Z" fill="#565151"/>
<path fill-rule="evenodd" clip-rule="evenodd" d="M303 343.5H320.234C324.928 343.5 328.734 347.306 328.734 352V416H327.734V352C327.734 347.858 324.376 344.5 320.234 344.5H303V343.5Z" fill="#565151"/>
<path d="M761.061 217.768L782.232 238.939C782.818 239.525 782.818 240.475 782.232 241.061L761.061 262.232C760.475 262.818 759.525 262.818 758.939 262.232L737.768 241.061C737.182 240.475 737.182 239.525 737.768 238.939L758.939 217.768C759.525 217.182 760.475 217.182 761.061 217.768Z" fill="#CAC5C4" stroke="#CAC5C4"/>
<rect width="20" height="20" transform="translate(750 230)" fill="white" style="mix-blend-mode:multiply"/>
<path d="M760 231.25C758.269 231.25 756.578 231.763 755.139 232.725C753.7 233.686 752.578 235.053 751.916 236.652C751.254 238.25 751.081 240.01 751.418 241.707C751.756 243.404 752.589 244.963 753.813 246.187C755.037 247.411 756.596 248.244 758.293 248.582C759.99 248.919 761.75 248.746 763.348 248.084C764.947 247.422 766.314 246.3 767.275 244.861C768.237 243.422 768.75 241.731 768.75 240C768.75 237.679 767.828 235.454 766.187 233.813C764.546 232.172 762.321 231.25 760 231.25ZM760 247.5C758.517 247.5 757.067 247.06 755.833 246.236C754.6 245.412 753.639 244.241 753.071 242.87C752.503 241.5 752.355 239.992 752.644 238.537C752.934 237.082 753.648 235.746 754.697 234.697C755.746 233.648 757.082 232.933 758.537 232.644C759.992 232.355 761.5 232.503 762.87 233.071C764.241 233.639 765.412 234.6 766.236 235.833C767.06 237.067 767.5 238.517 767.5 240C767.5 241.989 766.71 243.897 765.303 245.303C763.897 246.71 761.989 247.5 760 247.5Z" fill="black"/>
<path d="M760 245.625C760.518 245.625 760.938 245.205 760.938 244.688C760.938 244.17 760.518 243.75 760 243.75C759.482 243.75 759.063 244.17 759.063 244.688C759.063 245.205 759.482 245.625 760 245.625Z" fill="black"/>
<path d="M760.625 235H759.688C759.318 234.999 758.952 235.071 758.61 235.212C758.269 235.353 757.958 235.561 757.697 235.822C757.436 236.083 757.228 236.394 757.087 236.735C756.946 237.077 756.874 237.443 756.875 237.812V238.125H758.125V237.812C758.125 237.398 758.29 237.001 758.583 236.708C758.876 236.415 759.273 236.25 759.688 236.25H760.625C761.039 236.25 761.437 236.415 761.73 236.708C762.023 237.001 762.188 237.398 762.188 237.812C762.188 238.227 762.023 238.624 761.73 238.917C761.437 239.21 761.039 239.375 760.625 239.375H759.375V242.188H760.625V240.625C761.371 240.625 762.086 240.329 762.614 239.801C763.141 239.274 763.438 238.558 763.438 237.812C763.438 237.067 763.141 236.351 762.614 235.824C762.086 235.296 761.371 235 760.625 235Z" fill="black"/>
<path d="M748.225 286H750.073V276.228H748.225V280.232H744.151V276.228H742.303V286H744.151V281.87H748.225V286ZM755.311 286.168C757.411 286.168 758.713 284.684 758.713 282.332C758.713 279.994 757.411 278.524 755.311 278.524C753.225 278.524 751.923 279.994 751.923 282.332C751.923 284.684 753.225 286.168 755.311 286.168ZM755.311 284.726C754.387 284.726 753.799 284.124 753.799 283.018V281.66C753.799 280.568 754.387 279.966 755.311 279.966C756.249 279.966 756.837 280.568 756.837 281.66V283.018C756.837 284.124 756.249 284.726 755.311 284.726ZM762.856 286.168C764.676 286.168 765.866 285.188 765.866 283.774C765.866 282.556 765.096 281.842 763.5 281.618L762.758 281.52C762.072 281.408 761.806 281.184 761.806 280.694C761.806 280.246 762.142 279.938 762.912 279.938C763.626 279.938 764.242 280.274 764.662 280.722L765.712 279.672C765.012 278.944 764.284 278.524 762.856 278.524C761.19 278.524 760.084 279.42 760.084 280.834C760.084 282.164 760.952 282.85 762.52 283.046L763.248 283.144C763.892 283.228 764.144 283.494 764.144 283.914C764.144 284.432 763.78 284.754 762.926 284.754C762.1 284.754 761.456 284.376 760.924 283.76L759.832 284.824C760.56 285.664 761.47 286.168 762.856 286.168ZM769.781 286H771.069V284.572H769.683V280.12H771.181V278.692H769.683V276.69H768.073V277.936C768.073 278.44 767.905 278.692 767.373 278.692H766.813V280.12H767.891V284.138C767.891 285.328 768.549 286 769.781 286ZM775.289 286.168C777.109 286.168 778.299 285.188 778.299 283.774C778.299 282.556 777.529 281.842 775.933 281.618L775.191 281.52C774.505 281.408 774.239 281.184 774.239 280.694C774.239 280.246 774.575 279.938 775.345 279.938C776.059 279.938 776.675 280.274 777.095 280.722L778.145 279.672C777.445 278.944 776.717 278.524 775.289 278.524C773.623 278.524 772.517 279.42 772.517 280.834C772.517 282.164 773.385 282.85 774.953 283.046L775.681 283.144C776.325 283.228 776.577 283.494 776.577 283.914C776.577 284.432 776.213 284.754 775.359 284.754C774.533 284.754 773.889 284.376 773.357 283.76L772.265 284.824C772.993 285.664 773.903 286.168 775.289 286.168Z" fill="black"/>
<rect x="656.5" y="320.5" width="207" height="47" fill="white"/>
<path d="M660 320H656V368H660V320Z" fill="#8F8B8B"/>
<path d="M678.888 349H680.918V339.228H679.168V346.27H679.126L678.118 344.24L675.178 339.228H673.148V349H674.898V341.958H674.94L675.948 343.988L678.888 349ZM687.626 349H689.418V341.692H687.626V346.522C687.626 347.306 686.912 347.684 686.198 347.684C685.344 347.684 684.966 347.138 684.966 346.13V341.692H683.174V346.312C683.174 348.132 684.014 349.168 685.513 349.168C686.716 349.168 687.304 348.51 687.557 347.782H687.626V349ZM693.441 349V344.17C693.441 343.386 694.113 342.994 694.799 342.994C695.597 342.994 695.975 343.512 695.975 344.562V349H697.767V344.17C697.767 343.386 698.425 342.994 699.125 342.994C699.923 342.994 700.301 343.512 700.301 344.562V349H702.093V344.38C702.093 342.56 701.281 341.524 699.853 341.524C698.691 341.524 697.879 342.182 697.613 342.994H697.585C697.235 342.014 696.465 341.524 695.471 341.524C694.379 341.524 693.791 342.14 693.511 342.91H693.441V341.692H691.649V349H693.441ZM704.237 349H706.029V347.782H706.085C706.365 348.608 707.135 349.168 708.101 349.168C709.949 349.168 710.971 347.782 710.971 345.332C710.971 342.896 709.949 341.524 708.101 341.524C707.135 341.524 706.351 342.056 706.085 342.896H706.029V338.64H704.237V349ZM707.527 347.684C706.673 347.684 706.029 347.25 706.029 346.494V344.17C706.029 343.456 706.673 342.994 707.527 342.994C708.451 342.994 709.095 343.68 709.095 344.716V345.976C709.095 347.012 708.451 347.684 707.527 347.684ZM715.745 349.168C717.103 349.168 718.167 348.65 718.769 347.824L717.803 346.746C717.355 347.32 716.823 347.74 715.941 347.74C714.765 347.74 714.163 347.026 714.163 345.976V345.794H719.021V345.206C719.021 343.204 717.971 341.524 715.689 341.524C713.547 341.524 712.301 343.022 712.301 345.332C712.301 347.67 713.589 349.168 715.745 349.168ZM715.717 342.868C716.641 342.868 717.159 343.554 717.159 344.562V344.688H714.163V344.576C714.163 343.568 714.779 342.868 715.717 342.868ZM722.55 349V344.52C722.55 343.722 723.18 343.386 724.384 343.386H724.944V341.692H724.552C723.39 341.692 722.802 342.434 722.62 343.204H722.55V341.692H720.758V349H722.55ZM731.689 349.168C732.781 349.168 733.579 348.678 733.817 347.74H733.901C734.013 348.496 734.489 349 735.259 349H736.253V347.572H735.525V344.128C735.525 342.462 734.475 341.524 732.501 341.524C731.031 341.524 730.177 342.084 729.645 342.924L730.709 343.876C731.059 343.372 731.535 342.952 732.375 342.952C733.327 342.952 733.733 343.428 733.733 344.24V344.772H732.487C730.499 344.772 729.365 345.514 729.365 347.012C729.365 348.314 730.205 349.168 731.689 349.168ZM732.291 347.866C731.591 347.866 731.185 347.572 731.185 346.984V346.746C731.185 346.172 731.647 345.85 732.585 345.85H733.733V346.816C733.733 347.502 733.089 347.866 732.291 347.866ZM739.655 349V344.17C739.655 343.386 740.369 342.994 741.111 342.994C741.965 342.994 742.315 343.526 742.315 344.562V349H744.107V344.38C744.107 342.56 743.267 341.524 741.769 341.524C740.635 341.524 740.019 342.126 739.725 342.91H739.655V341.692H737.863V349H739.655ZM750.789 349H752.581V338.64H750.789V342.896H750.719C750.467 342.056 749.669 341.524 748.703 341.524C746.869 341.524 745.847 342.896 745.847 345.332C745.847 347.782 746.869 349.168 748.703 349.168C749.669 349.168 750.453 348.608 750.719 347.782H750.789V349ZM749.277 347.684C748.353 347.684 747.723 347.012 747.723 345.976V344.716C747.723 343.68 748.353 342.994 749.277 342.994C750.131 342.994 750.789 343.456 750.789 344.17V346.494C750.789 347.25 750.131 347.684 749.277 347.684ZM760.558 349H761.846V347.572H760.46V343.12H761.958V341.692H760.46V339.69H758.85V340.936C758.85 341.44 758.682 341.692 758.15 341.692H757.59V343.12H758.668V347.138C758.668 348.328 759.326 349 760.558 349ZM766.879 345.556L766.375 347.404H766.291L765.815 345.556L764.541 341.692H762.763L765.381 349.35L765.045 350.372H763.729V351.8H764.807C766.011 351.8 766.529 351.352 766.893 350.302L769.833 341.692H768.153L766.879 345.556ZM771.175 351.8H772.967V347.782H773.023C773.303 348.608 774.073 349.168 775.039 349.168C776.887 349.168 777.909 347.782 777.909 345.332C777.909 342.896 776.887 341.524 775.039 341.524C774.073 341.524 773.289 342.056 773.023 342.896H772.967V341.692H771.175V351.8ZM774.465 347.684C773.611 347.684 772.967 347.25 772.967 346.494V344.17C772.967 343.456 773.611 342.994 774.465 342.994C775.389 342.994 776.033 343.68 776.033 344.716V345.976C776.033 347.012 775.389 347.684 774.465 347.684ZM782.683 349.168C784.041 349.168 785.105 348.65 785.707 347.824L784.741 346.746C784.293 347.32 783.761 347.74 782.879 347.74C781.703 347.74 781.101 347.026 781.101 345.976V345.794H785.959V345.206C785.959 343.204 784.909 341.524 782.627 341.524C780.485 341.524 779.239 343.022 779.239 345.332C779.239 347.67 780.527 349.168 782.683 349.168ZM782.655 342.868C783.579 342.868 784.097 343.554 784.097 344.562V344.688H781.101V344.576C781.101 343.568 781.717 342.868 782.655 342.868ZM794.062 349.168C796.162 349.168 797.464 347.684 797.464 345.332C797.464 342.994 796.162 341.524 794.062 341.524C791.976 341.524 790.674 342.994 790.674 345.332C790.674 347.684 791.976 349.168 794.062 349.168ZM794.062 347.726C793.138 347.726 792.55 347.124 792.55 346.018V344.66C792.55 343.568 793.138 342.966 794.062 342.966C795 342.966 795.588 343.568 795.588 344.66V346.018C795.588 347.124 795 347.726 794.062 347.726ZM799.495 349H801.287V343.106H802.785V341.692H801.287V340.068H802.785V338.64H801.511C800.195 338.64 799.495 339.354 799.495 340.642V341.692H798.417V343.106H799.495V349ZM807.654 349H809.446V344.17C809.446 343.386 810.16 342.994 810.902 342.994C811.756 342.994 812.106 343.526 812.106 344.562V349H813.898V344.38C813.898 342.56 813.058 341.524 811.56 341.524C810.426 341.524 809.81 342.126 809.516 342.91H809.446V338.64H807.654V349ZM818.943 349.168C821.043 349.168 822.345 347.684 822.345 345.332C822.345 342.994 821.043 341.524 818.943 341.524C816.857 341.524 815.555 342.994 815.555 345.332C815.555 347.684 816.857 349.168 818.943 349.168ZM818.943 347.726C818.019 347.726 817.431 347.124 817.431 346.018V344.66C817.431 343.568 818.019 342.966 818.943 342.966C819.881 342.966 820.469 343.568 820.469 344.66V346.018C820.469 347.124 819.881 347.726 818.943 347.726ZM826.487 349.168C828.307 349.168 829.497 348.188 829.497 346.774C829.497 345.556 828.727 344.842 827.131 344.618L826.389 344.52C825.703 344.408 825.437 344.184 825.437 343.694C825.437 343.246 825.773 342.938 826.543 342.938C827.257 342.938 827.873 343.274 828.293 343.722L829.343 342.672C828.643 341.944 827.915 341.524 826.487 341.524C824.821 341.524 823.715 342.42 823.715 343.834C823.715 345.164 824.583 345.85 826.151 346.046L826.879 346.144C827.523 346.228 827.775 346.494 827.775 346.914C827.775 347.432 827.411 347.754 826.557 347.754C825.731 347.754 825.087 347.376 824.555 346.76L823.463 347.824C824.191 348.664 825.101 349.168 826.487 349.168ZM833.412 349H834.7V347.572H833.314V343.12H834.812V341.692H833.314V339.69H831.704V340.936C831.704 341.44 831.536 341.692 831.004 341.692H830.444V343.12H831.522V347.138C831.522 348.328 832.18 349 833.412 349ZM838.921 349.168C840.741 349.168 841.931 348.188 841.931 346.774C841.931 345.556 841.161 344.842 839.565 344.618L838.823 344.52C838.137 344.408 837.871 344.184 837.871 343.694C837.871 343.246 838.207 342.938 838.977 342.938C839.691 342.938 840.307 343.274 840.727 343.722L841.777 342.672C841.077 341.944 840.349 341.524 838.921 341.524C837.255 341.524 836.149 342.42 836.149 343.834C836.149 345.164 837.017 345.85 838.585 346.046L839.313 346.144C839.957 346.228 840.209 346.494 840.209 346.914C840.209 347.432 839.845 347.754 838.991 347.754C838.165 347.754 837.521 347.376 836.989 346.76L835.897 347.824C836.625 348.664 837.535 349.168 838.921 349.168Z" fill="black"/>
<rect x="656.5" y="320.5" width="207" height="47" stroke="#8F8B8B"/>
<path fill-rule="evenodd" clip-rule="evenodd" d="M184 183.5H184.5C189.194 183.5 193 187.306 193 192V211.828H195.387L192.5 216.828L189.613 211.828H192V192C192 187.858 188.642 184.5 184.5 184.5H184V183.5Z" fill="#565151"/>
<path fill-rule="evenodd" clip-rule="evenodd" d="M464 183.5H464.5C469.194 183.5 473 187.306 473 192V211.828H475.387L472.5 216.828L469.613 211.828H472V192C472 187.858 468.642 184.5 464.5 184.5H464V183.5Z" fill="#565151"/>
<rect x="376.5" y="320.5" width="207" height="47" fill="white"/>
<path d="M380 320H376V368H380V320Z" fill="#8F8B8B"/>
<path d="M396.186 349.168C398.524 349.168 399.854 347.908 399.854 346.06C399.854 344.45 398.93 343.568 396.956 343.218L396.046 343.05C395.108 342.882 394.688 342.574 394.688 341.832C394.688 341.104 395.234 340.684 396.284 340.684C397.32 340.684 397.992 341.09 398.468 341.692L399.728 340.502C398.944 339.564 397.852 339.06 396.382 339.06C394.198 339.06 392.84 340.194 392.84 341.944C392.84 343.54 393.792 344.478 395.766 344.786L396.69 344.926C397.712 345.108 398.02 345.514 398.02 346.172C398.02 346.998 397.432 347.544 396.298 347.544C395.29 347.544 394.464 347.124 393.792 346.34L392.546 347.544C393.372 348.51 394.52 349.168 396.186 349.168ZM403.561 349.168C404.653 349.168 405.451 348.678 405.689 347.74H405.773C405.885 348.496 406.361 349 407.131 349H408.125V347.572H407.397V344.128C407.397 342.462 406.347 341.524 404.373 341.524C402.903 341.524 402.049 342.084 401.517 342.924L402.581 343.876C402.931 343.372 403.407 342.952 404.247 342.952C405.199 342.952 405.605 343.428 405.605 344.24V344.772H404.359C402.371 344.772 401.237 345.514 401.237 347.012C401.237 348.314 402.077 349.168 403.561 349.168ZM404.163 347.866C403.463 347.866 403.057 347.572 403.057 346.984V346.746C403.057 346.172 403.519 345.85 404.457 345.85H405.605V346.816C405.605 347.502 404.961 347.866 404.163 347.866ZM411.962 349H413.25V347.572H411.864V343.12H413.362V341.692H411.864V339.69H410.254V340.936C410.254 341.44 410.086 341.692 409.554 341.692H408.994V343.12H410.072V347.138C410.072 348.328 410.73 349 411.962 349ZM417.976 349.168C419.334 349.168 420.398 348.65 421 347.824L420.034 346.746C419.586 347.32 419.054 347.74 418.172 347.74C416.996 347.74 416.394 347.026 416.394 345.976V345.794H421.252V345.206C421.252 343.204 420.202 341.524 417.92 341.524C415.778 341.524 414.532 343.022 414.532 345.332C414.532 347.67 415.82 349.168 417.976 349.168ZM417.948 342.868C418.872 342.868 419.39 343.554 419.39 344.562V344.688H416.394V344.576C416.394 343.568 417.01 342.868 417.948 342.868ZM425.746 349V347.572H424.78V338.64H422.988V347.236C422.988 348.356 423.562 349 424.78 349H425.746ZM429.926 349V347.572H428.96V338.64H427.168V347.236C427.168 348.356 427.742 349 428.96 349H429.926ZM432.339 340.628C433.067 340.628 433.389 340.25 433.389 339.732V339.452C433.389 338.934 433.067 338.556 432.339 338.556C431.597 338.556 431.289 338.934 431.289 339.452V339.732C431.289 340.25 431.597 340.628 432.339 340.628ZM431.443 349H433.235V341.692H431.443V349ZM437.754 349H439.042V347.572H437.656V343.12H439.154V341.692H437.656V339.69H436.046V340.936C436.046 341.44 435.878 341.692 435.346 341.692H434.786V343.12H435.864V347.138C435.864 348.328 436.522 349 437.754 349ZM443.768 349.168C445.126 349.168 446.19 348.65 446.792 347.824L445.826 346.746C445.378 347.32 444.846 347.74 443.964 347.74C442.788 347.74 442.186 347.026 442.186 345.976V345.794H447.044V345.206C447.044 343.204 445.994 341.524 443.712 341.524C441.57 341.524 440.324 343.022 440.324 345.332C440.324 347.67 441.612 349.168 443.768 349.168ZM443.74 342.868C444.664 342.868 445.182 343.554 445.182 344.562V344.688H442.186V344.576C442.186 343.568 442.802 342.868 443.74 342.868ZM452.697 345.626V343.848H448.693V345.626H452.697ZM457.801 349.168C459.159 349.168 460.223 348.65 460.825 347.824L459.859 346.746C459.411 347.32 458.879 347.74 457.997 347.74C456.821 347.74 456.219 347.026 456.219 345.976V345.794H461.077V345.206C461.077 343.204 460.027 341.524 457.745 341.524C455.603 341.524 454.357 343.022 454.357 345.332C454.357 347.67 455.645 349.168 457.801 349.168ZM457.773 342.868C458.697 342.868 459.215 343.554 459.215 344.562V344.688H456.219V344.576C456.219 343.568 456.835 342.868 457.773 342.868ZM464.606 349V344.17C464.606 343.386 465.32 342.994 466.062 342.994C466.916 342.994 467.266 343.526 467.266 344.562V349H469.058V344.38C469.058 342.56 468.218 341.524 466.72 341.524C465.586 341.524 464.97 342.126 464.676 342.91H464.606V341.692H462.814V349H464.606ZM473.01 349.168C474.102 349.168 474.9 348.678 475.138 347.74H475.222C475.334 348.496 475.81 349 476.58 349H477.574V347.572H476.846V344.128C476.846 342.462 475.796 341.524 473.822 341.524C472.352 341.524 471.498 342.084 470.966 342.924L472.03 343.876C472.38 343.372 472.856 342.952 473.696 342.952C474.648 342.952 475.054 343.428 475.054 344.24V344.772H473.808C471.82 344.772 470.686 345.514 470.686 347.012C470.686 348.314 471.526 349.168 473.01 349.168ZM473.612 347.866C472.912 347.866 472.506 347.572 472.506 346.984V346.746C472.506 346.172 472.968 345.85 473.906 345.85H475.054V346.816C475.054 347.502 474.41 347.866 473.612 347.866ZM479.184 349H480.976V347.782H481.032C481.312 348.608 482.082 349.168 483.048 349.168C484.896 349.168 485.918 347.782 485.918 345.332C485.918 342.896 484.896 341.524 483.048 341.524C482.082 341.524 481.298 342.056 481.032 342.896H480.976V338.64H479.184V349ZM482.474 347.684C481.62 347.684 480.976 347.25 480.976 346.494V344.17C480.976 343.456 481.62 342.994 482.474 342.994C483.398 342.994 484.042 343.68 484.042 344.716V345.976C484.042 347.012 483.398 347.684 482.474 347.684ZM490.497 349V347.572H489.531V338.64H487.739V347.236C487.739 348.356 488.313 349 489.531 349H490.497ZM494.968 349.168C496.326 349.168 497.39 348.65 497.992 347.824L497.026 346.746C496.578 347.32 496.046 347.74 495.164 347.74C493.988 347.74 493.386 347.026 493.386 345.976V345.794H498.244V345.206C498.244 343.204 497.194 341.524 494.912 341.524C492.77 341.524 491.524 343.022 491.524 345.332C491.524 347.67 492.812 349.168 494.968 349.168ZM494.94 342.868C495.864 342.868 496.382 343.554 496.382 344.562V344.688H493.386V344.576C493.386 343.568 494.002 342.868 494.94 342.868ZM504.517 349H506.309V338.64H504.517V342.896H504.447C504.195 342.056 503.397 341.524 502.431 341.524C500.597 341.524 499.575 342.896 499.575 345.332C499.575 347.782 500.597 349.168 502.431 349.168C503.397 349.168 504.181 348.608 504.447 347.782H504.517V349ZM503.005 347.684C502.081 347.684 501.451 347.012 501.451 345.976V344.716C501.451 343.68 502.081 342.994 503.005 342.994C503.859 342.994 504.517 343.456 504.517 344.17V346.494C504.517 347.25 503.859 347.684 503.005 347.684ZM514.398 349.168C516.218 349.168 517.408 348.188 517.408 346.774C517.408 345.556 516.638 344.842 515.042 344.618L514.3 344.52C513.614 344.408 513.348 344.184 513.348 343.694C513.348 343.246 513.684 342.938 514.454 342.938C515.168 342.938 515.784 343.274 516.204 343.722L517.254 342.672C516.554 341.944 515.826 341.524 514.398 341.524C512.732 341.524 511.626 342.42 511.626 343.834C511.626 345.164 512.494 345.85 514.062 346.046L514.79 346.144C515.434 346.228 515.686 346.494 515.686 346.914C515.686 347.432 515.322 347.754 514.468 347.754C513.642 347.754 512.998 347.376 512.466 346.76L511.374 347.824C512.102 348.664 513.012 349.168 514.398 349.168ZM522.104 349.168C523.462 349.168 524.526 348.65 525.128 347.824L524.162 346.746C523.714 347.32 523.182 347.74 522.3 347.74C521.124 347.74 520.522 347.026 520.522 345.976V345.794H525.38V345.206C525.38 343.204 524.33 341.524 522.048 341.524C519.906 341.524 518.66 343.022 518.66 345.332C518.66 347.67 519.948 349.168 522.104 349.168ZM522.076 342.868C523 342.868 523.518 343.554 523.518 344.562V344.688H520.522V344.576C520.522 343.568 521.138 342.868 522.076 342.868ZM528.909 349V344.52C528.909 343.722 529.539 343.386 530.743 343.386H531.303V341.692H530.911C529.749 341.692 529.161 342.434 528.979 343.204H528.909V341.692H527.117V349H528.909ZM536.578 349L539.028 341.692H537.32L536.326 344.842L535.612 347.446H535.514L534.8 344.842L533.778 341.692H532.014L534.45 349H536.578ZM541.28 340.628C542.008 340.628 542.33 340.25 542.33 339.732V339.452C542.33 338.934 542.008 338.556 541.28 338.556C540.538 338.556 540.23 338.934 540.23 339.452V339.732C540.23 340.25 540.538 340.628 541.28 340.628ZM540.384 349H542.176V341.692H540.384V349ZM547.297 349.168C548.711 349.168 549.733 348.524 550.209 347.236L548.837 346.578C548.571 347.236 548.151 347.726 547.297 347.726C546.303 347.726 545.799 347.04 545.799 346.018V344.688C545.799 343.666 546.303 342.966 547.297 342.966C548.067 342.966 548.529 343.414 548.697 344.03L550.167 343.372C549.733 342.224 548.767 341.524 547.297 341.524C545.141 341.524 543.923 342.994 543.923 345.332C543.923 347.684 545.141 349.168 547.297 349.168ZM554.637 349.168C555.995 349.168 557.059 348.65 557.661 347.824L556.695 346.746C556.247 347.32 555.715 347.74 554.833 347.74C553.657 347.74 553.055 347.026 553.055 345.976V345.794H557.913V345.206C557.913 343.204 556.863 341.524 554.581 341.524C552.439 341.524 551.193 343.022 551.193 345.332C551.193 347.67 552.481 349.168 554.637 349.168ZM554.609 342.868C555.533 342.868 556.051 343.554 556.051 344.562V344.688H553.055V344.576C553.055 343.568 553.671 342.868 554.609 342.868ZM562.043 349.168C563.863 349.168 565.053 348.188 565.053 346.774C565.053 345.556 564.283 344.842 562.687 344.618L561.945 344.52C561.259 344.408 560.993 344.184 560.993 343.694C560.993 343.246 561.329 342.938 562.099 342.938C562.813 342.938 563.429 343.274 563.849 343.722L564.899 342.672C564.199 341.944 563.471 341.524 562.043 341.524C560.377 341.524 559.271 342.42 559.271 343.834C559.271 345.164 560.139 345.85 561.707 346.046L562.435 346.144C563.079 346.228 563.331 346.494 563.331 346.914C563.331 347.432 562.967 347.754 562.113 347.754C561.287 347.754 560.643 347.376 560.111 346.76L559.019 347.824C559.747 348.664 560.657 349.168 562.043 349.168Z" fill="black"/>
<rect x="376.5" y="320.5" width="207" height="47" stroke="#8F8B8B"/>
<rect x="656.5" y="384.5" width="207" height="47" fill="white"/>
<path d="M660 384H656V432H660V384Z" fill="#8F8B8B"/>
<path d="M676.984 413.168C679.56 413.168 681.24 411.418 681.24 408.114C681.24 404.81 679.56 403.06 676.984 403.06C674.422 403.06 672.728 404.81 672.728 408.114C672.728 411.418 674.422 413.168 676.984 413.168ZM676.984 411.53C675.584 411.53 674.688 410.536 674.688 408.87V407.358C674.688 405.692 675.584 404.698 676.984 404.698C678.384 404.698 679.28 405.692 679.28 407.358V408.87C679.28 410.536 678.384 411.53 676.984 411.53ZM683.163 415.8H684.955V411.782H685.011C685.291 412.608 686.061 413.168 687.027 413.168C688.875 413.168 689.897 411.782 689.897 409.332C689.897 406.896 688.875 405.524 687.027 405.524C686.061 405.524 685.277 406.056 685.011 406.896H684.955V405.692H683.163V415.8ZM686.453 411.684C685.599 411.684 684.955 411.25 684.955 410.494V408.17C684.955 407.456 685.599 406.994 686.453 406.994C687.377 406.994 688.021 407.68 688.021 408.716V409.976C688.021 411.012 687.377 411.684 686.453 411.684ZM694.671 413.168C696.029 413.168 697.093 412.65 697.695 411.824L696.729 410.746C696.281 411.32 695.749 411.74 694.867 411.74C693.691 411.74 693.089 411.026 693.089 409.976V409.794H697.947V409.206C697.947 407.204 696.897 405.524 694.615 405.524C692.473 405.524 691.227 407.022 691.227 409.332C691.227 411.67 692.515 413.168 694.671 413.168ZM694.643 406.868C695.567 406.868 696.085 407.554 696.085 408.562V408.688H693.089V408.576C693.089 407.568 693.705 406.868 694.643 406.868ZM701.476 413V408.52C701.476 407.722 702.106 407.386 703.31 407.386H703.87V405.692H703.478C702.316 405.692 701.728 406.434 701.546 407.204H701.476V405.692H699.684V413H701.476ZM706.996 413.168C708.088 413.168 708.886 412.678 709.124 411.74H709.208C709.32 412.496 709.796 413 710.566 413H711.56V411.572H710.832V408.128C710.832 406.462 709.782 405.524 707.808 405.524C706.338 405.524 705.484 406.084 704.952 406.924L706.016 407.876C706.366 407.372 706.842 406.952 707.682 406.952C708.634 406.952 709.04 407.428 709.04 408.24V408.772H707.794C705.806 408.772 704.672 409.514 704.672 411.012C704.672 412.314 705.512 413.168 706.996 413.168ZM707.598 411.866C706.898 411.866 706.492 411.572 706.492 410.984V410.746C706.492 410.172 706.954 409.85 707.892 409.85H709.04V410.816C709.04 411.502 708.396 411.866 707.598 411.866ZM715.397 413H716.685V411.572H715.299V407.12H716.797V405.692H715.299V403.69H713.689V404.936C713.689 405.44 713.521 405.692 712.989 405.692H712.429V407.12H713.507V411.138C713.507 412.328 714.165 413 715.397 413ZM719.408 404.628C720.136 404.628 720.458 404.25 720.458 403.732V403.452C720.458 402.934 720.136 402.556 719.408 402.556C718.666 402.556 718.358 402.934 718.358 403.452V403.732C718.358 404.25 718.666 404.628 719.408 404.628ZM718.512 413H720.304V405.692H718.512V413ZM724.333 413V408.17C724.333 407.386 725.047 406.994 725.789 406.994C726.643 406.994 726.993 407.526 726.993 408.562V413H728.785V408.38C728.785 406.56 727.945 405.524 726.447 405.524C725.313 405.524 724.697 406.126 724.403 406.91H724.333V405.692H722.541V413H724.333ZM737.525 413.616C737.525 412.3 736.755 411.53 734.963 411.53H733.003C732.359 411.53 732.051 411.348 732.051 410.984C732.051 410.662 732.289 410.452 732.569 410.326C732.891 410.41 733.269 410.452 733.689 410.452C735.677 410.452 736.713 409.472 736.713 408.002C736.713 407.106 736.335 406.392 735.579 405.972V405.776H737.133V404.404H735.999C735.327 404.404 734.963 404.754 734.963 405.468V405.706C734.599 405.58 734.137 405.524 733.689 405.524C731.715 405.524 730.665 406.518 730.665 408.002C730.665 408.968 731.113 409.724 731.995 410.13V410.186C731.295 410.34 730.651 410.718 730.651 411.474C730.651 412.062 730.987 412.538 731.589 412.692V412.846C730.777 412.972 730.287 413.434 730.287 414.246C730.287 415.324 731.225 415.968 733.689 415.968C736.489 415.968 737.525 415.142 737.525 413.616ZM735.845 413.826C735.845 414.442 735.327 414.736 734.165 414.736H733.269C732.149 414.736 731.729 414.4 731.729 413.84C731.729 413.546 731.841 413.28 732.107 413.084H734.599C735.509 413.084 735.845 413.364 735.845 413.826ZM733.689 409.234C732.835 409.234 732.373 408.842 732.373 408.114V407.876C732.373 407.134 732.835 406.756 733.689 406.756C734.543 406.756 735.005 407.134 735.005 407.876V408.114C735.005 408.842 734.543 409.234 733.689 409.234ZM744.583 413.168C746.403 413.168 747.593 412.188 747.593 410.774C747.593 409.556 746.823 408.842 745.227 408.618L744.485 408.52C743.799 408.408 743.533 408.184 743.533 407.694C743.533 407.246 743.869 406.938 744.639 406.938C745.353 406.938 745.969 407.274 746.389 407.722L747.439 406.672C746.739 405.944 746.011 405.524 744.583 405.524C742.917 405.524 741.811 406.42 741.811 407.834C741.811 409.164 742.679 409.85 744.247 410.046L744.975 410.144C745.619 410.228 745.871 410.494 745.871 410.914C745.871 411.432 745.507 411.754 744.653 411.754C743.827 411.754 743.183 411.376 742.651 410.76L741.559 411.824C742.287 412.664 743.197 413.168 744.583 413.168ZM752.377 409.556L751.873 411.404H751.789L751.313 409.556L750.039 405.692H748.261L750.879 413.35L750.543 414.372H749.227V415.8H750.305C751.509 415.8 752.027 415.352 752.391 414.302L755.331 405.692H753.651L752.377 409.556ZM758.957 413.168C760.777 413.168 761.967 412.188 761.967 410.774C761.967 409.556 761.197 408.842 759.601 408.618L758.859 408.52C758.173 408.408 757.907 408.184 757.907 407.694C757.907 407.246 758.243 406.938 759.013 406.938C759.727 406.938 760.343 407.274 760.763 407.722L761.813 406.672C761.113 405.944 760.385 405.524 758.957 405.524C757.291 405.524 756.185 406.42 756.185 407.834C756.185 409.164 757.053 409.85 758.621 410.046L759.349 410.144C759.993 410.228 760.245 410.494 760.245 410.914C760.245 411.432 759.881 411.754 759.027 411.754C758.201 411.754 757.557 411.376 757.025 410.76L755.933 411.824C756.661 412.664 757.571 413.168 758.957 413.168ZM765.882 413H767.17V411.572H765.784V407.12H767.282V405.692H765.784V403.69H764.174V404.936C764.174 405.44 764.006 405.692 763.474 405.692H762.914V407.12H763.992V411.138C763.992 412.328 764.65 413 765.882 413ZM771.896 413.168C773.254 413.168 774.318 412.65 774.92 411.824L773.954 410.746C773.506 411.32 772.974 411.74 772.092 411.74C770.916 411.74 770.314 411.026 770.314 409.976V409.794H775.172V409.206C775.172 407.204 774.122 405.524 771.84 405.524C769.698 405.524 768.452 407.022 768.452 409.332C768.452 411.67 769.74 413.168 771.896 413.168ZM771.868 406.868C772.792 406.868 773.31 407.554 773.31 408.562V408.688H770.314V408.576C770.314 407.568 770.93 406.868 771.868 406.868ZM778.701 413V408.17C778.701 407.386 779.373 406.994 780.059 406.994C780.857 406.994 781.235 407.512 781.235 408.562V413H783.027V408.17C783.027 407.386 783.685 406.994 784.385 406.994C785.183 406.994 785.561 407.512 785.561 408.562V413H787.353V408.38C787.353 406.56 786.541 405.524 785.113 405.524C783.951 405.524 783.139 406.182 782.873 406.994H782.845C782.495 406.014 781.725 405.524 780.731 405.524C779.639 405.524 779.051 406.14 778.771 406.91H778.701V405.692H776.909V413H778.701Z" fill="black"/>
<rect x="656.5" y="384.5" width="207" height="47" stroke="#8F8B8B"/>
<rect x="96.5" y="448.5" width="207" height="47" fill="white"/>
<path d="M100 448H96V496H100V448Z" fill="#8F8B8B"/>
<path d="M117.18 477V475.516H115.878V468.712H117.18V467.228H112.742V468.712H114.03V475.516H112.742V477H117.18ZM119.228 477H124.184C125.626 477 126.704 475.768 126.704 474.2C126.704 472.534 125.444 471.932 124.59 471.918V471.834C125.486 471.778 126.34 471.218 126.34 469.734C126.34 468.222 125.36 467.228 123.75 467.228H119.228V477ZM121.076 472.814H123.652C124.352 472.814 124.772 473.206 124.772 473.892V474.368C124.772 475.054 124.352 475.432 123.652 475.432H121.076V472.814ZM121.076 468.796H123.358C124.03 468.796 124.422 469.174 124.422 469.832V470.266C124.422 470.91 124.03 471.302 123.358 471.302H121.076V468.796ZM128.671 477H130.421V469.986H130.477L131.233 471.54L133.235 475.236L135.237 471.54L135.993 469.986H136.049V477H137.799V467.228H135.797L133.319 472.002H133.263L130.757 467.228H128.671V477ZM147.523 477.168C149.273 477.168 150.435 476.314 151.135 474.858L149.637 473.976C149.315 474.858 148.629 475.53 147.523 475.53C146.151 475.53 145.269 474.578 145.269 472.898V471.358C145.269 469.692 146.151 468.698 147.523 468.698C148.615 468.698 149.231 469.286 149.511 470.154L151.093 469.314C150.407 467.802 149.273 467.06 147.523 467.06C144.947 467.06 143.309 468.894 143.309 472.184C143.309 475.474 144.947 477.168 147.523 477.168ZM155.518 477V475.572H154.552V466.64H152.76V475.236C152.76 476.356 153.334 477 154.552 477H155.518ZM159.933 477.168C162.033 477.168 163.335 475.684 163.335 473.332C163.335 470.994 162.033 469.524 159.933 469.524C157.847 469.524 156.545 470.994 156.545 473.332C156.545 475.684 157.847 477.168 159.933 477.168ZM159.933 475.726C159.009 475.726 158.421 475.124 158.421 474.018V472.66C158.421 471.568 159.009 470.966 159.933 470.966C160.871 470.966 161.459 471.568 161.459 472.66V474.018C161.459 475.124 160.871 475.726 159.933 475.726ZM169.452 477H171.244V469.692H169.452V474.522C169.452 475.306 168.738 475.684 168.024 475.684C167.17 475.684 166.792 475.138 166.792 474.13V469.692H165V474.312C165 476.132 165.84 477.168 167.338 477.168C168.542 477.168 169.13 476.51 169.382 475.782H169.452V477ZM178.01 477H179.802V466.64H178.01V470.896H177.94C177.688 470.056 176.89 469.524 175.924 469.524C174.09 469.524 173.068 470.896 173.068 473.332C173.068 475.782 174.09 477.168 175.924 477.168C176.89 477.168 177.674 476.608 177.94 475.782H178.01V477ZM176.498 475.684C175.574 475.684 174.944 475.012 174.944 473.976V472.716C174.944 471.68 175.574 470.994 176.498 470.994C177.352 470.994 178.01 471.456 178.01 472.17V474.494C178.01 475.25 177.352 475.684 176.498 475.684Z" fill="black"/>
<rect x="96.5" y="448.5" width="207" height="47" stroke="#8F8B8B"/>
<path d="M193.561 217.768L214.732 238.939C215.318 239.525 215.318 240.475 214.732 241.061L193.561 262.232C192.975 262.818 192.025 262.818 191.439 262.232L170.268 241.061C169.682 240.475 169.682 239.525 170.268 238.939L191.439 217.768C192.025 217.182 192.975 217.182 193.561 217.768Z" fill="#CAC5C4" stroke="#CAC5C4"/>
<rect width="20" height="20" transform="translate(183 230)" fill="white" style="mix-blend-mode:multiply"/>
<path d="M193 231.25C191.269 231.25 189.578 231.763 188.139 232.725C186.7 233.686 185.578 235.053 184.916 236.652C184.254 238.25 184.081 240.01 184.418 241.707C184.756 243.404 185.589 244.963 186.813 246.187C188.037 247.411 189.596 248.244 191.293 248.582C192.99 248.919 194.75 248.746 196.348 248.084C197.947 247.422 199.314 246.3 200.275 244.861C201.237 243.422 201.75 241.731 201.75 240C201.75 237.679 200.828 235.454 199.187 233.813C197.546 232.172 195.321 231.25 193 231.25ZM193 247.5C191.517 247.5 190.067 247.06 188.833 246.236C187.6 245.412 186.639 244.241 186.071 242.87C185.503 241.5 185.355 239.992 185.644 238.537C185.934 237.082 186.648 235.746 187.697 234.697C188.746 233.648 190.082 232.933 191.537 232.644C192.992 232.355 194.5 232.503 195.87 233.071C197.241 233.639 198.412 234.6 199.236 235.833C200.06 237.067 200.5 238.517 200.5 240C200.5 241.989 199.71 243.897 198.303 245.303C196.897 246.71 194.989 247.5 193 247.5Z" fill="black"/>
<path d="M193 245.625C193.518 245.625 193.938 245.205 193.938 244.688C193.938 244.17 193.518 243.75 193 243.75C192.482 243.75 192.063 244.17 192.063 244.688C192.063 245.205 192.482 245.625 193 245.625Z" fill="black"/>
<path d="M193.625 235H192.688C192.318 234.999 191.952 235.071 191.61 235.212C191.269 235.353 190.958 235.561 190.697 235.822C190.436 236.083 190.228 236.394 190.087 236.735C189.946 237.077 189.874 237.443 189.875 237.812V238.125H191.125V237.812C191.125 237.398 191.29 237.001 191.583 236.708C191.876 236.415 192.273 236.25 192.688 236.25H193.625C194.039 236.25 194.437 236.415 194.73 236.708C195.023 237.001 195.188 237.398 195.188 237.812C195.188 238.227 195.023 238.624 194.73 238.917C194.437 239.21 194.039 239.375 193.625 239.375H192.375V242.188H193.625V240.625C194.371 240.625 195.086 240.329 195.614 239.801C196.141 239.274 196.438 238.558 196.438 237.812C196.438 237.067 196.141 236.351 195.614 235.824C195.086 235.296 194.371 235 193.625 235Z" fill="black"/>
<path d="M150.675 286V284.516H149.373V277.712H150.675V276.228H146.237V277.712H147.525V284.516H146.237V286H150.675ZM154.403 286V281.17C154.403 280.386 155.117 279.994 155.859 279.994C156.713 279.994 157.063 280.526 157.063 281.562V286H158.855V281.38C158.855 279.56 158.015 278.524 156.517 278.524C155.383 278.524 154.767 279.126 154.473 279.91H154.403V278.692H152.611V286H154.403ZM161.366 286H163.158V280.106H164.656V278.692H163.158V277.068H164.656V275.64H163.382C162.066 275.64 161.366 276.354 161.366 277.642V278.692H160.288V280.106H161.366V286ZM167.848 286V281.52C167.848 280.722 168.478 280.386 169.682 280.386H170.242V278.692H169.85C168.688 278.692 168.1 279.434 167.918 280.204H167.848V278.692H166.056V286H167.848ZM173.368 286.168C174.46 286.168 175.258 285.678 175.496 284.74H175.58C175.692 285.496 176.168 286 176.938 286H177.932V284.572H177.204V281.128C177.204 279.462 176.154 278.524 174.18 278.524C172.71 278.524 171.856 279.084 171.324 279.924L172.388 280.876C172.738 280.372 173.214 279.952 174.054 279.952C175.006 279.952 175.412 280.428 175.412 281.24V281.772H174.166C172.178 281.772 171.044 282.514 171.044 284.012C171.044 285.314 171.884 286.168 173.368 286.168ZM173.97 284.866C173.27 284.866 172.864 284.572 172.864 283.984V283.746C172.864 283.172 173.326 282.85 174.264 282.85H175.412V283.816C175.412 284.502 174.768 284.866 173.97 284.866ZM181.936 286.168C183.756 286.168 184.946 285.188 184.946 283.774C184.946 282.556 184.176 281.842 182.58 281.618L181.838 281.52C181.152 281.408 180.886 281.184 180.886 280.694C180.886 280.246 181.222 279.938 181.992 279.938C182.706 279.938 183.322 280.274 183.742 280.722L184.792 279.672C184.092 278.944 183.364 278.524 181.936 278.524C180.27 278.524 179.164 279.42 179.164 280.834C179.164 282.164 180.032 282.85 181.6 283.046L182.328 283.144C182.972 283.228 183.224 283.494 183.224 283.914C183.224 284.432 182.86 284.754 182.006 284.754C181.18 284.754 180.536 284.376 180.004 283.76L178.912 284.824C179.64 285.664 180.55 286.168 181.936 286.168ZM188.861 286H190.149V284.572H188.763V280.12H190.261V278.692H188.763V276.69H187.153V277.936C187.153 278.44 186.985 278.692 186.453 278.692H185.893V280.12H186.971V284.138C186.971 285.328 187.629 286 188.861 286ZM193.767 286V281.52C193.767 280.722 194.397 280.386 195.601 280.386H196.161V278.692H195.769C194.607 278.692 194.019 279.434 193.837 280.204H193.767V278.692H191.975V286H193.767ZM201.999 286H203.791V278.692H201.999V283.522C201.999 284.306 201.285 284.684 200.571 284.684C199.717 284.684 199.339 284.138 199.339 283.13V278.692H197.547V283.312C197.547 285.132 198.387 286.168 199.885 286.168C201.089 286.168 201.677 285.51 201.929 284.782H201.999V286ZM208.906 286.168C210.32 286.168 211.342 285.524 211.818 284.236L210.446 283.578C210.18 284.236 209.76 284.726 208.906 284.726C207.912 284.726 207.408 284.04 207.408 283.018V281.688C207.408 280.666 207.912 279.966 208.906 279.966C209.676 279.966 210.138 280.414 210.306 281.03L211.776 280.372C211.342 279.224 210.376 278.524 208.906 278.524C206.75 278.524 205.532 279.994 205.532 282.332C205.532 284.684 206.75 286.168 208.906 286.168ZM215.642 286H216.93V284.572H215.544V280.12H217.042V278.692H215.544V276.69H213.934V277.936C213.934 278.44 213.766 278.692 213.234 278.692H212.674V280.12H213.752V284.138C213.752 285.328 214.41 286 215.642 286ZM223.124 286H224.916V278.692H223.124V283.522C223.124 284.306 222.41 284.684 221.696 284.684C220.842 284.684 220.464 284.138 220.464 283.13V278.692H218.672V283.312C218.672 285.132 219.512 286.168 221.01 286.168C222.214 286.168 222.802 285.51 223.054 284.782H223.124V286ZM228.938 286V281.52C228.938 280.722 229.568 280.386 230.772 280.386H231.332V278.692H230.94C229.778 278.692 229.19 279.434 229.008 280.204H228.938V278.692H227.146V286H228.938ZM235.688 286.168C237.046 286.168 238.11 285.65 238.712 284.824L237.746 283.746C237.298 284.32 236.766 284.74 235.884 284.74C234.708 284.74 234.106 284.026 234.106 282.976V282.794H238.964V282.206C238.964 280.204 237.914 278.524 235.632 278.524C233.49 278.524 232.244 280.022 232.244 282.332C232.244 284.67 233.532 286.168 235.688 286.168ZM235.66 279.868C236.584 279.868 237.102 280.554 237.102 281.562V281.688H234.106V281.576C234.106 280.568 234.722 279.868 235.66 279.868Z" fill="black"/>
<path d="M473.061 217.768L494.232 238.939C494.818 239.525 494.818 240.475 494.232 241.061L473.061 262.232C472.475 262.818 471.525 262.818 470.939 262.232L449.768 241.061C449.182 240.475 449.182 239.525 449.768 238.939L470.939 217.768C471.525 217.182 472.475 217.182 473.061 217.768Z" fill="#CAC5C4" stroke="#CAC5C4"/>
<rect width="20" height="20" transform="translate(462.5 230)" fill="white" style="mix-blend-mode:multiply"/>
<path d="M472.5 231.25C470.769 231.25 469.078 231.763 467.639 232.725C466.2 233.686 465.078 235.053 464.416 236.652C463.754 238.25 463.581 240.01 463.918 241.707C464.256 243.404 465.089 244.963 466.313 246.187C467.537 247.411 469.096 248.244 470.793 248.582C472.49 248.919 474.25 248.746 475.848 248.084C477.447 247.422 478.814 246.3 479.775 244.861C480.737 243.422 481.25 241.731 481.25 240C481.25 237.679 480.328 235.454 478.687 233.813C477.046 232.172 474.821 231.25 472.5 231.25ZM472.5 247.5C471.017 247.5 469.567 247.06 468.333 246.236C467.1 245.412 466.139 244.241 465.571 242.87C465.003 241.5 464.855 239.992 465.144 238.537C465.434 237.082 466.148 235.746 467.197 234.697C468.246 233.648 469.582 232.933 471.037 232.644C472.492 232.355 474 232.503 475.37 233.071C476.741 233.639 477.912 234.6 478.736 235.833C479.56 237.067 480 238.517 480 240C480 241.989 479.21 243.897 477.803 245.303C476.397 246.71 474.489 247.5 472.5 247.5Z" fill="black"/>
<path d="M472.5 245.625C473.018 245.625 473.438 245.205 473.438 244.688C473.438 244.17 473.018 243.75 472.5 243.75C471.982 243.75 471.563 244.17 471.563 244.688C471.563 245.205 471.982 245.625 472.5 245.625Z" fill="black"/>
<path d="M473.125 235H472.188C471.818 234.999 471.452 235.071 471.11 235.212C470.769 235.353 470.458 235.561 470.197 235.822C469.936 236.083 469.728 236.394 469.587 236.735C469.446 237.077 469.374 237.443 469.375 237.812V238.125H470.625V237.812C470.625 237.398 470.79 237.001 471.083 236.708C471.376 236.415 471.773 236.25 472.188 236.25H473.125C473.539 236.25 473.937 236.415 474.23 236.708C474.523 237.001 474.688 237.398 474.688 237.812C474.688 238.227 474.523 238.624 474.23 238.917C473.937 239.21 473.539 239.375 473.125 239.375H471.875V242.188H473.125V240.625C473.871 240.625 474.586 240.329 475.114 239.801C475.641 239.274 475.938 238.558 475.938 237.812C475.938 237.067 475.641 236.351 475.114 235.824C474.586 235.296 473.871 235 473.125 235Z" fill="black"/>
<path d="M448.084 286.168C450.422 286.168 451.752 284.908 451.752 283.06C451.752 281.45 450.828 280.568 448.854 280.218L447.944 280.05C447.006 279.882 446.586 279.574 446.586 278.832C446.586 278.104 447.132 277.684 448.182 277.684C449.218 277.684 449.89 278.09 450.366 278.692L451.626 277.502C450.842 276.564 449.75 276.06 448.28 276.06C446.096 276.06 444.738 277.194 444.738 278.944C444.738 280.54 445.69 281.478 447.664 281.786L448.588 281.926C449.61 282.108 449.918 282.514 449.918 283.172C449.918 283.998 449.33 284.544 448.196 284.544C447.188 284.544 446.362 284.124 445.69 283.34L444.444 284.544C445.27 285.51 446.418 286.168 448.084 286.168ZM456.607 286.168C457.965 286.168 459.029 285.65 459.631 284.824L458.665 283.746C458.217 284.32 457.685 284.74 456.803 284.74C455.627 284.74 455.025 284.026 455.025 282.976V282.794H459.883V282.206C459.883 280.204 458.833 278.524 456.551 278.524C454.409 278.524 453.163 280.022 453.163 282.332C453.163 284.67 454.451 286.168 456.607 286.168ZM456.579 279.868C457.503 279.868 458.021 280.554 458.021 281.562V281.688H455.025V281.576C455.025 280.568 455.641 279.868 456.579 279.868ZM463.411 286V281.52C463.411 280.722 464.041 280.386 465.245 280.386H465.805V278.692H465.413C464.251 278.692 463.663 279.434 463.481 280.204H463.411V278.692H461.619V286H463.411ZM471.081 286L473.531 278.692H471.823L470.829 281.842L470.115 284.446H470.017L469.303 281.842L468.281 278.692H466.517L468.953 286H471.081ZM475.783 277.628C476.511 277.628 476.833 277.25 476.833 276.732V276.452C476.833 275.934 476.511 275.556 475.783 275.556C475.041 275.556 474.733 275.934 474.733 276.452V276.732C474.733 277.25 475.041 277.628 475.783 277.628ZM474.887 286H476.679V278.692H474.887V286ZM481.8 286.168C483.214 286.168 484.236 285.524 484.712 284.236L483.34 283.578C483.074 284.236 482.654 284.726 481.8 284.726C480.806 284.726 480.302 284.04 480.302 283.018V281.688C480.302 280.666 480.806 279.966 481.8 279.966C482.57 279.966 483.032 280.414 483.2 281.03L484.67 280.372C484.236 279.224 483.27 278.524 481.8 278.524C479.644 278.524 478.426 279.994 478.426 282.332C478.426 284.684 479.644 286.168 481.8 286.168ZM489.139 286.168C490.497 286.168 491.561 285.65 492.163 284.824L491.197 283.746C490.749 284.32 490.217 284.74 489.335 284.74C488.159 284.74 487.557 284.026 487.557 282.976V282.794H492.415V282.206C492.415 280.204 491.365 278.524 489.083 278.524C486.941 278.524 485.695 280.022 485.695 282.332C485.695 284.67 486.983 286.168 489.139 286.168ZM489.111 279.868C490.035 279.868 490.553 280.554 490.553 281.562V281.688H487.557V281.576C487.557 280.568 488.173 279.868 489.111 279.868ZM496.546 286.168C498.366 286.168 499.556 285.188 499.556 283.774C499.556 282.556 498.786 281.842 497.19 281.618L496.448 281.52C495.762 281.408 495.496 281.184 495.496 280.694C495.496 280.246 495.832 279.938 496.602 279.938C497.316 279.938 497.932 280.274 498.352 280.722L499.402 279.672C498.702 278.944 497.974 278.524 496.546 278.524C494.88 278.524 493.774 279.42 493.774 280.834C493.774 282.164 494.642 282.85 496.21 283.046L496.938 283.144C497.582 283.228 497.834 283.494 497.834 283.914C497.834 284.432 497.47 284.754 496.616 284.754C495.79 284.754 495.146 284.376 494.614 283.76L493.522 284.824C494.25 285.664 495.16 286.168 496.546 286.168Z" fill="black"/>
<path fill-rule="evenodd" clip-rule="evenodd" d="M992.5 504C992.5 508.694 988.694 512.5 984 512.5H895.5V511.5H984C988.142 511.5 991.5 508.142 991.5 504V189H989.113L992 184L994.887 189H992.5V504Z" fill="#565151"/>
<path fill-rule="evenodd" clip-rule="evenodd" d="M72.5 144.001V176.003C72.5 180.145 75.8579 183.503 80 183.503L752 183.5C756.694 183.5 760.5 187.306 760.5 192V211.832H762.887L760 216.832L757.113 211.832H759.5V192C759.5 187.858 756.142 184.5 752 184.5L80 184.503C75.3056 184.503 71.5 180.698 71.5 176.003V144.001H72.5Z" fill="#565151"/>
<rect x="956.5" y="160.5" width="71" height="23" rx="11.5" fill="white"/>
<path d="M970.6 168.512V167.624H964.264V168.512H966.928V176H967.936V168.512H970.6ZM973.762 176.144C975.418 176.144 976.558 174.872 976.558 172.904C976.558 170.936 975.418 169.664 973.762 169.664C972.106 169.664 970.966 170.936 970.966 172.904C970.966 174.872 972.106 176.144 973.762 176.144ZM973.762 175.292C972.73 175.292 971.998 174.656 971.998 173.348V172.46C971.998 171.152 972.73 170.516 973.762 170.516C974.794 170.516 975.526 171.152 975.526 172.46V173.348C975.526 174.656 974.794 175.292 973.762 175.292ZM983.473 176.144C984.889 176.144 985.765 175.412 985.765 174.212C985.765 173.276 985.237 172.676 983.869 172.472L983.389 172.4C982.621 172.28 982.201 172.04 982.201 171.44C982.201 170.852 982.621 170.48 983.413 170.48C984.205 170.48 984.733 170.852 985.009 171.236L985.645 170.66C985.141 170.036 984.481 169.664 983.485 169.664C982.225 169.664 981.277 170.264 981.277 171.488C981.277 172.64 982.129 173.108 983.269 173.276L983.761 173.348C984.577 173.468 984.841 173.84 984.841 174.32C984.841 174.956 984.361 175.328 983.545 175.328C982.765 175.328 982.189 174.98 981.709 174.38L981.025 174.932C981.577 175.664 982.333 176.144 983.473 176.144ZM990.266 176V175.16H989.006V170.648H990.362V169.808H989.006V168.092H988.142V169.244C988.142 169.664 988.01 169.808 987.602 169.808H987.026V170.648H988.046V174.98C988.046 175.58 988.406 176 989.066 176H990.266ZM994.507 176.144C995.671 176.144 996.559 175.568 996.955 174.728L996.271 174.236C995.947 174.92 995.347 175.304 994.567 175.304C993.415 175.304 992.731 174.5 992.731 173.432V173.144H997.183V172.688C997.183 170.936 996.163 169.664 994.507 169.664C992.827 169.664 991.723 170.936 991.723 172.904C991.723 174.872 992.827 176.144 994.507 176.144ZM994.507 170.468C995.491 170.468 996.151 171.2 996.151 172.292V172.424H992.731V172.34C992.731 171.26 993.463 170.468 994.507 170.468ZM999.085 178.4H1000.04V174.992H1000.09C1000.46 175.76 1001.05 176.144 1001.9 176.144C1003.45 176.144 1004.42 174.884 1004.42 172.904C1004.42 170.924 1003.45 169.664 1001.9 169.664C1001.05 169.664 1000.42 170.036 1000.09 170.816H1000.04V169.808H999.085V178.4ZM1001.64 175.28C1000.76 175.28 1000.04 174.824 1000.04 174.02V171.716C1000.04 171.032 1000.76 170.528 1001.64 170.528C1002.72 170.528 1003.39 171.272 1003.39 172.376V173.432C1003.39 174.536 1002.72 175.28 1001.64 175.28ZM1014.9 175.112H1010.49L1012.75 173.084C1013.82 172.124 1014.59 171.212 1014.59 169.916C1014.59 168.488 1013.65 167.48 1012.02 167.48C1010.4 167.48 1009.65 168.464 1009.33 169.448L1010.23 169.796C1010.46 169.004 1010.94 168.38 1011.97 168.38C1013 168.38 1013.52 169.016 1013.52 169.94V170.084C1013.52 170.888 1012.92 171.728 1012.14 172.448L1009.4 174.968V176H1014.9V175.112ZM1017.65 176.144C1018.15 176.144 1018.38 175.856 1018.38 175.448V175.292C1018.38 174.884 1018.15 174.596 1017.65 174.596C1017.14 174.596 1016.92 174.884 1016.92 175.292V175.448C1016.92 175.856 1017.14 176.144 1017.65 176.144Z" fill="#161616"/>
<rect width="6" height="24" transform="translate(1022 160)" fill="white" style="mix-blend-mode:multiply"/>
<rect x="956.5" y="160.5" width="71" height="23" rx="11.5" stroke="black"/>
<rect x="48.5" y="544.5" width="15" height="15" rx="3.5" fill="white" style="mix-blend-mode:multiply"/>
<rect x="48.5" y="544.5" width="15" height="15" rx="3.5" stroke="#8D8D8D"/>
<path d="M78.636 557V555.964H74.478V547.228H73.302V557H78.636ZM82.957 557.168C84.889 557.168 86.219 555.684 86.219 553.388C86.219 551.092 84.889 549.608 82.957 549.608C81.025 549.608 79.695 551.092 79.695 553.388C79.695 555.684 81.025 557.168 82.957 557.168ZM82.957 556.174C81.753 556.174 80.899 555.432 80.899 553.906V552.87C80.899 551.344 81.753 550.602 82.957 550.602C84.161 550.602 85.015 551.344 85.015 552.87V553.906C85.015 555.432 84.161 556.174 82.957 556.174ZM94.3109 557.798C94.3109 556.608 93.5409 555.88 91.7489 555.88H90.2089C89.5509 555.88 89.1029 555.768 89.1029 555.334C89.1029 554.886 89.5789 554.648 90.0549 554.522C90.2649 554.564 90.5169 554.592 90.7549 554.592C92.4069 554.592 93.4849 553.57 93.4849 552.1C93.4849 551.33 93.1769 550.686 92.6589 550.238V549.776H94.0309V548.796H92.9529C92.3509 548.796 92.1129 549.202 92.1129 549.762V549.888C91.7209 549.706 91.2589 549.608 90.7409 549.608C89.1029 549.608 88.0249 550.63 88.0249 552.1C88.0249 553.108 88.5289 553.906 89.3829 554.312V554.368C88.6549 554.55 88.1369 554.9 88.1369 555.628C88.1369 556.118 88.3749 556.44 88.7809 556.636V556.79C88.0669 556.986 87.6329 557.406 87.6329 558.19C87.6329 559.324 88.5569 559.968 90.8109 559.968C93.1349 559.968 94.3109 559.282 94.3109 557.798ZM93.2609 557.882C93.2609 558.666 92.5329 559.058 91.2869 559.058H90.2509C89.1169 559.058 88.6829 558.54 88.6829 557.91C88.6829 557.462 88.8929 557.14 89.3549 556.93H91.7629C92.8829 556.93 93.2609 557.308 93.2609 557.882ZM90.7549 553.696C89.8029 553.696 89.2009 553.248 89.2009 552.296V551.904C89.2009 550.952 89.8029 550.504 90.7549 550.504C91.7069 550.504 92.3089 550.952 92.3089 551.904V552.296C92.3089 553.248 91.7069 553.696 90.7549 553.696ZM96.3374 548.082C96.8134 548.082 97.0234 547.83 97.0234 547.452V547.27C97.0234 546.892 96.8134 546.64 96.3374 546.64C95.8614 546.64 95.6514 546.892 95.6514 547.27V547.452C95.6514 547.83 95.8614 548.082 96.3374 548.082ZM95.7774 557H96.8974V549.776H95.7774V557ZM102.125 557.168C103.497 557.168 104.435 556.496 104.897 555.46L104.085 554.914C103.693 555.74 103.035 556.174 102.125 556.174C100.795 556.174 100.109 555.264 100.109 554.004V552.772C100.109 551.512 100.795 550.602 102.125 550.602C103.007 550.602 103.623 551.036 103.889 551.778L104.827 551.302C104.407 550.308 103.553 549.608 102.125 549.608C100.095 549.608 98.9054 551.078 98.9054 553.388C98.9054 555.698 100.095 557.168 102.125 557.168ZM112.518 557V556.02H111.692V552.044C111.692 550.518 110.656 549.608 108.92 549.608C107.618 549.608 106.75 550.252 106.358 551.022L107.03 551.652C107.422 550.994 107.996 550.574 108.864 550.574C110.012 550.574 110.572 551.134 110.572 552.156V552.87H109.144C107.044 552.87 106.064 553.626 106.064 554.984C106.064 556.328 106.96 557.168 108.486 557.168C109.494 557.168 110.264 556.706 110.572 555.824H110.642C110.726 556.496 111.062 557 111.888 557H112.518ZM108.668 556.216C107.8 556.216 107.24 555.81 107.24 555.096V554.802C107.24 554.102 107.814 553.71 109.088 553.71H110.572V554.9C110.572 555.642 109.774 556.216 108.668 556.216ZM116.461 557V556.02H115.397V546.64H114.277V555.838C114.277 556.51 114.697 557 115.467 557H116.461ZM122.84 557V551.988C122.84 551.064 123.708 550.616 124.604 550.616C125.682 550.616 126.242 551.274 126.242 552.562V557H127.362V552.366C127.362 550.616 126.424 549.608 124.94 549.608C123.862 549.608 123.246 550.14 122.896 550.952H122.84V549.776H121.72V557H122.84ZM132.567 557.168C134.499 557.168 135.829 555.684 135.829 553.388C135.829 551.092 134.499 549.608 132.567 549.608C130.635 549.608 129.305 551.092 129.305 553.388C129.305 555.684 130.635 557.168 132.567 557.168ZM132.567 556.174C131.363 556.174 130.509 555.432 130.509 553.906V552.87C130.509 551.344 131.363 550.602 132.567 550.602C133.771 550.602 134.625 551.344 134.625 552.87V553.906C134.625 555.432 133.771 556.174 132.567 556.174ZM142.451 557H143.571V546.64H142.451V550.952H142.395C142.017 550.042 141.275 549.608 140.281 549.608C138.475 549.608 137.341 551.078 137.341 553.388C137.341 555.698 138.475 557.168 140.281 557.168C141.275 557.168 141.961 556.72 142.395 555.824H142.451V557ZM140.589 556.16C139.329 556.16 138.545 555.292 138.545 554.004V552.772C138.545 551.484 139.329 550.616 140.589 550.616C141.611 550.616 142.451 551.204 142.451 552.002V554.69C142.451 555.628 141.611 556.16 140.589 556.16ZM148.828 557.168C150.186 557.168 151.222 556.496 151.684 555.516L150.886 554.942C150.508 555.74 149.808 556.188 148.898 556.188C147.554 556.188 146.756 555.25 146.756 554.004V553.668H151.95V553.136C151.95 551.092 150.76 549.608 148.828 549.608C146.868 549.608 145.58 551.092 145.58 553.388C145.58 555.684 146.868 557.168 148.828 557.168ZM148.828 550.546C149.976 550.546 150.746 551.4 150.746 552.674V552.828H146.756V552.73C146.756 551.47 147.61 550.546 148.828 550.546Z" fill="#6F6F6F"/>
<rect x="169.5" y="544.5" width="15" height="15" fill="#F4F4F4"/>
<rect x="169.5" y="544.5" width="15" height="15" stroke="#8D8D8D"/>
<path d="M195.478 557V552.828H198.194C199.944 552.828 200.924 551.75 200.924 550.028C200.924 548.306 199.944 547.228 198.194 547.228H194.302V557H195.478ZM195.478 548.264H198.194C199.118 548.264 199.664 548.768 199.664 549.664V550.392C199.664 551.288 199.118 551.792 198.194 551.792H195.478V548.264ZM203.824 557V552.1C203.824 551.414 204.552 550.896 205.756 550.896H206.414V549.776H205.98C204.804 549.776 204.146 550.42 203.894 551.106H203.824V549.776H202.704V557H203.824ZM210.652 557.168C212.01 557.168 213.046 556.496 213.508 555.516L212.71 554.942C212.332 555.74 211.632 556.188 210.722 556.188C209.378 556.188 208.58 555.25 208.58 554.004V553.668H213.774V553.136C213.774 551.092 212.584 549.608 210.652 549.608C208.692 549.608 207.404 551.092 207.404 553.388C207.404 555.684 208.692 557.168 210.652 557.168ZM210.652 550.546C211.8 550.546 212.57 551.4 212.57 552.674V552.828H208.58V552.73C208.58 551.47 209.434 550.546 210.652 550.546ZM217.949 557.168C219.601 557.168 220.623 556.314 220.623 554.914C220.623 553.822 220.007 553.122 218.411 552.884L217.851 552.8C216.955 552.66 216.465 552.38 216.465 551.68C216.465 550.994 216.955 550.56 217.879 550.56C218.803 550.56 219.419 550.994 219.741 551.442L220.483 550.77C219.895 550.042 219.125 549.608 217.963 549.608C216.493 549.608 215.387 550.308 215.387 551.736C215.387 553.08 216.381 553.626 217.711 553.822L218.285 553.906C219.237 554.046 219.545 554.48 219.545 555.04C219.545 555.782 218.985 556.216 218.033 556.216C217.123 556.216 216.451 555.81 215.891 555.11L215.093 555.754C215.737 556.608 216.619 557.168 217.949 557.168ZM225.45 557.168C226.822 557.168 227.76 556.496 228.222 555.46L227.41 554.914C227.018 555.74 226.36 556.174 225.45 556.174C224.12 556.174 223.434 555.264 223.434 554.004V552.772C223.434 551.512 224.12 550.602 225.45 550.602C226.332 550.602 226.948 551.036 227.214 551.778L228.152 551.302C227.732 550.308 226.878 549.608 225.45 549.608C223.42 549.608 222.23 551.078 222.23 553.388C222.23 555.698 223.42 557.168 225.45 557.168ZM231.083 557V552.1C231.083 551.414 231.811 550.896 233.015 550.896H233.673V549.776H233.239C232.063 549.776 231.405 550.42 231.153 551.106H231.083V549.776H229.963V557H231.083ZM235.823 548.082C236.299 548.082 236.509 547.83 236.509 547.452V547.27C236.509 546.892 236.299 546.64 235.823 546.64C235.347 546.64 235.137 546.892 235.137 547.27V547.452C235.137 547.83 235.347 548.082 235.823 548.082ZM235.263 557H236.383V549.776H235.263V557ZM238.923 557H240.043V555.824H240.099C240.533 556.72 241.219 557.168 242.213 557.168C244.019 557.168 245.153 555.698 245.153 553.388C245.153 551.078 244.019 549.608 242.213 549.608C241.219 549.608 240.477 550.042 240.099 550.952H240.043V546.64H238.923V557ZM241.905 556.16C240.883 556.16 240.043 555.628 240.043 554.69V552.002C240.043 551.204 240.883 550.616 241.905 550.616C243.165 550.616 243.949 551.484 243.949 552.772V554.004C243.949 555.292 243.165 556.16 241.905 556.16ZM249.92 557.168C251.278 557.168 252.314 556.496 252.776 555.516L251.978 554.942C251.6 555.74 250.9 556.188 249.99 556.188C248.646 556.188 247.848 555.25 247.848 554.004V553.668H253.042V553.136C253.042 551.092 251.852 549.608 249.92 549.608C247.96 549.608 246.672 551.092 246.672 553.388C246.672 555.684 247.96 557.168 249.92 557.168ZM249.92 550.546C251.068 550.546 251.838 551.4 251.838 552.674V552.828H247.848V552.73C247.848 551.47 248.702 550.546 249.92 550.546ZM259.668 557H260.788V546.64H259.668V550.952H259.612C259.234 550.042 258.492 549.608 257.498 549.608C255.692 549.608 254.558 551.078 254.558 553.388C254.558 555.698 255.692 557.168 257.498 557.168C258.492 557.168 259.178 556.72 259.612 555.824H259.668V557ZM257.806 556.16C256.546 556.16 255.762 555.292 255.762 554.004V552.772C255.762 551.484 256.546 550.616 257.806 550.616C258.828 550.616 259.668 551.204 259.668 552.002V554.69C259.668 555.628 258.828 556.16 257.806 556.16ZM267.918 557V551.988C267.918 551.064 268.786 550.616 269.682 550.616C270.76 550.616 271.32 551.274 271.32 552.562V557H272.44V552.366C272.44 550.616 271.502 549.608 270.018 549.608C268.94 549.608 268.324 550.14 267.974 550.952H267.918V549.776H266.798V557H267.918ZM277.645 557.168C279.577 557.168 280.907 555.684 280.907 553.388C280.907 551.092 279.577 549.608 277.645 549.608C275.713 549.608 274.383 551.092 274.383 553.388C274.383 555.684 275.713 557.168 277.645 557.168ZM277.645 556.174C276.441 556.174 275.587 555.432 275.587 553.906V552.87C275.587 551.344 276.441 550.602 277.645 550.602C278.849 550.602 279.703 551.344 279.703 552.87V553.906C279.703 555.432 278.849 556.174 277.645 556.174ZM287.529 557H288.649V546.64H287.529V550.952H287.473C287.095 550.042 286.353 549.608 285.359 549.608C283.553 549.608 282.419 551.078 282.419 553.388C282.419 555.698 283.553 557.168 285.359 557.168C286.353 557.168 287.039 556.72 287.473 555.824H287.529V557ZM285.667 556.16C284.407 556.16 283.623 555.292 283.623 554.004V552.772C283.623 551.484 284.407 550.616 285.667 550.616C286.689 550.616 287.529 551.204 287.529 552.002V554.69C287.529 555.628 286.689 556.16 285.667 556.16ZM293.906 557.168C295.264 557.168 296.3 556.496 296.762 555.516L295.964 554.942C295.586 555.74 294.886 556.188 293.976 556.188C292.632 556.188 291.834 555.25 291.834 554.004V553.668H297.028V553.136C297.028 551.092 295.838 549.608 293.906 549.608C291.946 549.608 290.658 551.092 290.658 553.388C290.658 555.684 291.946 557.168 293.906 557.168ZM293.906 550.546C295.054 550.546 295.824 551.4 295.824 552.674V552.828H291.834V552.73C291.834 551.47 292.688 550.546 293.906 550.546Z" fill="#6F6F6F"/>
</svg>
