<svg width="1080" height="608" viewBox="0 0 1080 608" fill="none" xmlns="http://www.w3.org/2000/svg">
<rect width="1080" height="608" fill="#F4F4F4"/>
<rect width="1080" height="608" fill="#F4F4F4"/>
<path fill-rule="evenodd" clip-rule="evenodd" d="M187 69.1133L192 72L187 74.8868L187 72.5L134.5 72.5L134.5 71.5L187 71.5L187 69.1133Z" fill="#565151"/>
<rect width="54" height="110" transform="translate(189 48)" fill="white" style="mix-blend-mode:multiply"/>
<rect x="192" y="48" width="48" height="48" rx="8" fill="#005D5D"/>
<rect width="20" height="20" transform="translate(206 62)" fill="white" style="mix-blend-mode:multiply"/>
<path d="M216 80.75L210.728 74.5321C210.698 74.4964 210.51 74.2499 210.51 74.2499C209.61 73.0636 209.123 71.6145 209.125 70.125C209.125 68.3016 209.849 66.553 211.139 65.2636C212.428 63.9743 214.177 63.25 216 63.25C217.823 63.25 219.572 63.9743 220.861 65.2636C222.151 66.553 222.875 68.3016 222.875 70.125C222.877 71.6139 222.391 73.0624 221.491 74.2483L221.49 74.2499C221.49 74.2499 221.302 74.4964 221.274 74.5295L216 80.75ZM211.508 73.4969C211.508 73.4969 211.654 73.6895 211.687 73.7309L216 78.8174L220.319 73.7237C220.346 73.6892 220.493 73.4951 220.493 73.4951C221.229 72.5258 221.626 71.342 221.625 70.125C221.625 68.6332 221.032 67.2024 219.977 66.1475C218.923 65.0926 217.492 64.5 216 64.5C214.508 64.5 213.077 65.0926 212.023 66.1475C210.968 67.2024 210.375 68.6332 210.375 70.125C210.374 71.3426 210.772 72.5271 211.508 73.4969Z" fill="white"/>
<path d="M219.125 73.25H217.875V68.25H214.125V73.25H212.875V68.25C212.875 67.9186 213.007 67.6008 213.242 67.3665C213.476 67.1322 213.794 67.0003 214.125 67H217.875C218.206 67.0003 218.524 67.1322 218.759 67.3665C218.993 67.6008 219.125 67.9186 219.125 68.25V73.25Z" fill="white"/>
<path d="M216.625 72H215.375V73.25H216.625V72Z" fill="white"/>
<path d="M216.625 69.5H215.375V70.75H216.625V69.5Z" fill="white"/>
<path d="M217.282 116.446H212.508L214.566 114.752C215.924 113.632 217.03 112.596 217.03 110.972C217.03 109.292 215.854 108.06 213.796 108.06C211.808 108.06 210.758 109.194 210.338 110.496L211.934 111.112C212.158 110.314 212.634 109.656 213.642 109.656C214.44 109.656 215.084 110.132 215.084 110.986V111.168C215.084 112.022 214.608 112.694 213.572 113.604L210.506 116.292V118H217.282V116.446ZM220.278 118.154C221.048 118.154 221.398 117.72 221.398 117.132V116.88C221.398 116.278 221.048 115.844 220.278 115.844C219.522 115.844 219.158 116.278 219.158 116.88V117.132C219.158 117.72 219.522 118.154 220.278 118.154Z" fill="black"/>
<path d="M194.059 136.168C195.683 136.168 196.873 135.314 197.489 133.942L196.551 133.354C196.159 134.418 195.305 135.118 194.059 135.118C192.379 135.118 191.385 133.9 191.385 131.898V130.442C191.385 128.44 192.379 127.11 194.059 127.11C195.263 127.11 196.075 127.768 196.467 128.776L197.419 128.202C196.803 126.844 195.683 126.06 194.059 126.06C191.595 126.06 190.125 127.908 190.125 131.17C190.125 134.432 191.595 136.168 194.059 136.168ZM200.478 136V131.1C200.478 130.414 201.206 129.896 202.41 129.896H203.068V128.776H202.634C201.458 128.776 200.8 129.42 200.548 130.106H200.478V128.776H199.358V136H200.478ZM207.307 136.168C208.665 136.168 209.701 135.496 210.163 134.516L209.365 133.942C208.987 134.74 208.287 135.188 207.377 135.188C206.033 135.188 205.235 134.25 205.235 133.004V132.668H210.429V132.136C210.429 130.092 209.239 128.608 207.307 128.608C205.347 128.608 204.059 130.092 204.059 132.388C204.059 134.684 205.347 136.168 207.307 136.168ZM207.307 129.546C208.455 129.546 209.225 130.4 209.225 131.674V131.828H205.235V131.73C205.235 130.47 206.089 129.546 207.307 129.546ZM218.314 136V135.02H217.488V131.044C217.488 129.518 216.452 128.608 214.716 128.608C213.414 128.608 212.546 129.252 212.154 130.022L212.826 130.652C213.218 129.994 213.792 129.574 214.66 129.574C215.808 129.574 216.368 130.134 216.368 131.156V131.87H214.94C212.84 131.87 211.86 132.626 211.86 133.984C211.86 135.328 212.756 136.168 214.282 136.168C215.29 136.168 216.06 135.706 216.368 134.824H216.438C216.522 135.496 216.858 136 217.684 136H218.314ZM214.464 135.216C213.596 135.216 213.036 134.81 213.036 134.096V133.802C213.036 133.102 213.61 132.71 214.884 132.71H216.368V133.9C216.368 134.642 215.57 135.216 214.464 135.216ZM223.069 136V135.02H221.599V129.756H223.181V128.776H221.599V126.774H220.591V128.118C220.591 128.608 220.437 128.776 219.961 128.776H219.289V129.756H220.479V134.81C220.479 135.51 220.899 136 221.669 136H223.069ZM227.802 136.168C229.16 136.168 230.196 135.496 230.658 134.516L229.86 133.942C229.482 134.74 228.782 135.188 227.872 135.188C226.528 135.188 225.73 134.25 225.73 133.004V132.668H230.924V132.136C230.924 130.092 229.734 128.608 227.802 128.608C225.842 128.608 224.554 130.092 224.554 132.388C224.554 134.684 225.842 136.168 227.802 136.168ZM227.802 129.546C228.95 129.546 229.72 130.4 229.72 131.674V131.828H225.73V131.73C225.73 130.47 226.584 129.546 227.802 129.546ZM242.278 136V135.02H241.452V131.044C241.452 129.518 240.416 128.608 238.68 128.608C237.378 128.608 236.51 129.252 236.118 130.022L236.79 130.652C237.182 129.994 237.756 129.574 238.624 129.574C239.772 129.574 240.332 130.134 240.332 131.156V131.87H238.904C236.804 131.87 235.824 132.626 235.824 133.984C235.824 135.328 236.72 136.168 238.246 136.168C239.254 136.168 240.024 135.706 240.332 134.824H240.402C240.486 135.496 240.822 136 241.648 136H242.278ZM238.428 135.216C237.56 135.216 237 134.81 237 134.096V133.802C237 133.102 237.574 132.71 238.848 132.71H240.332V133.9C240.332 134.642 239.534 135.216 238.428 135.216ZM193.55 154V153.02H192.486V143.64H191.366V152.838C191.366 153.51 191.786 154 192.556 154H193.55ZM198.071 154.168C200.003 154.168 201.333 152.684 201.333 150.388C201.333 148.092 200.003 146.608 198.071 146.608C196.139 146.608 194.809 148.092 194.809 150.388C194.809 152.684 196.139 154.168 198.071 154.168ZM198.071 153.174C196.867 153.174 196.013 152.432 196.013 150.906V149.87C196.013 148.344 196.867 147.602 198.071 147.602C199.275 147.602 200.129 148.344 200.129 149.87V150.906C200.129 152.432 199.275 153.174 198.071 153.174ZM206.023 154.168C207.395 154.168 208.333 153.496 208.795 152.46L207.983 151.914C207.591 152.74 206.933 153.174 206.023 153.174C204.693 153.174 204.007 152.264 204.007 151.004V149.772C204.007 148.512 204.693 147.602 206.023 147.602C206.905 147.602 207.521 148.036 207.787 148.778L208.725 148.302C208.305 147.308 207.451 146.608 206.023 146.608C203.993 146.608 202.803 148.078 202.803 150.388C202.803 152.698 203.993 154.168 206.023 154.168ZM216.416 154V153.02H215.59V149.044C215.59 147.518 214.554 146.608 212.818 146.608C211.516 146.608 210.648 147.252 210.256 148.022L210.928 148.652C211.32 147.994 211.894 147.574 212.762 147.574C213.91 147.574 214.47 148.134 214.47 149.156V149.87H213.042C210.942 149.87 209.962 150.626 209.962 151.984C209.962 153.328 210.858 154.168 212.384 154.168C213.392 154.168 214.162 153.706 214.47 152.824H214.54C214.624 153.496 214.96 154 215.786 154H216.416ZM212.566 153.216C211.698 153.216 211.138 152.81 211.138 152.096V151.802C211.138 151.102 211.712 150.71 212.986 150.71H214.47V151.9C214.47 152.642 213.672 153.216 212.566 153.216ZM221.17 154V153.02H219.7V147.756H221.282V146.776H219.7V144.774H218.692V146.118C218.692 146.608 218.538 146.776 218.062 146.776H217.39V147.756H218.58V152.81C218.58 153.51 219 154 219.77 154H221.17ZM223.803 145.082C224.279 145.082 224.489 144.83 224.489 144.452V144.27C224.489 143.892 224.279 143.64 223.803 143.64C223.327 143.64 223.117 143.892 223.117 144.27V144.452C223.117 144.83 223.327 145.082 223.803 145.082ZM223.243 154H224.363V146.776H223.243V154ZM229.633 154.168C231.565 154.168 232.895 152.684 232.895 150.388C232.895 148.092 231.565 146.608 229.633 146.608C227.701 146.608 226.371 148.092 226.371 150.388C226.371 152.684 227.701 154.168 229.633 154.168ZM229.633 153.174C228.429 153.174 227.575 152.432 227.575 150.906V149.87C227.575 148.344 228.429 147.602 229.633 147.602C230.837 147.602 231.691 148.344 231.691 149.87V150.906C231.691 152.432 230.837 153.174 229.633 153.174ZM236.017 154V148.988C236.017 148.064 236.885 147.616 237.781 147.616C238.859 147.616 239.419 148.274 239.419 149.562V154H240.539V149.366C240.539 147.616 239.601 146.608 238.117 146.608C237.039 146.608 236.423 147.14 236.073 147.952H236.017V146.776H234.897V154H236.017Z" fill="black"/>
<rect x="48.5" y="60.5" width="87" height="23" rx="11.5" fill="white"/>
<path d="M58.124 76V72.208H61.76V71.32H58.124V68.512H62.108V67.624H57.116V76H58.124ZM64.7688 76V71.8C64.7688 71.212 65.3928 70.768 66.4248 70.768H66.9888V69.808H66.6168C65.6088 69.808 65.0448 70.36 64.8288 70.948H64.7688V69.808H63.8088V76H64.7688ZM70.8164 76.144C72.4724 76.144 73.6124 74.872 73.6124 72.904C73.6124 70.936 72.4724 69.664 70.8164 69.664C69.1604 69.664 68.0204 70.936 68.0204 72.904C68.0204 74.872 69.1604 76.144 70.8164 76.144ZM70.8164 75.292C69.7844 75.292 69.0524 74.656 69.0524 73.348V72.46C69.0524 71.152 69.7844 70.516 70.8164 70.516C71.8484 70.516 72.5804 71.152 72.5804 72.46V73.348C72.5804 74.656 71.8484 75.292 70.8164 75.292ZM76.4712 76V71.704C76.4712 70.912 77.1912 70.528 77.9472 70.528C78.8592 70.528 79.2792 71.092 79.2792 72.196V76H80.2392V71.704C80.2392 70.912 80.9352 70.528 81.6912 70.528C82.6272 70.528 83.0472 71.104 83.0472 72.196V76H84.0072V72.028C84.0072 70.528 83.2512 69.664 81.9912 69.664C80.9352 69.664 80.3352 70.252 80.1072 70.924H80.0832C79.7472 70.036 79.0032 69.664 78.1872 69.664C77.2272 69.664 76.7952 70.18 76.5192 70.816H76.4712V69.808H75.5112V76H76.4712ZM91.3237 76.144C92.7397 76.144 93.6157 75.412 93.6157 74.212C93.6157 73.276 93.0877 72.676 91.7197 72.472L91.2397 72.4C90.4717 72.28 90.0517 72.04 90.0517 71.44C90.0517 70.852 90.4717 70.48 91.2637 70.48C92.0557 70.48 92.5837 70.852 92.8597 71.236L93.4957 70.66C92.9917 70.036 92.3317 69.664 91.3357 69.664C90.0757 69.664 89.1277 70.264 89.1277 71.488C89.1277 72.64 89.9797 73.108 91.1197 73.276L91.6117 73.348C92.4277 73.468 92.6917 73.84 92.6917 74.32C92.6917 74.956 92.2117 75.328 91.3957 75.328C90.6157 75.328 90.0397 74.98 89.5597 74.38L88.8757 74.932C89.4277 75.664 90.1837 76.144 91.3237 76.144ZM98.1174 76V75.16H96.8574V70.648H98.2134V69.808H96.8574V68.092H95.9934V69.244C95.9934 69.664 95.8614 69.808 95.4534 69.808H94.8774V70.648H95.8974V74.98C95.8974 75.58 96.2574 76 96.9174 76H98.1174ZM102.358 76.144C103.522 76.144 104.41 75.568 104.806 74.728L104.122 74.236C103.798 74.92 103.198 75.304 102.418 75.304C101.266 75.304 100.582 74.5 100.582 73.432V73.144H105.034V72.688C105.034 70.936 104.014 69.664 102.358 69.664C100.678 69.664 99.5735 70.936 99.5735 72.904C99.5735 74.872 100.678 76.144 102.358 76.144ZM102.358 70.468C103.342 70.468 104.002 71.2 104.002 72.292V72.424H100.582V72.34C100.582 71.26 101.314 70.468 102.358 70.468ZM106.935 78.4H107.895V74.992H107.943C108.315 75.76 108.903 76.144 109.755 76.144C111.303 76.144 112.275 74.884 112.275 72.904C112.275 70.924 111.303 69.664 109.755 69.664C108.903 69.664 108.267 70.036 107.943 70.816H107.895V69.808H106.935V78.4ZM109.491 75.28C108.615 75.28 107.895 74.824 107.895 74.02V71.716C107.895 71.032 108.615 70.528 109.491 70.528C110.571 70.528 111.243 71.272 111.243 72.376V73.432C111.243 74.536 110.571 75.28 109.491 75.28ZM122.916 76V75.112H120.756V67.624H119.184L116.964 69.7L117.552 70.336L119.664 68.368H119.748V75.112H117.408V76H122.916ZM125.5 76.144C126.004 76.144 126.232 75.856 126.232 75.448V75.292C126.232 74.884 126.004 74.596 125.5 74.596C124.996 74.596 124.768 74.884 124.768 75.292V75.448C124.768 75.856 124.996 76.144 125.5 76.144Z" fill="#161616"/>
<rect width="6" height="24" transform="translate(130 60)" fill="white" style="mix-blend-mode:multiply"/>
<rect x="48.5" y="60.5" width="87" height="23" rx="11.5" stroke="black"/>
<path fill-rule="evenodd" clip-rule="evenodd" d="M216.5 159.999V176.003C216.5 180.145 219.858 183.503 224 183.503L607.998 183.5C612.692 183.5 616.498 187.305 616.498 192V211.831H618.885L615.998 216.831L613.111 211.831H615.498V192C615.498 187.858 612.14 184.5 607.998 184.5L224 184.503C219.306 184.503 215.5 180.697 215.5 176.003V159.999H216.5Z" fill="#565151"/>
<path fill-rule="evenodd" clip-rule="evenodd" d="M313.379 239.5H224.009C219.314 239.5 215.509 243.306 215.509 248V400C215.509 404.695 219.314 408.5 224.009 408.5H235.012V410.887L240.012 408L235.012 405.113V407.5H224.009C219.866 407.5 216.509 404.142 216.509 400V248C216.509 243.858 219.866 240.5 224.009 240.5H313.379V239.5Z" fill="#565151"/>
<path fill-rule="evenodd" clip-rule="evenodd" d="M634.008 239.5H504.008C499.313 239.5 495.508 243.306 495.508 248V400C495.508 404.694 499.313 408.5 504.008 408.5H515.004V410.887L520.004 408L515.004 405.113V407.5H504.008C499.866 407.5 496.508 404.142 496.508 400V248C496.508 243.858 499.866 240.5 504.008 240.5H634.008V239.5Z" fill="#565151"/>
<path fill-rule="evenodd" clip-rule="evenodd" d="M447 407.5H464C468.694 407.5 472.5 411.306 472.5 416V512C472.5 516.142 475.858 519.5 480 519.5H760V520.5H480C475.306 520.5 471.5 516.694 471.5 512V416C471.5 411.858 468.142 408.5 464 408.5H447V407.5Z" fill="#565151"/>
<path fill-rule="evenodd" clip-rule="evenodd" d="M726.77 407.5H744.015C748.709 407.5 752.515 411.306 752.515 416L752.514 512C752.514 516.142 755.871 519.5 760.014 519.5H770.996V517.113L775.996 520L770.996 522.887V520.5H760.014C755.319 520.5 751.514 516.694 751.514 512L751.515 416C751.515 411.858 748.157 408.5 744.015 408.5H726.77V407.5Z" fill="#565151"/>
<rect x="240.508" y="320.5" width="207" height="47" fill="white"/>
<path d="M244.008 320H240.008V368H244.008V320Z" fill="#8F8B8B"/>
<path d="M260.95 349.168C262.7 349.168 263.862 348.314 264.562 346.858L263.064 345.976C262.742 346.858 262.056 347.53 260.95 347.53C259.578 347.53 258.696 346.578 258.696 344.898V343.358C258.696 341.692 259.578 340.698 260.95 340.698C262.042 340.698 262.658 341.286 262.938 342.154L264.52 341.314C263.834 339.802 262.7 339.06 260.95 339.06C258.374 339.06 256.736 340.894 256.736 344.184C256.736 347.474 258.374 349.168 260.95 349.168ZM271.996 349V347.362H268.146V339.228H266.298V349H271.996ZM277.791 349V347.516H276.489V340.712H277.791V339.228H273.353V340.712H274.641V347.516H273.353V349H277.791Z" fill="black"/>
<rect x="240.508" y="320.5" width="207" height="47" stroke="#8F8B8B"/>
<rect x="240.508" y="384.5" width="207" height="47" fill="white"/>
<path d="M244.008 384H240.008V432H244.008V384Z" fill="#8F8B8B"/>
<path d="M263.386 413H264.982V407.68H261.286V409.234H263.204V409.864C263.204 410.97 262.266 411.53 261.118 411.53C259.648 411.53 258.696 410.606 258.696 408.898V407.33C258.696 405.608 259.648 404.698 261.09 404.698C262.252 404.698 262.938 405.328 263.288 406.168L264.786 405.286C264.086 403.858 262.826 403.06 261.09 403.06C258.486 403.06 256.736 404.866 256.736 408.142C256.736 411.418 258.472 413.168 260.768 413.168C262.238 413.168 263.162 412.44 263.33 411.488H263.386V413ZM267.213 403.228V408.996C267.213 411.866 268.207 413.168 270.951 413.168C273.695 413.168 274.717 411.866 274.717 408.996V403.228H272.897V409.234C272.897 410.76 272.365 411.53 270.965 411.53C269.565 411.53 269.033 410.76 269.033 409.234V403.228H267.213ZM281.141 413V411.516H279.839V404.712H281.141V403.228H276.703V404.712H277.991V411.516H276.703V413H281.141Z" fill="black"/>
<rect x="240.508" y="384.5" width="207" height="47" stroke="#8F8B8B"/>
<rect x="520.508" y="320.5" width="207" height="47" fill="white"/>
<path d="M524.008 320H520.008V368H524.008V320Z" fill="#8F8B8B"/>
<path d="M537.156 349H538.906V341.986H538.962L539.718 343.54L541.72 347.236L543.722 343.54L544.478 341.986H544.534V349H546.284V339.228H544.282L541.804 344.002H541.748L539.242 339.228H537.156V349ZM550.439 349.168C551.532 349.168 552.33 348.678 552.568 347.74H552.652C552.764 348.496 553.24 349 554.01 349H555.004V347.572H554.276V344.128C554.276 342.462 553.225 341.524 551.251 341.524C549.781 341.524 548.927 342.084 548.395 342.924L549.459 343.876C549.809 343.372 550.285 342.952 551.125 342.952C552.078 342.952 552.483 343.428 552.483 344.24V344.772H551.238C549.249 344.772 548.115 345.514 548.115 347.012C548.115 348.314 548.955 349.168 550.439 349.168ZM551.041 347.866C550.341 347.866 549.935 347.572 549.935 346.984V346.746C549.935 346.172 550.397 345.85 551.336 345.85H552.483V346.816C552.483 347.502 551.839 347.866 551.041 347.866ZM558.406 349V344.17C558.406 343.386 559.12 342.994 559.862 342.994C560.716 342.994 561.066 343.526 561.066 344.562V349H562.858V344.38C562.858 342.56 562.018 341.524 560.52 341.524C559.386 341.524 558.77 342.126 558.476 342.91H558.406V341.692H556.614V349H558.406ZM569.372 349H571.164V341.692H569.372V346.522C569.372 347.306 568.658 347.684 567.944 347.684C567.09 347.684 566.712 347.138 566.712 346.13V341.692H564.92V346.312C564.92 348.132 565.76 349.168 567.258 349.168C568.462 349.168 569.05 348.51 569.302 347.782H569.372V349ZM575.201 349.168C576.293 349.168 577.091 348.678 577.329 347.74H577.413C577.525 348.496 578.001 349 578.771 349H579.765V347.572H579.037V344.128C579.037 342.462 577.987 341.524 576.013 341.524C574.543 341.524 573.689 342.084 573.157 342.924L574.221 343.876C574.571 343.372 575.047 342.952 575.887 342.952C576.839 342.952 577.245 343.428 577.245 344.24V344.772H575.999C574.011 344.772 572.877 345.514 572.877 347.012C572.877 348.314 573.717 349.168 575.201 349.168ZM575.803 347.866C575.103 347.866 574.697 347.572 574.697 346.984V346.746C574.697 346.172 575.159 345.85 576.097 345.85H577.245V346.816C577.245 347.502 576.601 347.866 575.803 347.866ZM584.133 349V347.572H583.167V338.64H581.375V347.236C581.375 348.356 581.949 349 583.167 349H584.133Z" fill="black"/>
<rect x="520.508" y="320.5" width="207" height="47" stroke="#8F8B8B"/>
<rect x="520.508" y="384.5" width="207" height="47" fill="white"/>
<path d="M524.008 384H520.008V432H524.008V384Z" fill="#8F8B8B"/>
<path d="M543.764 404.866V403.228H536.372V404.866H539.144V413H540.992V404.866H543.764ZM547.363 413.168C548.721 413.168 549.785 412.65 550.387 411.824L549.421 410.746C548.973 411.32 548.441 411.74 547.559 411.74C546.383 411.74 545.781 411.026 545.781 409.976V409.794H550.639V409.206C550.639 407.204 549.589 405.524 547.307 405.524C545.165 405.524 543.919 407.022 543.919 409.332C543.919 411.67 545.207 413.168 547.363 413.168ZM547.335 406.868C548.259 406.868 548.777 407.554 548.777 408.562V408.688H545.781V408.576C545.781 407.568 546.397 406.868 547.335 406.868ZM554.168 413V408.17C554.168 407.386 554.84 406.994 555.526 406.994C556.324 406.994 556.702 407.512 556.702 408.562V413H558.494V408.17C558.494 407.386 559.152 406.994 559.852 406.994C560.65 406.994 561.028 407.512 561.028 408.562V413H562.82V408.38C562.82 406.56 562.008 405.524 560.58 405.524C559.418 405.524 558.606 406.182 558.34 406.994H558.312C557.962 406.014 557.192 405.524 556.198 405.524C555.106 405.524 554.518 406.14 554.238 406.91H554.168V405.692H552.376V413H554.168ZM564.963 415.8H566.755V411.782H566.811C567.091 412.608 567.861 413.168 568.827 413.168C570.675 413.168 571.697 411.782 571.697 409.332C571.697 406.896 570.675 405.524 568.827 405.524C567.861 405.524 567.077 406.056 566.811 406.896H566.755V405.692H564.963V415.8ZM568.253 411.684C567.399 411.684 566.755 411.25 566.755 410.494V408.17C566.755 407.456 567.399 406.994 568.253 406.994C569.177 406.994 569.821 407.68 569.821 408.716V409.976C569.821 411.012 569.177 411.684 568.253 411.684ZM576.276 413V411.572H575.31V402.64H573.518V411.236C573.518 412.356 574.092 413 575.31 413H576.276ZM579.599 413.168C580.691 413.168 581.489 412.678 581.727 411.74H581.811C581.923 412.496 582.399 413 583.169 413H584.163V411.572H583.435V408.128C583.435 406.462 582.385 405.524 580.411 405.524C578.941 405.524 578.087 406.084 577.555 406.924L578.619 407.876C578.969 407.372 579.445 406.952 580.285 406.952C581.237 406.952 581.643 407.428 581.643 408.24V408.772H580.397C578.409 408.772 577.275 409.514 577.275 411.012C577.275 412.314 578.115 413.168 579.599 413.168ZM580.201 411.866C579.501 411.866 579.095 411.572 579.095 410.984V410.746C579.095 410.172 579.557 409.85 580.495 409.85H581.643V410.816C581.643 411.502 580.999 411.866 580.201 411.866ZM588.001 413H589.289V411.572H587.903V407.12H589.401V405.692H587.903V403.69H586.293V404.936C586.293 405.44 586.125 405.692 585.593 405.692H585.033V407.12H586.111V411.138C586.111 412.328 586.769 413 588.001 413ZM594.014 413.168C595.372 413.168 596.436 412.65 597.038 411.824L596.072 410.746C595.624 411.32 595.092 411.74 594.21 411.74C593.034 411.74 592.432 411.026 592.432 409.976V409.794H597.29V409.206C597.29 407.204 596.24 405.524 593.958 405.524C591.816 405.524 590.57 407.022 590.57 409.332C590.57 411.67 591.858 413.168 594.014 413.168ZM593.986 406.868C594.91 406.868 595.428 407.554 595.428 408.562V408.688H592.432V408.576C592.432 407.568 593.048 406.868 593.986 406.868ZM602.944 409.626V407.848H598.94V409.626H602.944ZM609.629 413H611.421V402.64H609.629V406.896H609.559C609.307 406.056 608.509 405.524 607.543 405.524C605.709 405.524 604.687 406.896 604.687 409.332C604.687 411.782 605.709 413.168 607.543 413.168C608.509 413.168 609.293 412.608 609.559 411.782H609.629V413ZM608.117 411.684C607.193 411.684 606.563 411.012 606.563 409.976V408.716C606.563 407.68 607.193 406.994 608.117 406.994C608.971 406.994 609.629 407.456 609.629 408.17V410.494C609.629 411.25 608.971 411.684 608.117 411.684ZM615.44 413V408.52C615.44 407.722 616.07 407.386 617.274 407.386H617.834V405.692H617.442C616.28 405.692 615.692 406.434 615.51 407.204H615.44V405.692H613.648V413H615.44ZM620.2 404.628C620.928 404.628 621.25 404.25 621.25 403.732V403.452C621.25 402.934 620.928 402.556 620.2 402.556C619.458 402.556 619.15 402.934 619.15 403.452V403.732C619.15 404.25 619.458 404.628 620.2 404.628ZM619.304 413H621.096V405.692H619.304V413ZM627.029 413L629.479 405.692H627.771L626.777 408.842L626.063 411.446H625.965L625.251 408.842L624.229 405.692H622.465L624.901 413H627.029ZM633.679 413.168C635.037 413.168 636.101 412.65 636.703 411.824L635.737 410.746C635.289 411.32 634.757 411.74 633.875 411.74C632.699 411.74 632.097 411.026 632.097 409.976V409.794H636.955V409.206C636.955 407.204 635.905 405.524 633.623 405.524C631.481 405.524 630.235 407.022 630.235 409.332C630.235 411.67 631.523 413.168 633.679 413.168ZM633.651 406.868C634.575 406.868 635.093 407.554 635.093 408.562V408.688H632.097V408.576C632.097 407.568 632.713 406.868 633.651 406.868ZM640.484 413V408.17C640.484 407.386 641.198 406.994 641.94 406.994C642.794 406.994 643.144 407.526 643.144 408.562V413H644.936V408.38C644.936 406.56 644.096 405.524 642.598 405.524C641.464 405.524 640.848 406.126 640.554 406.91H640.484V405.692H638.692V413H640.484Z" fill="black"/>
<rect x="520.508" y="384.5" width="207" height="47" stroke="#8F8B8B"/>
<path d="M337.061 217.768L358.232 238.939C358.818 239.525 358.818 240.475 358.232 241.061L337.061 262.232C336.475 262.818 335.525 262.818 334.939 262.232L313.768 241.061C313.182 240.475 313.182 239.525 313.768 238.939L334.939 217.768C335.525 217.182 336.475 217.182 337.061 217.768Z" fill="#D9FBFB" stroke="#08BDBA"/>
<rect width="20" height="20" transform="translate(326 230)" fill="white" style="mix-blend-mode:multiply"/>
<path d="M336 231.25C334.269 231.25 332.578 231.763 331.139 232.725C329.7 233.686 328.578 235.053 327.916 236.652C327.254 238.25 327.081 240.01 327.418 241.707C327.756 243.404 328.589 244.963 329.813 246.187C331.037 247.411 332.596 248.244 334.293 248.582C335.99 248.919 337.75 248.746 339.348 248.084C340.947 247.422 342.314 246.3 343.275 244.861C344.237 243.422 344.75 241.731 344.75 240C344.75 237.679 343.828 235.454 342.187 233.813C340.546 232.172 338.321 231.25 336 231.25ZM336 247.5C334.517 247.5 333.067 247.06 331.833 246.236C330.6 245.412 329.639 244.241 329.071 242.87C328.503 241.5 328.355 239.992 328.644 238.537C328.934 237.082 329.648 235.746 330.697 234.697C331.746 233.648 333.082 232.933 334.537 232.644C335.992 232.355 337.5 232.503 338.87 233.071C340.241 233.639 341.412 234.6 342.236 235.833C343.06 237.067 343.5 238.517 343.5 240C343.5 241.989 342.71 243.897 341.303 245.303C339.897 246.71 337.989 247.5 336 247.5Z" fill="black"/>
<path d="M336 245.625C336.518 245.625 336.938 245.205 336.938 244.688C336.938 244.17 336.518 243.75 336 243.75C335.482 243.75 335.063 244.17 335.063 244.688C335.063 245.205 335.482 245.625 336 245.625Z" fill="black"/>
<path d="M336.625 235H335.688C335.318 234.999 334.952 235.071 334.61 235.212C334.269 235.353 333.958 235.561 333.697 235.822C333.436 236.083 333.228 236.394 333.087 236.735C332.946 237.077 332.874 237.443 332.875 237.812V238.125H334.125V237.812C334.125 237.398 334.29 237.001 334.583 236.708C334.876 236.415 335.273 236.25 335.688 236.25H336.625C337.039 236.25 337.437 236.415 337.73 236.708C338.023 237.001 338.188 237.398 338.188 237.812C338.188 238.227 338.023 238.624 337.73 238.917C337.437 239.21 337.039 239.375 336.625 239.375H335.375V242.188H336.625V240.625C337.371 240.625 338.086 240.329 338.614 239.801C339.141 239.274 339.438 238.558 339.438 237.812C339.438 237.067 339.141 236.351 338.614 235.824C338.086 235.296 337.371 235 336.625 235Z" fill="black"/>
<path d="M321.86 276.228V281.996C321.86 284.866 322.854 286.168 325.598 286.168C328.342 286.168 329.364 284.866 329.364 281.996V276.228H327.544V282.234C327.544 283.76 327.012 284.53 325.612 284.53C324.212 284.53 323.68 283.76 323.68 282.234V276.228H321.86ZM334.038 286.168C335.858 286.168 337.048 285.188 337.048 283.774C337.048 282.556 336.278 281.842 334.682 281.618L333.94 281.52C333.254 281.408 332.988 281.184 332.988 280.694C332.988 280.246 333.324 279.938 334.094 279.938C334.808 279.938 335.424 280.274 335.844 280.722L336.894 279.672C336.194 278.944 335.466 278.524 334.038 278.524C332.372 278.524 331.266 279.42 331.266 280.834C331.266 282.164 332.134 282.85 333.702 283.046L334.43 283.144C335.074 283.228 335.326 283.494 335.326 283.914C335.326 284.432 334.962 284.754 334.108 284.754C333.282 284.754 332.638 284.376 332.106 283.76L331.014 284.824C331.742 285.664 332.652 286.168 334.038 286.168ZM341.745 286.168C343.103 286.168 344.167 285.65 344.769 284.824L343.803 283.746C343.355 284.32 342.823 284.74 341.941 284.74C340.765 284.74 340.163 284.026 340.163 282.976V282.794H345.021V282.206C345.021 280.204 343.971 278.524 341.689 278.524C339.547 278.524 338.301 280.022 338.301 282.332C338.301 284.67 339.589 286.168 341.745 286.168ZM341.717 279.868C342.641 279.868 343.159 280.554 343.159 281.562V281.688H340.163V281.576C340.163 280.568 340.779 279.868 341.717 279.868ZM348.549 286V281.52C348.549 280.722 349.179 280.386 350.383 280.386H350.943V278.692H350.551C349.389 278.692 348.801 279.434 348.619 280.204H348.549V278.692H346.757V286H348.549ZM308.13 295.628C308.858 295.628 309.18 295.25 309.18 294.732V294.452C309.18 293.934 308.858 293.556 308.13 293.556C307.388 293.556 307.08 293.934 307.08 294.452V294.732C307.08 295.25 307.388 295.628 308.13 295.628ZM307.234 304H309.026V296.692H307.234V304ZM313.055 304V299.17C313.055 298.386 313.769 297.994 314.511 297.994C315.365 297.994 315.715 298.526 315.715 299.562V304H317.507V299.38C317.507 297.56 316.667 296.524 315.169 296.524C314.035 296.524 313.419 297.126 313.125 297.91H313.055V296.692H311.263V304H313.055ZM321.936 304H323.224V302.572H321.838V298.12H323.336V296.692H321.838V294.69H320.228V295.936C320.228 296.44 320.06 296.692 319.528 296.692H318.968V298.12H320.046V302.138C320.046 303.328 320.704 304 321.936 304ZM327.949 304.168C329.307 304.168 330.371 303.65 330.973 302.824L330.007 301.746C329.559 302.32 329.027 302.74 328.145 302.74C326.969 302.74 326.367 302.026 326.367 300.976V300.794H331.225V300.206C331.225 298.204 330.175 296.524 327.893 296.524C325.751 296.524 324.505 298.022 324.505 300.332C324.505 302.67 325.793 304.168 327.949 304.168ZM327.921 297.868C328.845 297.868 329.363 298.554 329.363 299.562V299.688H326.367V299.576C326.367 298.568 326.983 297.868 327.921 297.868ZM334.754 304V299.52C334.754 298.722 335.384 298.386 336.588 298.386H337.148V296.692H336.756C335.594 296.692 335.006 297.434 334.824 298.204H334.754V296.692H332.962V304H334.754ZM339.091 304H340.883V298.106H342.381V296.692H340.883V295.068H342.381V293.64H341.107C339.791 293.64 339.091 294.354 339.091 295.642V296.692H338.013V298.106H339.091V304ZM345.588 304.168C346.68 304.168 347.478 303.678 347.716 302.74H347.8C347.912 303.496 348.388 304 349.158 304H350.152V302.572H349.424V299.128C349.424 297.462 348.374 296.524 346.4 296.524C344.93 296.524 344.076 297.084 343.544 297.924L344.608 298.876C344.958 298.372 345.434 297.952 346.274 297.952C347.226 297.952 347.632 298.428 347.632 299.24V299.772H346.386C344.398 299.772 343.264 300.514 343.264 302.012C343.264 303.314 344.104 304.168 345.588 304.168ZM346.19 302.866C345.49 302.866 345.084 302.572 345.084 301.984V301.746C345.084 301.172 345.546 300.85 346.484 300.85H347.632V301.816C347.632 302.502 346.988 302.866 346.19 302.866ZM354.646 304.168C356.06 304.168 357.082 303.524 357.558 302.236L356.186 301.578C355.92 302.236 355.5 302.726 354.646 302.726C353.652 302.726 353.148 302.04 353.148 301.018V299.688C353.148 298.666 353.652 297.966 354.646 297.966C355.416 297.966 355.878 298.414 356.046 299.03L357.516 298.372C357.082 297.224 356.116 296.524 354.646 296.524C352.49 296.524 351.272 297.994 351.272 300.332C351.272 302.684 352.49 304.168 354.646 304.168ZM361.985 304.168C363.343 304.168 364.407 303.65 365.009 302.824L364.043 301.746C363.595 302.32 363.063 302.74 362.181 302.74C361.005 302.74 360.403 302.026 360.403 300.976V300.794H365.261V300.206C365.261 298.204 364.211 296.524 361.929 296.524C359.787 296.524 358.541 298.022 358.541 300.332C358.541 302.67 359.829 304.168 361.985 304.168ZM361.957 297.868C362.881 297.868 363.399 298.554 363.399 299.562V299.688H360.403V299.576C360.403 298.568 361.019 297.868 361.957 297.868Z" fill="black"/>
<path d="M617.068 217.768L638.24 238.939C638.826 239.525 638.826 240.475 638.24 241.061L617.068 262.232C616.483 262.818 615.533 262.818 614.947 262.232L593.776 241.061C593.19 240.475 593.19 239.525 593.776 238.939L614.947 217.768C615.533 217.182 616.483 217.182 617.068 217.768Z" fill="#D9FBFB" stroke="#009D9A"/>
<rect width="20" height="20" transform="translate(606.508 230)" fill="white" style="mix-blend-mode:multiply"/>
<path d="M616.508 231.25C614.777 231.25 613.086 231.763 611.647 232.725C610.208 233.686 609.086 235.053 608.424 236.652C607.762 238.25 607.588 240.01 607.926 241.707C608.264 243.404 609.097 244.963 610.321 246.187C611.544 247.411 613.103 248.244 614.801 248.582C616.498 248.919 618.257 248.746 619.856 248.084C621.455 247.422 622.822 246.3 623.783 244.861C624.745 243.422 625.258 241.731 625.258 240C625.258 237.679 624.336 235.454 622.695 233.813C621.054 232.172 618.828 231.25 616.508 231.25ZM616.508 247.5C615.024 247.5 613.574 247.06 612.341 246.236C611.108 245.412 610.146 244.241 609.579 242.87C609.011 241.5 608.863 239.992 609.152 238.537C609.441 237.082 610.156 235.746 611.205 234.697C612.253 233.648 613.59 232.933 615.045 232.644C616.499 232.355 618.007 232.503 619.378 233.071C620.748 233.639 621.92 234.6 622.744 235.833C623.568 237.067 624.008 238.517 624.008 240C624.008 241.989 623.218 243.897 621.811 245.303C620.405 246.71 618.497 247.5 616.508 247.5Z" fill="black"/>
<path d="M616.508 245.625C617.026 245.625 617.445 245.205 617.445 244.688C617.445 244.17 617.026 243.75 616.508 243.75C615.99 243.75 615.57 244.17 615.57 244.688C615.57 245.205 615.99 245.625 616.508 245.625Z" fill="black"/>
<path d="M617.133 235H616.195C615.826 234.999 615.46 235.071 615.118 235.212C614.776 235.353 614.466 235.561 614.205 235.822C613.943 236.083 613.736 236.394 613.595 236.735C613.454 237.077 613.382 237.443 613.383 237.812V238.125H614.633V237.812C614.633 237.398 614.797 237.001 615.09 236.708C615.383 236.415 615.781 236.25 616.195 236.25H617.133C617.547 236.25 617.945 236.415 618.238 236.708C618.531 237.001 618.695 237.398 618.695 237.812C618.695 238.227 618.531 238.624 618.238 238.917C617.945 239.21 617.547 239.375 617.133 239.375H615.883V242.188H617.133V240.625C617.879 240.625 618.594 240.329 619.122 239.801C619.649 239.274 619.945 238.558 619.945 237.812C619.945 237.067 619.649 236.351 619.122 235.824C618.594 235.296 617.879 235 617.133 235Z" fill="black"/>
<path d="M592.786 286.168C594.536 286.168 595.698 285.314 596.398 283.858L594.9 282.976C594.578 283.858 593.892 284.53 592.786 284.53C591.414 284.53 590.532 283.578 590.532 281.898V280.358C590.532 278.692 591.414 277.698 592.786 277.698C593.878 277.698 594.494 278.286 594.774 279.154L596.356 278.314C595.67 276.802 594.536 276.06 592.786 276.06C590.21 276.06 588.572 277.894 588.572 281.184C588.572 284.474 590.21 286.168 592.786 286.168ZM599.815 286V281.52C599.815 280.722 600.445 280.386 601.649 280.386H602.209V278.692H601.817C600.655 278.692 600.067 279.434 599.885 280.204H599.815V278.692H598.023V286H599.815ZM606.564 286.168C607.922 286.168 608.986 285.65 609.588 284.824L608.622 283.746C608.174 284.32 607.642 284.74 606.76 284.74C605.584 284.74 604.982 284.026 604.982 282.976V282.794H609.84V282.206C609.84 280.204 608.79 278.524 606.508 278.524C604.366 278.524 603.12 280.022 603.12 282.332C603.12 284.67 604.408 286.168 606.564 286.168ZM606.536 279.868C607.46 279.868 607.978 280.554 607.978 281.562V281.688H604.982V281.576C604.982 280.568 605.598 279.868 606.536 279.868ZM613.383 286.168C614.475 286.168 615.273 285.678 615.511 284.74H615.595C615.707 285.496 616.183 286 616.953 286H617.947V284.572H617.219V281.128C617.219 279.462 616.169 278.524 614.195 278.524C612.725 278.524 611.871 279.084 611.339 279.924L612.403 280.876C612.753 280.372 613.229 279.952 614.069 279.952C615.021 279.952 615.427 280.428 615.427 281.24V281.772H614.181C612.193 281.772 611.059 282.514 611.059 284.012C611.059 285.314 611.899 286.168 613.383 286.168ZM613.985 284.866C613.285 284.866 612.879 284.572 612.879 283.984V283.746C612.879 283.172 613.341 282.85 614.279 282.85H615.427V283.816C615.427 284.502 614.783 284.866 613.985 284.866ZM621.785 286H623.073V284.572H621.687V280.12H623.185V278.692H621.687V276.69H620.077V277.936C620.077 278.44 619.909 278.692 619.377 278.692H618.817V280.12H619.895V284.138C619.895 285.328 620.553 286 621.785 286ZM625.795 277.628C626.523 277.628 626.845 277.25 626.845 276.732V276.452C626.845 275.934 626.523 275.556 625.795 275.556C625.053 275.556 624.745 275.934 624.745 276.452V276.732C624.745 277.25 625.053 277.628 625.795 277.628ZM624.899 286H626.691V278.692H624.899V286ZM631.826 286.168C633.926 286.168 635.228 284.684 635.228 282.332C635.228 279.994 633.926 278.524 631.826 278.524C629.74 278.524 628.438 279.994 628.438 282.332C628.438 284.684 629.74 286.168 631.826 286.168ZM631.826 284.726C630.902 284.726 630.314 284.124 630.314 283.018V281.66C630.314 280.568 630.902 279.966 631.826 279.966C632.764 279.966 633.352 280.568 633.352 281.66V283.018C633.352 284.124 632.764 284.726 631.826 284.726ZM638.769 286V281.17C638.769 280.386 639.483 279.994 640.225 279.994C641.079 279.994 641.429 280.526 641.429 281.562V286H643.221V281.38C643.221 279.56 642.381 278.524 640.883 278.524C639.749 278.524 639.133 279.126 638.839 279.91H638.769V278.692H636.977V286H638.769ZM593.444 304V299.17C593.444 298.386 594.116 297.994 594.802 297.994C595.6 297.994 595.978 298.512 595.978 299.562V304H597.77V299.17C597.77 298.386 598.428 297.994 599.128 297.994C599.926 297.994 600.304 298.512 600.304 299.562V304H602.096V299.38C602.096 297.56 601.284 296.524 599.856 296.524C598.694 296.524 597.882 297.182 597.616 297.994H597.588C597.238 297.014 596.468 296.524 595.474 296.524C594.382 296.524 593.794 297.14 593.514 297.91H593.444V296.692H591.652V304H593.444ZM607.193 304.168C608.551 304.168 609.615 303.65 610.217 302.824L609.251 301.746C608.803 302.32 608.271 302.74 607.389 302.74C606.213 302.74 605.611 302.026 605.611 300.976V300.794H610.469V300.206C610.469 298.204 609.419 296.524 607.137 296.524C604.995 296.524 603.749 298.022 603.749 300.332C603.749 302.67 605.037 304.168 607.193 304.168ZM607.165 297.868C608.089 297.868 608.607 298.554 608.607 299.562V299.688H605.611V299.576C605.611 298.568 606.227 297.868 607.165 297.868ZM614.488 304H615.776V302.572H614.39V298.12H615.888V296.692H614.39V294.69H612.78V295.936C612.78 296.44 612.612 296.692 612.08 296.692H611.52V298.12H612.598V302.138C612.598 303.328 613.256 304 614.488 304ZM617.602 304H619.394V299.17C619.394 298.386 620.108 297.994 620.85 297.994C621.704 297.994 622.054 298.526 622.054 299.562V304H623.846V299.38C623.846 297.56 623.006 296.524 621.508 296.524C620.374 296.524 619.758 297.126 619.464 297.91H619.394V293.64H617.602V304ZM628.891 304.168C630.991 304.168 632.293 302.684 632.293 300.332C632.293 297.994 630.991 296.524 628.891 296.524C626.805 296.524 625.503 297.994 625.503 300.332C625.503 302.684 626.805 304.168 628.891 304.168ZM628.891 302.726C627.967 302.726 627.379 302.124 627.379 301.018V299.66C627.379 298.568 627.967 297.966 628.891 297.966C629.829 297.966 630.417 298.568 630.417 299.66V301.018C630.417 302.124 629.829 302.726 628.891 302.726ZM638.577 304H640.369V293.64H638.577V297.896H638.507C638.255 297.056 637.457 296.524 636.491 296.524C634.657 296.524 633.635 297.896 633.635 300.332C633.635 302.782 634.657 304.168 636.491 304.168C637.457 304.168 638.241 303.608 638.507 302.782H638.577V304ZM637.065 302.684C636.141 302.684 635.511 302.012 635.511 300.976V299.716C635.511 298.68 636.141 297.994 637.065 297.994C637.919 297.994 638.577 298.456 638.577 299.17V301.494C638.577 302.25 637.919 302.684 637.065 302.684Z" fill="black"/>
<path fill-rule="evenodd" clip-rule="evenodd" d="M976 520.5V519.5H984C988.142 519.5 991.5 516.142 991.5 512V189H989.113L992 184L994.887 189H992.5V512C992.5 516.174 989.491 519.646 985.523 520.364V520.5H976Z" fill="#565151"/>
<rect x="776.5" y="432.5" width="199" height="127" fill="white"/>
<rect x="776.5" y="432.5" width="199" height="127" stroke="#009D9A"/>
<path d="M792 496H952C956.418 496 960 499.582 960 504V536C960 540.418 956.418 544 952 544H792V496Z" fill="white" style="mix-blend-mode:multiply"/>
<path d="M792 496H952C956.418 496 960 499.582 960 504V536C960 540.418 956.418 544 952 544H792V496Z" fill="white"/>
<path d="M792 496H952C956.418 496 960 499.582 960 504V536C960 540.418 956.418 544 952 544H792V496Z" fill="#D9FBFB"/>
<g clip-path="url(#clip0_3229_12315)">
<path d="M814.846 525V523.362H810.996V515.228H809.148V525H814.846ZM819.258 525.168C821.358 525.168 822.66 523.684 822.66 521.332C822.66 518.994 821.358 517.524 819.258 517.524C817.172 517.524 815.87 518.994 815.87 521.332C815.87 523.684 817.172 525.168 819.258 525.168ZM819.258 523.726C818.334 523.726 817.746 523.124 817.746 522.018V520.66C817.746 519.568 818.334 518.966 819.258 518.966C820.196 518.966 820.784 519.568 820.784 520.66V522.018C820.784 523.124 820.196 523.726 819.258 523.726ZM827.293 525.168C828.707 525.168 829.729 524.524 830.205 523.236L828.833 522.578C828.567 523.236 828.147 523.726 827.293 523.726C826.299 523.726 825.795 523.04 825.795 522.018V520.688C825.795 519.666 826.299 518.966 827.293 518.966C828.063 518.966 828.525 519.414 828.693 520.03L830.163 519.372C829.729 518.224 828.763 517.524 827.293 517.524C825.137 517.524 823.919 518.994 823.919 521.332C823.919 523.684 825.137 525.168 827.293 525.168ZM833.552 525.168C834.644 525.168 835.442 524.678 835.68 523.74H835.764C835.876 524.496 836.352 525 837.122 525H838.116V523.572H837.388V520.128C837.388 518.462 836.338 517.524 834.364 517.524C832.894 517.524 832.04 518.084 831.508 518.924L832.572 519.876C832.922 519.372 833.398 518.952 834.238 518.952C835.19 518.952 835.596 519.428 835.596 520.24V520.772H834.35C832.362 520.772 831.228 521.514 831.228 523.012C831.228 524.314 832.068 525.168 833.552 525.168ZM834.154 523.866C833.454 523.866 833.048 523.572 833.048 522.984V522.746C833.048 522.172 833.51 521.85 834.448 521.85H835.596V522.816C835.596 523.502 834.952 523.866 834.154 523.866ZM841.954 525H843.242V523.572H841.856V519.12H843.354V517.692H841.856V515.69H840.246V516.936C840.246 517.44 840.078 517.692 839.546 517.692H838.986V519.12H840.064V523.138C840.064 524.328 840.722 525 841.954 525ZM845.964 516.628C846.692 516.628 847.014 516.25 847.014 515.732V515.452C847.014 514.934 846.692 514.556 845.964 514.556C845.222 514.556 844.914 514.934 844.914 515.452V515.732C844.914 516.25 845.222 516.628 845.964 516.628ZM845.068 525H846.86V517.692H845.068V525ZM851.996 525.168C854.096 525.168 855.398 523.684 855.398 521.332C855.398 518.994 854.096 517.524 851.996 517.524C849.91 517.524 848.608 518.994 848.608 521.332C848.608 523.684 849.91 525.168 851.996 525.168ZM851.996 523.726C851.072 523.726 850.484 523.124 850.484 522.018V520.66C850.484 519.568 851.072 518.966 851.996 518.966C852.934 518.966 853.522 519.568 853.522 520.66V522.018C853.522 523.124 852.934 523.726 851.996 523.726ZM858.938 525V520.17C858.938 519.386 859.652 518.994 860.394 518.994C861.248 518.994 861.598 519.526 861.598 520.562V525H863.39V520.38C863.39 518.56 862.55 517.524 861.052 517.524C859.918 517.524 859.302 518.126 859.008 518.91H858.938V517.692H857.146V525H858.938Z" fill="black"/>
<line x1="794" y1="496" x2="794" y2="544" stroke="#009D9A" stroke-width="4"/>
</g>
<mask id="path-39-inside-1_3229_12315" fill="white">
<path d="M952 496H792V544H952C956.418 544 960 540.418 960 536V504C960 499.582 956.418 496 952 496Z"/>
</mask>
<path d="M952 496H792V544H952C956.418 544 960 540.418 960 536V504C960 499.582 956.418 496 952 496Z" stroke="#009D9A" stroke-width="2" stroke-dasharray="4 4" mask="url(#path-39-inside-1_3229_12315)"/>
<mask id="path-40-inside-2_3229_12315" fill="white">
<path d="M776 432H976V480H776V432Z"/>
</mask>
<path d="M776 432H976V480H776V432Z" fill="white"/>
<path d="M780 432H776V480H780V432Z" fill="#009D9A"/>
<path d="M797.18 461V459.516H795.878V452.712H797.18V451.228H792.742V452.712H794.03V459.516H792.742V461H797.18ZM800.908 461V456.17C800.908 455.386 801.622 454.994 802.364 454.994C803.218 454.994 803.568 455.526 803.568 456.562V461H805.36V456.38C805.36 454.56 804.52 453.524 803.022 453.524C801.888 453.524 801.272 454.126 800.978 454.91H800.908V453.692H799.116V461H800.908ZM807.87 461H809.662V455.106H811.16V453.692H809.662V452.068H811.16V450.64H809.886C808.57 450.64 807.87 451.354 807.87 452.642V453.692H806.792V455.106H807.87V461ZM814.353 461V456.52C814.353 455.722 814.983 455.386 816.187 455.386H816.747V453.692H816.355C815.193 453.692 814.605 454.434 814.423 455.204H814.353V453.692H812.561V461H814.353ZM819.873 461.168C820.965 461.168 821.763 460.678 822.001 459.74H822.085C822.197 460.496 822.673 461 823.443 461H824.437V459.572H823.709V456.128C823.709 454.462 822.659 453.524 820.685 453.524C819.215 453.524 818.361 454.084 817.829 454.924L818.893 455.876C819.243 455.372 819.719 454.952 820.559 454.952C821.511 454.952 821.917 455.428 821.917 456.24V456.772H820.671C818.683 456.772 817.549 457.514 817.549 459.012C817.549 460.314 818.389 461.168 819.873 461.168ZM820.475 459.866C819.775 459.866 819.369 459.572 819.369 458.984V458.746C819.369 458.172 819.831 457.85 820.769 457.85H821.917V458.816C821.917 459.502 821.273 459.866 820.475 459.866ZM828.441 461.168C830.261 461.168 831.451 460.188 831.451 458.774C831.451 457.556 830.681 456.842 829.085 456.618L828.343 456.52C827.657 456.408 827.391 456.184 827.391 455.694C827.391 455.246 827.727 454.938 828.497 454.938C829.211 454.938 829.827 455.274 830.247 455.722L831.297 454.672C830.597 453.944 829.869 453.524 828.441 453.524C826.775 453.524 825.669 454.42 825.669 455.834C825.669 457.164 826.537 457.85 828.105 458.046L828.833 458.144C829.477 458.228 829.729 458.494 829.729 458.914C829.729 459.432 829.365 459.754 828.511 459.754C827.685 459.754 827.041 459.376 826.509 458.76L825.417 459.824C826.145 460.664 827.055 461.168 828.441 461.168ZM835.366 461H836.654V459.572H835.268V455.12H836.766V453.692H835.268V451.69H833.658V452.936C833.658 453.44 833.49 453.692 832.958 453.692H832.398V455.12H833.476V459.138C833.476 460.328 834.134 461 835.366 461ZM840.272 461V456.52C840.272 455.722 840.902 455.386 842.106 455.386H842.666V453.692H842.274C841.112 453.692 840.524 454.434 840.342 455.204H840.272V453.692H838.48V461H840.272ZM848.504 461H850.296V453.692H848.504V458.522C848.504 459.306 847.79 459.684 847.076 459.684C846.222 459.684 845.844 459.138 845.844 458.13V453.692H844.052V458.312C844.052 460.132 844.892 461.168 846.39 461.168C847.594 461.168 848.182 460.51 848.434 459.782H848.504V461ZM855.411 461.168C856.825 461.168 857.847 460.524 858.323 459.236L856.951 458.578C856.685 459.236 856.265 459.726 855.411 459.726C854.417 459.726 853.913 459.04 853.913 458.018V456.688C853.913 455.666 854.417 454.966 855.411 454.966C856.181 454.966 856.643 455.414 856.811 456.03L858.281 455.372C857.847 454.224 856.881 453.524 855.411 453.524C853.255 453.524 852.037 454.994 852.037 457.332C852.037 459.684 853.255 461.168 855.411 461.168ZM862.147 461H863.435V459.572H862.049V455.12H863.547V453.692H862.049V451.69H860.439V452.936C860.439 453.44 860.271 453.692 859.739 453.692H859.179V455.12H860.257V459.138C860.257 460.328 860.915 461 862.147 461ZM869.629 461H871.421V453.692H869.629V458.522C869.629 459.306 868.915 459.684 868.201 459.684C867.347 459.684 866.969 459.138 866.969 458.13V453.692H865.177V458.312C865.177 460.132 866.017 461.168 867.515 461.168C868.719 461.168 869.307 460.51 869.559 459.782H869.629V461ZM875.443 461V456.52C875.443 455.722 876.073 455.386 877.277 455.386H877.837V453.692H877.445C876.283 453.692 875.695 454.434 875.513 455.204H875.443V453.692H873.651V461H875.443ZM882.193 461.168C883.551 461.168 884.615 460.65 885.217 459.824L884.251 458.746C883.803 459.32 883.271 459.74 882.389 459.74C881.213 459.74 880.611 459.026 880.611 457.976V457.794H885.469V457.206C885.469 455.204 884.419 453.524 882.137 453.524C879.995 453.524 878.749 455.022 878.749 457.332C878.749 459.67 880.037 461.168 882.193 461.168ZM882.165 454.868C883.089 454.868 883.607 455.554 883.607 456.562V456.688H880.611V456.576C880.611 455.568 881.227 454.868 882.165 454.868Z" fill="black"/>
<path d="M976 432H977V431H976V432ZM776 433H976V431H776V433ZM975 432V480H977V432H975Z" fill="#009D9A" mask="url(#path-40-inside-2_3229_12315)"/>
<rect x="956.5" y="160.5" width="71" height="23" rx="11.5" fill="white"/>
<path d="M970.6 168.512V167.624H964.264V168.512H966.928V176H967.936V168.512H970.6ZM973.762 176.144C975.418 176.144 976.558 174.872 976.558 172.904C976.558 170.936 975.418 169.664 973.762 169.664C972.106 169.664 970.966 170.936 970.966 172.904C970.966 174.872 972.106 176.144 973.762 176.144ZM973.762 175.292C972.73 175.292 971.998 174.656 971.998 173.348V172.46C971.998 171.152 972.73 170.516 973.762 170.516C974.794 170.516 975.526 171.152 975.526 172.46V173.348C975.526 174.656 974.794 175.292 973.762 175.292ZM983.473 176.144C984.889 176.144 985.765 175.412 985.765 174.212C985.765 173.276 985.237 172.676 983.869 172.472L983.389 172.4C982.621 172.28 982.201 172.04 982.201 171.44C982.201 170.852 982.621 170.48 983.413 170.48C984.205 170.48 984.733 170.852 985.009 171.236L985.645 170.66C985.141 170.036 984.481 169.664 983.485 169.664C982.225 169.664 981.277 170.264 981.277 171.488C981.277 172.64 982.129 173.108 983.269 173.276L983.761 173.348C984.577 173.468 984.841 173.84 984.841 174.32C984.841 174.956 984.361 175.328 983.545 175.328C982.765 175.328 982.189 174.98 981.709 174.38L981.025 174.932C981.577 175.664 982.333 176.144 983.473 176.144ZM990.266 176V175.16H989.006V170.648H990.362V169.808H989.006V168.092H988.142V169.244C988.142 169.664 988.01 169.808 987.602 169.808H987.026V170.648H988.046V174.98C988.046 175.58 988.406 176 989.066 176H990.266ZM994.507 176.144C995.671 176.144 996.559 175.568 996.955 174.728L996.271 174.236C995.947 174.92 995.347 175.304 994.567 175.304C993.415 175.304 992.731 174.5 992.731 173.432V173.144H997.183V172.688C997.183 170.936 996.163 169.664 994.507 169.664C992.827 169.664 991.723 170.936 991.723 172.904C991.723 174.872 992.827 176.144 994.507 176.144ZM994.507 170.468C995.491 170.468 996.151 171.2 996.151 172.292V172.424H992.731V172.34C992.731 171.26 993.463 170.468 994.507 170.468ZM999.085 178.4H1000.04V174.992H1000.09C1000.46 175.76 1001.05 176.144 1001.9 176.144C1003.45 176.144 1004.42 174.884 1004.42 172.904C1004.42 170.924 1003.45 169.664 1001.9 169.664C1001.05 169.664 1000.42 170.036 1000.09 170.816H1000.04V169.808H999.085V178.4ZM1001.64 175.28C1000.76 175.28 1000.04 174.824 1000.04 174.02V171.716C1000.04 171.032 1000.76 170.528 1001.64 170.528C1002.72 170.528 1003.39 171.272 1003.39 172.376V173.432C1003.39 174.536 1002.72 175.28 1001.64 175.28ZM1010.72 171.176V172.052H1011.71C1012.88 172.052 1013.51 172.616 1013.51 173.6V173.696C1013.51 174.68 1012.88 175.244 1011.71 175.244C1010.69 175.244 1010.19 174.8 1009.76 174.14L1009.01 174.716C1009.52 175.436 1010.27 176.144 1011.72 176.144C1013.42 176.144 1014.56 175.148 1014.56 173.708C1014.56 172.448 1013.7 171.776 1012.8 171.596V171.548C1013.69 171.32 1014.41 170.672 1014.41 169.592C1014.41 168.236 1013.28 167.48 1011.86 167.48C1010.52 167.48 1009.79 168.176 1009.37 168.848L1010.11 169.424C1010.46 168.788 1010.97 168.38 1011.84 168.38C1012.73 168.38 1013.34 168.824 1013.34 169.7V169.784C1013.34 170.588 1012.76 171.176 1011.63 171.176H1010.72ZM1017.65 176.144C1018.15 176.144 1018.38 175.856 1018.38 175.448V175.292C1018.38 174.884 1018.15 174.596 1017.65 174.596C1017.14 174.596 1016.92 174.884 1016.92 175.292V175.448C1016.92 175.856 1017.14 176.144 1017.65 176.144Z" fill="#161616"/>
<rect width="6" height="24" transform="translate(1022 160)" fill="white" style="mix-blend-mode:multiply"/>
<rect x="956.5" y="160.5" width="71" height="23" rx="11.5" stroke="black"/>
<rect x="48.5" y="544.5" width="15" height="15" rx="3.5" fill="white" style="mix-blend-mode:multiply"/>
<rect x="48.5" y="544.5" width="15" height="15" rx="3.5" stroke="#8D8D8D"/>
<path d="M78.636 557V555.964H74.478V547.228H73.302V557H78.636ZM82.957 557.168C84.889 557.168 86.219 555.684 86.219 553.388C86.219 551.092 84.889 549.608 82.957 549.608C81.025 549.608 79.695 551.092 79.695 553.388C79.695 555.684 81.025 557.168 82.957 557.168ZM82.957 556.174C81.753 556.174 80.899 555.432 80.899 553.906V552.87C80.899 551.344 81.753 550.602 82.957 550.602C84.161 550.602 85.015 551.344 85.015 552.87V553.906C85.015 555.432 84.161 556.174 82.957 556.174ZM94.3109 557.798C94.3109 556.608 93.5409 555.88 91.7489 555.88H90.2089C89.5509 555.88 89.1029 555.768 89.1029 555.334C89.1029 554.886 89.5789 554.648 90.0549 554.522C90.2649 554.564 90.5169 554.592 90.7549 554.592C92.4069 554.592 93.4849 553.57 93.4849 552.1C93.4849 551.33 93.1769 550.686 92.6589 550.238V549.776H94.0309V548.796H92.9529C92.3509 548.796 92.1129 549.202 92.1129 549.762V549.888C91.7209 549.706 91.2589 549.608 90.7409 549.608C89.1029 549.608 88.0249 550.63 88.0249 552.1C88.0249 553.108 88.5289 553.906 89.3829 554.312V554.368C88.6549 554.55 88.1369 554.9 88.1369 555.628C88.1369 556.118 88.3749 556.44 88.7809 556.636V556.79C88.0669 556.986 87.6329 557.406 87.6329 558.19C87.6329 559.324 88.5569 559.968 90.8109 559.968C93.1349 559.968 94.3109 559.282 94.3109 557.798ZM93.2609 557.882C93.2609 558.666 92.5329 559.058 91.2869 559.058H90.2509C89.1169 559.058 88.6829 558.54 88.6829 557.91C88.6829 557.462 88.8929 557.14 89.3549 556.93H91.7629C92.8829 556.93 93.2609 557.308 93.2609 557.882ZM90.7549 553.696C89.8029 553.696 89.2009 553.248 89.2009 552.296V551.904C89.2009 550.952 89.8029 550.504 90.7549 550.504C91.7069 550.504 92.3089 550.952 92.3089 551.904V552.296C92.3089 553.248 91.7069 553.696 90.7549 553.696ZM96.3374 548.082C96.8134 548.082 97.0234 547.83 97.0234 547.452V547.27C97.0234 546.892 96.8134 546.64 96.3374 546.64C95.8614 546.64 95.6514 546.892 95.6514 547.27V547.452C95.6514 547.83 95.8614 548.082 96.3374 548.082ZM95.7774 557H96.8974V549.776H95.7774V557ZM102.125 557.168C103.497 557.168 104.435 556.496 104.897 555.46L104.085 554.914C103.693 555.74 103.035 556.174 102.125 556.174C100.795 556.174 100.109 555.264 100.109 554.004V552.772C100.109 551.512 100.795 550.602 102.125 550.602C103.007 550.602 103.623 551.036 103.889 551.778L104.827 551.302C104.407 550.308 103.553 549.608 102.125 549.608C100.095 549.608 98.9054 551.078 98.9054 553.388C98.9054 555.698 100.095 557.168 102.125 557.168ZM112.518 557V556.02H111.692V552.044C111.692 550.518 110.656 549.608 108.92 549.608C107.618 549.608 106.75 550.252 106.358 551.022L107.03 551.652C107.422 550.994 107.996 550.574 108.864 550.574C110.012 550.574 110.572 551.134 110.572 552.156V552.87H109.144C107.044 552.87 106.064 553.626 106.064 554.984C106.064 556.328 106.96 557.168 108.486 557.168C109.494 557.168 110.264 556.706 110.572 555.824H110.642C110.726 556.496 111.062 557 111.888 557H112.518ZM108.668 556.216C107.8 556.216 107.24 555.81 107.24 555.096V554.802C107.24 554.102 107.814 553.71 109.088 553.71H110.572V554.9C110.572 555.642 109.774 556.216 108.668 556.216ZM116.461 557V556.02H115.397V546.64H114.277V555.838C114.277 556.51 114.697 557 115.467 557H116.461ZM122.84 557V551.988C122.84 551.064 123.708 550.616 124.604 550.616C125.682 550.616 126.242 551.274 126.242 552.562V557H127.362V552.366C127.362 550.616 126.424 549.608 124.94 549.608C123.862 549.608 123.246 550.14 122.896 550.952H122.84V549.776H121.72V557H122.84ZM132.567 557.168C134.499 557.168 135.829 555.684 135.829 553.388C135.829 551.092 134.499 549.608 132.567 549.608C130.635 549.608 129.305 551.092 129.305 553.388C129.305 555.684 130.635 557.168 132.567 557.168ZM132.567 556.174C131.363 556.174 130.509 555.432 130.509 553.906V552.87C130.509 551.344 131.363 550.602 132.567 550.602C133.771 550.602 134.625 551.344 134.625 552.87V553.906C134.625 555.432 133.771 556.174 132.567 556.174ZM142.451 557H143.571V546.64H142.451V550.952H142.395C142.017 550.042 141.275 549.608 140.281 549.608C138.475 549.608 137.341 551.078 137.341 553.388C137.341 555.698 138.475 557.168 140.281 557.168C141.275 557.168 141.961 556.72 142.395 555.824H142.451V557ZM140.589 556.16C139.329 556.16 138.545 555.292 138.545 554.004V552.772C138.545 551.484 139.329 550.616 140.589 550.616C141.611 550.616 142.451 551.204 142.451 552.002V554.69C142.451 555.628 141.611 556.16 140.589 556.16ZM148.828 557.168C150.186 557.168 151.222 556.496 151.684 555.516L150.886 554.942C150.508 555.74 149.808 556.188 148.898 556.188C147.554 556.188 146.756 555.25 146.756 554.004V553.668H151.95V553.136C151.95 551.092 150.76 549.608 148.828 549.608C146.868 549.608 145.58 551.092 145.58 553.388C145.58 555.684 146.868 557.168 148.828 557.168ZM148.828 550.546C149.976 550.546 150.746 551.4 150.746 552.674V552.828H146.756V552.73C146.756 551.47 147.61 550.546 148.828 550.546Z" fill="#6F6F6F"/>
<rect x="169.5" y="544.5" width="15" height="15" fill="#F4F4F4"/>
<rect x="169.5" y="544.5" width="15" height="15" stroke="#8D8D8D"/>
<path d="M195.478 557V552.828H198.194C199.944 552.828 200.924 551.75 200.924 550.028C200.924 548.306 199.944 547.228 198.194 547.228H194.302V557H195.478ZM195.478 548.264H198.194C199.118 548.264 199.664 548.768 199.664 549.664V550.392C199.664 551.288 199.118 551.792 198.194 551.792H195.478V548.264ZM203.824 557V552.1C203.824 551.414 204.552 550.896 205.756 550.896H206.414V549.776H205.98C204.804 549.776 204.146 550.42 203.894 551.106H203.824V549.776H202.704V557H203.824ZM210.652 557.168C212.01 557.168 213.046 556.496 213.508 555.516L212.71 554.942C212.332 555.74 211.632 556.188 210.722 556.188C209.378 556.188 208.58 555.25 208.58 554.004V553.668H213.774V553.136C213.774 551.092 212.584 549.608 210.652 549.608C208.692 549.608 207.404 551.092 207.404 553.388C207.404 555.684 208.692 557.168 210.652 557.168ZM210.652 550.546C211.8 550.546 212.57 551.4 212.57 552.674V552.828H208.58V552.73C208.58 551.47 209.434 550.546 210.652 550.546ZM217.949 557.168C219.601 557.168 220.623 556.314 220.623 554.914C220.623 553.822 220.007 553.122 218.411 552.884L217.851 552.8C216.955 552.66 216.465 552.38 216.465 551.68C216.465 550.994 216.955 550.56 217.879 550.56C218.803 550.56 219.419 550.994 219.741 551.442L220.483 550.77C219.895 550.042 219.125 549.608 217.963 549.608C216.493 549.608 215.387 550.308 215.387 551.736C215.387 553.08 216.381 553.626 217.711 553.822L218.285 553.906C219.237 554.046 219.545 554.48 219.545 555.04C219.545 555.782 218.985 556.216 218.033 556.216C217.123 556.216 216.451 555.81 215.891 555.11L215.093 555.754C215.737 556.608 216.619 557.168 217.949 557.168ZM225.45 557.168C226.822 557.168 227.76 556.496 228.222 555.46L227.41 554.914C227.018 555.74 226.36 556.174 225.45 556.174C224.12 556.174 223.434 555.264 223.434 554.004V552.772C223.434 551.512 224.12 550.602 225.45 550.602C226.332 550.602 226.948 551.036 227.214 551.778L228.152 551.302C227.732 550.308 226.878 549.608 225.45 549.608C223.42 549.608 222.23 551.078 222.23 553.388C222.23 555.698 223.42 557.168 225.45 557.168ZM231.083 557V552.1C231.083 551.414 231.811 550.896 233.015 550.896H233.673V549.776H233.239C232.063 549.776 231.405 550.42 231.153 551.106H231.083V549.776H229.963V557H231.083ZM235.823 548.082C236.299 548.082 236.509 547.83 236.509 547.452V547.27C236.509 546.892 236.299 546.64 235.823 546.64C235.347 546.64 235.137 546.892 235.137 547.27V547.452C235.137 547.83 235.347 548.082 235.823 548.082ZM235.263 557H236.383V549.776H235.263V557ZM238.923 557H240.043V555.824H240.099C240.533 556.72 241.219 557.168 242.213 557.168C244.019 557.168 245.153 555.698 245.153 553.388C245.153 551.078 244.019 549.608 242.213 549.608C241.219 549.608 240.477 550.042 240.099 550.952H240.043V546.64H238.923V557ZM241.905 556.16C240.883 556.16 240.043 555.628 240.043 554.69V552.002C240.043 551.204 240.883 550.616 241.905 550.616C243.165 550.616 243.949 551.484 243.949 552.772V554.004C243.949 555.292 243.165 556.16 241.905 556.16ZM249.92 557.168C251.278 557.168 252.314 556.496 252.776 555.516L251.978 554.942C251.6 555.74 250.9 556.188 249.99 556.188C248.646 556.188 247.848 555.25 247.848 554.004V553.668H253.042V553.136C253.042 551.092 251.852 549.608 249.92 549.608C247.96 549.608 246.672 551.092 246.672 553.388C246.672 555.684 247.96 557.168 249.92 557.168ZM249.92 550.546C251.068 550.546 251.838 551.4 251.838 552.674V552.828H247.848V552.73C247.848 551.47 248.702 550.546 249.92 550.546ZM259.668 557H260.788V546.64H259.668V550.952H259.612C259.234 550.042 258.492 549.608 257.498 549.608C255.692 549.608 254.558 551.078 254.558 553.388C254.558 555.698 255.692 557.168 257.498 557.168C258.492 557.168 259.178 556.72 259.612 555.824H259.668V557ZM257.806 556.16C256.546 556.16 255.762 555.292 255.762 554.004V552.772C255.762 551.484 256.546 550.616 257.806 550.616C258.828 550.616 259.668 551.204 259.668 552.002V554.69C259.668 555.628 258.828 556.16 257.806 556.16ZM267.918 557V551.988C267.918 551.064 268.786 550.616 269.682 550.616C270.76 550.616 271.32 551.274 271.32 552.562V557H272.44V552.366C272.44 550.616 271.502 549.608 270.018 549.608C268.94 549.608 268.324 550.14 267.974 550.952H267.918V549.776H266.798V557H267.918ZM277.645 557.168C279.577 557.168 280.907 555.684 280.907 553.388C280.907 551.092 279.577 549.608 277.645 549.608C275.713 549.608 274.383 551.092 274.383 553.388C274.383 555.684 275.713 557.168 277.645 557.168ZM277.645 556.174C276.441 556.174 275.587 555.432 275.587 553.906V552.87C275.587 551.344 276.441 550.602 277.645 550.602C278.849 550.602 279.703 551.344 279.703 552.87V553.906C279.703 555.432 278.849 556.174 277.645 556.174ZM287.529 557H288.649V546.64H287.529V550.952H287.473C287.095 550.042 286.353 549.608 285.359 549.608C283.553 549.608 282.419 551.078 282.419 553.388C282.419 555.698 283.553 557.168 285.359 557.168C286.353 557.168 287.039 556.72 287.473 555.824H287.529V557ZM285.667 556.16C284.407 556.16 283.623 555.292 283.623 554.004V552.772C283.623 551.484 284.407 550.616 285.667 550.616C286.689 550.616 287.529 551.204 287.529 552.002V554.69C287.529 555.628 286.689 556.16 285.667 556.16ZM293.906 557.168C295.264 557.168 296.3 556.496 296.762 555.516L295.964 554.942C295.586 555.74 294.886 556.188 293.976 556.188C292.632 556.188 291.834 555.25 291.834 554.004V553.668H297.028V553.136C297.028 551.092 295.838 549.608 293.906 549.608C291.946 549.608 290.658 551.092 290.658 553.388C290.658 555.684 291.946 557.168 293.906 557.168ZM293.906 550.546C295.054 550.546 295.824 551.4 295.824 552.674V552.828H291.834V552.73C291.834 551.47 292.688 550.546 293.906 550.546Z" fill="#6F6F6F"/>
<rect x="314.5" y="544.5" width="15" height="15" fill="#F4F4F4"/>
<rect x="314.5" y="544.5" width="15" height="15" stroke="#8D8D8D" stroke-dasharray="4 4"/>
<path d="M342.746 557.168C344.37 557.168 345.56 556.314 346.176 554.942L345.238 554.354C344.846 555.418 343.992 556.118 342.746 556.118C341.066 556.118 340.072 554.9 340.072 552.898V551.442C340.072 549.44 341.066 548.11 342.746 548.11C343.95 548.11 344.762 548.768 345.154 549.776L346.106 549.202C345.49 547.844 344.37 547.06 342.746 547.06C340.282 547.06 338.812 548.908 338.812 552.17C338.812 555.432 340.282 557.168 342.746 557.168ZM348.045 557H349.165V551.988C349.165 551.064 350.033 550.616 350.929 550.616C352.007 550.616 352.567 551.274 352.567 552.562V557H353.687V552.366C353.687 550.616 352.749 549.608 351.265 549.608C350.187 549.608 349.571 550.14 349.221 550.952H349.165V546.64H348.045V557ZM362.042 557V556.02H361.216V552.044C361.216 550.518 360.18 549.608 358.444 549.608C357.142 549.608 356.274 550.252 355.882 551.022L356.554 551.652C356.946 550.994 357.52 550.574 358.388 550.574C359.536 550.574 360.096 551.134 360.096 552.156V552.87H358.668C356.568 552.87 355.588 553.626 355.588 554.984C355.588 556.328 356.484 557.168 358.01 557.168C359.018 557.168 359.788 556.706 360.096 555.824H360.166C360.25 556.496 360.586 557 361.412 557H362.042ZM358.192 556.216C357.324 556.216 356.764 555.81 356.764 555.096V554.802C356.764 554.102 357.338 553.71 358.612 553.71H360.096V554.9C360.096 555.642 359.298 556.216 358.192 556.216ZM364.921 557V551.988C364.921 551.064 365.789 550.616 366.685 550.616C367.763 550.616 368.323 551.274 368.323 552.562V557H369.443V552.366C369.443 550.616 368.505 549.608 367.021 549.608C365.943 549.608 365.327 550.14 364.977 550.952H364.921V549.776H363.801V557H364.921ZM378.008 557.798C378.008 556.608 377.238 555.88 375.446 555.88H373.906C373.248 555.88 372.8 555.768 372.8 555.334C372.8 554.886 373.276 554.648 373.752 554.522C373.962 554.564 374.214 554.592 374.452 554.592C376.104 554.592 377.182 553.57 377.182 552.1C377.182 551.33 376.874 550.686 376.356 550.238V549.776H377.728V548.796H376.65C376.048 548.796 375.81 549.202 375.81 549.762V549.888C375.418 549.706 374.956 549.608 374.438 549.608C372.8 549.608 371.722 550.63 371.722 552.1C371.722 553.108 372.226 553.906 373.08 554.312V554.368C372.352 554.55 371.834 554.9 371.834 555.628C371.834 556.118 372.072 556.44 372.478 556.636V556.79C371.764 556.986 371.33 557.406 371.33 558.19C371.33 559.324 372.254 559.968 374.508 559.968C376.832 559.968 378.008 559.282 378.008 557.798ZM376.958 557.882C376.958 558.666 376.23 559.058 374.984 559.058H373.948C372.814 559.058 372.38 558.54 372.38 557.91C372.38 557.462 372.59 557.14 373.052 556.93H375.46C376.58 556.93 376.958 557.308 376.958 557.882ZM374.452 553.696C373.5 553.696 372.898 553.248 372.898 552.296V551.904C372.898 550.952 373.5 550.504 374.452 550.504C375.404 550.504 376.006 550.952 376.006 551.904V552.296C376.006 553.248 375.404 553.696 374.452 553.696ZM382.108 557.168C383.466 557.168 384.502 556.496 384.964 555.516L384.166 554.942C383.788 555.74 383.088 556.188 382.178 556.188C380.834 556.188 380.036 555.25 380.036 554.004V553.668H385.23V553.136C385.23 551.092 384.04 549.608 382.108 549.608C380.148 549.608 378.86 551.092 378.86 553.388C378.86 555.684 380.148 557.168 382.108 557.168ZM382.108 550.546C383.256 550.546 384.026 551.4 384.026 552.674V552.828H380.036V552.73C380.036 551.47 380.89 550.546 382.108 550.546ZM391.856 557H392.976V546.64H391.856V550.952H391.8C391.422 550.042 390.68 549.608 389.686 549.608C387.88 549.608 386.746 551.078 386.746 553.388C386.746 555.698 387.88 557.168 389.686 557.168C390.68 557.168 391.366 556.72 391.8 555.824H391.856V557ZM389.994 556.16C388.734 556.16 387.95 555.292 387.95 554.004V552.772C387.95 551.484 388.734 550.616 389.994 550.616C391.016 550.616 391.856 551.204 391.856 552.002V554.69C391.856 555.628 391.016 556.16 389.994 556.16Z" fill="#6F6F6F"/>
<path fill-rule="evenodd" clip-rule="evenodd" d="M327.5 183.5H328C332.694 183.5 336.5 187.306 336.5 192V211.828H338.887L336 216.828L333.113 211.828H335.5V192C335.5 187.858 332.142 184.5 328 184.5H327.5V183.5Z" fill="#565151"/>
<path fill-rule="evenodd" clip-rule="evenodd" d="M224 343.5C219.858 343.5 216.5 340.142 216.5 336H215.5C215.5 340.694 219.306 344.5 224 344.5H235.013V346.887L240.013 344L235.013 341.113V343.5H224Z" fill="#565151"/>
<path fill-rule="evenodd" clip-rule="evenodd" d="M504 343.5C499.858 343.5 496.5 340.142 496.5 336H495.5C495.5 340.694 499.306 344.5 504 344.5H515.013V346.887L520.013 344L515.013 341.113V343.5H504Z" fill="#565151"/>
<path fill-rule="evenodd" clip-rule="evenodd" d="M448 343.5H464C468.694 343.5 472.5 347.306 472.5 352V417H471.5V352C471.5 347.858 468.142 344.5 464 344.5H448V343.5Z" fill="#565151"/>
<path fill-rule="evenodd" clip-rule="evenodd" d="M728 343.5H744C748.694 343.5 752.5 347.306 752.5 352V417H751.5V352C751.5 347.858 748.142 344.5 744 344.5H728V343.5Z" fill="#565151"/>
<defs>
<clipPath id="clip0_3229_12315">
<rect width="168" height="48" fill="white" transform="translate(792 496)"/>
</clipPath>
</defs>
</svg>
