<svg width="1080" height="360" viewBox="0 0 1080 360" fill="none" xmlns="http://www.w3.org/2000/svg">
<rect width="1080" height="360" fill="#F4F4F4"/>
<rect width="1080" height="360" fill="#F4F4F4"/>
<path d="M179.5 180.5C254.001 180.502 232.699 260.5 312.5 260.5" stroke="#E0E0E0"/>
<path d="M179 180.499C253.501 180.501 232.199 92.4997 311.999 92.5" stroke="#E0E0E0"/>
<path d="M448 148.236C522.501 148.238 505.199 124 585 124" stroke="#E0E0E0"/>
<path d="M718.457 180.313C794.651 180.315 774.887 100 856.5 100.001" stroke="#8D8D8D"/>
<path d="M718.457 180.314C794.65 180.316 774.887 260 856.5 260" stroke="#8D8D8D"/>
<path d="M448 148.205C522.501 148.207 504.699 180.5 584.5 180.5" stroke="#8D8D8D"/>
<path d="M179.5 180.5C254.001 180.502 232.699 204.5 312.5 204.5" stroke="#E0E0E0"/>
<path d="M179.5 180.5C254.001 180.502 234.199 148 314 148" stroke="#8D8D8D"/>
<rect x="48.5" y="168.5" width="131" height="23" rx="11.5" fill="white"/>
<path d="M70.228 184V183.112H66.124V180.208H69.988V179.32H66.124V176.512H70.228V175.624H65.116V184H70.228ZM73.2961 184V179.704C73.2961 178.912 74.0401 178.528 74.8081 178.528C75.7321 178.528 76.2121 179.092 76.2121 180.196V184H77.1721V180.028C77.1721 178.528 76.3681 177.664 75.0961 177.664C74.1721 177.664 73.6441 178.12 73.3441 178.816H73.2961V177.808H72.3361V184H73.2961ZM82.0444 184V183.16H80.7844V178.648H82.1404V177.808H80.7844V176.092H79.9204V177.244C79.9204 177.664 79.7884 177.808 79.3804 177.808H78.8044V178.648H79.8244V182.98C79.8244 183.58 80.1844 184 80.8444 184H82.0444ZM86.2846 184.144C87.4486 184.144 88.3366 183.568 88.7326 182.728L88.0486 182.236C87.7246 182.92 87.1246 183.304 86.3446 183.304C85.1926 183.304 84.5086 182.5 84.5086 181.432V181.144H88.9606V180.688C88.9606 178.936 87.9406 177.664 86.2846 177.664C84.6046 177.664 83.5006 178.936 83.5006 180.904C83.5006 182.872 84.6046 184.144 86.2846 184.144ZM86.2846 178.468C87.2686 178.468 87.9286 179.2 87.9286 180.292V180.424H84.5086V180.34C84.5086 179.26 85.2406 178.468 86.2846 178.468ZM91.8225 184V179.8C91.8225 179.212 92.4465 178.768 93.4785 178.768H94.0425V177.808H93.6705C92.6625 177.808 92.0985 178.36 91.8825 178.948H91.8225V177.808H90.8625V184H91.8225ZM95.5888 186.4H96.5488V182.992H96.5968C96.9688 183.76 97.5568 184.144 98.4088 184.144C99.9568 184.144 100.929 182.884 100.929 180.904C100.929 178.924 99.9568 177.664 98.4088 177.664C97.5568 177.664 96.9208 178.036 96.5968 178.816H96.5488V177.808H95.5888V186.4ZM98.1448 183.28C97.2688 183.28 96.5488 182.824 96.5488 182.02V179.716C96.5488 179.032 97.2688 178.528 98.1448 178.528C99.2248 178.528 99.8968 179.272 99.8968 180.376V181.432C99.8968 182.536 99.2248 183.28 98.1448 183.28ZM103.83 184V179.8C103.83 179.212 104.454 178.768 105.486 178.768H106.05V177.808H105.678C104.67 177.808 104.106 178.36 103.89 178.948H103.83V177.808H102.87V184H103.83ZM108.076 176.356C108.484 176.356 108.664 176.14 108.664 175.816V175.66C108.664 175.336 108.484 175.12 108.076 175.12C107.668 175.12 107.488 175.336 107.488 175.66V175.816C107.488 176.14 107.668 176.356 108.076 176.356ZM107.596 184H108.556V177.808H107.596V184ZM112.776 184.144C114.192 184.144 115.068 183.412 115.068 182.212C115.068 181.276 114.54 180.676 113.172 180.472L112.692 180.4C111.924 180.28 111.504 180.04 111.504 179.44C111.504 178.852 111.924 178.48 112.716 178.48C113.508 178.48 114.036 178.852 114.312 179.236L114.948 178.66C114.444 178.036 113.784 177.664 112.788 177.664C111.528 177.664 110.58 178.264 110.58 179.488C110.58 180.64 111.432 181.108 112.572 181.276L113.064 181.348C113.88 181.468 114.144 181.84 114.144 182.32C114.144 182.956 113.664 183.328 112.848 183.328C112.068 183.328 111.492 182.98 111.012 182.38L110.328 182.932C110.88 183.664 111.636 184.144 112.776 184.144ZM119.412 184.144C120.576 184.144 121.464 183.568 121.86 182.728L121.176 182.236C120.852 182.92 120.252 183.304 119.472 183.304C118.32 183.304 117.636 182.5 117.636 181.432V181.144H122.088V180.688C122.088 178.936 121.068 177.664 119.412 177.664C117.732 177.664 116.628 178.936 116.628 180.904C116.628 182.872 117.732 184.144 119.412 184.144ZM119.412 178.468C120.396 178.468 121.056 179.2 121.056 180.292V180.424H117.636V180.34C117.636 179.26 118.368 178.468 119.412 178.468Z" fill="black"/>
<rect x="48.5" y="168.5" width="131" height="23" rx="11.5" stroke="#878D96"/>
<rect x="312.5" y="136.5" width="135" height="23" rx="11.5" fill="white"/>
<path d="M335.416 152L332.488 143.624H331.204L328.276 152H329.296L330.136 149.528H333.52L334.36 152H335.416ZM333.268 148.64H330.376L331.792 144.56H331.852L333.268 148.64ZM339.331 152.144C340.508 152.144 341.312 151.568 341.707 150.68L341.012 150.212C340.676 150.92 340.111 151.292 339.331 151.292C338.191 151.292 337.603 150.512 337.603 149.432V148.376C337.603 147.296 338.191 146.516 339.331 146.516C340.087 146.516 340.615 146.888 340.844 147.524L341.648 147.116C341.288 146.264 340.555 145.664 339.331 145.664C337.591 145.664 336.571 146.924 336.571 148.904C336.571 150.884 337.591 152.144 339.331 152.144ZM345.616 152.144C346.792 152.144 347.596 151.568 347.992 150.68L347.296 150.212C346.96 150.92 346.396 151.292 345.616 151.292C344.476 151.292 343.888 150.512 343.888 149.432V148.376C343.888 147.296 344.476 146.516 345.616 146.516C346.372 146.516 346.9 146.888 347.128 147.524L347.932 147.116C347.572 146.264 346.84 145.664 345.616 145.664C343.876 145.664 342.856 146.924 342.856 148.904C342.856 150.884 343.876 152.144 345.616 152.144ZM351.937 152.144C353.593 152.144 354.733 150.872 354.733 148.904C354.733 146.936 353.593 145.664 351.937 145.664C350.281 145.664 349.141 146.936 349.141 148.904C349.141 150.872 350.281 152.144 351.937 152.144ZM351.937 151.292C350.905 151.292 350.173 150.656 350.173 149.348V148.46C350.173 147.152 350.905 146.516 351.937 146.516C352.969 146.516 353.701 147.152 353.701 148.46V149.348C353.701 150.656 352.969 151.292 351.937 151.292ZM360.448 152H361.408V145.808H360.448V150.092C360.448 150.908 359.704 151.28 358.948 151.28C358.024 151.28 357.532 150.716 357.532 149.612V145.808H356.572V149.78C356.572 151.28 357.388 152.144 358.66 152.144C359.692 152.144 360.16 151.58 360.4 150.992H360.448V152ZM364.732 152V147.704C364.732 146.912 365.476 146.528 366.244 146.528C367.168 146.528 367.648 147.092 367.648 148.196V152H368.608V148.028C368.608 146.528 367.804 145.664 366.532 145.664C365.608 145.664 365.08 146.12 364.78 146.816H364.732V145.808H363.772V152H364.732ZM373.481 152V151.16H372.221V146.648H373.577V145.808H372.221V144.092H371.357V145.244C371.357 145.664 371.225 145.808 370.817 145.808H370.241V146.648H371.261V150.98C371.261 151.58 371.621 152 372.281 152H373.481ZM383.816 152.684C383.816 151.664 383.156 151.04 381.62 151.04H380.3C379.736 151.04 379.352 150.944 379.352 150.572C379.352 150.188 379.76 149.984 380.168 149.876C380.348 149.912 380.564 149.936 380.768 149.936C382.184 149.936 383.108 149.06 383.108 147.8C383.108 147.14 382.844 146.588 382.4 146.204V145.808H383.576V144.968H382.652C382.136 144.968 381.932 145.316 381.932 145.796V145.904C381.596 145.748 381.2 145.664 380.756 145.664C379.352 145.664 378.428 146.54 378.428 147.8C378.428 148.664 378.86 149.348 379.592 149.696V149.744C378.968 149.9 378.524 150.2 378.524 150.824C378.524 151.244 378.728 151.52 379.076 151.688V151.82C378.464 151.988 378.092 152.348 378.092 153.02C378.092 153.992 378.884 154.544 380.816 154.544C382.808 154.544 383.816 153.956 383.816 152.684ZM382.916 152.756C382.916 153.428 382.292 153.764 381.224 153.764H380.336C379.364 153.764 378.992 153.32 378.992 152.78C378.992 152.396 379.172 152.12 379.568 151.94H381.632C382.592 151.94 382.916 152.264 382.916 152.756ZM380.768 149.168C379.952 149.168 379.436 148.784 379.436 147.968V147.632C379.436 146.816 379.952 146.432 380.768 146.432C381.584 146.432 382.1 146.816 382.1 147.632V147.968C382.1 148.784 381.584 149.168 380.768 149.168ZM386.215 152V147.8C386.215 147.212 386.839 146.768 387.871 146.768H388.435V145.808H388.063C387.055 145.808 386.491 146.36 386.275 146.948H386.215V145.808H385.255V152H386.215ZM392.263 152.144C393.919 152.144 395.059 150.872 395.059 148.904C395.059 146.936 393.919 145.664 392.263 145.664C390.607 145.664 389.467 146.936 389.467 148.904C389.467 150.872 390.607 152.144 392.263 152.144ZM392.263 151.292C391.231 151.292 390.499 150.656 390.499 149.348V148.46C390.499 147.152 391.231 146.516 392.263 146.516C393.295 146.516 394.027 147.152 394.027 148.46V149.348C394.027 150.656 393.295 151.292 392.263 151.292ZM400.774 152H401.734V145.808H400.774V150.092C400.774 150.908 400.03 151.28 399.274 151.28C398.35 151.28 397.858 150.716 397.858 149.612V145.808H396.898V149.78C396.898 151.28 397.714 152.144 398.986 152.144C400.018 152.144 400.486 151.58 400.726 150.992H400.774V152ZM404.098 154.4H405.058V150.992H405.106C405.478 151.76 406.066 152.144 406.918 152.144C408.466 152.144 409.438 150.884 409.438 148.904C409.438 146.924 408.466 145.664 406.918 145.664C406.066 145.664 405.43 146.036 405.106 146.816H405.058V145.808H404.098V154.4ZM406.654 151.28C405.778 151.28 405.058 150.824 405.058 150.02V147.716C405.058 147.032 405.778 146.528 406.654 146.528C407.734 146.528 408.406 147.272 408.406 148.376V149.432C408.406 150.536 407.734 151.28 406.654 151.28Z" fill="black"/>
<rect x="312.5" y="136.5" width="135" height="23" rx="11.5" stroke="#A56EFF"/>
<rect x="312" y="192" width="136" height="24" rx="12" fill="white"/>
<path d="M335.416 208L332.488 199.624H331.204L328.276 208H329.296L330.136 205.528H333.52L334.36 208H335.416ZM333.268 204.64H330.376L331.792 200.56H331.852L333.268 204.64ZM339.331 208.144C340.508 208.144 341.312 207.568 341.707 206.68L341.012 206.212C340.676 206.92 340.111 207.292 339.331 207.292C338.191 207.292 337.603 206.512 337.603 205.432V204.376C337.603 203.296 338.191 202.516 339.331 202.516C340.087 202.516 340.615 202.888 340.844 203.524L341.648 203.116C341.288 202.264 340.555 201.664 339.331 201.664C337.591 201.664 336.571 202.924 336.571 204.904C336.571 206.884 337.591 208.144 339.331 208.144ZM345.616 208.144C346.792 208.144 347.596 207.568 347.992 206.68L347.296 206.212C346.96 206.92 346.396 207.292 345.616 207.292C344.476 207.292 343.888 206.512 343.888 205.432V204.376C343.888 203.296 344.476 202.516 345.616 202.516C346.372 202.516 346.9 202.888 347.128 203.524L347.932 203.116C347.572 202.264 346.84 201.664 345.616 201.664C343.876 201.664 342.856 202.924 342.856 204.904C342.856 206.884 343.876 208.144 345.616 208.144ZM351.937 208.144C353.593 208.144 354.733 206.872 354.733 204.904C354.733 202.936 353.593 201.664 351.937 201.664C350.281 201.664 349.141 202.936 349.141 204.904C349.141 206.872 350.281 208.144 351.937 208.144ZM351.937 207.292C350.905 207.292 350.173 206.656 350.173 205.348V204.46C350.173 203.152 350.905 202.516 351.937 202.516C352.969 202.516 353.701 203.152 353.701 204.46V205.348C353.701 206.656 352.969 207.292 351.937 207.292ZM360.448 208H361.408V201.808H360.448V206.092C360.448 206.908 359.704 207.28 358.948 207.28C358.024 207.28 357.532 206.716 357.532 205.612V201.808H356.572V205.78C356.572 207.28 357.388 208.144 358.66 208.144C359.692 208.144 360.16 207.58 360.4 206.992H360.448V208ZM364.732 208V203.704C364.732 202.912 365.476 202.528 366.244 202.528C367.168 202.528 367.648 203.092 367.648 204.196V208H368.608V204.028C368.608 202.528 367.804 201.664 366.532 201.664C365.608 201.664 365.08 202.12 364.78 202.816H364.732V201.808H363.772V208H364.732ZM373.481 208V207.16H372.221V202.648H373.577V201.808H372.221V200.092H371.357V201.244C371.357 201.664 371.225 201.808 370.817 201.808H370.241V202.648H371.261V206.98C371.261 207.58 371.621 208 372.281 208H373.481ZM383.816 208.684C383.816 207.664 383.156 207.04 381.62 207.04H380.3C379.736 207.04 379.352 206.944 379.352 206.572C379.352 206.188 379.76 205.984 380.168 205.876C380.348 205.912 380.564 205.936 380.768 205.936C382.184 205.936 383.108 205.06 383.108 203.8C383.108 203.14 382.844 202.588 382.4 202.204V201.808H383.576V200.968H382.652C382.136 200.968 381.932 201.316 381.932 201.796V201.904C381.596 201.748 381.2 201.664 380.756 201.664C379.352 201.664 378.428 202.54 378.428 203.8C378.428 204.664 378.86 205.348 379.592 205.696V205.744C378.968 205.9 378.524 206.2 378.524 206.824C378.524 207.244 378.728 207.52 379.076 207.688V207.82C378.464 207.988 378.092 208.348 378.092 209.02C378.092 209.992 378.884 210.544 380.816 210.544C382.808 210.544 383.816 209.956 383.816 208.684ZM382.916 208.756C382.916 209.428 382.292 209.764 381.224 209.764H380.336C379.364 209.764 378.992 209.32 378.992 208.78C378.992 208.396 379.172 208.12 379.568 207.94H381.632C382.592 207.94 382.916 208.264 382.916 208.756ZM380.768 205.168C379.952 205.168 379.436 204.784 379.436 203.968V203.632C379.436 202.816 379.952 202.432 380.768 202.432C381.584 202.432 382.1 202.816 382.1 203.632V203.968C382.1 204.784 381.584 205.168 380.768 205.168ZM386.215 208V203.8C386.215 203.212 386.839 202.768 387.871 202.768H388.435V201.808H388.063C387.055 201.808 386.491 202.36 386.275 202.948H386.215V201.808H385.255V208H386.215ZM392.263 208.144C393.919 208.144 395.059 206.872 395.059 204.904C395.059 202.936 393.919 201.664 392.263 201.664C390.607 201.664 389.467 202.936 389.467 204.904C389.467 206.872 390.607 208.144 392.263 208.144ZM392.263 207.292C391.231 207.292 390.499 206.656 390.499 205.348V204.46C390.499 203.152 391.231 202.516 392.263 202.516C393.295 202.516 394.027 203.152 394.027 204.46V205.348C394.027 206.656 393.295 207.292 392.263 207.292ZM400.774 208H401.734V201.808H400.774V206.092C400.774 206.908 400.03 207.28 399.274 207.28C398.35 207.28 397.858 206.716 397.858 205.612V201.808H396.898V205.78C396.898 207.28 397.714 208.144 398.986 208.144C400.018 208.144 400.486 207.58 400.726 206.992H400.774V208ZM404.098 210.4H405.058V206.992H405.106C405.478 207.76 406.066 208.144 406.918 208.144C408.466 208.144 409.438 206.884 409.438 204.904C409.438 202.924 408.466 201.664 406.918 201.664C406.066 201.664 405.43 202.036 405.106 202.816H405.058V201.808H404.098V210.4ZM406.654 207.28C405.778 207.28 405.058 206.824 405.058 206.02V203.716C405.058 203.032 405.778 202.528 406.654 202.528C407.734 202.528 408.406 203.272 408.406 204.376V205.432C408.406 206.536 407.734 207.28 406.654 207.28Z" fill="black"/>
<rect x="312" y="192" width="136" height="24" rx="12" stroke="#A56EFF"/>
<rect x="856.5" y="32.5" width="167" height="135" rx="15.5" fill="#EDF5FF"/>
<rect x="856.5" y="32.5" width="167" height="135" rx="15.5" stroke="#4589FF"/>
<rect x="872.5" y="88.5" width="135" height="23" rx="11.5" fill="white"/>
<path d="M892.068 104.144C893.46 104.144 894.48 103.412 895.008 102.236L894.204 101.732C893.868 102.644 893.136 103.244 892.068 103.244C890.628 103.244 889.776 102.2 889.776 100.484V99.236C889.776 97.52 890.628 96.38 892.068 96.38C893.1 96.38 893.796 96.944 894.132 97.808L894.948 97.316C894.42 96.152 893.46 95.48 892.068 95.48C889.956 95.48 888.696 97.064 888.696 99.86C888.696 102.656 889.956 104.144 892.068 104.144ZM898.665 104V103.16H897.753V95.12H896.793V103.004C896.793 103.58 897.153 104 897.813 104H898.665ZM904.199 104H905.159V97.808H904.199V102.092C904.199 102.908 903.455 103.28 902.699 103.28C901.775 103.28 901.283 102.716 901.283 101.612V97.808H900.323V101.78C900.323 103.28 901.139 104.144 902.411 104.144C903.443 104.144 903.911 103.58 904.151 102.992H904.199V104ZM909.383 104.144C910.799 104.144 911.675 103.412 911.675 102.212C911.675 101.276 911.147 100.676 909.779 100.472L909.299 100.4C908.531 100.28 908.111 100.04 908.111 99.44C908.111 98.852 908.531 98.48 909.323 98.48C910.115 98.48 910.643 98.852 910.919 99.236L911.555 98.66C911.051 98.036 910.391 97.664 909.395 97.664C908.135 97.664 907.187 98.264 907.187 99.488C907.187 100.64 908.039 101.108 909.179 101.276L909.671 101.348C910.487 101.468 910.751 101.84 910.751 102.32C910.751 102.956 910.271 103.328 909.455 103.328C908.675 103.328 908.099 102.98 907.619 102.38L906.935 102.932C907.487 103.664 908.243 104.144 909.383 104.144ZM916.177 104V103.16H914.917V98.648H916.273V97.808H914.917V96.092H914.053V97.244C914.053 97.664 913.921 97.808 913.513 97.808H912.937V98.648H913.957V102.98C913.957 103.58 914.317 104 914.977 104H916.177ZM920.417 104.144C921.581 104.144 922.469 103.568 922.865 102.728L922.181 102.236C921.857 102.92 921.257 103.304 920.477 103.304C919.325 103.304 918.641 102.5 918.641 101.432V101.144H923.093V100.688C923.093 98.936 922.073 97.664 920.417 97.664C918.737 97.664 917.633 98.936 917.633 100.904C917.633 102.872 918.737 104.144 920.417 104.144ZM920.417 98.468C921.401 98.468 922.061 99.2 922.061 100.292V100.424H918.641V100.34C918.641 99.26 919.373 98.468 920.417 98.468ZM925.955 104V99.8C925.955 99.212 926.579 98.768 927.611 98.768H928.175V97.808H927.803C926.795 97.808 926.231 98.36 926.015 98.948H925.955V97.808H924.995V104H925.955Z" fill="black"/>
<rect x="872.5" y="88.5" width="135" height="23" rx="11.5" stroke="#4589FF"/>
<rect x="872.5" y="48.5" width="135" height="23" rx="11.5" fill="white"/>
<path d="M893.688 64V63.112H890.124V55.624H889.116V64H893.688ZM897.575 64.144C899.231 64.144 900.371 62.872 900.371 60.904C900.371 58.936 899.231 57.664 897.575 57.664C895.919 57.664 894.779 58.936 894.779 60.904C894.779 62.872 895.919 64.144 897.575 64.144ZM897.575 63.292C896.543 63.292 895.811 62.656 895.811 61.348V60.46C895.811 59.152 896.543 58.516 897.575 58.516C898.607 58.516 899.339 59.152 899.339 60.46V61.348C899.339 62.656 898.607 63.292 897.575 63.292ZM904.573 64.144C905.749 64.144 906.553 63.568 906.949 62.68L906.253 62.212C905.917 62.92 905.353 63.292 904.573 63.292C903.433 63.292 902.845 62.512 902.845 61.432V60.376C902.845 59.296 903.433 58.516 904.573 58.516C905.329 58.516 905.857 58.888 906.085 59.524L906.889 59.116C906.529 58.264 905.797 57.664 904.573 57.664C902.833 57.664 901.813 58.924 901.813 60.904C901.813 62.884 902.833 64.144 904.573 64.144ZM913.665 64V63.16H912.957V59.752C912.957 58.444 912.069 57.664 910.581 57.664C909.465 57.664 908.721 58.216 908.385 58.876L908.961 59.416C909.297 58.852 909.789 58.492 910.533 58.492C911.517 58.492 911.997 58.972 911.997 59.848V60.46H910.773C908.973 60.46 908.133 61.108 908.133 62.272C908.133 63.424 908.901 64.144 910.209 64.144C911.073 64.144 911.733 63.748 911.997 62.992H912.057C912.129 63.568 912.417 64 913.125 64H913.665ZM910.365 63.328C909.621 63.328 909.141 62.98 909.141 62.368V62.116C909.141 61.516 909.633 61.18 910.725 61.18H911.997V62.2C911.997 62.836 911.313 63.328 910.365 63.328ZM917.923 64V63.16H916.663V58.648H918.019V57.808H916.663V56.092H915.799V57.244C915.799 57.664 915.667 57.808 915.259 57.808H914.683V58.648H915.703V62.98C915.703 63.58 916.063 64 916.723 64H917.923ZM920.362 56.356C920.77 56.356 920.95 56.14 920.95 55.816V55.66C920.95 55.336 920.77 55.12 920.362 55.12C919.954 55.12 919.774 55.336 919.774 55.66V55.816C919.774 56.14 919.954 56.356 920.362 56.356ZM919.882 64H920.842V57.808H919.882V64ZM925.542 64.144C927.198 64.144 928.338 62.872 928.338 60.904C928.338 58.936 927.198 57.664 925.542 57.664C923.886 57.664 922.746 58.936 922.746 60.904C922.746 62.872 923.886 64.144 925.542 64.144ZM925.542 63.292C924.51 63.292 923.778 62.656 923.778 61.348V60.46C923.778 59.152 924.51 58.516 925.542 58.516C926.574 58.516 927.306 59.152 927.306 60.46V61.348C927.306 62.656 926.574 63.292 925.542 63.292ZM931.197 64V59.704C931.197 58.912 931.941 58.528 932.709 58.528C933.633 58.528 934.113 59.092 934.113 60.196V64H935.073V60.028C935.073 58.528 934.269 57.664 932.997 57.664C932.073 57.664 931.545 58.12 931.245 58.816H931.197V57.808H930.237V64H931.197Z" fill="black"/>
<rect x="872.5" y="48.5" width="135" height="23" rx="11.5" stroke="#4589FF"/>
<rect x="872.5" y="128.5" width="135" height="23" rx="11.5" fill="white"/>
<path d="M891.468 144.144C893.268 144.144 894.348 143.16 894.348 141.624C894.348 140.376 893.64 139.656 892.008 139.284L891.324 139.128C890.268 138.888 889.752 138.528 889.752 137.736C889.752 136.836 890.412 136.368 891.48 136.368C892.452 136.368 893.088 136.764 893.544 137.4L894.3 136.848C893.676 135.96 892.788 135.48 891.528 135.48C889.884 135.48 888.756 136.284 888.756 137.772C888.756 139.056 889.596 139.728 891.12 140.076L891.804 140.232C892.908 140.484 893.352 140.88 893.352 141.672C893.352 142.632 892.704 143.256 891.504 143.256C890.532 143.256 889.836 142.836 889.248 142.056L888.504 142.68C889.176 143.592 890.124 144.144 891.468 144.144ZM898.641 144.144C899.805 144.144 900.693 143.568 901.089 142.728L900.405 142.236C900.081 142.92 899.481 143.304 898.701 143.304C897.549 143.304 896.865 142.5 896.865 141.432V141.144H901.317V140.688C901.317 138.936 900.297 137.664 898.641 137.664C896.961 137.664 895.857 138.936 895.857 140.904C895.857 142.872 896.961 144.144 898.641 144.144ZM898.641 138.468C899.625 138.468 900.285 139.2 900.285 140.292V140.424H896.865V140.34C896.865 139.26 897.597 138.468 898.641 138.468ZM904.179 144V139.8C904.179 139.212 904.803 138.768 905.835 138.768H906.399V137.808H906.027C905.019 137.808 904.455 138.36 904.239 138.948H904.179V137.808H903.219V144H904.179ZM910.546 144L912.73 137.808H911.806L910.702 140.88L910.03 142.992H909.97L909.298 140.88L908.218 137.808H907.258L909.43 144H910.546ZM914.768 136.356C915.176 136.356 915.356 136.14 915.356 135.816V135.66C915.356 135.336 915.176 135.12 914.768 135.12C914.36 135.12 914.18 135.336 914.18 135.66V135.816C914.18 136.14 914.36 136.356 914.768 136.356ZM914.288 144H915.248V137.808H914.288V144ZM919.912 144.144C921.088 144.144 921.892 143.568 922.288 142.68L921.592 142.212C921.256 142.92 920.692 143.292 919.912 143.292C918.772 143.292 918.184 142.512 918.184 141.432V140.376C918.184 139.296 918.772 138.516 919.912 138.516C920.668 138.516 921.196 138.888 921.424 139.524L922.228 139.116C921.868 138.264 921.136 137.664 919.912 137.664C918.172 137.664 917.152 138.924 917.152 140.904C917.152 142.884 918.172 144.144 919.912 144.144ZM926.221 144.144C927.385 144.144 928.273 143.568 928.669 142.728L927.985 142.236C927.661 142.92 927.061 143.304 926.281 143.304C925.129 143.304 924.445 142.5 924.445 141.432V141.144H928.897V140.688C928.897 138.936 927.877 137.664 926.221 137.664C924.541 137.664 923.437 138.936 923.437 140.904C923.437 142.872 924.541 144.144 926.221 144.144ZM926.221 138.468C927.205 138.468 927.865 139.2 927.865 140.292V140.424H924.445V140.34C924.445 139.26 925.177 138.468 926.221 138.468ZM932.659 144.144C934.075 144.144 934.951 143.412 934.951 142.212C934.951 141.276 934.423 140.676 933.055 140.472L932.575 140.4C931.807 140.28 931.387 140.04 931.387 139.44C931.387 138.852 931.807 138.48 932.599 138.48C933.391 138.48 933.919 138.852 934.195 139.236L934.831 138.66C934.327 138.036 933.667 137.664 932.671 137.664C931.411 137.664 930.463 138.264 930.463 139.488C930.463 140.64 931.315 141.108 932.455 141.276L932.947 141.348C933.763 141.468 934.027 141.84 934.027 142.32C934.027 142.956 933.547 143.328 932.731 143.328C931.951 143.328 931.375 142.98 930.895 142.38L930.211 142.932C930.763 143.664 931.519 144.144 932.659 144.144Z" fill="black"/>
<rect x="872.5" y="128.5" width="135" height="23" rx="11.5" stroke="#4589FF"/>
<rect x="856.5" y="192.5" width="167" height="135" rx="15.5" fill="#EDF5FF"/>
<rect x="856.5" y="192.5" width="167" height="135" rx="15.5" stroke="#4589FF"/>
<rect x="872.5" y="248.5" width="135" height="23" rx="11.5" fill="white"/>
<path d="M892.068 264.144C893.46 264.144 894.48 263.412 895.008 262.236L894.204 261.732C893.868 262.644 893.136 263.244 892.068 263.244C890.628 263.244 889.776 262.2 889.776 260.484V259.236C889.776 257.52 890.628 256.38 892.068 256.38C893.1 256.38 893.796 256.944 894.132 257.808L894.948 257.316C894.42 256.152 893.46 255.48 892.068 255.48C889.956 255.48 888.696 257.064 888.696 259.86C888.696 262.656 889.956 264.144 892.068 264.144ZM898.665 264V263.16H897.753V255.12H896.793V263.004C896.793 263.58 897.153 264 897.813 264H898.665ZM904.199 264H905.159V257.808H904.199V262.092C904.199 262.908 903.455 263.28 902.699 263.28C901.775 263.28 901.283 262.716 901.283 261.612V257.808H900.323V261.78C900.323 263.28 901.139 264.144 902.411 264.144C903.443 264.144 903.911 263.58 904.151 262.992H904.199V264ZM909.383 264.144C910.799 264.144 911.675 263.412 911.675 262.212C911.675 261.276 911.147 260.676 909.779 260.472L909.299 260.4C908.531 260.28 908.111 260.04 908.111 259.44C908.111 258.852 908.531 258.48 909.323 258.48C910.115 258.48 910.643 258.852 910.919 259.236L911.555 258.66C911.051 258.036 910.391 257.664 909.395 257.664C908.135 257.664 907.187 258.264 907.187 259.488C907.187 260.64 908.039 261.108 909.179 261.276L909.671 261.348C910.487 261.468 910.751 261.84 910.751 262.32C910.751 262.956 910.271 263.328 909.455 263.328C908.675 263.328 908.099 262.98 907.619 262.38L906.935 262.932C907.487 263.664 908.243 264.144 909.383 264.144ZM916.177 264V263.16H914.917V258.648H916.273V257.808H914.917V256.092H914.053V257.244C914.053 257.664 913.921 257.808 913.513 257.808H912.937V258.648H913.957V262.98C913.957 263.58 914.317 264 914.977 264H916.177ZM920.417 264.144C921.581 264.144 922.469 263.568 922.865 262.728L922.181 262.236C921.857 262.92 921.257 263.304 920.477 263.304C919.325 263.304 918.641 262.5 918.641 261.432V261.144H923.093V260.688C923.093 258.936 922.073 257.664 920.417 257.664C918.737 257.664 917.633 258.936 917.633 260.904C917.633 262.872 918.737 264.144 920.417 264.144ZM920.417 258.468C921.401 258.468 922.061 259.2 922.061 260.292V260.424H918.641V260.34C918.641 259.26 919.373 258.468 920.417 258.468ZM925.955 264V259.8C925.955 259.212 926.579 258.768 927.611 258.768H928.175V257.808H927.803C926.795 257.808 926.231 258.36 926.015 258.948H925.955V257.808H924.995V264H925.955Z" fill="black"/>
<rect x="872.5" y="248.5" width="135" height="23" rx="11.5" stroke="#4589FF"/>
<rect x="872.5" y="208.5" width="135" height="23" rx="11.5" fill="white"/>
<path d="M893.688 224V223.112H890.124V215.624H889.116V224H893.688ZM897.575 224.144C899.231 224.144 900.371 222.872 900.371 220.904C900.371 218.936 899.231 217.664 897.575 217.664C895.919 217.664 894.779 218.936 894.779 220.904C894.779 222.872 895.919 224.144 897.575 224.144ZM897.575 223.292C896.543 223.292 895.811 222.656 895.811 221.348V220.46C895.811 219.152 896.543 218.516 897.575 218.516C898.607 218.516 899.339 219.152 899.339 220.46V221.348C899.339 222.656 898.607 223.292 897.575 223.292ZM904.573 224.144C905.749 224.144 906.553 223.568 906.949 222.68L906.253 222.212C905.917 222.92 905.353 223.292 904.573 223.292C903.433 223.292 902.845 222.512 902.845 221.432V220.376C902.845 219.296 903.433 218.516 904.573 218.516C905.329 218.516 905.857 218.888 906.085 219.524L906.889 219.116C906.529 218.264 905.797 217.664 904.573 217.664C902.833 217.664 901.813 218.924 901.813 220.904C901.813 222.884 902.833 224.144 904.573 224.144ZM913.665 224V223.16H912.957V219.752C912.957 218.444 912.069 217.664 910.581 217.664C909.465 217.664 908.721 218.216 908.385 218.876L908.961 219.416C909.297 218.852 909.789 218.492 910.533 218.492C911.517 218.492 911.997 218.972 911.997 219.848V220.46H910.773C908.973 220.46 908.133 221.108 908.133 222.272C908.133 223.424 908.901 224.144 910.209 224.144C911.073 224.144 911.733 223.748 911.997 222.992H912.057C912.129 223.568 912.417 224 913.125 224H913.665ZM910.365 223.328C909.621 223.328 909.141 222.98 909.141 222.368V222.116C909.141 221.516 909.633 221.18 910.725 221.18H911.997V222.2C911.997 222.836 911.313 223.328 910.365 223.328ZM917.923 224V223.16H916.663V218.648H918.019V217.808H916.663V216.092H915.799V217.244C915.799 217.664 915.667 217.808 915.259 217.808H914.683V218.648H915.703V222.98C915.703 223.58 916.063 224 916.723 224H917.923ZM920.362 216.356C920.77 216.356 920.95 216.14 920.95 215.816V215.66C920.95 215.336 920.77 215.12 920.362 215.12C919.954 215.12 919.774 215.336 919.774 215.66V215.816C919.774 216.14 919.954 216.356 920.362 216.356ZM919.882 224H920.842V217.808H919.882V224ZM925.542 224.144C927.198 224.144 928.338 222.872 928.338 220.904C928.338 218.936 927.198 217.664 925.542 217.664C923.886 217.664 922.746 218.936 922.746 220.904C922.746 222.872 923.886 224.144 925.542 224.144ZM925.542 223.292C924.51 223.292 923.778 222.656 923.778 221.348V220.46C923.778 219.152 924.51 218.516 925.542 218.516C926.574 218.516 927.306 219.152 927.306 220.46V221.348C927.306 222.656 926.574 223.292 925.542 223.292ZM931.197 224V219.704C931.197 218.912 931.941 218.528 932.709 218.528C933.633 218.528 934.113 219.092 934.113 220.196V224H935.073V220.028C935.073 218.528 934.269 217.664 932.997 217.664C932.073 217.664 931.545 218.12 931.245 218.816H931.197V217.808H930.237V224H931.197Z" fill="black"/>
<rect x="872.5" y="208.5" width="135" height="23" rx="11.5" stroke="#4589FF"/>
<rect x="872.5" y="288.5" width="135" height="23" rx="11.5" fill="white"/>
<path d="M891.468 304.144C893.268 304.144 894.348 303.16 894.348 301.624C894.348 300.376 893.64 299.656 892.008 299.284L891.324 299.128C890.268 298.888 889.752 298.528 889.752 297.736C889.752 296.836 890.412 296.368 891.48 296.368C892.452 296.368 893.088 296.764 893.544 297.4L894.3 296.848C893.676 295.96 892.788 295.48 891.528 295.48C889.884 295.48 888.756 296.284 888.756 297.772C888.756 299.056 889.596 299.728 891.12 300.076L891.804 300.232C892.908 300.484 893.352 300.88 893.352 301.672C893.352 302.632 892.704 303.256 891.504 303.256C890.532 303.256 889.836 302.836 889.248 302.056L888.504 302.68C889.176 303.592 890.124 304.144 891.468 304.144ZM898.641 304.144C899.805 304.144 900.693 303.568 901.089 302.728L900.405 302.236C900.081 302.92 899.481 303.304 898.701 303.304C897.549 303.304 896.865 302.5 896.865 301.432V301.144H901.317V300.688C901.317 298.936 900.297 297.664 898.641 297.664C896.961 297.664 895.857 298.936 895.857 300.904C895.857 302.872 896.961 304.144 898.641 304.144ZM898.641 298.468C899.625 298.468 900.285 299.2 900.285 300.292V300.424H896.865V300.34C896.865 299.26 897.597 298.468 898.641 298.468ZM904.179 304V299.8C904.179 299.212 904.803 298.768 905.835 298.768H906.399V297.808H906.027C905.019 297.808 904.455 298.36 904.239 298.948H904.179V297.808H903.219V304H904.179ZM910.546 304L912.73 297.808H911.806L910.702 300.88L910.03 302.992H909.97L909.298 300.88L908.218 297.808H907.258L909.43 304H910.546ZM914.768 296.356C915.176 296.356 915.356 296.14 915.356 295.816V295.66C915.356 295.336 915.176 295.12 914.768 295.12C914.36 295.12 914.18 295.336 914.18 295.66V295.816C914.18 296.14 914.36 296.356 914.768 296.356ZM914.288 304H915.248V297.808H914.288V304ZM919.912 304.144C921.088 304.144 921.892 303.568 922.288 302.68L921.592 302.212C921.256 302.92 920.692 303.292 919.912 303.292C918.772 303.292 918.184 302.512 918.184 301.432V300.376C918.184 299.296 918.772 298.516 919.912 298.516C920.668 298.516 921.196 298.888 921.424 299.524L922.228 299.116C921.868 298.264 921.136 297.664 919.912 297.664C918.172 297.664 917.152 298.924 917.152 300.904C917.152 302.884 918.172 304.144 919.912 304.144ZM926.221 304.144C927.385 304.144 928.273 303.568 928.669 302.728L927.985 302.236C927.661 302.92 927.061 303.304 926.281 303.304C925.129 303.304 924.445 302.5 924.445 301.432V301.144H928.897V300.688C928.897 298.936 927.877 297.664 926.221 297.664C924.541 297.664 923.437 298.936 923.437 300.904C923.437 302.872 924.541 304.144 926.221 304.144ZM926.221 298.468C927.205 298.468 927.865 299.2 927.865 300.292V300.424H924.445V300.34C924.445 299.26 925.177 298.468 926.221 298.468ZM932.659 304.144C934.075 304.144 934.951 303.412 934.951 302.212C934.951 301.276 934.423 300.676 933.055 300.472L932.575 300.4C931.807 300.28 931.387 300.04 931.387 299.44C931.387 298.852 931.807 298.48 932.599 298.48C933.391 298.48 933.919 298.852 934.195 299.236L934.831 298.66C934.327 298.036 933.667 297.664 932.671 297.664C931.411 297.664 930.463 298.264 930.463 299.488C930.463 300.64 931.315 301.108 932.455 301.276L932.947 301.348C933.763 301.468 934.027 301.84 934.027 302.32C934.027 302.956 933.547 303.328 932.731 303.328C931.951 303.328 931.375 302.98 930.895 302.38L930.211 302.932C930.763 303.664 931.519 304.144 932.659 304.144Z" fill="black"/>
<rect x="872.5" y="288.5" width="135" height="23" rx="11.5" stroke="#4589FF"/>
<rect x="584" y="112" width="136" height="24" rx="12" fill="white"/>
<path d="M607.416 128L604.488 119.624H603.204L600.276 128H601.296L602.136 125.528H605.52L606.36 128H607.416ZM605.268 124.64H602.376L603.792 120.56H603.852L605.268 124.64ZM611.331 128.144C612.508 128.144 613.312 127.568 613.707 126.68L613.012 126.212C612.676 126.92 612.111 127.292 611.331 127.292C610.191 127.292 609.603 126.512 609.603 125.432V124.376C609.603 123.296 610.191 122.516 611.331 122.516C612.087 122.516 612.615 122.888 612.844 123.524L613.648 123.116C613.288 122.264 612.555 121.664 611.331 121.664C609.591 121.664 608.571 122.924 608.571 124.904C608.571 126.884 609.591 128.144 611.331 128.144ZM617.616 128.144C618.792 128.144 619.596 127.568 619.992 126.68L619.296 126.212C618.96 126.92 618.396 127.292 617.616 127.292C616.476 127.292 615.888 126.512 615.888 125.432V124.376C615.888 123.296 616.476 122.516 617.616 122.516C618.372 122.516 618.9 122.888 619.128 123.524L619.932 123.116C619.572 122.264 618.84 121.664 617.616 121.664C615.876 121.664 614.856 122.924 614.856 124.904C614.856 126.884 615.876 128.144 617.616 128.144ZM623.937 128.144C625.593 128.144 626.733 126.872 626.733 124.904C626.733 122.936 625.593 121.664 623.937 121.664C622.281 121.664 621.141 122.936 621.141 124.904C621.141 126.872 622.281 128.144 623.937 128.144ZM623.937 127.292C622.905 127.292 622.173 126.656 622.173 125.348V124.46C622.173 123.152 622.905 122.516 623.937 122.516C624.969 122.516 625.701 123.152 625.701 124.46V125.348C625.701 126.656 624.969 127.292 623.937 127.292ZM632.448 128H633.408V121.808H632.448V126.092C632.448 126.908 631.704 127.28 630.948 127.28C630.024 127.28 629.532 126.716 629.532 125.612V121.808H628.572V125.78C628.572 127.28 629.388 128.144 630.66 128.144C631.692 128.144 632.16 127.58 632.4 126.992H632.448V128ZM636.732 128V123.704C636.732 122.912 637.476 122.528 638.244 122.528C639.168 122.528 639.648 123.092 639.648 124.196V128H640.608V124.028C640.608 122.528 639.804 121.664 638.532 121.664C637.608 121.664 637.08 122.12 636.78 122.816H636.732V121.808H635.772V128H636.732ZM645.481 128V127.16H644.221V122.648H645.577V121.808H644.221V120.092H643.357V121.244C643.357 121.664 643.225 121.808 642.817 121.808H642.241V122.648H643.261V126.98C643.261 127.58 643.621 128 644.281 128H645.481Z" fill="black"/>
<rect x="584" y="112" width="136" height="24" rx="12" stroke="#EE5396"/>
<rect x="584.5" y="168.5" width="135" height="23" rx="11.5" fill="white"/>
<path d="M607.416 184L604.488 175.624H603.204L600.276 184H601.296L602.136 181.528H605.52L606.36 184H607.416ZM605.268 180.64H602.376L603.792 176.56H603.852L605.268 180.64ZM611.331 184.144C612.508 184.144 613.312 183.568 613.707 182.68L613.012 182.212C612.676 182.92 612.111 183.292 611.331 183.292C610.191 183.292 609.603 182.512 609.603 181.432V180.376C609.603 179.296 610.191 178.516 611.331 178.516C612.087 178.516 612.615 178.888 612.844 179.524L613.648 179.116C613.288 178.264 612.555 177.664 611.331 177.664C609.591 177.664 608.571 178.924 608.571 180.904C608.571 182.884 609.591 184.144 611.331 184.144ZM617.616 184.144C618.792 184.144 619.596 183.568 619.992 182.68L619.296 182.212C618.96 182.92 618.396 183.292 617.616 183.292C616.476 183.292 615.888 182.512 615.888 181.432V180.376C615.888 179.296 616.476 178.516 617.616 178.516C618.372 178.516 618.9 178.888 619.128 179.524L619.932 179.116C619.572 178.264 618.84 177.664 617.616 177.664C615.876 177.664 614.856 178.924 614.856 180.904C614.856 182.884 615.876 184.144 617.616 184.144ZM623.937 184.144C625.593 184.144 626.733 182.872 626.733 180.904C626.733 178.936 625.593 177.664 623.937 177.664C622.281 177.664 621.141 178.936 621.141 180.904C621.141 182.872 622.281 184.144 623.937 184.144ZM623.937 183.292C622.905 183.292 622.173 182.656 622.173 181.348V180.46C622.173 179.152 622.905 178.516 623.937 178.516C624.969 178.516 625.701 179.152 625.701 180.46V181.348C625.701 182.656 624.969 183.292 623.937 183.292ZM632.448 184H633.408V177.808H632.448V182.092C632.448 182.908 631.704 183.28 630.948 183.28C630.024 183.28 629.532 182.716 629.532 181.612V177.808H628.572V181.78C628.572 183.28 629.388 184.144 630.66 184.144C631.692 184.144 632.16 183.58 632.4 182.992H632.448V184ZM636.732 184V179.704C636.732 178.912 637.476 178.528 638.244 178.528C639.168 178.528 639.648 179.092 639.648 180.196V184H640.608V180.028C640.608 178.528 639.804 177.664 638.532 177.664C637.608 177.664 637.08 178.12 636.78 178.816H636.732V177.808H635.772V184H636.732ZM645.481 184V183.16H644.221V178.648H645.577V177.808H644.221V176.092H643.357V177.244C643.357 177.664 643.225 177.808 642.817 177.808H642.241V178.648H643.261V182.98C643.261 183.58 643.621 184 644.281 184H645.481Z" fill="black"/>
<rect x="584.5" y="168.5" width="135" height="23" rx="11.5" stroke="#EE5396"/>
<rect x="312" y="248" width="136" height="24" rx="12" fill="white"/>
<path d="M335.416 264L332.488 255.624H331.204L328.276 264H329.296L330.136 261.528H333.52L334.36 264H335.416ZM333.268 260.64H330.376L331.792 256.56H331.852L333.268 260.64ZM339.331 264.144C340.508 264.144 341.312 263.568 341.707 262.68L341.012 262.212C340.676 262.92 340.111 263.292 339.331 263.292C338.191 263.292 337.603 262.512 337.603 261.432V260.376C337.603 259.296 338.191 258.516 339.331 258.516C340.087 258.516 340.615 258.888 340.844 259.524L341.648 259.116C341.288 258.264 340.555 257.664 339.331 257.664C337.591 257.664 336.571 258.924 336.571 260.904C336.571 262.884 337.591 264.144 339.331 264.144ZM345.616 264.144C346.792 264.144 347.596 263.568 347.992 262.68L347.296 262.212C346.96 262.92 346.396 263.292 345.616 263.292C344.476 263.292 343.888 262.512 343.888 261.432V260.376C343.888 259.296 344.476 258.516 345.616 258.516C346.372 258.516 346.9 258.888 347.128 259.524L347.932 259.116C347.572 258.264 346.84 257.664 345.616 257.664C343.876 257.664 342.856 258.924 342.856 260.904C342.856 262.884 343.876 264.144 345.616 264.144ZM351.937 264.144C353.593 264.144 354.733 262.872 354.733 260.904C354.733 258.936 353.593 257.664 351.937 257.664C350.281 257.664 349.141 258.936 349.141 260.904C349.141 262.872 350.281 264.144 351.937 264.144ZM351.937 263.292C350.905 263.292 350.173 262.656 350.173 261.348V260.46C350.173 259.152 350.905 258.516 351.937 258.516C352.969 258.516 353.701 259.152 353.701 260.46V261.348C353.701 262.656 352.969 263.292 351.937 263.292ZM360.448 264H361.408V257.808H360.448V262.092C360.448 262.908 359.704 263.28 358.948 263.28C358.024 263.28 357.532 262.716 357.532 261.612V257.808H356.572V261.78C356.572 263.28 357.388 264.144 358.66 264.144C359.692 264.144 360.16 263.58 360.4 262.992H360.448V264ZM364.732 264V259.704C364.732 258.912 365.476 258.528 366.244 258.528C367.168 258.528 367.648 259.092 367.648 260.196V264H368.608V260.028C368.608 258.528 367.804 257.664 366.532 257.664C365.608 257.664 365.08 258.12 364.78 258.816H364.732V257.808H363.772V264H364.732ZM373.481 264V263.16H372.221V258.648H373.577V257.808H372.221V256.092H371.357V257.244C371.357 257.664 371.225 257.808 370.817 257.808H370.241V258.648H371.261V262.98C371.261 263.58 371.621 264 372.281 264H373.481Z" fill="black"/>
<rect x="312" y="248" width="136" height="24" rx="12" stroke="#EE5396"/>
<rect x="312" y="80" width="136" height="24" rx="12" fill="white"/>
<path d="M335.416 96L332.488 87.624H331.204L328.276 96H329.296L330.136 93.528H333.52L334.36 96H335.416ZM333.268 92.64H330.376L331.792 88.56H331.852L333.268 92.64ZM339.331 96.144C340.508 96.144 341.312 95.568 341.707 94.68L341.012 94.212C340.676 94.92 340.111 95.292 339.331 95.292C338.191 95.292 337.603 94.512 337.603 93.432V92.376C337.603 91.296 338.191 90.516 339.331 90.516C340.087 90.516 340.615 90.888 340.844 91.524L341.648 91.116C341.288 90.264 340.555 89.664 339.331 89.664C337.591 89.664 336.571 90.924 336.571 92.904C336.571 94.884 337.591 96.144 339.331 96.144ZM345.616 96.144C346.792 96.144 347.596 95.568 347.992 94.68L347.296 94.212C346.96 94.92 346.396 95.292 345.616 95.292C344.476 95.292 343.888 94.512 343.888 93.432V92.376C343.888 91.296 344.476 90.516 345.616 90.516C346.372 90.516 346.9 90.888 347.128 91.524L347.932 91.116C347.572 90.264 346.84 89.664 345.616 89.664C343.876 89.664 342.856 90.924 342.856 92.904C342.856 94.884 343.876 96.144 345.616 96.144ZM351.937 96.144C353.593 96.144 354.733 94.872 354.733 92.904C354.733 90.936 353.593 89.664 351.937 89.664C350.281 89.664 349.141 90.936 349.141 92.904C349.141 94.872 350.281 96.144 351.937 96.144ZM351.937 95.292C350.905 95.292 350.173 94.656 350.173 93.348V92.46C350.173 91.152 350.905 90.516 351.937 90.516C352.969 90.516 353.701 91.152 353.701 92.46V93.348C353.701 94.656 352.969 95.292 351.937 95.292ZM360.448 96H361.408V89.808H360.448V94.092C360.448 94.908 359.704 95.28 358.948 95.28C358.024 95.28 357.532 94.716 357.532 93.612V89.808H356.572V93.78C356.572 95.28 357.388 96.144 358.66 96.144C359.692 96.144 360.16 95.58 360.4 94.992H360.448V96ZM364.732 96V91.704C364.732 90.912 365.476 90.528 366.244 90.528C367.168 90.528 367.648 91.092 367.648 92.196V96H368.608V92.028C368.608 90.528 367.804 89.664 366.532 89.664C365.608 89.664 365.08 90.12 364.78 90.816H364.732V89.808H363.772V96H364.732ZM373.481 96V95.16H372.221V90.648H373.577V89.808H372.221V88.092H371.357V89.244C371.357 89.664 371.225 89.808 370.817 89.808H370.241V90.648H371.261V94.98C371.261 95.58 371.621 96 372.281 96H373.481ZM383.816 96.684C383.816 95.664 383.156 95.04 381.62 95.04H380.3C379.736 95.04 379.352 94.944 379.352 94.572C379.352 94.188 379.76 93.984 380.168 93.876C380.348 93.912 380.564 93.936 380.768 93.936C382.184 93.936 383.108 93.06 383.108 91.8C383.108 91.14 382.844 90.588 382.4 90.204V89.808H383.576V88.968H382.652C382.136 88.968 381.932 89.316 381.932 89.796V89.904C381.596 89.748 381.2 89.664 380.756 89.664C379.352 89.664 378.428 90.54 378.428 91.8C378.428 92.664 378.86 93.348 379.592 93.696V93.744C378.968 93.9 378.524 94.2 378.524 94.824C378.524 95.244 378.728 95.52 379.076 95.688V95.82C378.464 95.988 378.092 96.348 378.092 97.02C378.092 97.992 378.884 98.544 380.816 98.544C382.808 98.544 383.816 97.956 383.816 96.684ZM382.916 96.756C382.916 97.428 382.292 97.764 381.224 97.764H380.336C379.364 97.764 378.992 97.32 378.992 96.78C378.992 96.396 379.172 96.12 379.568 95.94H381.632C382.592 95.94 382.916 96.264 382.916 96.756ZM380.768 93.168C379.952 93.168 379.436 92.784 379.436 91.968V91.632C379.436 90.816 379.952 90.432 380.768 90.432C381.584 90.432 382.1 90.816 382.1 91.632V91.968C382.1 92.784 381.584 93.168 380.768 93.168ZM386.215 96V91.8C386.215 91.212 386.839 90.768 387.871 90.768H388.435V89.808H388.063C387.055 89.808 386.491 90.36 386.275 90.948H386.215V89.808H385.255V96H386.215ZM392.263 96.144C393.919 96.144 395.059 94.872 395.059 92.904C395.059 90.936 393.919 89.664 392.263 89.664C390.607 89.664 389.467 90.936 389.467 92.904C389.467 94.872 390.607 96.144 392.263 96.144ZM392.263 95.292C391.231 95.292 390.499 94.656 390.499 93.348V92.46C390.499 91.152 391.231 90.516 392.263 90.516C393.295 90.516 394.027 91.152 394.027 92.46V93.348C394.027 94.656 393.295 95.292 392.263 95.292ZM400.774 96H401.734V89.808H400.774V94.092C400.774 94.908 400.03 95.28 399.274 95.28C398.35 95.28 397.858 94.716 397.858 93.612V89.808H396.898V93.78C396.898 95.28 397.714 96.144 398.986 96.144C400.018 96.144 400.486 95.58 400.726 94.992H400.774V96ZM404.098 98.4H405.058V94.992H405.106C405.478 95.76 406.066 96.144 406.918 96.144C408.466 96.144 409.438 94.884 409.438 92.904C409.438 90.924 408.466 89.664 406.918 89.664C406.066 89.664 405.43 90.036 405.106 90.816H405.058V89.808H404.098V98.4ZM406.654 95.28C405.778 95.28 405.058 94.824 405.058 94.02V91.716C405.058 91.032 405.778 90.528 406.654 90.528C407.734 90.528 408.406 91.272 408.406 92.376V93.432C408.406 94.536 407.734 95.28 406.654 95.28Z" fill="black"/>
<rect x="312" y="80" width="136" height="24" rx="12" stroke="#A56EFF"/>
</svg>
