<svg width="1080" height="360" viewBox="0 0 1080 360" fill="none" xmlns="http://www.w3.org/2000/svg">
<rect width="1080" height="360" fill="#F4F4F4"/>
<rect width="1080" height="360" fill="#F4F4F4"/>
<rect width="48" height="92" transform="translate(208 136)" fill="white" style="mix-blend-mode:multiply"/>
<rect x="208" y="136" width="48" height="48" rx="8" fill="#565151"/>
<rect width="20" height="20" transform="translate(222 150)" fill="white" style="mix-blend-mode:multiply"/>
<path d="M238.616 154.116C238.5 154 238.363 153.907 238.211 153.845C238.059 153.782 237.897 153.75 237.732 153.75H232.625V151.25H231.375V157.5H226.268C226.103 157.5 225.941 157.532 225.789 157.595C225.637 157.657 225.5 157.75 225.384 157.866L223.25 160L225.384 162.134C225.5 162.25 225.637 162.343 225.789 162.405C225.941 162.468 226.103 162.5 226.268 162.5H231.375V168.75H232.625V158.75H237.732C237.897 158.75 238.059 158.718 238.211 158.655C238.363 158.593 238.5 158.5 238.616 158.384L240.75 156.25L238.616 154.116ZM226.268 161.25L225.018 160L226.268 158.75H231.375V161.25H226.268ZM237.732 157.5H232.625V155H237.732L238.982 156.25L237.732 157.5Z" fill="white"/>
<path d="M233.646 206V204.502H231.406V196.228H228.62L226.198 199.112L227.346 200.078L229.474 197.558H229.6V204.502H226.912V206H233.646ZM236.278 206.154C237.048 206.154 237.398 205.72 237.398 205.132V204.88C237.398 204.278 237.048 203.844 236.278 203.844C235.522 203.844 235.158 204.278 235.158 204.88V205.132C235.158 205.72 235.522 206.154 236.278 206.154Z" fill="black"/>
<path d="M220.368 224V219.828H223.084C224.834 219.828 225.814 218.75 225.814 217.028C225.814 215.306 224.834 214.228 223.084 214.228H219.192V224H220.368ZM220.368 215.264H223.084C224.008 215.264 224.554 215.768 224.554 216.664V217.392C224.554 218.288 224.008 218.792 223.084 218.792H220.368V215.264ZM229.914 224V223.02H228.85V213.64H227.73V222.838C227.73 223.51 228.15 224 228.92 224H229.914ZM237.585 224V223.02H236.759V219.044C236.759 217.518 235.723 216.608 233.987 216.608C232.685 216.608 231.817 217.252 231.425 218.022L232.097 218.652C232.489 217.994 233.063 217.574 233.931 217.574C235.079 217.574 235.639 218.134 235.639 219.156V219.87H234.211C232.111 219.87 231.131 220.626 231.131 221.984C231.131 223.328 232.027 224.168 233.553 224.168C234.561 224.168 235.331 223.706 235.639 222.824H235.709C235.793 223.496 236.129 224 236.955 224H237.585ZM233.735 223.216C232.867 223.216 232.307 222.81 232.307 222.096V221.802C232.307 221.102 232.881 220.71 234.155 220.71H235.639V221.9C235.639 222.642 234.841 223.216 233.735 223.216ZM240.463 224V218.988C240.463 218.064 241.331 217.616 242.227 217.616C243.305 217.616 243.865 218.274 243.865 219.562V224H244.985V219.366C244.985 217.616 244.047 216.608 242.563 216.608C241.485 216.608 240.869 217.14 240.519 217.952H240.463V216.776H239.343V224H240.463Z" fill="black"/>
<rect width="54" height="110" transform="translate(325 136)" fill="white" style="mix-blend-mode:multiply"/>
<rect x="328" y="136" width="48" height="48" rx="8" fill="#005D5D"/>
<rect width="20" height="20" transform="translate(342 150)" fill="white" style="mix-blend-mode:multiply"/>
<path d="M352 168.75L346.728 162.532C346.698 162.496 346.51 162.25 346.51 162.25C345.61 161.064 345.123 159.614 345.125 158.125C345.125 156.302 345.849 154.553 347.139 153.264C348.428 151.974 350.177 151.25 352 151.25C353.823 151.25 355.572 151.974 356.861 153.264C358.151 154.553 358.875 156.302 358.875 158.125C358.877 159.614 358.391 161.062 357.491 162.248L357.49 162.25C357.49 162.25 357.302 162.496 357.274 162.529L352 168.75ZM347.508 161.497C347.508 161.497 347.654 161.689 347.687 161.731L352 166.817L356.319 161.724C356.346 161.689 356.493 161.495 356.493 161.495C357.229 160.526 357.626 159.342 357.625 158.125C357.625 156.633 357.032 155.202 355.977 154.148C354.923 153.093 353.492 152.5 352 152.5C350.508 152.5 349.077 153.093 348.023 154.148C346.968 155.202 346.375 156.633 346.375 158.125C346.374 159.343 346.772 160.527 347.508 161.497Z" fill="white"/>
<path d="M355.125 161.25H353.875V156.25H350.125V161.25H348.875V156.25C348.875 155.919 349.007 155.601 349.242 155.367C349.476 155.132 349.794 155 350.125 155H353.875C354.206 155 354.524 155.132 354.759 155.367C354.993 155.601 355.125 155.919 355.125 156.25V161.25Z" fill="white"/>
<path d="M352.625 160H351.375V161.25H352.625V160Z" fill="white"/>
<path d="M352.625 157.5H351.375V158.75H352.625V157.5Z" fill="white"/>
<path d="M353.282 204.446H348.508L350.566 202.752C351.924 201.632 353.03 200.596 353.03 198.972C353.03 197.292 351.854 196.06 349.796 196.06C347.808 196.06 346.758 197.194 346.338 198.496L347.934 199.112C348.158 198.314 348.634 197.656 349.642 197.656C350.44 197.656 351.084 198.132 351.084 198.986V199.168C351.084 200.022 350.608 200.694 349.572 201.604L346.506 204.292V206H353.282V204.446ZM356.278 206.154C357.048 206.154 357.398 205.72 357.398 205.132V204.88C357.398 204.278 357.048 203.844 356.278 203.844C355.522 203.844 355.158 204.278 355.158 204.88V205.132C355.158 205.72 355.522 206.154 356.278 206.154Z" fill="black"/>
<path d="M330.059 224.168C331.683 224.168 332.873 223.314 333.489 221.942L332.551 221.354C332.159 222.418 331.305 223.118 330.059 223.118C328.379 223.118 327.385 221.9 327.385 219.898V218.442C327.385 216.44 328.379 215.11 330.059 215.11C331.263 215.11 332.075 215.768 332.467 216.776L333.419 216.202C332.803 214.844 331.683 214.06 330.059 214.06C327.595 214.06 326.125 215.908 326.125 219.17C326.125 222.432 327.595 224.168 330.059 224.168ZM336.478 224V219.1C336.478 218.414 337.206 217.896 338.41 217.896H339.068V216.776H338.634C337.458 216.776 336.8 217.42 336.548 218.106H336.478V216.776H335.358V224H336.478ZM343.307 224.168C344.665 224.168 345.701 223.496 346.163 222.516L345.365 221.942C344.987 222.74 344.287 223.188 343.377 223.188C342.033 223.188 341.235 222.25 341.235 221.004V220.668H346.429V220.136C346.429 218.092 345.239 216.608 343.307 216.608C341.347 216.608 340.059 218.092 340.059 220.388C340.059 222.684 341.347 224.168 343.307 224.168ZM343.307 217.546C344.455 217.546 345.225 218.4 345.225 219.674V219.828H341.235V219.73C341.235 218.47 342.089 217.546 343.307 217.546ZM354.314 224V223.02H353.488V219.044C353.488 217.518 352.452 216.608 350.716 216.608C349.414 216.608 348.546 217.252 348.154 218.022L348.826 218.652C349.218 217.994 349.792 217.574 350.66 217.574C351.808 217.574 352.368 218.134 352.368 219.156V219.87H350.94C348.84 219.87 347.86 220.626 347.86 221.984C347.86 223.328 348.756 224.168 350.282 224.168C351.29 224.168 352.06 223.706 352.368 222.824H352.438C352.522 223.496 352.858 224 353.684 224H354.314ZM350.464 223.216C349.596 223.216 349.036 222.81 349.036 222.096V221.802C349.036 221.102 349.61 220.71 350.884 220.71H352.368V221.9C352.368 222.642 351.57 223.216 350.464 223.216ZM359.069 224V223.02H357.599V217.756H359.181V216.776H357.599V214.774H356.591V216.118C356.591 216.608 356.437 216.776 355.961 216.776H355.289V217.756H356.479V222.81C356.479 223.51 356.899 224 357.669 224H359.069ZM363.802 224.168C365.16 224.168 366.196 223.496 366.658 222.516L365.86 221.942C365.482 222.74 364.782 223.188 363.872 223.188C362.528 223.188 361.73 222.25 361.73 221.004V220.668H366.924V220.136C366.924 218.092 365.734 216.608 363.802 216.608C361.842 216.608 360.554 218.092 360.554 220.388C360.554 222.684 361.842 224.168 363.802 224.168ZM363.802 217.546C364.95 217.546 365.72 218.4 365.72 219.674V219.828H361.73V219.73C361.73 218.47 362.584 217.546 363.802 217.546ZM378.278 224V223.02H377.452V219.044C377.452 217.518 376.416 216.608 374.68 216.608C373.378 216.608 372.51 217.252 372.118 218.022L372.79 218.652C373.182 217.994 373.756 217.574 374.624 217.574C375.772 217.574 376.332 218.134 376.332 219.156V219.87H374.904C372.804 219.87 371.824 220.626 371.824 221.984C371.824 223.328 372.72 224.168 374.246 224.168C375.254 224.168 376.024 223.706 376.332 222.824H376.402C376.486 223.496 376.822 224 377.648 224H378.278ZM374.428 223.216C373.56 223.216 373 222.81 373 222.096V221.802C373 221.102 373.574 220.71 374.848 220.71H376.332V221.9C376.332 222.642 375.534 223.216 374.428 223.216ZM329.63 242V241.02H328.566V231.64H327.446V240.838C327.446 241.51 327.866 242 328.636 242H329.63ZM334.151 242.168C336.083 242.168 337.413 240.684 337.413 238.388C337.413 236.092 336.083 234.608 334.151 234.608C332.219 234.608 330.889 236.092 330.889 238.388C330.889 240.684 332.219 242.168 334.151 242.168ZM334.151 241.174C332.947 241.174 332.093 240.432 332.093 238.906V237.87C332.093 236.344 332.947 235.602 334.151 235.602C335.355 235.602 336.209 236.344 336.209 237.87V238.906C336.209 240.432 335.355 241.174 334.151 241.174ZM342.103 242.168C343.475 242.168 344.413 241.496 344.875 240.46L344.063 239.914C343.671 240.74 343.013 241.174 342.103 241.174C340.773 241.174 340.087 240.264 340.087 239.004V237.772C340.087 236.512 340.773 235.602 342.103 235.602C342.985 235.602 343.601 236.036 343.867 236.778L344.805 236.302C344.385 235.308 343.531 234.608 342.103 234.608C340.073 234.608 338.883 236.078 338.883 238.388C338.883 240.698 340.073 242.168 342.103 242.168ZM352.496 242V241.02H351.67V237.044C351.67 235.518 350.634 234.608 348.898 234.608C347.596 234.608 346.728 235.252 346.336 236.022L347.008 236.652C347.4 235.994 347.974 235.574 348.842 235.574C349.99 235.574 350.55 236.134 350.55 237.156V237.87H349.122C347.022 237.87 346.042 238.626 346.042 239.984C346.042 241.328 346.938 242.168 348.464 242.168C349.472 242.168 350.242 241.706 350.55 240.824H350.62C350.704 241.496 351.04 242 351.866 242H352.496ZM348.646 241.216C347.778 241.216 347.218 240.81 347.218 240.096V239.802C347.218 239.102 347.792 238.71 349.066 238.71H350.55V239.9C350.55 240.642 349.752 241.216 348.646 241.216ZM357.25 242V241.02H355.78V235.756H357.362V234.776H355.78V232.774H354.772V234.118C354.772 234.608 354.618 234.776 354.142 234.776H353.47V235.756H354.66V240.81C354.66 241.51 355.08 242 355.85 242H357.25ZM359.883 233.082C360.359 233.082 360.569 232.83 360.569 232.452V232.27C360.569 231.892 360.359 231.64 359.883 231.64C359.407 231.64 359.197 231.892 359.197 232.27V232.452C359.197 232.83 359.407 233.082 359.883 233.082ZM359.323 242H360.443V234.776H359.323V242ZM365.713 242.168C367.645 242.168 368.975 240.684 368.975 238.388C368.975 236.092 367.645 234.608 365.713 234.608C363.781 234.608 362.451 236.092 362.451 238.388C362.451 240.684 363.781 242.168 365.713 242.168ZM365.713 241.174C364.509 241.174 363.655 240.432 363.655 238.906V237.87C363.655 236.344 364.509 235.602 365.713 235.602C366.917 235.602 367.771 236.344 367.771 237.87V238.906C367.771 240.432 366.917 241.174 365.713 241.174ZM372.097 242V236.988C372.097 236.064 372.965 235.616 373.861 235.616C374.939 235.616 375.499 236.274 375.499 237.562V242H376.619V237.366C376.619 235.616 375.681 234.608 374.197 234.608C373.119 234.608 372.503 235.14 372.153 235.952H372.097V234.776H370.977V242H372.097Z" fill="black"/>
<rect width="81" height="110" transform="translate(431.5 136)" fill="white" style="mix-blend-mode:multiply"/>
<rect x="448" y="136" width="48" height="48" rx="8" fill="#00539A"/>
<rect width="20" height="20" transform="translate(462 150)" fill="white" style="mix-blend-mode:multiply"/>
<path d="M465.75 168.75H478.25C478.582 168.75 478.899 168.618 479.134 168.384C479.368 168.149 479.5 167.832 479.5 167.5V163.75C479.5 163.418 479.368 163.101 479.134 162.866C478.899 162.632 478.582 162.5 478.25 162.5H465.75C465.418 162.5 465.101 162.632 464.866 162.866C464.632 163.101 464.5 163.418 464.5 163.75V167.5C464.5 167.832 464.632 168.149 464.866 168.384C465.101 168.618 465.418 168.75 465.75 168.75ZM465.75 163.75H478.25V167.5H465.75V163.75Z" fill="white"/>
<path d="M467.625 166.25C467.97 166.25 468.25 165.97 468.25 165.625C468.25 165.28 467.97 165 467.625 165C467.28 165 467 165.28 467 165.625C467 165.97 467.28 166.25 467.625 166.25Z" fill="white"/>
<path d="M478.25 151.25L477.369 152.131L478.981 153.75H475.947C475.504 152.798 474.732 152.037 473.773 151.608C472.814 151.179 471.733 151.11 470.727 151.414C469.721 151.718 468.859 152.374 468.299 153.262C467.738 154.151 467.517 155.212 467.675 156.25H465.019L466.631 154.631L465.75 153.75L462.625 156.875L465.75 160L466.631 159.119L465.019 157.5H468.053C468.496 158.452 469.268 159.213 470.227 159.642C471.186 160.071 472.267 160.14 473.273 159.836C474.279 159.532 475.141 158.876 475.701 157.988C476.262 157.099 476.483 156.038 476.325 155H478.981L477.369 156.619L478.25 157.5L481.375 154.375L478.25 151.25ZM475.125 155.625C475.127 156.28 474.923 156.919 474.541 157.451C474.159 157.983 473.619 158.382 472.998 158.589C472.377 158.797 471.706 158.804 471.081 158.608C470.456 158.412 469.908 158.025 469.516 157.5H472V156.25H468.938C468.794 155.556 468.891 154.833 469.212 154.201C469.534 153.57 470.062 153.067 470.708 152.775C471.355 152.484 472.081 152.422 472.767 152.599C473.454 152.776 474.06 153.182 474.484 153.75H472V155H475.062C475.104 155.206 475.125 155.415 475.125 155.625Z" fill="white"/>
<path d="M468.34 200.176V201.716H469.306C470.468 201.716 471.126 202.192 471.126 203.088V203.186C471.126 204.096 470.524 204.656 469.446 204.656C468.354 204.656 467.766 204.096 467.332 203.312L465.974 204.348C466.59 205.3 467.542 206.168 469.446 206.168C471.602 206.168 473.044 205.02 473.044 203.298C473.044 201.912 472.134 201.128 471 200.918V200.834C472.022 200.624 472.876 199.868 472.876 198.608C472.876 197.04 471.532 196.06 469.558 196.06C467.906 196.06 466.982 196.774 466.324 197.684L467.5 198.748C467.976 198.006 468.648 197.572 469.502 197.572C470.384 197.572 470.944 198.062 470.944 198.86V198.958C470.944 199.658 470.426 200.176 469.306 200.176H468.34ZM476.278 206.154C477.048 206.154 477.398 205.72 477.398 205.132V204.88C477.398 204.278 477.048 203.844 476.278 203.844C475.522 203.844 475.158 204.278 475.158 204.88V205.132C475.158 205.72 475.522 206.154 476.278 206.154Z" fill="black"/>
<path d="M440.452 224L437.036 214.228H435.538L432.122 224H433.312L434.292 221.116H438.24L439.22 224H440.452ZM437.946 220.08H434.572L436.224 215.32H436.294L437.946 220.08ZM445.06 224V223.02H443.59V217.756H445.172V216.776H443.59V214.774H442.582V216.118C442.582 216.608 442.428 216.776 441.952 216.776H441.28V217.756H442.47V222.81C442.47 223.51 442.89 224 443.66 224H445.06ZM450.005 224V223.02H448.535V217.756H450.117V216.776H448.535V214.774H447.527V216.118C447.527 216.608 447.373 216.776 446.897 216.776H446.225V217.756H447.415V222.81C447.415 223.51 447.835 224 448.605 224H450.005ZM457.957 224V223.02H457.131V219.044C457.131 217.518 456.095 216.608 454.359 216.608C453.057 216.608 452.189 217.252 451.797 218.022L452.469 218.652C452.861 217.994 453.435 217.574 454.303 217.574C455.451 217.574 456.011 218.134 456.011 219.156V219.87H454.583C452.483 219.87 451.503 220.626 451.503 221.984C451.503 223.328 452.399 224.168 453.925 224.168C454.933 224.168 455.703 223.706 456.011 222.824H456.081C456.165 223.496 456.501 224 457.327 224H457.957ZM454.107 223.216C453.239 223.216 452.679 222.81 452.679 222.096V221.802C452.679 221.102 453.253 220.71 454.527 220.71H456.011V221.9C456.011 222.642 455.213 223.216 454.107 223.216ZM462.404 224.168C463.776 224.168 464.714 223.496 465.176 222.46L464.364 221.914C463.972 222.74 463.314 223.174 462.404 223.174C461.074 223.174 460.388 222.264 460.388 221.004V219.772C460.388 218.512 461.074 217.602 462.404 217.602C463.286 217.602 463.902 218.036 464.168 218.778L465.106 218.302C464.686 217.308 463.832 216.608 462.404 216.608C460.374 216.608 459.184 218.078 459.184 220.388C459.184 222.698 460.374 224.168 462.404 224.168ZM466.917 224H468.037V218.988C468.037 218.064 468.905 217.616 469.801 217.616C470.879 217.616 471.439 218.274 471.439 219.562V224H472.559V219.366C472.559 217.616 471.621 216.608 470.137 216.608C469.059 216.608 468.443 217.14 468.093 217.952H468.037V213.64H466.917V224ZM478.502 224H479.622V218.988C479.622 218.064 480.49 217.616 481.386 217.616C482.464 217.616 483.024 218.274 483.024 219.562V224H484.144V219.366C484.144 217.616 483.206 216.608 481.722 216.608C480.644 216.608 480.028 217.14 479.678 217.952H479.622V213.64H478.502V224ZM489.349 224.168C491.281 224.168 492.611 222.684 492.611 220.388C492.611 218.092 491.281 216.608 489.349 216.608C487.417 216.608 486.087 218.092 486.087 220.388C486.087 222.684 487.417 224.168 489.349 224.168ZM489.349 223.174C488.145 223.174 487.291 222.432 487.291 220.906V219.87C487.291 218.344 488.145 217.602 489.349 217.602C490.553 217.602 491.407 218.344 491.407 219.87V220.906C491.407 222.432 490.553 223.174 489.349 223.174ZM496.783 224.168C498.435 224.168 499.457 223.314 499.457 221.914C499.457 220.822 498.841 220.122 497.245 219.884L496.685 219.8C495.789 219.66 495.299 219.38 495.299 218.68C495.299 217.994 495.789 217.56 496.713 217.56C497.637 217.56 498.253 217.994 498.575 218.442L499.317 217.77C498.729 217.042 497.959 216.608 496.797 216.608C495.327 216.608 494.221 217.308 494.221 218.736C494.221 220.08 495.215 220.626 496.545 220.822L497.119 220.906C498.071 221.046 498.379 221.48 498.379 222.04C498.379 222.782 497.819 223.216 496.867 223.216C495.957 223.216 495.285 222.81 494.725 222.11L493.927 222.754C494.571 223.608 495.453 224.168 496.783 224.168ZM504.496 224V223.02H503.026V217.756H504.608V216.776H503.026V214.774H502.018V216.118C502.018 216.608 501.864 216.776 501.388 216.776H500.716V217.756H501.906V222.81C501.906 223.51 502.326 224 503.096 224H504.496ZM508.738 224.168C510.39 224.168 511.412 223.314 511.412 221.914C511.412 220.822 510.796 220.122 509.2 219.884L508.64 219.8C507.744 219.66 507.254 219.38 507.254 218.68C507.254 217.994 507.744 217.56 508.668 217.56C509.592 217.56 510.208 217.994 510.53 218.442L511.272 217.77C510.684 217.042 509.914 216.608 508.752 216.608C507.282 216.608 506.176 217.308 506.176 218.736C506.176 220.08 507.17 220.626 508.5 220.822L509.074 220.906C510.026 221.046 510.334 221.48 510.334 222.04C510.334 222.782 509.774 223.216 508.822 223.216C507.912 223.216 507.24 222.81 506.68 222.11L505.882 222.754C506.526 223.608 507.408 224.168 508.738 224.168ZM436.651 242V241.02H435.181V235.756H436.763V234.776H435.181V232.774H434.173V234.118C434.173 234.608 434.019 234.776 433.543 234.776H432.871V235.756H434.061V240.81C434.061 241.51 434.481 242 435.251 242H436.651ZM441.398 242.168C443.33 242.168 444.66 240.684 444.66 238.388C444.66 236.092 443.33 234.608 441.398 234.608C439.466 234.608 438.136 236.092 438.136 238.388C438.136 240.684 439.466 242.168 441.398 242.168ZM441.398 241.174C440.194 241.174 439.34 240.432 439.34 238.906V237.87C439.34 236.344 440.194 235.602 441.398 235.602C442.602 235.602 443.456 236.344 443.456 237.87V238.906C443.456 240.432 442.602 241.174 441.398 241.174ZM456.011 242V241.02H455.185V237.044C455.185 235.518 454.149 234.608 452.413 234.608C451.111 234.608 450.243 235.252 449.851 236.022L450.523 236.652C450.915 235.994 451.489 235.574 452.357 235.574C453.505 235.574 454.065 236.134 454.065 237.156V237.87H452.637C450.537 237.87 449.557 238.626 449.557 239.984C449.557 241.328 450.453 242.168 451.979 242.168C452.987 242.168 453.757 241.706 454.065 240.824H454.135C454.219 241.496 454.555 242 455.381 242H456.011ZM452.161 241.216C451.293 241.216 450.733 240.81 450.733 240.096V239.802C450.733 239.102 451.307 238.71 452.581 238.71H454.065V239.9C454.065 240.642 453.267 241.216 452.161 241.216ZM463.422 242V241.02H462.358V231.64H461.238V240.838C461.238 241.51 461.658 242 462.428 242H463.422ZM467.942 242.168C469.874 242.168 471.204 240.684 471.204 238.388C471.204 236.092 469.874 234.608 467.942 234.608C466.01 234.608 464.68 236.092 464.68 238.388C464.68 240.684 466.01 242.168 467.942 242.168ZM467.942 241.174C466.738 241.174 465.884 240.432 465.884 238.906V237.87C465.884 236.344 466.738 235.602 467.942 235.602C469.146 235.602 470 236.344 470 237.87V238.906C470 240.432 469.146 241.174 467.942 241.174ZM475.894 242.168C477.266 242.168 478.204 241.496 478.666 240.46L477.854 239.914C477.462 240.74 476.804 241.174 475.894 241.174C474.564 241.174 473.878 240.264 473.878 239.004V237.772C473.878 236.512 474.564 235.602 475.894 235.602C476.776 235.602 477.392 236.036 477.658 236.778L478.596 236.302C478.176 235.308 477.322 234.608 475.894 234.608C473.864 234.608 472.674 236.078 472.674 238.388C472.674 240.698 473.864 242.168 475.894 242.168ZM486.287 242V241.02H485.461V237.044C485.461 235.518 484.425 234.608 482.689 234.608C481.387 234.608 480.519 235.252 480.127 236.022L480.799 236.652C481.191 235.994 481.765 235.574 482.633 235.574C483.781 235.574 484.341 236.134 484.341 237.156V237.87H482.913C480.813 237.87 479.833 238.626 479.833 239.984C479.833 241.328 480.729 242.168 482.255 242.168C483.263 242.168 484.033 241.706 484.341 240.824H484.411C484.495 241.496 484.831 242 485.657 242H486.287ZM482.437 241.216C481.569 241.216 481.009 240.81 481.009 240.096V239.802C481.009 239.102 481.583 238.71 482.857 238.71H484.341V239.9C484.341 240.642 483.543 241.216 482.437 241.216ZM491.042 242V241.02H489.572V235.756H491.154V234.776H489.572V232.774H488.564V234.118C488.564 234.608 488.41 234.776 487.934 234.776H487.262V235.756H488.452V240.81C488.452 241.51 488.872 242 489.642 242H491.042ZM493.674 233.082C494.15 233.082 494.36 232.83 494.36 232.452V232.27C494.36 231.892 494.15 231.64 493.674 231.64C493.198 231.64 492.988 231.892 492.988 232.27V232.452C492.988 232.83 493.198 233.082 493.674 233.082ZM493.114 242H494.234V234.776H493.114V242ZM499.504 242.168C501.436 242.168 502.766 240.684 502.766 238.388C502.766 236.092 501.436 234.608 499.504 234.608C497.572 234.608 496.242 236.092 496.242 238.388C496.242 240.684 497.572 242.168 499.504 242.168ZM499.504 241.174C498.3 241.174 497.446 240.432 497.446 238.906V237.87C497.446 236.344 498.3 235.602 499.504 235.602C500.708 235.602 501.562 236.344 501.562 237.87V238.906C501.562 240.432 500.708 241.174 499.504 241.174ZM505.888 242V236.988C505.888 236.064 506.756 235.616 507.652 235.616C508.73 235.616 509.29 236.274 509.29 237.562V242H510.41V237.366C510.41 235.616 509.472 234.608 507.988 234.608C506.91 234.608 506.294 235.14 505.944 235.952H505.888V234.776H504.768V242H505.888Z" fill="black"/>
<rect width="102" height="110" transform="translate(541 136)" fill="white" style="mix-blend-mode:multiply"/>
<rect x="568" y="136" width="48" height="48" rx="8" fill="#6929C4"/>
<rect width="20" height="20" transform="translate(582 150)" fill="white" style="mix-blend-mode:multiply"/>
<path d="M599.5 162.5H598.25V163.75H599.5V167.5H584.5V163.75H585.75V162.5H584.5C584.169 162.5 583.851 162.632 583.617 162.867C583.382 163.101 583.25 163.419 583.25 163.75V167.5C583.25 167.831 583.382 168.149 583.617 168.383C583.851 168.618 584.169 168.75 584.5 168.75H599.5C599.831 168.75 600.149 168.618 600.383 168.383C600.618 168.149 600.75 167.831 600.75 167.5V163.75C600.75 163.419 600.618 163.101 600.383 162.867C600.149 162.632 599.831 162.5 599.5 162.5Z" fill="white"/>
<path d="M586.375 166.25C586.72 166.25 587 165.97 587 165.625C587 165.28 586.72 165 586.375 165C586.03 165 585.75 165.28 585.75 165.625C585.75 165.97 586.03 166.25 586.375 166.25Z" fill="white"/>
<path d="M592 163.75C591.903 163.75 591.807 163.727 591.72 163.684L585.47 160.559L586.03 159.441L592 162.426L597.97 159.441L598.53 160.559L592.28 163.684C592.193 163.727 592.097 163.75 592 163.75Z" fill="white"/>
<path d="M592 160C591.903 160 591.807 159.977 591.72 159.934L585.47 156.809C585.367 156.757 585.279 156.677 585.218 156.579C585.157 156.48 585.125 156.366 585.125 156.25C585.125 156.134 585.157 156.02 585.218 155.921C585.279 155.823 585.367 155.743 585.47 155.691L591.72 152.566C591.807 152.523 591.903 152.5 592 152.5C592.097 152.5 592.193 152.523 592.28 152.566L598.53 155.691C598.633 155.743 598.721 155.823 598.782 155.921C598.843 156.02 598.875 156.134 598.875 156.25C598.875 156.366 598.843 156.48 598.782 156.579C598.721 156.677 598.633 156.757 598.53 156.809L592.28 159.934C592.193 159.977 592.097 160 592 160ZM587.147 156.25L592 158.676L596.853 156.25L592 153.824L587.147 156.25Z" fill="white"/>
<path d="M592.26 206V204.11H593.534V202.682H592.26V196.228H589.978L586.086 202.542V204.11H590.51V206H592.26ZM590.398 198.02H590.51V202.682H587.598L590.398 198.02ZM596.278 206.154C597.048 206.154 597.398 205.72 597.398 205.132V204.88C597.398 204.278 597.048 203.844 596.278 203.844C595.522 203.844 595.158 204.278 595.158 204.88V205.132C595.158 205.72 595.522 206.154 596.278 206.154Z" fill="black"/>
<path d="M560.301 224L556.885 214.228H555.387L551.971 224H553.161L554.141 221.116H558.089L559.069 224H560.301ZM557.795 220.08H554.421L556.073 215.32H556.143L557.795 220.08ZM564.138 224.168C565.79 224.168 566.812 223.314 566.812 221.914C566.812 220.822 566.196 220.122 564.6 219.884L564.04 219.8C563.144 219.66 562.654 219.38 562.654 218.68C562.654 217.994 563.144 217.56 564.068 217.56C564.992 217.56 565.608 217.994 565.93 218.442L566.672 217.77C566.084 217.042 565.314 216.608 564.152 216.608C562.682 216.608 561.576 217.308 561.576 218.736C561.576 220.08 562.57 220.626 563.9 220.822L564.474 220.906C565.426 221.046 565.734 221.48 565.734 222.04C565.734 222.782 565.174 223.216 564.222 223.216C563.312 223.216 562.64 222.81 562.08 222.11L561.282 222.754C561.926 223.608 562.808 224.168 564.138 224.168ZM571.038 224.168C572.69 224.168 573.712 223.314 573.712 221.914C573.712 220.822 573.096 220.122 571.5 219.884L570.94 219.8C570.044 219.66 569.554 219.38 569.554 218.68C569.554 217.994 570.044 217.56 570.968 217.56C571.892 217.56 572.508 217.994 572.83 218.442L573.572 217.77C572.984 217.042 572.214 216.608 571.052 216.608C569.582 216.608 568.476 217.308 568.476 218.736C568.476 220.08 569.47 220.626 570.8 220.822L571.374 220.906C572.326 221.046 572.634 221.48 572.634 222.04C572.634 222.782 572.074 223.216 571.122 223.216C570.212 223.216 569.54 222.81 568.98 222.11L568.182 222.754C568.826 223.608 569.708 224.168 571.038 224.168ZM576.411 215.082C576.887 215.082 577.097 214.83 577.097 214.452V214.27C577.097 213.892 576.887 213.64 576.411 213.64C575.935 213.64 575.725 213.892 575.725 214.27V214.452C575.725 214.83 575.935 215.082 576.411 215.082ZM575.851 224H576.971V216.776H575.851V224ZM585.601 224.798C585.601 223.608 584.831 222.88 583.039 222.88H581.499C580.841 222.88 580.393 222.768 580.393 222.334C580.393 221.886 580.869 221.648 581.345 221.522C581.555 221.564 581.807 221.592 582.045 221.592C583.697 221.592 584.775 220.57 584.775 219.1C584.775 218.33 584.467 217.686 583.949 217.238V216.776H585.321V215.796H584.243C583.641 215.796 583.403 216.202 583.403 216.762V216.888C583.011 216.706 582.549 216.608 582.031 216.608C580.393 216.608 579.315 217.63 579.315 219.1C579.315 220.108 579.819 220.906 580.673 221.312V221.368C579.945 221.55 579.427 221.9 579.427 222.628C579.427 223.118 579.665 223.44 580.071 223.636V223.79C579.357 223.986 578.923 224.406 578.923 225.19C578.923 226.324 579.847 226.968 582.101 226.968C584.425 226.968 585.601 226.282 585.601 224.798ZM584.551 224.882C584.551 225.666 583.823 226.058 582.577 226.058H581.541C580.407 226.058 579.973 225.54 579.973 224.91C579.973 224.462 580.183 224.14 580.645 223.93H583.053C584.173 223.93 584.551 224.308 584.551 224.882ZM582.045 220.696C581.093 220.696 580.491 220.248 580.491 219.296V218.904C580.491 217.952 581.093 217.504 582.045 217.504C582.997 217.504 583.599 217.952 583.599 218.904V219.296C583.599 220.248 582.997 220.696 582.045 220.696ZM588.187 224V218.988C588.187 218.064 589.055 217.616 589.951 217.616C591.029 217.616 591.589 218.274 591.589 219.562V224H592.709V219.366C592.709 217.616 591.771 216.608 590.287 216.608C589.209 216.608 588.593 217.14 588.243 217.952H588.187V216.776H587.067V224H588.187ZM598.653 224H599.773V218.988C599.773 218.064 600.641 217.616 601.537 217.616C602.615 217.616 603.175 218.274 603.175 219.562V224H604.295V219.366C604.295 217.616 603.357 216.608 601.873 216.608C600.795 216.608 600.179 217.14 599.829 217.952H599.773V213.64H598.653V224ZM609.5 224.168C611.432 224.168 612.762 222.684 612.762 220.388C612.762 218.092 611.432 216.608 609.5 216.608C607.568 216.608 606.238 218.092 606.238 220.388C606.238 222.684 607.568 224.168 609.5 224.168ZM609.5 223.174C608.296 223.174 607.442 222.432 607.442 220.906V219.87C607.442 218.344 608.296 217.602 609.5 217.602C610.704 217.602 611.558 218.344 611.558 219.87V220.906C611.558 222.432 610.704 223.174 609.5 223.174ZM616.934 224.168C618.586 224.168 619.608 223.314 619.608 221.914C619.608 220.822 618.992 220.122 617.396 219.884L616.836 219.8C615.94 219.66 615.45 219.38 615.45 218.68C615.45 217.994 615.94 217.56 616.864 217.56C617.788 217.56 618.404 217.994 618.726 218.442L619.468 217.77C618.88 217.042 618.11 216.608 616.948 216.608C615.478 216.608 614.372 217.308 614.372 218.736C614.372 220.08 615.366 220.626 616.696 220.822L617.27 220.906C618.222 221.046 618.53 221.48 618.53 222.04C618.53 222.782 617.97 223.216 617.018 223.216C616.108 223.216 615.436 222.81 614.876 222.11L614.078 222.754C614.722 223.608 615.604 224.168 616.934 224.168ZM624.646 224V223.02H623.176V217.756H624.758V216.776H623.176V214.774H622.168V216.118C622.168 216.608 622.014 216.776 621.538 216.776H620.866V217.756H622.056V222.81C622.056 223.51 622.476 224 623.246 224H624.646ZM628.888 224.168C630.54 224.168 631.562 223.314 631.562 221.914C631.562 220.822 630.946 220.122 629.35 219.884L628.79 219.8C627.894 219.66 627.404 219.38 627.404 218.68C627.404 217.994 627.894 217.56 628.818 217.56C629.742 217.56 630.358 217.994 630.68 218.442L631.422 217.77C630.834 217.042 630.064 216.608 628.902 216.608C627.432 216.608 626.326 217.308 626.326 218.736C626.326 220.08 627.32 220.626 628.65 220.822L629.224 220.906C630.176 221.046 630.484 221.48 630.484 222.04C630.484 222.782 629.924 223.216 628.972 223.216C628.062 223.216 627.39 222.81 626.83 222.11L626.032 222.754C626.676 223.608 627.558 224.168 628.888 224.168ZM545.617 242V241.02H544.147V235.756H545.729V234.776H544.147V232.774H543.139V234.118C543.139 234.608 542.985 234.776 542.509 234.776H541.837V235.756H543.027V240.81C543.027 241.51 543.447 242 544.217 242H545.617ZM550.364 242.168C552.296 242.168 553.626 240.684 553.626 238.388C553.626 236.092 552.296 234.608 550.364 234.608C548.432 234.608 547.102 236.092 547.102 238.388C547.102 240.684 548.432 242.168 550.364 242.168ZM550.364 241.174C549.16 241.174 548.306 240.432 548.306 238.906V237.87C548.306 236.344 549.16 235.602 550.364 235.602C551.568 235.602 552.422 236.344 552.422 237.87V238.906C552.422 240.432 551.568 241.174 550.364 241.174ZM561.785 242.168C563.157 242.168 564.095 241.496 564.557 240.46L563.745 239.914C563.353 240.74 562.695 241.174 561.785 241.174C560.455 241.174 559.769 240.264 559.769 239.004V237.772C559.769 236.512 560.455 235.602 561.785 235.602C562.667 235.602 563.283 236.036 563.549 236.778L564.487 236.302C564.067 235.308 563.213 234.608 561.785 234.608C559.755 234.608 558.565 236.078 558.565 238.388C558.565 240.698 559.755 242.168 561.785 242.168ZM568.946 242.168C570.878 242.168 572.208 240.684 572.208 238.388C572.208 236.092 570.878 234.608 568.946 234.608C567.014 234.608 565.684 236.092 565.684 238.388C565.684 240.684 567.014 242.168 568.946 242.168ZM568.946 241.174C567.742 241.174 566.888 240.432 566.888 238.906V237.87C566.888 236.344 567.742 235.602 568.946 235.602C570.15 235.602 571.004 236.344 571.004 237.87V238.906C571.004 240.432 570.15 241.174 568.946 241.174ZM575.33 242V236.988C575.33 236.064 576.198 235.616 577.094 235.616C578.172 235.616 578.732 236.274 578.732 237.562V242H579.852V237.366C579.852 235.616 578.914 234.608 577.43 234.608C576.352 234.608 575.736 235.14 575.386 235.952H575.33V234.776H574.21V242H575.33ZM585.323 242V241.02H583.853V235.756H585.435V234.776H583.853V232.774H582.845V234.118C582.845 234.608 582.691 234.776 582.215 234.776H581.543V235.756H582.733V240.81C582.733 241.51 583.153 242 583.923 242H585.323ZM588.515 242V237.1C588.515 236.414 589.243 235.896 590.447 235.896H591.105V234.776H590.671C589.495 234.776 588.837 235.42 588.585 236.106H588.515V234.776H587.395V242H588.515ZM595.357 242.168C597.289 242.168 598.619 240.684 598.619 238.388C598.619 236.092 597.289 234.608 595.357 234.608C593.425 234.608 592.095 236.092 592.095 238.388C592.095 240.684 593.425 242.168 595.357 242.168ZM595.357 241.174C594.153 241.174 593.299 240.432 593.299 238.906V237.87C593.299 236.344 594.153 235.602 595.357 235.602C596.561 235.602 597.415 236.344 597.415 237.87V238.906C597.415 240.432 596.561 241.174 595.357 241.174ZM602.805 242V241.02H601.741V231.64H600.621V240.838C600.621 241.51 601.041 242 601.811 242H602.805ZM608.064 244.8H609.184V240.824H609.24C609.674 241.72 610.36 242.168 611.354 242.168C613.16 242.168 614.294 240.698 614.294 238.388C614.294 236.078 613.16 234.608 611.354 234.608C610.36 234.608 609.618 235.042 609.24 235.952H609.184V234.776H608.064V244.8ZM611.046 241.16C610.024 241.16 609.184 240.628 609.184 239.69V237.002C609.184 236.204 610.024 235.616 611.046 235.616C612.306 235.616 613.09 236.484 613.09 237.772V239.004C613.09 240.292 612.306 241.16 611.046 241.16ZM618.53 242V241.02H617.466V231.64H616.346V240.838C616.346 241.51 616.766 242 617.536 242H618.53ZM626.2 242V241.02H625.374V237.044C625.374 235.518 624.338 234.608 622.602 234.608C621.3 234.608 620.432 235.252 620.04 236.022L620.712 236.652C621.104 235.994 621.678 235.574 622.546 235.574C623.694 235.574 624.254 236.134 624.254 237.156V237.87H622.826C620.726 237.87 619.746 238.626 619.746 239.984C619.746 241.328 620.642 242.168 622.168 242.168C623.176 242.168 623.946 241.706 624.254 240.824H624.324C624.408 241.496 624.744 242 625.57 242H626.2ZM622.35 241.216C621.482 241.216 620.922 240.81 620.922 240.096V239.802C620.922 239.102 621.496 238.71 622.77 238.71H624.254V239.9C624.254 240.642 623.456 241.216 622.35 241.216ZM629.079 242V236.988C629.079 236.064 629.947 235.616 630.843 235.616C631.921 235.616 632.481 236.274 632.481 237.562V242H633.601V237.366C633.601 235.616 632.663 234.608 631.179 234.608C630.101 234.608 629.485 235.14 629.135 235.952H629.079V234.776H627.959V242H629.079ZM638.792 242.168C640.15 242.168 641.186 241.496 641.648 240.516L640.85 239.942C640.472 240.74 639.772 241.188 638.862 241.188C637.518 241.188 636.72 240.25 636.72 239.004V238.668H641.914V238.136C641.914 236.092 640.724 234.608 638.792 234.608C636.832 234.608 635.544 236.092 635.544 238.388C635.544 240.684 636.832 242.168 638.792 242.168ZM638.792 235.546C639.94 235.546 640.71 236.4 640.71 237.674V237.828H636.72V237.73C636.72 236.47 637.574 235.546 638.792 235.546Z" fill="black"/>
<rect width="81" height="110" transform="translate(791.5 136)" fill="white" style="mix-blend-mode:multiply"/>
<rect x="808" y="136" width="48" height="48" rx="8" fill="#9F1853"/>
<rect width="20" height="20" transform="translate(822 150)" fill="white" style="mix-blend-mode:multiply"/>
<path d="M832 163.75V160H828.25V156.25H823.25V168.75H835.75V163.75H832ZM830.75 161.25V163.75H828.25V161.25H830.75ZM824.5 157.5H827V160H824.5V157.5ZM827 161.25V163.75H824.5V161.25H827ZM824.5 167.5V165H827V167.5H824.5ZM830.75 167.5H828.25V165H830.75V167.5ZM834.5 167.5H832V165H834.5V167.5Z" fill="white"/>
<path d="M840.5 158.5L838.875 160.125V156.25H840.75V151.25H835.75V156.25H837.625V160.125L836 158.5L835.125 159.375L838.25 162.5L841.375 159.375L840.5 158.5ZM837 152.5H839.5V155H837V152.5Z" fill="white"/>
<path d="M829.88 206.168C832.036 206.168 833.422 204.768 833.422 202.794C833.422 200.946 832.19 199.77 830.566 199.77C829.334 199.77 828.718 200.456 828.354 201.212L828.242 201.184C828.676 199.196 830.02 197.88 832.316 196.228H829.824C828.186 197.334 826.324 199.532 826.324 202.332C826.324 204.67 827.64 206.168 829.88 206.168ZM829.88 204.712C828.844 204.712 828.228 204.124 828.228 203.06V202.85C828.228 201.786 828.844 201.198 829.88 201.198C830.902 201.198 831.532 201.786 831.532 202.85V203.06C831.532 204.124 830.902 204.712 829.88 204.712ZM836.278 206.154C837.048 206.154 837.398 205.72 837.398 205.132V204.88C837.398 204.278 837.048 203.844 836.278 203.844C835.522 203.844 835.158 204.278 835.158 204.88V205.132C835.158 205.72 835.522 206.154 836.278 206.154Z" fill="black"/>
<path d="M800.301 224L796.885 214.228H795.387L791.971 224H793.161L794.141 221.116H798.089L799.069 224H800.301ZM797.795 220.08H794.421L796.073 215.32H796.143L797.795 220.08ZM804.138 224.168C805.79 224.168 806.812 223.314 806.812 221.914C806.812 220.822 806.196 220.122 804.6 219.884L804.04 219.8C803.144 219.66 802.654 219.38 802.654 218.68C802.654 217.994 803.144 217.56 804.068 217.56C804.992 217.56 805.608 217.994 805.93 218.442L806.672 217.77C806.084 217.042 805.314 216.608 804.152 216.608C802.682 216.608 801.576 217.308 801.576 218.736C801.576 220.08 802.57 220.626 803.9 220.822L804.474 220.906C805.426 221.046 805.734 221.48 805.734 222.04C805.734 222.782 805.174 223.216 804.222 223.216C803.312 223.216 802.64 222.81 802.08 222.11L801.282 222.754C801.926 223.608 802.808 224.168 804.138 224.168ZM811.038 224.168C812.69 224.168 813.712 223.314 813.712 221.914C813.712 220.822 813.096 220.122 811.5 219.884L810.94 219.8C810.044 219.66 809.554 219.38 809.554 218.68C809.554 217.994 810.044 217.56 810.968 217.56C811.892 217.56 812.508 217.994 812.83 218.442L813.572 217.77C812.984 217.042 812.214 216.608 811.052 216.608C809.582 216.608 808.476 217.308 808.476 218.736C808.476 220.08 809.47 220.626 810.8 220.822L811.374 220.906C812.326 221.046 812.634 221.48 812.634 222.04C812.634 222.782 812.074 223.216 811.122 223.216C810.212 223.216 809.54 222.81 808.98 222.11L808.182 222.754C808.826 223.608 809.708 224.168 811.038 224.168ZM816.411 215.082C816.887 215.082 817.097 214.83 817.097 214.452V214.27C817.097 213.892 816.887 213.64 816.411 213.64C815.935 213.64 815.725 213.892 815.725 214.27V214.452C815.725 214.83 815.935 215.082 816.411 215.082ZM815.851 224H816.971V216.776H815.851V224ZM825.601 224.798C825.601 223.608 824.831 222.88 823.039 222.88H821.499C820.841 222.88 820.393 222.768 820.393 222.334C820.393 221.886 820.869 221.648 821.345 221.522C821.555 221.564 821.807 221.592 822.045 221.592C823.697 221.592 824.775 220.57 824.775 219.1C824.775 218.33 824.467 217.686 823.949 217.238V216.776H825.321V215.796H824.243C823.641 215.796 823.403 216.202 823.403 216.762V216.888C823.011 216.706 822.549 216.608 822.031 216.608C820.393 216.608 819.315 217.63 819.315 219.1C819.315 220.108 819.819 220.906 820.673 221.312V221.368C819.945 221.55 819.427 221.9 819.427 222.628C819.427 223.118 819.665 223.44 820.071 223.636V223.79C819.357 223.986 818.923 224.406 818.923 225.19C818.923 226.324 819.847 226.968 822.101 226.968C824.425 226.968 825.601 226.282 825.601 224.798ZM824.551 224.882C824.551 225.666 823.823 226.058 822.577 226.058H821.541C820.407 226.058 819.973 225.54 819.973 224.91C819.973 224.462 820.183 224.14 820.645 223.93H823.053C824.173 223.93 824.551 224.308 824.551 224.882ZM822.045 220.696C821.093 220.696 820.491 220.248 820.491 219.296V218.904C820.491 217.952 821.093 217.504 822.045 217.504C822.997 217.504 823.599 217.952 823.599 218.904V219.296C823.599 220.248 822.997 220.696 822.045 220.696ZM828.187 224V218.988C828.187 218.064 829.055 217.616 829.951 217.616C831.029 217.616 831.589 218.274 831.589 219.562V224H832.709V219.366C832.709 217.616 831.771 216.608 830.287 216.608C829.209 216.608 828.593 217.14 828.243 217.952H828.187V216.776H827.067V224H828.187ZM838.653 224H839.773V218.988C839.773 218.064 840.641 217.616 841.537 217.616C842.615 217.616 843.175 218.274 843.175 219.562V224H844.295V219.366C844.295 217.616 843.357 216.608 841.873 216.608C840.795 216.608 840.179 217.14 839.829 217.952H839.773V213.64H838.653V224ZM849.5 224.168C851.432 224.168 852.762 222.684 852.762 220.388C852.762 218.092 851.432 216.608 849.5 216.608C847.568 216.608 846.238 218.092 846.238 220.388C846.238 222.684 847.568 224.168 849.5 224.168ZM849.5 223.174C848.296 223.174 847.442 222.432 847.442 220.906V219.87C847.442 218.344 848.296 217.602 849.5 217.602C850.704 217.602 851.558 218.344 851.558 219.87V220.906C851.558 222.432 850.704 223.174 849.5 223.174ZM856.934 224.168C858.586 224.168 859.608 223.314 859.608 221.914C859.608 220.822 858.992 220.122 857.396 219.884L856.836 219.8C855.94 219.66 855.45 219.38 855.45 218.68C855.45 217.994 855.94 217.56 856.864 217.56C857.788 217.56 858.404 217.994 858.726 218.442L859.468 217.77C858.88 217.042 858.11 216.608 856.948 216.608C855.478 216.608 854.372 217.308 854.372 218.736C854.372 220.08 855.366 220.626 856.696 220.822L857.27 220.906C858.222 221.046 858.53 221.48 858.53 222.04C858.53 222.782 857.97 223.216 857.018 223.216C856.108 223.216 855.436 222.81 854.876 222.11L854.078 222.754C854.722 223.608 855.604 224.168 856.934 224.168ZM864.646 224V223.02H863.176V217.756H864.758V216.776H863.176V214.774H862.168V216.118C862.168 216.608 862.014 216.776 861.538 216.776H860.866V217.756H862.056V222.81C862.056 223.51 862.476 224 863.246 224H864.646ZM868.888 224.168C870.54 224.168 871.562 223.314 871.562 221.914C871.562 220.822 870.946 220.122 869.35 219.884L868.79 219.8C867.894 219.66 867.404 219.38 867.404 218.68C867.404 217.994 867.894 217.56 868.818 217.56C869.742 217.56 870.358 217.994 870.68 218.442L871.422 217.77C870.834 217.042 870.064 216.608 868.902 216.608C867.432 216.608 866.326 217.308 866.326 218.736C866.326 220.08 867.32 220.626 868.65 220.822L869.224 220.906C870.176 221.046 870.484 221.48 870.484 222.04C870.484 222.782 869.924 223.216 868.972 223.216C868.062 223.216 867.39 222.81 866.83 222.11L866.032 222.754C866.676 223.608 867.558 224.168 868.888 224.168ZM801.569 242V241.02H800.099V235.756H801.681V234.776H800.099V232.774H799.091V234.118C799.091 234.608 798.937 234.776 798.461 234.776H797.789V235.756H798.979V240.81C798.979 241.51 799.399 242 800.169 242H801.569ZM806.316 242.168C808.248 242.168 809.578 240.684 809.578 238.388C809.578 236.092 808.248 234.608 806.316 234.608C804.384 234.608 803.054 236.092 803.054 238.388C803.054 240.684 804.384 242.168 806.316 242.168ZM806.316 241.174C805.112 241.174 804.258 240.432 804.258 238.906V237.87C804.258 236.344 805.112 235.602 806.316 235.602C807.52 235.602 808.374 236.344 808.374 237.87V238.906C808.374 240.432 807.52 241.174 806.316 241.174ZM817.219 242.168C818.871 242.168 819.893 241.314 819.893 239.914C819.893 238.822 819.277 238.122 817.681 237.884L817.121 237.8C816.225 237.66 815.735 237.38 815.735 236.68C815.735 235.994 816.225 235.56 817.149 235.56C818.073 235.56 818.689 235.994 819.011 236.442L819.753 235.77C819.165 235.042 818.395 234.608 817.233 234.608C815.763 234.608 814.657 235.308 814.657 236.736C814.657 238.08 815.651 238.626 816.981 238.822L817.555 238.906C818.507 239.046 818.815 239.48 818.815 240.04C818.815 240.782 818.255 241.216 817.303 241.216C816.393 241.216 815.721 240.81 815.161 240.11L814.363 240.754C815.007 241.608 815.889 242.168 817.219 242.168ZM824.747 242.168C826.105 242.168 827.141 241.496 827.603 240.516L826.805 239.942C826.427 240.74 825.727 241.188 824.817 241.188C823.473 241.188 822.675 240.25 822.675 239.004V238.668H827.869V238.136C827.869 236.092 826.679 234.608 824.747 234.608C822.787 234.608 821.499 236.092 821.499 238.388C821.499 240.684 822.787 242.168 824.747 242.168ZM824.747 235.546C825.895 235.546 826.665 236.4 826.665 237.674V237.828H822.675V237.73C822.675 236.47 823.529 235.546 824.747 235.546ZM830.995 242V237.1C830.995 236.414 831.723 235.896 832.927 235.896H833.585V234.776H833.151C831.975 234.776 831.317 235.42 831.065 236.106H830.995V234.776H829.875V242H830.995ZM838.21 242L840.758 234.776H839.68L838.392 238.36L837.608 240.824H837.538L836.754 238.36L835.494 234.776H834.374L836.908 242H838.21ZM842.923 233.082C843.399 233.082 843.609 232.83 843.609 232.452V232.27C843.609 231.892 843.399 231.64 842.923 231.64C842.447 231.64 842.237 231.892 842.237 232.27V232.452C842.237 232.83 842.447 233.082 842.923 233.082ZM842.363 242H843.483V234.776H842.363V242ZM848.711 242.168C850.083 242.168 851.021 241.496 851.483 240.46L850.671 239.914C850.279 240.74 849.621 241.174 848.711 241.174C847.381 241.174 846.695 240.264 846.695 239.004V237.772C846.695 236.512 847.381 235.602 848.711 235.602C849.593 235.602 850.209 236.036 850.475 236.778L851.413 236.302C850.993 235.308 850.139 234.608 848.711 234.608C846.681 234.608 845.491 236.078 845.491 238.388C845.491 240.698 846.681 242.168 848.711 242.168ZM855.858 242.168C857.216 242.168 858.252 241.496 858.714 240.516L857.916 239.942C857.538 240.74 856.838 241.188 855.928 241.188C854.584 241.188 853.786 240.25 853.786 239.004V238.668H858.98V238.136C858.98 236.092 857.79 234.608 855.858 234.608C853.898 234.608 852.61 236.092 852.61 238.388C852.61 240.684 853.898 242.168 855.858 242.168ZM855.858 235.546C857.006 235.546 857.776 236.4 857.776 237.674V237.828H853.786V237.73C853.786 236.47 854.64 235.546 855.858 235.546ZM863.155 242.168C864.807 242.168 865.829 241.314 865.829 239.914C865.829 238.822 865.213 238.122 863.617 237.884L863.057 237.8C862.161 237.66 861.671 237.38 861.671 236.68C861.671 235.994 862.161 235.56 863.085 235.56C864.009 235.56 864.625 235.994 864.947 236.442L865.689 235.77C865.101 235.042 864.331 234.608 863.169 234.608C861.699 234.608 860.593 235.308 860.593 236.736C860.593 238.08 861.587 238.626 862.917 238.822L863.491 238.906C864.443 239.046 864.751 239.48 864.751 240.04C864.751 240.782 864.191 241.216 863.239 241.216C862.329 241.216 861.657 240.81 861.097 240.11L860.299 240.754C860.943 241.608 861.825 242.168 863.155 242.168Z" fill="black"/>
<rect width="82" height="110" transform="translate(671 136)" fill="white" style="mix-blend-mode:multiply"/>
<rect width="48" height="48" transform="translate(688 136)" fill="white" style="mix-blend-mode:multiply"/>
<rect x="688.5" y="136.5" width="47" height="47" rx="7.5" fill="#EDF5FF" stroke="#0043CE"/>
<path d="M707.625 163.75C708.315 163.75 708.875 163.19 708.875 162.5C708.875 161.81 708.315 161.25 707.625 161.25C706.935 161.25 706.375 161.81 706.375 162.5C706.375 163.19 706.935 163.75 707.625 163.75Z" fill="black"/>
<path d="M712 162.5C710.625 162.5 709.5 161.375 709.5 160C709.5 158.625 710.625 157.5 712 157.5C713.375 157.5 714.5 158.625 714.5 160C714.5 161.375 713.375 162.5 712 162.5ZM712 158.75C711.312 158.75 710.75 159.312 710.75 160C710.75 160.688 711.312 161.25 712 161.25C712.688 161.25 713.25 160.688 713.25 160C713.25 159.312 712.688 158.75 712 158.75Z" fill="black"/>
<path d="M716.375 158.75C717.065 158.75 717.625 158.19 717.625 157.5C717.625 156.81 717.065 156.25 716.375 156.25C715.685 156.25 715.125 156.81 715.125 157.5C715.125 158.19 715.685 158.75 716.375 158.75Z" fill="black"/>
<path d="M712 169.375C711.894 169.375 711.781 169.35 711.688 169.288L704.188 164.913C703.994 164.8 703.875 164.594 703.875 164.375V155.625C703.875 155.4 703.994 155.2 704.188 155.087L711.688 150.712C711.881 150.6 712.125 150.6 712.319 150.712L719.819 155.087L719.188 156.169L712 151.975L705.125 155.981V164.012L712 168.025L718.875 164.012V159.369H720.125V164.369C720.125 164.594 720.006 164.794 719.812 164.906L712.312 169.281C712.213 169.338 712.106 169.369 712 169.369V169.375Z" fill="black"/>
<path d="M712.848 196.228H707.094L706.73 201.716L708.242 201.926C708.536 201.576 709.026 201.198 709.824 201.198C710.846 201.198 711.462 201.814 711.462 202.822V202.934C711.462 203.998 710.874 204.656 709.782 204.656C708.718 204.656 708.186 204.068 707.752 203.312L706.408 204.348C706.996 205.3 707.962 206.168 709.768 206.168C712.078 206.168 713.38 204.74 713.38 202.78C713.38 200.834 712.078 199.686 710.398 199.686C709.222 199.686 708.746 200.26 708.326 201.1H708.228L708.452 197.824H712.848V196.228ZM716.278 206.154C717.048 206.154 717.398 205.72 717.398 205.132V204.88C717.398 204.278 717.048 203.844 716.278 203.844C715.522 203.844 715.158 204.278 715.158 204.88V205.132C715.158 205.72 715.522 206.154 716.278 206.154Z" fill="black"/>
<path d="M683.738 224V222.964H679.58V214.228H678.404V224H683.738ZM688.059 224.168C689.991 224.168 691.321 222.684 691.321 220.388C691.321 218.092 689.991 216.608 688.059 216.608C686.127 216.608 684.797 218.092 684.797 220.388C684.797 222.684 686.127 224.168 688.059 224.168ZM688.059 223.174C686.855 223.174 686.001 222.432 686.001 220.906V219.87C686.001 218.344 686.855 217.602 688.059 217.602C689.263 217.602 690.117 218.344 690.117 219.87V220.906C690.117 222.432 689.263 223.174 688.059 223.174ZM696.011 224.168C697.383 224.168 698.321 223.496 698.783 222.46L697.971 221.914C697.579 222.74 696.921 223.174 696.011 223.174C694.681 223.174 693.995 222.264 693.995 221.004V219.772C693.995 218.512 694.681 217.602 696.011 217.602C696.893 217.602 697.509 218.036 697.775 218.778L698.713 218.302C698.293 217.308 697.439 216.608 696.011 216.608C693.981 216.608 692.791 218.078 692.791 220.388C692.791 222.698 693.981 224.168 696.011 224.168ZM706.404 224V223.02H705.578V219.044C705.578 217.518 704.542 216.608 702.806 216.608C701.504 216.608 700.636 217.252 700.244 218.022L700.916 218.652C701.308 217.994 701.882 217.574 702.75 217.574C703.898 217.574 704.458 218.134 704.458 219.156V219.87H703.03C700.93 219.87 699.95 220.626 699.95 221.984C699.95 223.328 700.846 224.168 702.372 224.168C703.38 224.168 704.15 223.706 704.458 222.824H704.528C704.612 223.496 704.948 224 705.774 224H706.404ZM702.554 223.216C701.686 223.216 701.126 222.81 701.126 222.096V221.802C701.126 221.102 701.7 220.71 702.974 220.71H704.458V221.9C704.458 222.642 703.66 223.216 702.554 223.216ZM711.159 224V223.02H709.689V217.756H711.271V216.776H709.689V214.774H708.681V216.118C708.681 216.608 708.527 216.776 708.051 216.776H707.379V217.756H708.569V222.81C708.569 223.51 708.989 224 709.759 224H711.159ZM713.791 215.082C714.267 215.082 714.477 214.83 714.477 214.452V214.27C714.477 213.892 714.267 213.64 713.791 213.64C713.315 213.64 713.105 213.892 713.105 214.27V214.452C713.105 214.83 713.315 215.082 713.791 215.082ZM713.231 224H714.351V216.776H713.231V224ZM719.621 224.168C721.553 224.168 722.883 222.684 722.883 220.388C722.883 218.092 721.553 216.608 719.621 216.608C717.689 216.608 716.359 218.092 716.359 220.388C716.359 222.684 717.689 224.168 719.621 224.168ZM719.621 223.174C718.417 223.174 717.563 222.432 717.563 220.906V219.87C717.563 218.344 718.417 217.602 719.621 217.602C720.825 217.602 721.679 218.344 721.679 219.87V220.906C721.679 222.432 720.825 223.174 719.621 223.174ZM726.005 224V218.988C726.005 218.064 726.873 217.616 727.769 217.616C728.847 217.616 729.407 218.274 729.407 219.562V224H730.527V219.366C730.527 217.616 729.589 216.608 728.105 216.608C727.027 216.608 726.411 217.14 726.061 217.952H726.005V216.776H724.885V224H726.005ZM737.031 215.082C737.507 215.082 737.717 214.83 737.717 214.452V214.27C737.717 213.892 737.507 213.64 737.031 213.64C736.555 213.64 736.345 213.892 736.345 214.27V214.452C736.345 214.83 736.555 215.082 737.031 215.082ZM736.471 224H737.591V216.776H736.471V224ZM741.251 224V218.988C741.251 218.064 742.119 217.616 743.015 217.616C744.093 217.616 744.653 218.274 744.653 219.562V224H745.773V219.366C745.773 217.616 744.835 216.608 743.351 216.608C742.273 216.608 741.657 217.14 741.307 217.952H741.251V216.776H740.131V224H741.251ZM673.727 242V236.988C673.727 236.064 674.595 235.616 675.491 235.616C676.569 235.616 677.129 236.274 677.129 237.562V242H678.249V237.366C678.249 235.616 677.311 234.608 675.827 234.608C674.749 234.608 674.133 235.14 673.783 235.952H673.727V234.776H672.607V242H673.727ZM683.454 242.168C685.386 242.168 686.716 240.684 686.716 238.388C686.716 236.092 685.386 234.608 683.454 234.608C681.522 234.608 680.192 236.092 680.192 238.388C680.192 240.684 681.522 242.168 683.454 242.168ZM683.454 241.174C682.25 241.174 681.396 240.432 681.396 238.906V237.87C681.396 236.344 682.25 235.602 683.454 235.602C684.658 235.602 685.512 236.344 685.512 237.87V238.906C685.512 240.432 684.658 241.174 683.454 241.174ZM689.838 242V237.1C689.838 236.414 690.566 235.896 691.77 235.896H692.428V234.776H691.994C690.818 234.776 690.16 235.42 689.908 236.106H689.838V234.776H688.718V242H689.838ZM695.139 242V236.988C695.139 236.064 695.979 235.616 696.861 235.616C697.925 235.616 698.415 236.274 698.415 237.562V242H699.535V236.988C699.535 236.064 700.347 235.616 701.229 235.616C702.321 235.616 702.811 236.288 702.811 237.562V242H703.931V237.366C703.931 235.616 703.049 234.608 701.579 234.608C700.347 234.608 699.647 235.294 699.381 236.078H699.353C698.961 235.042 698.093 234.608 697.141 234.608C696.021 234.608 695.517 235.21 695.195 235.952H695.139V234.776H694.019V242H695.139ZM712.281 242V241.02H711.455V237.044C711.455 235.518 710.419 234.608 708.683 234.608C707.381 234.608 706.513 235.252 706.121 236.022L706.793 236.652C707.185 235.994 707.759 235.574 708.627 235.574C709.775 235.574 710.335 236.134 710.335 237.156V237.87H708.907C706.807 237.87 705.827 238.626 705.827 239.984C705.827 241.328 706.723 242.168 708.249 242.168C709.257 242.168 710.027 241.706 710.335 240.824H710.405C710.489 241.496 710.825 242 711.651 242H712.281ZM708.431 241.216C707.563 241.216 707.003 240.81 707.003 240.096V239.802C707.003 239.102 707.577 238.71 708.851 238.71H710.335V239.9C710.335 240.642 709.537 241.216 708.431 241.216ZM716.224 242V241.02H715.16V231.64H714.04V240.838C714.04 241.51 714.46 242 715.23 242H716.224ZM723.653 242.168C725.305 242.168 726.327 241.314 726.327 239.914C726.327 238.822 725.711 238.122 724.115 237.884L723.555 237.8C722.659 237.66 722.169 237.38 722.169 236.68C722.169 235.994 722.659 235.56 723.583 235.56C724.507 235.56 725.123 235.994 725.445 236.442L726.187 235.77C725.599 235.042 724.829 234.608 723.667 234.608C722.197 234.608 721.091 235.308 721.091 236.736C721.091 238.08 722.085 238.626 723.415 238.822L723.989 238.906C724.941 239.046 725.249 239.48 725.249 240.04C725.249 240.782 724.689 241.216 723.737 241.216C722.827 241.216 722.155 240.81 721.595 240.11L720.797 240.754C721.441 241.608 722.323 242.168 723.653 242.168ZM731.365 242V241.02H729.895V235.756H731.477V234.776H729.895V232.774H728.887V234.118C728.887 234.608 728.733 234.776 728.257 234.776H727.585V235.756H728.775V240.81C728.775 241.51 729.195 242 729.965 242H731.365ZM739.317 242V241.02H738.491V237.044C738.491 235.518 737.455 234.608 735.719 234.608C734.417 234.608 733.549 235.252 733.157 236.022L733.829 236.652C734.221 235.994 734.795 235.574 735.663 235.574C736.811 235.574 737.371 236.134 737.371 237.156V237.87H735.943C733.843 237.87 732.863 238.626 732.863 239.984C732.863 241.328 733.759 242.168 735.285 242.168C736.293 242.168 737.063 241.706 737.371 240.824H737.441C737.525 241.496 737.861 242 738.687 242H739.317ZM735.467 241.216C734.599 241.216 734.039 240.81 734.039 240.096V239.802C734.039 239.102 734.613 238.71 735.887 238.71H737.371V239.9C737.371 240.642 736.573 241.216 735.467 241.216ZM744.072 242V241.02H742.602V235.756H744.184V234.776H742.602V232.774H741.594V234.118C741.594 234.608 741.44 234.776 740.964 234.776H740.292V235.756H741.482V240.81C741.482 241.51 741.902 242 742.672 242H744.072ZM748.806 242.168C750.164 242.168 751.2 241.496 751.662 240.516L750.864 239.942C750.486 240.74 749.786 241.188 748.876 241.188C747.532 241.188 746.734 240.25 746.734 239.004V238.668H751.928V238.136C751.928 236.092 750.738 234.608 748.806 234.608C746.846 234.608 745.558 236.092 745.558 238.388C745.558 240.684 746.846 242.168 748.806 242.168ZM748.806 235.546C749.954 235.546 750.724 236.4 750.724 237.674V237.828H746.734V237.73C746.734 236.47 747.588 235.546 748.806 235.546Z" fill="black"/>
<path fill-rule="evenodd" clip-rule="evenodd" d="M323 157.113L328 160L323 162.887L323 160.5L256 160.5L256 159.5L323 159.5L323 157.113Z" fill="#565151"/>
<path fill-rule="evenodd" clip-rule="evenodd" d="M443 157.113L448 160L443 162.887L443 160.5L376 160.5L376 159.5L443 159.5L443 157.113Z" fill="#565151"/>
<path fill-rule="evenodd" clip-rule="evenodd" d="M563 157.113L568 160L563 162.887L563 160.5L496 160.5L496 159.5L563 159.5L563 157.113Z" fill="#565151"/>
<path fill-rule="evenodd" clip-rule="evenodd" d="M683 157.113L688 160L683 162.887L683 160.5L616 160.5L616 159.5L683 159.5L683 157.113Z" fill="#565151"/>
<path fill-rule="evenodd" clip-rule="evenodd" d="M803 157.113L808 160L803 162.887L803 160.5L736 160.5L736 159.5L803 159.5L803 157.113Z" fill="#565151"/>
<rect x="48.5" y="296.5" width="15" height="15" rx="3.5" fill="white" style="mix-blend-mode:multiply"/>
<rect x="48.5" y="296.5" width="15" height="15" rx="3.5" stroke="#8D8D8D"/>
<path d="M78.636 309V307.964H74.478V299.228H73.302V309H78.636ZM82.957 309.168C84.889 309.168 86.219 307.684 86.219 305.388C86.219 303.092 84.889 301.608 82.957 301.608C81.025 301.608 79.695 303.092 79.695 305.388C79.695 307.684 81.025 309.168 82.957 309.168ZM82.957 308.174C81.753 308.174 80.899 307.432 80.899 305.906V304.87C80.899 303.344 81.753 302.602 82.957 302.602C84.161 302.602 85.015 303.344 85.015 304.87V305.906C85.015 307.432 84.161 308.174 82.957 308.174ZM94.3109 309.798C94.3109 308.608 93.5409 307.88 91.7489 307.88H90.2089C89.5509 307.88 89.1029 307.768 89.1029 307.334C89.1029 306.886 89.5789 306.648 90.0549 306.522C90.2649 306.564 90.5169 306.592 90.7549 306.592C92.4069 306.592 93.4849 305.57 93.4849 304.1C93.4849 303.33 93.1769 302.686 92.6589 302.238V301.776H94.0309V300.796H92.9529C92.3509 300.796 92.1129 301.202 92.1129 301.762V301.888C91.7209 301.706 91.2589 301.608 90.7409 301.608C89.1029 301.608 88.0249 302.63 88.0249 304.1C88.0249 305.108 88.5289 305.906 89.3829 306.312V306.368C88.6549 306.55 88.1369 306.9 88.1369 307.628C88.1369 308.118 88.3749 308.44 88.7809 308.636V308.79C88.0669 308.986 87.6329 309.406 87.6329 310.19C87.6329 311.324 88.5569 311.968 90.8109 311.968C93.1349 311.968 94.3109 311.282 94.3109 309.798ZM93.2609 309.882C93.2609 310.666 92.5329 311.058 91.2869 311.058H90.2509C89.1169 311.058 88.6829 310.54 88.6829 309.91C88.6829 309.462 88.8929 309.14 89.3549 308.93H91.7629C92.8829 308.93 93.2609 309.308 93.2609 309.882ZM90.7549 305.696C89.8029 305.696 89.2009 305.248 89.2009 304.296V303.904C89.2009 302.952 89.8029 302.504 90.7549 302.504C91.7069 302.504 92.3089 302.952 92.3089 303.904V304.296C92.3089 305.248 91.7069 305.696 90.7549 305.696ZM96.3374 300.082C96.8134 300.082 97.0234 299.83 97.0234 299.452V299.27C97.0234 298.892 96.8134 298.64 96.3374 298.64C95.8614 298.64 95.6514 298.892 95.6514 299.27V299.452C95.6514 299.83 95.8614 300.082 96.3374 300.082ZM95.7774 309H96.8974V301.776H95.7774V309ZM102.125 309.168C103.497 309.168 104.435 308.496 104.897 307.46L104.085 306.914C103.693 307.74 103.035 308.174 102.125 308.174C100.795 308.174 100.109 307.264 100.109 306.004V304.772C100.109 303.512 100.795 302.602 102.125 302.602C103.007 302.602 103.623 303.036 103.889 303.778L104.827 303.302C104.407 302.308 103.553 301.608 102.125 301.608C100.095 301.608 98.9054 303.078 98.9054 305.388C98.9054 307.698 100.095 309.168 102.125 309.168ZM112.518 309V308.02H111.692V304.044C111.692 302.518 110.656 301.608 108.92 301.608C107.618 301.608 106.75 302.252 106.358 303.022L107.03 303.652C107.422 302.994 107.996 302.574 108.864 302.574C110.012 302.574 110.572 303.134 110.572 304.156V304.87H109.144C107.044 304.87 106.064 305.626 106.064 306.984C106.064 308.328 106.96 309.168 108.486 309.168C109.494 309.168 110.264 308.706 110.572 307.824H110.642C110.726 308.496 111.062 309 111.888 309H112.518ZM108.668 308.216C107.8 308.216 107.24 307.81 107.24 307.096V306.802C107.24 306.102 107.814 305.71 109.088 305.71H110.572V306.9C110.572 307.642 109.774 308.216 108.668 308.216ZM116.461 309V308.02H115.397V298.64H114.277V307.838C114.277 308.51 114.697 309 115.467 309H116.461ZM122.84 309V303.988C122.84 303.064 123.708 302.616 124.604 302.616C125.682 302.616 126.242 303.274 126.242 304.562V309H127.362V304.366C127.362 302.616 126.424 301.608 124.94 301.608C123.862 301.608 123.246 302.14 122.896 302.952H122.84V301.776H121.72V309H122.84ZM132.567 309.168C134.499 309.168 135.829 307.684 135.829 305.388C135.829 303.092 134.499 301.608 132.567 301.608C130.635 301.608 129.305 303.092 129.305 305.388C129.305 307.684 130.635 309.168 132.567 309.168ZM132.567 308.174C131.363 308.174 130.509 307.432 130.509 305.906V304.87C130.509 303.344 131.363 302.602 132.567 302.602C133.771 302.602 134.625 303.344 134.625 304.87V305.906C134.625 307.432 133.771 308.174 132.567 308.174ZM142.451 309H143.571V298.64H142.451V302.952H142.395C142.017 302.042 141.275 301.608 140.281 301.608C138.475 301.608 137.341 303.078 137.341 305.388C137.341 307.698 138.475 309.168 140.281 309.168C141.275 309.168 141.961 308.72 142.395 307.824H142.451V309ZM140.589 308.16C139.329 308.16 138.545 307.292 138.545 306.004V304.772C138.545 303.484 139.329 302.616 140.589 302.616C141.611 302.616 142.451 303.204 142.451 304.002V306.69C142.451 307.628 141.611 308.16 140.589 308.16ZM148.828 309.168C150.186 309.168 151.222 308.496 151.684 307.516L150.886 306.942C150.508 307.74 149.808 308.188 148.898 308.188C147.554 308.188 146.756 307.25 146.756 306.004V305.668H151.95V305.136C151.95 303.092 150.76 301.608 148.828 301.608C146.868 301.608 145.58 303.092 145.58 305.388C145.58 307.684 146.868 309.168 148.828 309.168ZM148.828 302.546C149.976 302.546 150.746 303.4 150.746 304.674V304.828H146.756V304.73C146.756 303.47 147.61 302.546 148.828 302.546Z" fill="#6F6F6F"/>
</svg>
