<?xml version="1.0" encoding="UTF-8"?><svg xmlns="http://www.w3.org/2000/svg" width="1644" height="495" viewBox="0 0 1644 495"><g id="a"><g><rect x="631.53" y="76.63" width="922.37" height="105.46" rx="34.15" ry="34.15" style="fill:#d9fbfb;"/><path d="M1519.75,78.11c18.01,0,32.67,14.66,32.67,32.67v37.15c0,18.01-14.66,32.67-32.67,32.67H665.69c-18.01,0-32.67-14.66-32.67-32.67v-37.15c0-18.01,14.66-32.67,32.67-32.67h854.06m0-2.97H665.69c-19.68,0-35.64,15.96-35.64,35.64v37.15c0,19.68,15.96,35.64,35.64,35.64h854.06c19.68,0,35.64-15.96,35.64-35.64v-37.15c0-19.68-15.96-35.64-35.64-35.64h0Z"/></g><g><rect x="90.88" y="75.14" width="451.53" height="105.46" rx="23.49" ry="23.49" style="fill:#d0e2ff;"/><path d="M518.92,76.63c12.13,0,22.01,9.87,22.01,22.01v58.47c0,12.13-9.87,22.01-22.01,22.01H114.38c-12.13,0-22.01-9.87-22.01-22.01v-58.47c0-12.13,9.87-22.01,22.01-22.01h404.55m0-2.97H114.38c-13.79,0-24.98,11.18-24.98,24.98v58.47c0,13.79,11.18,24.98,24.98,24.98h404.55c13.79,0,24.98-11.18,24.98-24.98v-58.47c0-13.79-11.18-24.98-24.98-24.98h0Z"/></g><text transform="translate(220.99 139.46)" style="font-family:IBMPlexSans, IBM Plex Sans; font-size:25.25px;"><tspan x="0" y="0">Cont</tspan><tspan x="53.02" y="0" style="letter-spacing:0em;">r</tspan><tspan x="62.17" y="0">ol plane ho</tspan><tspan x="186.77" y="0" style="letter-spacing:0em;">s</tspan><tspan x="198.89" y="0">t</tspan></text><g id="b"><path d="M194.85,109.3h-23.76c-1.64,0-2.97,1.33-2.97,2.97v32.68c0,1.64,1.33,2.97,2.97,2.97h23.76c1.64,0,2.97-1.33,2.97-2.97v-32.68c0-1.64-1.33-2.97-2.97-2.97Zm0,2.97v8.91h-23.76v-8.91h23.76Zm-23.76,20.79v-8.91h23.76v8.91h-23.76Zm0,11.88v-8.91h23.76v8.91h-23.76Z"/><circle cx="174.91" cy="116.44" r="1.49"/><circle cx="174.91" cy="128.32" r="1.49"/><circle cx="174.91" cy="140.2" r="1.49"/><rect id="c" x="159.21" y="104.85" width="47.53" height="47.53" style="fill:none;"/></g><rect x="88.67" y="195.72" width="218.34" height="175" rx="30.08" ry="30.08" style="fill:#f2f4f8; stroke:#000; stroke-miterlimit:10; stroke-width:2.97px;"/><text transform="translate(131.32 239.34)" style="font-family:IBMPlexSans, IBM Plex Sans; font-size:25.25px;"><tspan x="0" y="0">Boot d</tspan><tspan x="74.23" y="0" style="letter-spacing:0em;">e</tspan><tspan x="87.9" y="0">vi</tspan><tspan x="106.63" y="0" style="letter-spacing:0em;">c</tspan><tspan x="119.18" y="0">e</tspan></text><text transform="translate(159.54 289.84)" style="font-family:IBMPlexSans, IBM Plex Sans; font-size:25.25px;"><tspan x="0" y="0">10 GiB</tspan></text><text transform="translate(172.66 341.82)" style="font-family:IBMPlexSans, IBM Plex Sans; font-size:25.25px;"><tspan x="0" y="0" style="letter-spacing:-.01em;">e</tspan><tspan x="13.56" y="0">xt4</tspan></text><rect x="326.26" y="195.11" width="218.34" height="175" rx="30.08" ry="30.08" style="fill:#f2f4f8; stroke:#000; stroke-miterlimit:10; stroke-width:2.97px;"/><text transform="translate(339.77 238.73)" style="font-family:IBMPlexSans, IBM Plex Sans; font-size:25.25px;"><tspan x="0" y="0">Boot</tspan><tspan x="53.63" y="0" style="letter-spacing:0em;">s</tspan><tspan x="65.75" y="0">t</tspan><tspan x="74.61" y="0" style="letter-spacing:0em;">r</tspan><tspan x="83.78" y="0">ap d</tspan><tspan x="132.51" y="0" style="letter-spacing:0em;">e</tspan><tspan x="146.17" y="0">vi</tspan><tspan x="164.91" y="0" style="letter-spacing:0em;">c</tspan><tspan x="177.46" y="0">e</tspan></text><text transform="translate(389.55 289.23)" style="font-family:IBMPlexSans, IBM Plex Sans; font-size:25.25px;"><tspan x="0" y="0">100 GiB</tspan></text><text transform="translate(363.24 341.22)" style="font-family:IBMPlexSans, IBM Plex Sans; font-size:25.25px;"><tspan x="0" y="0">Un</tspan><tspan x="31.46" y="0" style="letter-spacing:0em;">f</tspan><tspan x="39.54" y="0">orma</tspan><tspan x="98.47" y="0" style="letter-spacing:0em;">t</tspan><tspan x="107.11" y="0" style="letter-spacing:0em;">t</tspan><tspan x="115.87" y="0">ed</tspan></text><rect x="630.04" y="199.96" width="218.34" height="175" rx="30.08" ry="30.08" style="fill:#f2f4f8; stroke:#000; stroke-miterlimit:10; stroke-width:2.97px;"/><text transform="translate(672.69 243.58)" style="font-family:IBMPlexSans, IBM Plex Sans; font-size:25.25px;"><tspan x="0" y="0">Boot d</tspan><tspan x="74.23" y="0" style="letter-spacing:0em;">e</tspan><tspan x="87.9" y="0">vi</tspan><tspan x="106.63" y="0" style="letter-spacing:0em;">c</tspan><tspan x="119.18" y="0">e</tspan></text><text transform="translate(700.91 294.08)" style="font-family:IBMPlexSans, IBM Plex Sans; font-size:25.25px;"><tspan x="0" y="0">10 GiB</tspan></text><text transform="translate(714.03 346.07)" style="font-family:IBMPlexSans, IBM Plex Sans; font-size:25.25px;"><tspan x="0" y="0" style="letter-spacing:-.01em;">e</tspan><tspan x="13.56" y="0">xt4</tspan></text><rect x="867.63" y="199.35" width="218.34" height="175" rx="30.08" ry="30.08" style="fill:#f2f4f8; stroke:#000; stroke-miterlimit:10; stroke-width:2.97px;"/><text transform="translate(881.14 242.98)" style="font-family:IBMPlexSans, IBM Plex Sans; font-size:25.25px;"><tspan x="0" y="0">Boot</tspan><tspan x="53.63" y="0" style="letter-spacing:0em;">s</tspan><tspan x="65.75" y="0">t</tspan><tspan x="74.61" y="0" style="letter-spacing:0em;">r</tspan><tspan x="83.78" y="0">ap d</tspan><tspan x="132.51" y="0" style="letter-spacing:0em;">e</tspan><tspan x="146.17" y="0">vi</tspan><tspan x="164.91" y="0" style="letter-spacing:0em;">c</tspan><tspan x="177.45" y="0">e</tspan></text><text transform="translate(930.92 293.47)" style="font-family:IBMPlexSans, IBM Plex Sans; font-size:25.25px;"><tspan x="0" y="0">100 GiB</tspan></text><text transform="translate(904.61 345.46)" style="font-family:IBMPlexSans, IBM Plex Sans; font-size:25.25px;"><tspan x="0" y="0">Un</tspan><tspan x="31.46" y="0" style="letter-spacing:0em;">f</tspan><tspan x="39.54" y="0">orma</tspan><tspan x="98.47" y="0" style="letter-spacing:0em;">t</tspan><tspan x="107.11" y="0" style="letter-spacing:0em;">t</tspan><tspan x="115.87" y="0">ed</tspan></text><rect x="1103.8" y="195.11" width="218.34" height="175" rx="30.08" ry="30.08" style="fill:#ffd9be; stroke:#000; stroke-miterlimit:10; stroke-width:2.97px;"/><text transform="translate(1120.6 238.73)" style="font-family:IBMPlexSans, IBM Plex Sans; font-size:25.25px;"><tspan x="0" y="0">Se</tspan><tspan x="28.53" y="0" style="letter-spacing:0em;">r</tspan><tspan x="38.05" y="0">vi</tspan><tspan x="56.79" y="0" style="letter-spacing:0em;">c</tspan><tspan x="69.33" y="0">e </tspan><tspan x="89.16" y="0" style="letter-spacing:0em;">s</tspan><tspan x="101.28" y="0" style="letter-spacing:0em;">t</tspan><tspan x="110.04" y="0">o</tspan><tspan x="124.18" y="0" style="letter-spacing:0em;">r</tspan><tspan x="133.34" y="0">a</tspan><tspan x="146.83" y="0" style="letter-spacing:0em;">g</tspan><tspan x="160.01" y="0" style="letter-spacing:-.02em;">e</tspan><tspan x="173.37" y="0">*</tspan></text><text transform="translate(1153.14 289.23)" style="font-family:IBMPlexSans, IBM Plex Sans; font-size:25.25px;"><tspan x="0" y="0">As needed</tspan></text><rect x="1336.99" y="195.11" width="218.34" height="175" rx="30.08" ry="30.08" style="fill:#ffd9be; stroke:#000; stroke-miterlimit:10; stroke-width:2.97px;"/><text transform="translate(1353.79 238.73)" style="font-family:IBMPlexSans, IBM Plex Sans; font-size:25.25px;"><tspan x="0" y="0">Se</tspan><tspan x="28.53" y="0" style="letter-spacing:0em;">r</tspan><tspan x="38.05" y="0">vi</tspan><tspan x="56.79" y="0" style="letter-spacing:0em;">c</tspan><tspan x="69.33" y="0">e </tspan><tspan x="89.16" y="0" style="letter-spacing:0em;">s</tspan><tspan x="101.28" y="0" style="letter-spacing:0em;">t</tspan><tspan x="110.04" y="0">o</tspan><tspan x="124.18" y="0" style="letter-spacing:0em;">r</tspan><tspan x="133.34" y="0">a</tspan><tspan x="146.83" y="0" style="letter-spacing:0em;">g</tspan><tspan x="160.01" y="0" style="letter-spacing:-.02em;">e</tspan><tspan x="173.37" y="0">*</tspan></text><text transform="translate(1386.33 289.23)" style="font-family:IBMPlexSans, IBM Plex Sans; font-size:25.25px;"><tspan x="0" y="0">As needed</tspan></text><g><text transform="translate(945.84 140.58)" style="font-family:IBMPlexSans, IBM Plex Sans; font-size:25.25px;"><tspan x="0" y="0">Ho</tspan><tspan x="31.99" y="0" style="letter-spacing:0em;">s</tspan><tspan x="44.11" y="0">t a</tspan><tspan x="72.42" y="0" style="letter-spacing:0em;">s</tspan><tspan x="84.56" y="0">signed </tspan><tspan x="165.31" y="0" style="letter-spacing:0em;">t</tspan><tspan x="174.07" y="0">o a se</tspan><tspan x="239.77" y="0" style="letter-spacing:0em;">r</tspan><tspan x="249.29" y="0">vi</tspan><tspan x="268.03" y="0" style="letter-spacing:0em;">c</tspan><tspan x="280.58" y="0">e</tspan></text><g id="d"><path d="M921.39,109.55h-23.76c-1.64,0-2.97,1.33-2.97,2.97v32.68c0,1.64,1.33,2.97,2.97,2.97h23.76c1.64,0,2.97-1.33,2.97-2.97v-32.68c0-1.64-1.33-2.97-2.97-2.97Zm0,2.97v8.91h-23.76v-8.91h23.76Zm-23.76,20.79v-8.91h23.76v8.91h-23.76Zm0,11.88v-8.91h23.76v8.91h-23.76Z"/><circle cx="901.44" cy="116.68" r="1.49"/><circle cx="901.44" cy="128.57" r="1.49"/><circle cx="901.44" cy="140.45" r="1.49"/><rect id="e" x="885.74" y="105.09" width="47.53" height="47.53" style="fill:none;"/></g></g></g><g id="f"/></svg>