<?xml version="1.0" encoding="utf-8"?>
<!-- Generator: Adobe Illustrator 26.1.0, SVG Export Plug-In . SVG Version: 6.00 Build 0)  -->
<svg version="1.1" id="Layer_1" xmlns="http://www.w3.org/2000/svg" xmlns:xlink="http://www.w3.org/1999/xlink" x="0px" y="0px"
	 viewBox="0 0 800 600" style="enable-background:new 0 0 800 600;" xml:space="preserve">
<style type="text/css">
	.st0{fill:#D0E2FF;}
	.st1{fill:#F6F2FF;}
	.st2{fill:none;stroke:#858585;stroke-miterlimit:10;}
	.st3{fill:none;stroke:#000000;stroke-miterlimit:10;}
	.st4{fill:none;stroke:#000000;stroke-miterlimit:10;stroke-dasharray:0,0,8.03,8.03;}
	.st5{fill:none;stroke:#000000;stroke-miterlimit:10;stroke-dasharray:0,0,7.94,7.94;}
	.st6{fill:#FFD7D9;}
	.st7{font-family:'IBMPlexSans';}
	.st8{font-size:17px;}
</style>
<g id="a">
	<rect x="332.5" y="266.2" class="st0" width="135" height="59"/>
	<rect x="332.5" y="361.8" class="st1" width="135" height="57.5"/>
	<line class="st2" x1="228" y1="267.8" x2="384" y2="145.8"/>
	<line class="st2" x1="400" y1="265.8" x2="400" y2="146.2"/>
	<line class="st2" x1="421" y1="144.8" x2="576" y2="264.8"/>
	<g>
		<polyline class="st3" points="657,510.8 657,514.8 653,514.8 		"/>
		<line class="st4" x1="645" y1="514.8" x2="151" y2="514.8"/>
		<polyline class="st3" points="147,514.8 143,514.8 143,510.8 		"/>
		<line class="st5" x1="143" y1="502.8" x2="143" y2="252.7"/>
		<polyline class="st3" points="143,248.8 143,244.8 147,244.8 		"/>
		<line class="st4" x1="155" y1="244.8" x2="649" y2="244.8"/>
		<polyline class="st3" points="653,244.8 657,244.8 657,248.8 		"/>
		<line class="st5" x1="657" y1="256.7" x2="657" y2="506.8"/>
	</g>
	<rect x="332.5" y="329.1" class="st6" width="135" height="28.2"/>
	<rect x="496.3" y="265.6" class="st0" width="135" height="59"/>
	<rect x="496.3" y="361.1" class="st1" width="135" height="57.5"/>
	<rect x="496.3" y="328.4" class="st6" width="135" height="28.2"/>
	<rect x="168.3" y="266.6" class="st0" width="135" height="59"/>
	<rect x="168.3" y="362.1" class="st1" width="135" height="57.5"/>
	<rect x="168.3" y="329.4" class="st6" width="135" height="28.2"/>
	<rect x="191.5" y="85.2" class="st0" width="407" height="59"/>
</g>
<g id="b">
	<g>
		<path d="M354.5,292c-1.5,0-2.7-0.5-3.5-1.5s-1.3-2.5-1.3-4.5s0.4-3.5,1.3-4.6s2-1.6,3.5-1.6c1,0,1.8,0.2,2.5,0.7s1.2,1.1,1.6,1.9
			l-1.2,0.7c-0.2-0.6-0.6-1.1-1.1-1.5s-1.1-0.5-1.8-0.5c-0.5,0-1,0.1-1.4,0.3s-0.7,0.5-1,0.8c-0.3,0.4-0.5,0.8-0.6,1.3
			s-0.2,1.1-0.2,1.7v1.8c0,1.2,0.3,2.2,0.9,2.9s1.4,1,2.4,1c0.8,0,1.4-0.2,1.9-0.6s0.9-0.9,1.1-1.5l1.1,0.7c-0.4,0.8-0.9,1.5-1.6,2
			C356.3,291.8,355.5,292,354.5,292L354.5,292z"/>
		<path d="M364,292c-0.6,0-1.1-0.1-1.6-0.3s-0.9-0.5-1.2-0.9c-0.3-0.4-0.6-0.9-0.8-1.4c-0.2-0.6-0.3-1.2-0.3-1.9
			c0-0.7,0.1-1.3,0.3-1.9c0.2-0.6,0.5-1.1,0.8-1.4c0.4-0.4,0.8-0.7,1.2-0.9c0.5-0.2,1-0.3,1.6-0.3s1.1,0.1,1.6,0.3
			c0.5,0.2,0.9,0.5,1.2,0.9c0.4,0.4,0.6,0.9,0.8,1.4c0.2,0.6,0.3,1.2,0.3,1.9s-0.1,1.3-0.3,1.9c-0.2,0.6-0.5,1-0.8,1.4
			c-0.4,0.4-0.8,0.7-1.2,0.9S364.6,292,364,292z M364,290.8c0.7,0,1.3-0.2,1.8-0.7s0.7-1.1,0.7-2.1v-1.3c0-0.9-0.2-1.6-0.7-2.1
			s-1.1-0.7-1.8-0.7c-0.7,0-1.3,0.2-1.8,0.7s-0.7,1.1-0.7,2.1v1.3c0,0.9,0.2,1.6,0.7,2.1S363.3,290.8,364,290.8z"/>
		<path d="M370.2,291.8V283h1.4v1.4h0.1c0.2-0.5,0.5-0.9,0.9-1.2s0.9-0.4,1.6-0.4c0.9,0,1.6,0.3,2.1,0.9s0.8,1.4,0.8,2.5v5.6h-1.4
			v-5.4c0-1.6-0.7-2.4-2-2.4c-0.3,0-0.5,0-0.8,0.1s-0.5,0.2-0.7,0.3c-0.2,0.1-0.4,0.3-0.5,0.5s-0.2,0.5-0.2,0.7v6.1L370.2,291.8
			L370.2,291.8z"/>
		<path d="M381.8,291.8c-0.5,0-0.8-0.1-1.1-0.4c-0.2-0.3-0.4-0.6-0.4-1v-6.1h-1.5v-1.2h0.8c0.3,0,0.5-0.1,0.6-0.2s0.2-0.3,0.2-0.6
			v-1.6h1.2v2.4h1.9v1.2h-1.9v6.4h1.8v1.2L381.8,291.8L381.8,291.8z"/>
		<path d="M385.9,291.8V283h1.4v1.6h0.1c0.2-0.4,0.4-0.8,0.9-1.1c0.4-0.3,1-0.5,1.7-0.5h0.5v1.4h-0.8c-0.7,0-1.3,0.1-1.7,0.4
			c-0.4,0.3-0.6,0.6-0.6,1v5.9L385.9,291.8L385.9,291.8z"/>
		<path d="M395.3,292c-0.6,0-1.1-0.1-1.6-0.3c-0.5-0.2-0.9-0.5-1.2-0.9c-0.4-0.4-0.6-0.9-0.8-1.4c-0.2-0.6-0.3-1.2-0.3-1.9
			c0-0.7,0.1-1.3,0.3-1.9c0.2-0.6,0.5-1.1,0.8-1.4c0.3-0.4,0.8-0.7,1.2-0.9c0.5-0.2,1-0.3,1.6-0.3s1.1,0.1,1.6,0.3
			c0.5,0.2,0.9,0.5,1.2,0.9c0.4,0.4,0.6,0.9,0.8,1.4c0.2,0.6,0.3,1.2,0.3,1.9s-0.1,1.3-0.3,1.9c-0.2,0.6-0.5,1-0.8,1.4
			c-0.4,0.4-0.8,0.7-1.2,0.9S395.9,292,395.3,292z M395.3,290.8c0.7,0,1.3-0.2,1.8-0.7s0.7-1.1,0.7-2.1v-1.3c0-0.9-0.2-1.6-0.7-2.1
			s-1.1-0.7-1.8-0.7c-0.7,0-1.3,0.2-1.8,0.7s-0.7,1.1-0.7,2.1v1.3c0,0.9,0.2,1.6,0.7,2.1S394.6,290.8,395.3,290.8z"/>
		<path d="M403,291.8c-0.5,0-0.8-0.1-1.1-0.4c-0.2-0.3-0.4-0.6-0.4-1v-11.2h1.4v11.4h1.3v1.2H403L403,291.8z"/>
		<path d="M410.2,283.1h1.4v1.4h0.1c0.2-0.6,0.6-1,1-1.2c0.4-0.3,1-0.4,1.6-0.4c0.5,0,1,0.1,1.5,0.3s0.8,0.5,1.1,0.9
			s0.5,0.9,0.7,1.4c0.2,0.6,0.2,1.2,0.2,1.9c0,0.7-0.1,1.3-0.2,1.9c-0.2,0.6-0.4,1-0.7,1.4s-0.7,0.7-1.1,0.9s-0.9,0.3-1.5,0.3
			c-1.2,0-2.1-0.5-2.6-1.6h-0.1v4.8h-1.4L410.2,283.1L410.2,283.1z M413.8,290.8c0.8,0,1.4-0.2,1.8-0.7c0.4-0.5,0.7-1.1,0.7-1.9
			v-1.5c0-0.8-0.2-1.4-0.7-1.9c-0.4-0.5-1-0.7-1.8-0.7c-0.3,0-0.6,0-0.9,0.1c-0.3,0.1-0.5,0.2-0.7,0.4c-0.2,0.1-0.4,0.3-0.5,0.5
			s-0.2,0.4-0.2,0.7v3.3c0,0.3,0.1,0.5,0.2,0.8s0.3,0.4,0.5,0.6s0.5,0.3,0.7,0.4C413.2,290.8,413.5,290.8,413.8,290.8L413.8,290.8z"
			/>
		<path d="M421.5,291.8c-0.5,0-0.8-0.1-1.1-0.4c-0.2-0.3-0.4-0.6-0.4-1v-11.2h1.4v11.4h1.3v1.2H421.5L421.5,291.8z"/>
		<path d="M431,291.8c-0.5,0-0.9-0.1-1.1-0.4c-0.2-0.3-0.4-0.6-0.4-1h-0.1c-0.2,0.5-0.5,0.9-1,1.2s-1,0.4-1.6,0.4
			c-0.9,0-1.7-0.2-2.2-0.7s-0.8-1.1-0.8-1.9s0.3-1.5,0.9-1.9s1.5-0.7,2.8-0.7h1.7V286c0-0.6-0.2-1.1-0.5-1.4s-0.9-0.5-1.6-0.5
			c-0.5,0-1,0.1-1.3,0.4c-0.4,0.2-0.7,0.5-0.9,0.9l-0.8-0.8c0.2-0.5,0.6-0.9,1.1-1.2c0.5-0.3,1.2-0.5,2-0.5c1.1,0,1.9,0.3,2.5,0.8
			s0.9,1.2,0.9,2.2v4.8h1v1.2L431,291.8L431,291.8z M427.1,290.9c0.3,0,0.7,0,0.9-0.1s0.5-0.2,0.7-0.3c0.2-0.1,0.4-0.3,0.5-0.5
			s0.2-0.4,0.2-0.6v-1.5h-1.8c-0.8,0-1.3,0.1-1.7,0.3s-0.5,0.6-0.5,1v0.4c0,0.4,0.2,0.8,0.5,1S426.6,290.9,427.1,290.9L427.1,290.9z
			"/>
		<path d="M433.7,291.8V283h1.4v1.4h0.1c0.2-0.5,0.5-0.9,0.9-1.2s0.9-0.4,1.6-0.4c0.9,0,1.6,0.3,2.1,0.9s0.8,1.4,0.8,2.5v5.6h-1.4
			v-5.4c0-1.6-0.7-2.4-2-2.4c-0.3,0-0.5,0-0.8,0.1s-0.5,0.2-0.7,0.3c-0.2,0.1-0.4,0.3-0.5,0.5s-0.2,0.5-0.2,0.7v6.1L433.7,291.8
			L433.7,291.8z"/>
		<path d="M446.7,292c-0.6,0-1.1-0.1-1.6-0.3c-0.5-0.2-0.9-0.5-1.2-0.9c-0.4-0.4-0.6-0.9-0.8-1.4c-0.2-0.6-0.3-1.2-0.3-1.9
			c0-0.7,0.1-1.3,0.3-1.9s0.5-1.1,0.8-1.4c0.3-0.4,0.8-0.7,1.2-0.9c0.5-0.2,1-0.3,1.6-0.3s1.1,0.1,1.6,0.3c0.5,0.2,0.9,0.5,1.2,0.9
			s0.6,0.8,0.8,1.4c0.2,0.5,0.3,1.1,0.3,1.7v0.6h-6.3v0.4c0,0.4,0.1,0.7,0.2,1c0.1,0.3,0.3,0.6,0.5,0.8c0.2,0.2,0.5,0.4,0.8,0.6
			c0.3,0.1,0.7,0.2,1.1,0.2c0.5,0,1-0.1,1.5-0.4c0.4-0.3,0.7-0.6,1-1.1l1,0.7c-0.3,0.6-0.7,1.1-1.3,1.5
			C448.2,291.8,447.5,292,446.7,292L446.7,292z M446.7,284c-0.4,0-0.7,0.1-1,0.2s-0.6,0.3-0.8,0.6s-0.4,0.5-0.5,0.8
			s-0.2,0.7-0.2,1.1v0.1h4.8v-0.2c0-0.8-0.2-1.4-0.6-1.9C448,284.2,447.4,284,446.7,284z"/>
		<path d="M354.9,303.5h1.3l0.9,3.8l0.9,3.8l0,0l1.1-3.8l1.1-3.8h1.2l1.1,3.8l1.1,3.8l0,0l0.9-3.8l1-3.8h1.3l-2.3,8.8h-1.7l-1.2-4.2
			l-0.8-2.7l0,0l-0.8,2.7l-1.2,4.2h-1.6L354.9,303.5L354.9,303.5z"/>
		<path d="M372.1,312.4c-0.6,0-1.1-0.1-1.6-0.3s-0.9-0.5-1.2-0.9s-0.6-0.9-0.8-1.5c-0.2-0.6-0.3-1.2-0.3-1.9c0-0.7,0.1-1.3,0.3-1.9
			s0.5-1,0.8-1.5c0.4-0.4,0.8-0.7,1.2-0.9c0.5-0.2,1-0.3,1.6-0.3s1.1,0.1,1.6,0.3c0.5,0.2,0.9,0.5,1.2,0.9c0.4,0.4,0.6,0.9,0.8,1.5
			c0.2,0.6,0.3,1.2,0.3,1.9s-0.1,1.3-0.3,1.9c-0.2,0.6-0.5,1-0.8,1.5c-0.3,0.4-0.8,0.7-1.2,0.9C373.2,312.3,372.6,312.4,372.1,312.4
			z M372.1,311.2c0.7,0,1.3-0.2,1.8-0.7c0.5-0.4,0.7-1.1,0.7-2.1v-1.3c0-0.9-0.2-1.6-0.7-2.1s-1.1-0.7-1.8-0.7s-1.3,0.2-1.8,0.7
			c-0.5,0.4-0.7,1.1-0.7,2.1v1.3c0,0.9,0.2,1.6,0.7,2.1C370.7,311,371.3,311.2,372.1,311.2z"/>
		<path d="M378.3,312.2v-8.8h1.4v1.6h0.1c0.2-0.4,0.4-0.8,0.8-1.1c0.4-0.3,1-0.5,1.7-0.5h0.5v1.4H382c-0.7,0-1.3,0.1-1.7,0.4
			c-0.4,0.3-0.6,0.6-0.6,1v6H378.3L378.3,312.2z"/>
		<path d="M384.5,299.6h1.4v8h0.1l1.3-1.5l2.5-2.7h1.6l-3.2,3.5l3.6,5.3h-1.6l-2.9-4.5L386,309v3.1h-1.4L384.5,299.6L384.5,299.6z"
			/>
		<path d="M396.5,312.4c-0.6,0-1.1-0.1-1.6-0.3s-0.9-0.5-1.2-0.9c-0.3-0.4-0.6-0.9-0.8-1.5c-0.2-0.6-0.3-1.2-0.3-1.9
			c0-0.7,0.1-1.3,0.3-1.9s0.5-1,0.8-1.5c0.3-0.4,0.8-0.7,1.2-0.9c0.5-0.2,1-0.3,1.6-0.3s1.1,0.1,1.6,0.3c0.5,0.2,0.9,0.5,1.2,0.9
			s0.6,0.8,0.8,1.4s0.3,1.1,0.3,1.7v0.6H394v0.4c0,0.4,0.1,0.7,0.2,1s0.3,0.6,0.5,0.8c0.2,0.2,0.5,0.4,0.8,0.6
			c0.3,0.1,0.7,0.2,1.1,0.2c0.6,0,1-0.1,1.5-0.4c0.4-0.3,0.7-0.6,1-1.1l1,0.7c-0.3,0.6-0.7,1.1-1.3,1.5
			C398,312.2,397.3,312.4,396.5,312.4L396.5,312.4z M396.5,304.4c-0.4,0-0.7,0.1-1,0.2s-0.6,0.3-0.8,0.5s-0.4,0.5-0.5,0.8
			s-0.2,0.7-0.2,1.1v0.1h4.8V307c0-0.8-0.2-1.4-0.6-1.9C397.7,304.6,397.2,304.4,396.5,304.4L396.5,304.4z"/>
		<path d="M402.5,312.2v-8.8h1.4v1.6h0.1c0.2-0.4,0.4-0.8,0.9-1.1c0.4-0.3,1-0.5,1.7-0.5h0.5v1.4h-0.8c-0.7,0-1.3,0.1-1.7,0.4
			c-0.4,0.3-0.6,0.6-0.6,1v6H402.5L402.5,312.2z"/>
		<path d="M412.8,312.2v-8.8h1.4v1.4h0.1c0.2-0.5,0.5-0.9,0.9-1.2s0.9-0.4,1.6-0.4c0.9,0,1.6,0.3,2.1,0.9s0.8,1.4,0.8,2.5v5.6h-1.4
			v-5.4c0-1.6-0.7-2.4-2-2.4c-0.3,0-0.5,0-0.8,0.1s-0.5,0.2-0.7,0.3c-0.2,0.1-0.4,0.3-0.5,0.5s-0.2,0.5-0.2,0.7v6.1L412.8,312.2
			L412.8,312.2z"/>
		<path d="M425.7,312.4c-0.6,0-1.1-0.1-1.6-0.3s-0.9-0.5-1.2-0.9s-0.6-0.9-0.8-1.5s-0.3-1.2-0.3-1.9c0-0.7,0.1-1.3,0.3-1.9
			s0.5-1,0.8-1.5c0.4-0.4,0.8-0.7,1.2-0.9c0.5-0.2,1-0.3,1.6-0.3s1.1,0.1,1.6,0.3c0.5,0.2,0.9,0.5,1.2,0.9c0.4,0.4,0.6,0.9,0.8,1.5
			s0.3,1.2,0.3,1.9s-0.1,1.3-0.3,1.9s-0.5,1-0.8,1.5c-0.3,0.4-0.8,0.7-1.2,0.9C426.9,312.3,426.3,312.4,425.7,312.4z M425.7,311.2
			c0.7,0,1.3-0.2,1.8-0.7c0.5-0.4,0.7-1.1,0.7-2.1v-1.3c0-0.9-0.2-1.6-0.7-2.1s-1.1-0.7-1.8-0.7s-1.3,0.2-1.8,0.7
			c-0.5,0.4-0.7,1.1-0.7,2.1v1.3c0,0.9,0.2,1.6,0.7,2.1S425,311.2,425.7,311.2z"/>
		<path d="M437.5,310.8L437.5,310.8c-0.6,1.1-1.5,1.6-2.6,1.6c-0.5,0-1-0.1-1.5-0.3s-0.8-0.5-1.1-0.9s-0.5-0.9-0.7-1.4
			c-0.2-0.6-0.2-1.2-0.2-1.9c0-0.7,0.1-1.3,0.2-1.9c0.2-0.6,0.4-1.1,0.7-1.4c0.3-0.4,0.7-0.7,1.1-0.9s0.9-0.3,1.5-0.3
			s1.1,0.1,1.6,0.4c0.4,0.3,0.8,0.7,1,1.2h0.1v-5.2h1.4v12.6h-1.4L437.5,310.8L437.5,310.8z M435.3,311.2c0.3,0,0.6,0,0.9-0.1
			c0.3-0.1,0.5-0.2,0.7-0.4c0.2-0.1,0.4-0.3,0.5-0.6s0.2-0.5,0.2-0.8V306c0-0.2-0.1-0.5-0.2-0.7s-0.3-0.4-0.5-0.5s-0.4-0.3-0.7-0.3
			c-0.3-0.1-0.6-0.1-0.9-0.1c-0.8,0-1.4,0.2-1.8,0.7c-0.4,0.5-0.7,1.1-0.7,1.9v1.5c0,0.8,0.2,1.4,0.7,1.9
			C433.9,311,434.5,311.2,435.3,311.2L435.3,311.2z"/>
		<path d="M445.1,312.4c-0.6,0-1.1-0.1-1.6-0.3s-0.9-0.5-1.2-0.9s-0.6-0.9-0.8-1.5s-0.3-1.2-0.3-1.9c0-0.7,0.1-1.3,0.3-1.9
			s0.4-1,0.8-1.5c0.3-0.4,0.8-0.7,1.2-0.9c0.5-0.2,1-0.3,1.6-0.3s1.1,0.1,1.6,0.3c0.5,0.2,0.9,0.5,1.2,0.9s0.6,0.8,0.8,1.4
			s0.3,1.1,0.3,1.7v0.6h-6.3v0.4c0,0.4,0.1,0.7,0.2,1c0.1,0.3,0.3,0.6,0.5,0.8c0.2,0.2,0.5,0.4,0.8,0.6c0.3,0.1,0.7,0.2,1.1,0.2
			c0.5,0,1-0.1,1.4-0.4s0.7-0.6,1-1.1l1,0.7c-0.3,0.6-0.7,1.1-1.3,1.5C446.6,312.2,445.9,312.4,445.1,312.4L445.1,312.4z
			 M445.1,304.4c-0.4,0-0.7,0.1-1,0.2s-0.6,0.3-0.8,0.5s-0.4,0.5-0.5,0.8s-0.2,0.7-0.2,1.1v0.1h4.9V307c0-0.8-0.2-1.4-0.6-1.9
			C446.4,304.6,445.8,304.4,445.1,304.4z"/>
	</g>
	<text transform="matrix(1 0 0 1 348.35 383.28)" class="st7 st8">Ba</text>
	<text transform="matrix(1 0 0 1 368.53 383.28)" class="st7 st8">r</text>
	<text transform="matrix(1 0 0 1 374.6799 383.28)" class="st7 st8">e metal or </text>
	<text transform="matrix(1 0 0 1 341.1799 403.68)" class="st7 st8">vi</text>
	<text transform="matrix(1 0 0 1 353.8 403.68)" class="st7 st8">r</text>
	<text transform="matrix(1 0 0 1 360.11 403.68)" class="st7 st8">tual machine</text>
	<text transform="matrix(1 0 0 1 304.91 498.48)" class="st7 st8">On-p</text>
	<text transform="matrix(1 0 0 1 343.24 498.48)" class="st7 st8">r</text>
	<text transform="matrix(1 0 0 1 349.4 498.48)" class="st7 st8">emises data </text>
	<text transform="matrix(1 0 0 1 445.72 498.48)" class="st7 st8">c</text>
	<text transform="matrix(1 0 0 1 454.1699 498.48)" class="st7 st8">en</text>
	<text transform="matrix(1 0 0 1 473.1599 498.48)" class="st7 st8">t</text>
	<text transform="matrix(1 0 0 1 479.0601 498.48)" class="st7 st8">er</text>
	<text transform="matrix(1 0 0 1 376.49 443.47)" class="st7 st8">Ho</text>
	<text transform="matrix(1 0 0 1 398.03 443.47)" class="st7 st8">s</text>
	<text transform="matrix(1 0 0 1 406.1899 443.47)" class="st7 st8">t 2</text>
	<text transform="matrix(1 0 0 1 535.01 444.4)" class="st7 st8">Ho</text>
	<text transform="matrix(1 0 0 1 556.55 444.4)" class="st7 st8">s</text>
	<text transform="matrix(1 0 0 1 564.71 444.4)" class="st7 st8">t 3</text>
	<text transform="matrix(1 0 0 1 348.3 350.28)" class="st7 st8">RHE</text>
	<text transform="matrix(1 0 0 1 381.11 350.28)" class="st7 st8">L</text>
	<text transform="matrix(1 0 0 1 390.05 350.28)" class="st7 st8">/RH</text>
	<text transform="matrix(1 0 0 1 419.46 350.28)" class="st7 st8">C</text>
	<text transform="matrix(1 0 0 1 429.8 350.28)" class="st7 st8">OS</text>
	<g>
		<path d="M518.3,291.4c-1.5,0-2.7-0.5-3.5-1.5s-1.3-2.5-1.3-4.5s0.4-3.5,1.3-4.6c0.8-1.1,2-1.6,3.5-1.6c1,0,1.8,0.2,2.5,0.7
			c0.7,0.4,1.2,1.1,1.6,1.9l-1.2,0.7c-0.2-0.6-0.6-1.1-1.1-1.5s-1.1-0.6-1.8-0.6c-0.5,0-1,0.1-1.4,0.3c-0.4,0.2-0.7,0.5-1,0.8
			c-0.3,0.4-0.5,0.8-0.6,1.3s-0.2,1-0.2,1.7v1.8c0,1.2,0.3,2.2,0.9,2.9s1.4,1,2.4,1c0.8,0,1.4-0.2,1.9-0.6s0.9-0.9,1.1-1.6l1.1,0.7
			c-0.4,0.8-0.9,1.5-1.6,2C520.1,291.1,519.3,291.4,518.3,291.4L518.3,291.4z"/>
		<path d="M527.8,291.4c-0.6,0-1.1-0.1-1.6-0.3s-0.9-0.5-1.2-0.9s-0.6-0.9-0.8-1.5s-0.3-1.2-0.3-1.9c0-0.7,0.1-1.3,0.3-1.9
			s0.5-1,0.8-1.5c0.4-0.4,0.8-0.7,1.2-0.9c0.5-0.2,1-0.3,1.6-0.3s1.1,0.1,1.6,0.3c0.5,0.2,0.9,0.5,1.2,0.9c0.4,0.4,0.6,0.9,0.8,1.5
			s0.3,1.2,0.3,1.9s-0.1,1.3-0.3,1.9s-0.5,1-0.8,1.5c-0.4,0.4-0.8,0.7-1.2,0.9S528.4,291.4,527.8,291.4z M527.8,290.2
			c0.7,0,1.3-0.2,1.8-0.7c0.5-0.4,0.7-1.1,0.7-2.1v-1.3c0-0.9-0.2-1.6-0.7-2.1s-1.1-0.7-1.8-0.7s-1.3,0.2-1.8,0.7s-0.7,1.1-0.7,2.1
			v1.3c0,0.9,0.2,1.6,0.7,2.1C526.5,289.9,527.1,290.2,527.8,290.2z"/>
		<path d="M534,291.2v-8.8h1.4v1.4h0.1c0.2-0.5,0.5-0.9,0.9-1.2c0.4-0.3,0.9-0.4,1.6-0.4c0.9,0,1.6,0.3,2.1,0.9s0.8,1.4,0.8,2.5v5.6
			h-1.4v-5.4c0-1.6-0.7-2.4-2-2.4c-0.3,0-0.5,0-0.8,0.1s-0.5,0.2-0.7,0.3c-0.2,0.1-0.4,0.3-0.5,0.5s-0.2,0.5-0.2,0.7v6.1L534,291.2
			L534,291.2z"/>
		<path d="M545.6,291.2c-0.5,0-0.8-0.1-1.1-0.4s-0.4-0.6-0.4-1v-6.1h-1.5v-1.2h0.8c0.3,0,0.5-0.1,0.6-0.2s0.2-0.3,0.2-0.6V280h1.2
			v2.4h1.9v1.2h-1.9v6.4h1.8v1.2H545.6L545.6,291.2z"/>
		<path d="M549.6,291.2v-8.8h1.4v1.6h0.1c0.2-0.4,0.4-0.8,0.9-1.1c0.4-0.3,1-0.5,1.7-0.5h0.5v1.4h-0.8c-0.7,0-1.3,0.1-1.7,0.4
			s-0.6,0.6-0.6,1.1v5.9H549.6L549.6,291.2z"/>
		<path d="M559.1,291.4c-0.6,0-1.1-0.1-1.6-0.3s-0.9-0.5-1.2-0.9s-0.6-0.9-0.8-1.5s-0.3-1.2-0.3-1.9c0-0.7,0.1-1.3,0.3-1.9
			s0.5-1,0.8-1.5c0.3-0.4,0.8-0.7,1.2-0.9c0.5-0.2,1-0.3,1.6-0.3s1.1,0.1,1.6,0.3c0.5,0.2,0.9,0.5,1.2,0.9s0.6,0.9,0.8,1.5
			s0.3,1.2,0.3,1.9s-0.1,1.3-0.3,1.9s-0.5,1-0.8,1.5c-0.3,0.4-0.8,0.7-1.2,0.9S559.7,291.4,559.1,291.4z M559.1,290.2
			c0.7,0,1.3-0.2,1.8-0.7c0.5-0.4,0.7-1.1,0.7-2.1v-1.3c0-0.9-0.2-1.6-0.7-2.1s-1.1-0.7-1.8-0.7s-1.3,0.2-1.8,0.7s-0.7,1.1-0.7,2.1
			v1.3c0,0.9,0.2,1.6,0.7,2.1C557.8,289.9,558.4,290.2,559.1,290.2z"/>
		<path d="M566.8,291.2c-0.5,0-0.8-0.1-1.1-0.4s-0.4-0.6-0.4-1v-11.2h1.4V290h1.3v1.2H566.8L566.8,291.2z"/>
		<path d="M574,282.4h1.4v1.4h0.1c0.2-0.5,0.6-1,1-1.2c0.4-0.3,1-0.4,1.6-0.4c0.5,0,1,0.1,1.5,0.3c0.4,0.2,0.8,0.5,1.1,0.9
			s0.5,0.9,0.7,1.5s0.2,1.2,0.2,1.9s-0.1,1.3-0.2,1.9c-0.2,0.6-0.4,1-0.7,1.5c-0.3,0.4-0.7,0.7-1.1,0.9c-0.4,0.2-0.9,0.3-1.5,0.3
			c-1.2,0-2-0.5-2.6-1.6h-0.1v4.8H574V282.4L574,282.4z M577.6,290.2c0.8,0,1.4-0.2,1.8-0.7c0.4-0.5,0.7-1.1,0.7-1.9V286
			c0-0.8-0.2-1.4-0.7-1.9c-0.4-0.5-1-0.7-1.8-0.7c-0.3,0-0.6,0-0.9,0.1c-0.3,0.1-0.5,0.2-0.7,0.3c-0.2,0.2-0.4,0.3-0.5,0.5
			s-0.2,0.4-0.2,0.7v3.3c0,0.3,0.1,0.5,0.2,0.8s0.3,0.4,0.5,0.6c0.2,0.1,0.5,0.3,0.7,0.4C577,290.1,577.3,290.2,577.6,290.2
			L577.6,290.2z"/>
		<path d="M585.2,291.2c-0.5,0-0.8-0.1-1.1-0.4s-0.4-0.6-0.4-1v-11.2h1.4V290h1.3v1.2H585.2L585.2,291.2z"/>
		<path d="M594.8,291.2c-0.5,0-0.9-0.1-1.1-0.4c-0.2-0.3-0.4-0.6-0.4-1h-0.1c-0.2,0.5-0.5,0.9-0.9,1.2c-0.4,0.3-1,0.4-1.6,0.4
			c-0.9,0-1.6-0.2-2.2-0.7c-0.5-0.5-0.8-1.1-0.8-1.9s0.3-1.5,0.9-1.9c0.6-0.4,1.5-0.7,2.8-0.7h1.7v-0.9c0-0.6-0.2-1.1-0.5-1.4
			s-0.9-0.5-1.6-0.5c-0.5,0-1,0.1-1.3,0.4s-0.6,0.6-0.9,1L588,284c0.2-0.5,0.6-0.9,1.1-1.2s1.2-0.5,2-0.5c1.1,0,1.9,0.3,2.5,0.8
			s0.9,1.2,0.9,2.2v4.8h1v1.2L594.8,291.2L594.8,291.2z M590.9,290.2c0.3,0,0.6,0,0.9-0.1c0.3-0.1,0.5-0.2,0.7-0.3
			c0.2-0.2,0.4-0.3,0.5-0.5s0.2-0.4,0.2-0.6v-1.5h-1.8c-0.8,0-1.3,0.1-1.7,0.3c-0.4,0.2-0.5,0.6-0.5,1v0.4c0,0.4,0.2,0.8,0.5,1
			C589.9,290.1,590.4,290.2,590.9,290.2L590.9,290.2z"/>
		<path d="M597.5,291.2v-8.8h1.4v1.4h0.1c0.2-0.5,0.5-0.9,0.9-1.2c0.4-0.3,0.9-0.4,1.6-0.4c0.9,0,1.6,0.3,2.1,0.9s0.8,1.4,0.8,2.5
			v5.6H603v-5.4c0-1.6-0.7-2.4-2-2.4c-0.3,0-0.5,0-0.8,0.1s-0.5,0.2-0.7,0.3c-0.2,0.1-0.4,0.3-0.5,0.5s-0.2,0.5-0.2,0.7v6.1
			L597.5,291.2L597.5,291.2z"/>
		<path d="M610.5,291.4c-0.6,0-1.1-0.1-1.6-0.3s-0.9-0.5-1.2-0.9s-0.6-0.9-0.8-1.5s-0.3-1.2-0.3-1.9c0-0.7,0.1-1.3,0.3-1.9
			s0.4-1,0.8-1.5c0.3-0.4,0.8-0.7,1.2-0.9c0.5-0.2,1-0.3,1.6-0.3s1.1,0.1,1.6,0.3c0.5,0.2,0.9,0.5,1.2,0.9s0.6,0.8,0.8,1.4
			s0.3,1.1,0.3,1.7v0.6H608v0.4c0,0.4,0.1,0.7,0.2,1.1c0.1,0.3,0.3,0.6,0.5,0.8c0.2,0.2,0.5,0.4,0.8,0.6s0.7,0.2,1.1,0.2
			c0.5,0,1-0.1,1.4-0.4s0.7-0.6,1-1.1l1,0.7c-0.3,0.6-0.7,1.1-1.3,1.5C612,291.2,611.3,291.4,610.5,291.4L610.5,291.4z M610.5,283.3
			c-0.4,0-0.7,0.1-1,0.2s-0.6,0.3-0.8,0.5s-0.4,0.5-0.5,0.8s-0.2,0.7-0.2,1.1v0.1h4.9v-0.2c0-0.8-0.2-1.4-0.6-1.9
			C611.7,283.6,611.2,283.3,610.5,283.3z"/>
		<path d="M518.6,302.8h1.3l0.9,3.8l0.9,3.8l0,0l1.1-3.8l1.1-3.8h1.2l1.1,3.8l1.1,3.8l0,0l0.9-3.8l0.9-3.8h1.3l-2.3,8.8h-1.7
			l-1.2-4.2l-0.8-2.7l0,0l-0.8,2.7l-1.2,4.2H521L518.6,302.8L518.6,302.8z"/>
		<path d="M535.8,311.8c-0.6,0-1.1-0.1-1.6-0.3s-0.9-0.5-1.2-0.9s-0.6-0.9-0.8-1.4c-0.2-0.6-0.3-1.2-0.3-1.9c0-0.7,0.1-1.3,0.3-1.9
			s0.5-1.1,0.8-1.4c0.4-0.4,0.8-0.7,1.2-0.9c0.5-0.2,1-0.3,1.6-0.3s1.1,0.1,1.6,0.3c0.5,0.2,0.9,0.5,1.2,0.9
			c0.4,0.4,0.6,0.9,0.8,1.4c0.2,0.6,0.3,1.2,0.3,1.9s-0.1,1.3-0.3,1.9s-0.5,1-0.8,1.4s-0.8,0.7-1.2,0.9
			C537,311.7,536.4,311.8,535.8,311.8z M535.8,310.6c0.7,0,1.3-0.2,1.8-0.7s0.7-1.1,0.7-2.1v-1.3c0-0.9-0.2-1.6-0.7-2.1
			s-1.1-0.7-1.8-0.7s-1.3,0.2-1.8,0.7s-0.7,1.1-0.7,2.1v1.3c0,0.9,0.2,1.6,0.7,2.1C534.5,310.3,535.1,310.6,535.8,310.6z"/>
		<path d="M542,311.6v-8.8h1.4v1.6h0.1c0.2-0.4,0.4-0.8,0.8-1.1c0.4-0.3,1-0.5,1.7-0.5h0.5v1.4h-0.8c-0.7,0-1.3,0.1-1.7,0.4
			s-0.6,0.6-0.6,1.1v5.9H542L542,311.6z"/>
		<path d="M548.3,299h1.4v8h0.1l1.3-1.5l2.5-2.7h1.6l-3.2,3.5l3.6,5.3h-1.7l-2.9-4.5l-1.3,1.3v3.1h-1.4L548.3,299L548.3,299z"/>
		<path d="M560.2,311.8c-0.6,0-1.1-0.1-1.6-0.3s-0.9-0.5-1.2-0.9s-0.6-0.9-0.8-1.4c-0.2-0.6-0.3-1.2-0.3-1.9c0-0.7,0.1-1.3,0.3-1.9
			s0.5-1.1,0.8-1.4c0.3-0.4,0.8-0.7,1.2-0.9c0.5-0.2,1-0.3,1.6-0.3s1.1,0.1,1.6,0.3c0.5,0.2,0.9,0.5,1.2,0.9s0.6,0.8,0.8,1.4
			c0.2,0.5,0.3,1.1,0.3,1.7v0.6h-6.3v0.4c0,0.4,0.1,0.7,0.2,1c0.1,0.3,0.3,0.6,0.5,0.8c0.2,0.2,0.5,0.4,0.8,0.6
			c0.3,0.1,0.7,0.2,1.1,0.2c0.5,0,1-0.1,1.5-0.4c0.4-0.3,0.7-0.6,1-1.1l1,0.7c-0.3,0.6-0.7,1.1-1.3,1.5S561.1,311.8,560.2,311.8
			L560.2,311.8z M560.2,303.7c-0.4,0-0.7,0.1-1,0.2s-0.6,0.3-0.8,0.6s-0.4,0.5-0.5,0.8s-0.2,0.7-0.2,1.1v0.1h4.9v-0.2
			c0-0.8-0.2-1.4-0.6-1.9C561.5,304,561,303.7,560.2,303.7z"/>
		<path d="M566.3,311.6v-8.8h1.4v1.6h0.1c0.2-0.4,0.4-0.8,0.8-1.1c0.4-0.3,1-0.5,1.7-0.5h0.5v1.4H570c-0.7,0-1.3,0.1-1.7,0.4
			s-0.6,0.6-0.6,1.1v5.9H566.3L566.3,311.6z"/>
		<path d="M576.5,311.6v-8.8h1.4v1.4h0.1c0.2-0.5,0.5-0.9,0.9-1.2s0.9-0.4,1.6-0.4c0.9,0,1.6,0.3,2.1,0.9s0.8,1.4,0.8,2.5v5.6H582
			v-5.4c0-1.6-0.7-2.4-2-2.4c-0.3,0-0.5,0-0.8,0.1s-0.5,0.2-0.7,0.3c-0.2,0.1-0.4,0.3-0.5,0.5s-0.2,0.5-0.2,0.7v6.1L576.5,311.6
			L576.5,311.6z"/>
		<path d="M589.5,311.8c-0.6,0-1.1-0.1-1.6-0.3s-0.9-0.5-1.2-0.9s-0.6-0.9-0.8-1.4c-0.2-0.6-0.3-1.2-0.3-1.9c0-0.7,0.1-1.3,0.3-1.9
			s0.5-1.1,0.8-1.4c0.3-0.4,0.8-0.7,1.2-0.9c0.5-0.2,1-0.3,1.6-0.3s1.1,0.1,1.6,0.3c0.5,0.2,0.9,0.5,1.2,0.9s0.6,0.9,0.8,1.4
			c0.2,0.6,0.3,1.2,0.3,1.9s-0.1,1.3-0.3,1.9s-0.5,1-0.8,1.4s-0.8,0.7-1.2,0.9S590.1,311.8,589.5,311.8z M589.5,310.6
			c0.7,0,1.3-0.2,1.8-0.7s0.7-1.1,0.7-2.1v-1.3c0-0.9-0.2-1.6-0.7-2.1s-1.1-0.7-1.8-0.7s-1.3,0.2-1.8,0.7s-0.7,1.1-0.7,2.1v1.3
			c0,0.9,0.2,1.6,0.7,2.1C588.2,310.3,588.8,310.6,589.5,310.6z"/>
		<path d="M601.3,310.2L601.3,310.2c-0.6,1.1-1.5,1.6-2.6,1.6c-0.5,0-1-0.1-1.5-0.3c-0.4-0.2-0.8-0.5-1.1-0.9s-0.5-0.9-0.7-1.5
			s-0.2-1.2-0.2-1.9c0-0.7,0.1-1.3,0.2-1.9c0.2-0.6,0.4-1,0.7-1.4s0.7-0.7,1.1-0.9c0.4-0.2,0.9-0.3,1.5-0.3s1.1,0.1,1.6,0.4
			c0.4,0.3,0.8,0.7,1,1.2h0.1V299h1.4v12.6h-1.4L601.3,310.2L601.3,310.2z M599.1,310.6c0.3,0,0.6,0,0.9-0.1
			c0.3-0.1,0.5-0.2,0.7-0.4c0.2-0.1,0.4-0.3,0.5-0.6c0.1-0.2,0.2-0.5,0.2-0.8v-3.3c0-0.2-0.1-0.5-0.2-0.7c-0.1-0.2-0.3-0.4-0.5-0.5
			s-0.4-0.3-0.7-0.4s-0.6-0.1-0.9-0.1c-0.8,0-1.4,0.2-1.8,0.7c-0.4,0.5-0.7,1.1-0.7,1.9v1.5c0,0.8,0.2,1.4,0.7,1.9
			C597.7,310.4,598.3,310.6,599.1,310.6L599.1,310.6z"/>
		<path d="M608.9,311.8c-0.6,0-1.1-0.1-1.6-0.3s-0.9-0.5-1.2-0.9s-0.6-0.9-0.8-1.4c-0.2-0.6-0.3-1.2-0.3-1.9c0-0.7,0.1-1.3,0.3-1.9
			s0.5-1.1,0.8-1.4c0.3-0.4,0.8-0.7,1.2-0.9c0.5-0.2,1-0.3,1.6-0.3s1.1,0.1,1.6,0.3c0.5,0.2,0.9,0.5,1.2,0.9s0.6,0.8,0.8,1.4
			c0.2,0.5,0.3,1.1,0.3,1.7v0.6h-6.3v0.4c0,0.4,0.1,0.7,0.2,1c0.1,0.3,0.3,0.6,0.5,0.8c0.2,0.2,0.5,0.4,0.8,0.6
			c0.3,0.1,0.7,0.2,1.1,0.2c0.5,0,1-0.1,1.5-0.4c0.4-0.3,0.7-0.6,1-1.1l1,0.7c-0.3,0.6-0.7,1.1-1.3,1.5S609.7,311.8,608.9,311.8
			L608.9,311.8z M608.9,303.7c-0.4,0-0.7,0.1-1,0.2s-0.6,0.3-0.8,0.6s-0.4,0.5-0.5,0.8s-0.2,0.7-0.2,1.1v0.1h4.9v-0.2
			c0-0.8-0.2-1.4-0.6-1.9C610.1,304,609.6,303.7,608.9,303.7z"/>
	</g>
	<text transform="matrix(1 0 0 1 512.13 382.63)" class="st7 st8">Ba</text>
	<text transform="matrix(1 0 0 1 532.3101 382.63)" class="st7 st8">r</text>
	<text transform="matrix(1 0 0 1 538.46 382.63)" class="st7 st8">e metal or </text>
	<text transform="matrix(1 0 0 1 504.96 403.03)" class="st7 st8">vi</text>
	<text transform="matrix(1 0 0 1 517.5801 403.03)" class="st7 st8">r</text>
	<text transform="matrix(1 0 0 1 523.89 403.03)" class="st7 st8">tual machine</text>
	<text transform="matrix(1 0 0 1 512.0701 349.63)" class="st7 st8">RHE</text>
	<text transform="matrix(1 0 0 1 544.88 349.63)" class="st7 st8">L</text>
	<text transform="matrix(1 0 0 1 553.8201 349.63)" class="st7 st8">/RH</text>
	<text transform="matrix(1 0 0 1 583.23 349.63)" class="st7 st8">C</text>
	<text transform="matrix(1 0 0 1 593.5701 349.63)" class="st7 st8">OS</text>
	<g>
		<path d="M190.3,292.4c-1.5,0-2.7-0.5-3.5-1.5s-1.3-2.5-1.3-4.5s0.4-3.5,1.3-4.6s2-1.6,3.5-1.6c1,0,1.8,0.2,2.5,0.7
			c0.7,0.4,1.2,1.1,1.6,1.9l-1.2,0.7c-0.2-0.6-0.6-1.1-1.1-1.5s-1.1-0.6-1.8-0.6c-0.5,0-1,0.1-1.4,0.3s-0.7,0.5-1,0.8
			c-0.3,0.4-0.5,0.8-0.6,1.3s-0.2,1-0.2,1.7v1.8c0,1.2,0.3,2.2,0.9,2.9c0.6,0.7,1.4,1,2.4,1c0.8,0,1.4-0.2,1.9-0.6s0.9-0.9,1.1-1.6
			l1.1,0.7c-0.4,0.8-0.9,1.5-1.6,2C192.1,292.1,191.2,292.4,190.3,292.4L190.3,292.4z"/>
		<path d="M199.8,292.4c-0.6,0-1.1-0.1-1.6-0.3s-0.9-0.5-1.2-0.9s-0.6-0.9-0.8-1.5c-0.2-0.6-0.3-1.2-0.3-1.9c0-0.7,0.1-1.3,0.3-1.9
			s0.5-1,0.8-1.5c0.4-0.4,0.8-0.7,1.2-0.9c0.5-0.2,1-0.3,1.6-0.3s1.1,0.1,1.6,0.3c0.5,0.2,0.9,0.5,1.2,0.9c0.3,0.4,0.6,0.9,0.8,1.5
			c0.2,0.6,0.3,1.2,0.3,1.9s-0.1,1.3-0.3,1.9c-0.2,0.6-0.5,1-0.8,1.5c-0.4,0.4-0.8,0.7-1.2,0.9C200.9,292.3,200.4,292.4,199.8,292.4
			z M199.8,291.2c0.7,0,1.3-0.2,1.8-0.7c0.5-0.4,0.7-1.1,0.7-2.1v-1.3c0-0.9-0.2-1.6-0.7-2.1s-1.1-0.7-1.8-0.7
			c-0.7,0-1.3,0.2-1.8,0.7c-0.5,0.4-0.7,1.1-0.7,2.1v1.3c0,0.9,0.2,1.6,0.7,2.1C198.5,290.9,199.1,291.2,199.8,291.2z"/>
		<path d="M206,292.2v-8.8h1.4v1.4h0.1c0.2-0.5,0.5-0.9,0.9-1.2c0.4-0.3,0.9-0.4,1.6-0.4c0.9,0,1.6,0.3,2.2,0.9
			c0.5,0.6,0.8,1.4,0.8,2.5v5.6h-1.4v-5.4c0-1.6-0.7-2.4-2-2.4c-0.3,0-0.5,0-0.8,0.1s-0.5,0.2-0.7,0.3c-0.2,0.1-0.4,0.3-0.5,0.5
			s-0.2,0.5-0.2,0.7v6.1L206,292.2L206,292.2z"/>
		<path d="M217.6,292.2c-0.5,0-0.8-0.1-1.1-0.4c-0.2-0.3-0.4-0.6-0.4-1v-6.1h-1.5v-1.2h0.8c0.3,0,0.5-0.1,0.6-0.2s0.2-0.3,0.2-0.6
			V281h1.2v2.4h1.9v1.2h-1.9v6.4h1.8v1.2H217.6L217.6,292.2z"/>
		<path d="M221.6,292.2v-8.8h1.4v1.6h0.1c0.2-0.4,0.4-0.8,0.8-1.1c0.4-0.3,1-0.5,1.7-0.5h0.5v1.4h-0.8c-0.7,0-1.3,0.1-1.7,0.4
			c-0.4,0.3-0.6,0.6-0.6,1.1v5.9H221.6L221.6,292.2z"/>
		<path d="M231.1,292.4c-0.6,0-1.1-0.1-1.6-0.3c-0.5-0.2-0.9-0.5-1.2-0.9c-0.3-0.4-0.6-0.9-0.8-1.5c-0.2-0.6-0.3-1.2-0.3-1.9
			c0-0.7,0.1-1.3,0.3-1.9s0.5-1,0.8-1.5c0.4-0.4,0.8-0.7,1.2-0.9c0.5-0.2,1-0.3,1.6-0.3s1.1,0.1,1.6,0.3c0.5,0.2,0.9,0.5,1.2,0.9
			c0.4,0.4,0.6,0.9,0.8,1.5c0.2,0.6,0.3,1.2,0.3,1.9s-0.1,1.3-0.3,1.9c-0.2,0.6-0.5,1-0.8,1.5c-0.4,0.4-0.8,0.7-1.2,0.9
			S231.7,292.4,231.1,292.4z M231.1,291.2c0.7,0,1.3-0.2,1.8-0.7c0.5-0.4,0.7-1.1,0.7-2.1v-1.3c0-0.9-0.2-1.6-0.7-2.1
			s-1.1-0.7-1.8-0.7c-0.7,0-1.3,0.2-1.8,0.7s-0.7,1.1-0.7,2.1v1.3c0,0.9,0.2,1.6,0.7,2.1C229.8,290.9,230.4,291.2,231.1,291.2z"/>
		<path d="M238.8,292.2c-0.5,0-0.8-0.1-1.1-0.4c-0.2-0.3-0.4-0.6-0.4-1v-11.2h1.4V291h1.3v1.2H238.8L238.8,292.2z"/>
		<path d="M246,283.4h1.4v1.4h0.1c0.2-0.5,0.6-1,1-1.2c0.4-0.3,1-0.4,1.6-0.4c0.5,0,1,0.1,1.5,0.3c0.4,0.2,0.8,0.5,1.1,0.9
			c0.3,0.4,0.6,0.9,0.7,1.5c0.2,0.6,0.2,1.2,0.2,1.9s-0.1,1.3-0.2,1.9c-0.2,0.6-0.4,1-0.7,1.5c-0.3,0.4-0.7,0.7-1.1,0.9
			c-0.4,0.2-0.9,0.3-1.5,0.3c-1.2,0-2.1-0.5-2.6-1.6h-0.1v4.8H246V283.4L246,283.4z M249.6,291.2c0.8,0,1.4-0.2,1.8-0.7
			s0.7-1.1,0.7-1.9V287c0-0.8-0.2-1.4-0.7-1.9c-0.4-0.5-1.1-0.7-1.8-0.7c-0.3,0-0.6,0-0.9,0.1s-0.5,0.2-0.7,0.3
			c-0.2,0.2-0.4,0.3-0.5,0.5s-0.2,0.4-0.2,0.7v3.3c0,0.3,0.1,0.5,0.2,0.8s0.3,0.4,0.5,0.6c0.2,0.1,0.4,0.3,0.7,0.4
			C249,291.1,249.3,291.2,249.6,291.2L249.6,291.2z"/>
		<path d="M257.2,292.2c-0.5,0-0.8-0.1-1.1-0.4c-0.2-0.3-0.4-0.6-0.4-1v-11.2h1.4V291h1.3v1.2H257.2L257.2,292.2z"/>
		<path d="M266.8,292.2c-0.5,0-0.9-0.1-1.1-0.4s-0.4-0.6-0.4-1h-0.1c-0.2,0.5-0.5,0.9-0.9,1.2c-0.4,0.3-1,0.4-1.6,0.4
			c-0.9,0-1.6-0.2-2.2-0.7c-0.5-0.5-0.8-1.1-0.8-1.9s0.3-1.5,0.9-1.9s1.5-0.7,2.8-0.7h1.7v-0.9c0-0.6-0.2-1.1-0.5-1.4
			s-0.9-0.5-1.6-0.5c-0.5,0-1,0.1-1.3,0.4c-0.3,0.2-0.6,0.6-0.9,1L260,285c0.2-0.5,0.6-0.9,1.1-1.2s1.2-0.5,2-0.5
			c1.1,0,1.9,0.3,2.5,0.8s0.9,1.2,0.9,2.2v4.8h1v1.2L266.8,292.2L266.8,292.2z M262.9,291.2c0.3,0,0.6,0,0.9-0.1s0.5-0.2,0.7-0.3
			c0.2-0.2,0.4-0.3,0.5-0.5s0.2-0.4,0.2-0.6v-1.5h-1.8c-0.8,0-1.4,0.1-1.7,0.3c-0.4,0.2-0.5,0.6-0.5,1v0.4c0,0.4,0.2,0.8,0.5,1
			C261.9,291.1,262.4,291.2,262.9,291.2L262.9,291.2z"/>
		<path d="M269.5,292.2v-8.8h1.4v1.4h0.1c0.2-0.5,0.5-0.9,0.9-1.2c0.4-0.3,0.9-0.4,1.6-0.4c0.9,0,1.6,0.3,2.1,0.9s0.8,1.4,0.8,2.5
			v5.6H275v-5.4c0-1.6-0.7-2.4-2-2.4c-0.3,0-0.5,0-0.8,0.1s-0.5,0.2-0.7,0.3c-0.2,0.1-0.4,0.3-0.5,0.5s-0.2,0.5-0.2,0.7v6.1
			L269.5,292.2L269.5,292.2z"/>
		<path d="M282.5,292.4c-0.6,0-1.1-0.1-1.6-0.3s-0.9-0.5-1.2-0.9c-0.3-0.4-0.6-0.9-0.8-1.5c-0.2-0.6-0.3-1.2-0.3-1.9
			c0-0.7,0.1-1.3,0.3-1.9s0.5-1,0.8-1.5c0.3-0.4,0.8-0.7,1.2-0.9c0.5-0.2,1-0.3,1.6-0.3s1.1,0.1,1.6,0.3c0.5,0.2,0.9,0.5,1.2,0.9
			c0.3,0.4,0.6,0.8,0.8,1.4s0.3,1.1,0.3,1.7v0.6H280v0.4c0,0.4,0.1,0.7,0.2,1.1c0.1,0.3,0.3,0.6,0.5,0.8c0.2,0.2,0.5,0.4,0.8,0.6
			s0.7,0.2,1.1,0.2c0.5,0,1-0.1,1.5-0.4c0.4-0.3,0.7-0.6,1-1.1l1,0.7c-0.3,0.6-0.7,1.1-1.3,1.5C284,292.2,283.3,292.4,282.5,292.4
			L282.5,292.4z M282.5,284.3c-0.4,0-0.7,0.1-1,0.2s-0.6,0.3-0.8,0.5s-0.4,0.5-0.5,0.8s-0.2,0.7-0.2,1.1v0.1h4.8v-0.2
			c0-0.8-0.2-1.4-0.6-1.9C283.7,284.6,283.2,284.3,282.5,284.3z"/>
		<path d="M190.6,303.8h1.3l0.9,3.8l0.9,3.8l0,0l1.1-3.8l1.1-3.8h1.2l1.1,3.8l1.1,3.8l0,0l0.9-3.8l1-3.8h1.3l-2.3,8.8h-1.7l-1.2-4.2
			l-0.8-2.7l0,0l-0.8,2.7l-1.2,4.2H193L190.6,303.8L190.6,303.8z"/>
		<path d="M207.8,312.8c-0.6,0-1.1-0.1-1.6-0.3s-0.9-0.5-1.2-0.9s-0.6-0.9-0.8-1.4c-0.2-0.6-0.3-1.2-0.3-1.9c0-0.7,0.1-1.3,0.3-1.9
			c0.2-0.6,0.5-1.1,0.8-1.4c0.4-0.4,0.8-0.7,1.2-0.9c0.5-0.2,1-0.3,1.6-0.3s1.1,0.1,1.6,0.3c0.5,0.2,0.9,0.5,1.2,0.9
			c0.3,0.4,0.6,0.9,0.8,1.4c0.2,0.6,0.3,1.2,0.3,1.9s-0.1,1.3-0.3,1.9c-0.2,0.6-0.5,1-0.8,1.4c-0.4,0.4-0.8,0.7-1.2,0.9
			C209,312.7,208.4,312.8,207.8,312.8z M207.8,311.6c0.7,0,1.3-0.2,1.8-0.7s0.7-1.1,0.7-2.1v-1.3c0-0.9-0.2-1.6-0.7-2.1
			s-1.1-0.7-1.8-0.7s-1.3,0.2-1.8,0.7s-0.7,1.1-0.7,2.1v1.3c0,0.9,0.2,1.6,0.7,2.1C206.5,311.3,207.1,311.6,207.8,311.6z"/>
		<path d="M214,312.6v-8.8h1.4v1.6h0.1c0.2-0.4,0.4-0.8,0.9-1.1c0.4-0.3,1-0.5,1.7-0.5h0.5v1.4h-0.8c-0.7,0-1.3,0.1-1.7,0.4
			c-0.4,0.3-0.6,0.6-0.6,1.1v5.9H214L214,312.6z"/>
		<path d="M220.3,300h1.4v8h0.1l1.3-1.5l2.5-2.7h1.6l-3.2,3.5l3.6,5.3H226l-2.9-4.5l-1.3,1.3v3.1h-1.4L220.3,300L220.3,300z"/>
		<path d="M232.2,312.8c-0.6,0-1.1-0.1-1.6-0.3s-0.9-0.5-1.2-0.9c-0.4-0.4-0.6-0.9-0.8-1.4c-0.2-0.6-0.3-1.2-0.3-1.9
			c0-0.7,0.1-1.3,0.3-1.9c0.2-0.6,0.4-1.1,0.8-1.4c0.3-0.4,0.8-0.7,1.2-0.9c0.5-0.2,1-0.3,1.6-0.3s1.1,0.1,1.6,0.3
			c0.5,0.2,0.9,0.5,1.2,0.9c0.3,0.4,0.6,0.8,0.8,1.4c0.2,0.5,0.3,1.1,0.3,1.7v0.6h-6.3v0.4c0,0.4,0.1,0.7,0.2,1s0.3,0.6,0.5,0.8
			s0.5,0.4,0.8,0.6c0.3,0.1,0.7,0.2,1.1,0.2c0.5,0,1-0.1,1.4-0.4s0.7-0.6,1-1.1l1,0.7c-0.3,0.6-0.7,1.1-1.3,1.5
			C233.8,312.6,233.1,312.8,232.2,312.8L232.2,312.8z M232.2,304.7c-0.4,0-0.7,0.1-1,0.2s-0.6,0.3-0.8,0.6s-0.4,0.5-0.5,0.8
			s-0.2,0.7-0.2,1.1v0.1h4.9v-0.2c0-0.8-0.2-1.4-0.6-1.9C233.5,305,233,304.7,232.2,304.7z"/>
		<path d="M238.3,312.6v-8.8h1.4v1.6h0.1c0.2-0.4,0.4-0.8,0.9-1.1s1-0.5,1.7-0.5h0.5v1.4H242c-0.7,0-1.3,0.1-1.7,0.4
			c-0.4,0.3-0.6,0.6-0.6,1.1v5.9H238.3L238.3,312.6z"/>
		<path d="M248.5,312.6v-8.8h1.4v1.4h0.1c0.2-0.5,0.5-0.9,0.9-1.2s0.9-0.4,1.6-0.4c0.9,0,1.6,0.3,2.1,0.9s0.8,1.4,0.8,2.5v5.6H254
			v-5.4c0-1.6-0.7-2.4-2-2.4c-0.3,0-0.5,0-0.8,0.1s-0.5,0.2-0.7,0.3c-0.2,0.1-0.4,0.3-0.5,0.5s-0.2,0.5-0.2,0.7v6.1L248.5,312.6
			L248.5,312.6z"/>
		<path d="M261.5,312.8c-0.6,0-1.1-0.1-1.6-0.3s-0.9-0.5-1.2-0.9c-0.4-0.4-0.6-0.9-0.8-1.4c-0.2-0.6-0.3-1.2-0.3-1.9
			c0-0.7,0.1-1.3,0.3-1.9c0.2-0.6,0.5-1.1,0.8-1.4c0.3-0.4,0.8-0.7,1.2-0.9c0.5-0.2,1-0.3,1.6-0.3s1.1,0.1,1.6,0.3
			c0.5,0.2,0.9,0.5,1.2,0.9c0.4,0.4,0.6,0.9,0.8,1.4c0.2,0.6,0.3,1.2,0.3,1.9s-0.1,1.3-0.3,1.9c-0.2,0.6-0.5,1-0.8,1.4
			s-0.8,0.7-1.2,0.9C262.6,312.7,262.1,312.8,261.5,312.8z M261.5,311.6c0.7,0,1.3-0.2,1.8-0.7s0.7-1.1,0.7-2.1v-1.3
			c0-0.9-0.2-1.6-0.7-2.1s-1.1-0.7-1.8-0.7c-0.7,0-1.3,0.2-1.8,0.7s-0.7,1.1-0.7,2.1v1.3c0,0.9,0.2,1.6,0.7,2.1
			C260.2,311.3,260.8,311.6,261.5,311.6z"/>
		<path d="M273.3,311.2L273.3,311.2c-0.6,1.1-1.5,1.6-2.6,1.6c-0.5,0-1-0.1-1.5-0.3c-0.4-0.2-0.8-0.5-1.1-0.9s-0.6-0.9-0.7-1.5
			c-0.2-0.6-0.2-1.2-0.2-1.9c0-0.7,0.1-1.3,0.2-1.9c0.2-0.6,0.4-1,0.7-1.4s0.7-0.7,1.1-0.9c0.4-0.2,0.9-0.3,1.5-0.3s1.1,0.1,1.6,0.4
			c0.4,0.3,0.8,0.7,1,1.2h0.1V300h1.4v12.6h-1.4v-1.4H273.3z M271.1,311.6c0.3,0,0.6,0,0.9-0.1s0.5-0.2,0.7-0.4
			c0.2-0.1,0.4-0.3,0.5-0.6c0.1-0.2,0.2-0.5,0.2-0.8v-3.3c0-0.2-0.1-0.5-0.2-0.7s-0.3-0.4-0.5-0.5s-0.4-0.3-0.7-0.4
			c-0.3-0.1-0.6-0.1-0.9-0.1c-0.8,0-1.4,0.2-1.8,0.7s-0.7,1.1-0.7,1.9v1.5c0,0.8,0.2,1.4,0.7,1.9
			C269.7,311.4,270.3,311.6,271.1,311.6L271.1,311.6z"/>
		<path d="M280.9,312.8c-0.6,0-1.1-0.1-1.6-0.3s-0.9-0.5-1.2-0.9c-0.4-0.4-0.6-0.9-0.8-1.4c-0.2-0.6-0.3-1.2-0.3-1.9
			c0-0.7,0.1-1.3,0.3-1.9c0.2-0.6,0.4-1.1,0.8-1.4c0.3-0.4,0.8-0.7,1.2-0.9c0.5-0.2,1-0.3,1.6-0.3s1.1,0.1,1.6,0.3
			c0.5,0.2,0.9,0.5,1.2,0.9c0.3,0.4,0.6,0.8,0.8,1.4s0.3,1.1,0.3,1.7v0.6h-6.3v0.4c0,0.4,0.1,0.7,0.2,1s0.3,0.6,0.5,0.8
			s0.5,0.4,0.8,0.6s0.7,0.2,1.1,0.2c0.6,0,1-0.1,1.4-0.4s0.7-0.6,1-1.1l1,0.7c-0.3,0.6-0.7,1.1-1.3,1.5
			C282.4,312.6,281.7,312.8,280.9,312.8L280.9,312.8z M280.9,304.7c-0.4,0-0.7,0.1-1,0.2s-0.6,0.3-0.8,0.6s-0.4,0.5-0.5,0.8
			s-0.2,0.7-0.2,1.1v0.1h4.9v-0.2c0-0.8-0.2-1.4-0.6-1.9C282.1,305,281.6,304.7,280.9,304.7z"/>
	</g>
	<text transform="matrix(1 0 0 1 184.13 383.63)" class="st7 st8">Ba</text>
	<text transform="matrix(1 0 0 1 204.3101 383.63)" class="st7 st8">r</text>
	<text transform="matrix(1 0 0 1 210.46 383.63)" class="st7 st8">e metal or </text>
	<text transform="matrix(1 0 0 1 176.96 404.03)" class="st7 st8">vi</text>
	<text transform="matrix(1 0 0 1 189.5801 404.03)" class="st7 st8">r</text>
	<text transform="matrix(1 0 0 1 195.89 404.03)" class="st7 st8">tual machine</text>
	<text transform="matrix(1 0 0 1 184.0701 350.63)" class="st7 st8">RHE</text>
	<text transform="matrix(1 0 0 1 216.88 350.63)" class="st7 st8">L</text>
	<text transform="matrix(1 0 0 1 225.8201 350.63)" class="st7 st8">/RH</text>
	<text transform="matrix(1 0 0 1 255.23 350.63)" class="st7 st8">C</text>
	<text transform="matrix(1 0 0 1 265.5701 350.63)" class="st7 st8">OS</text>
	<text transform="matrix(1 0 0 1 210.5601 442.73)" class="st7 st8">Ho</text>
	<text transform="matrix(1 0 0 1 232.1 442.73)" class="st7 st8">s</text>
	<text transform="matrix(1 0 0 1 240.26 442.73)" class="st7 st8">t 1</text>
	<text transform="matrix(1 0 0 1 282.5701 119.3199)" class="st7 st8">Sa</text>
	<text transform="matrix(1 0 0 1 301.53 119.3199)" class="st7 st8">t</text>
	<text transform="matrix(1 0 0 1 307.42 119.3199)" class="st7 st8">e</text>
	<text transform="matrix(1 0 0 1 316.76 119.3199)" class="st7 st8">l</text>
	<text transform="matrix(1 0 0 1 321.3 119.3199)" class="st7 st8">li</text>
	<text transform="matrix(1 0 0 1 330.17 119.3199)" class="st7 st8">t</text>
	<text transform="matrix(1 0 0 1 336.0701 119.3199)" class="st7 st8">e </text>
	<text transform="matrix(1 0 0 1 349.41 119.3199)" class="st7 st8">c</text>
	<text transform="matrix(1 0 0 1 357.86 119.3199)" class="st7 st8">ont</text>
	<text transform="matrix(1 0 0 1 383.01 119.3199)" class="st7 st8">r</text>
	<text transform="matrix(1 0 0 1 389.16 119.3199)" class="st7 st8">ol plane ma</text>
	<text transform="matrix(1 0 0 1 477.8 119.3199)" class="st7 st8">s</text>
	<text transform="matrix(1 0 0 1 485.96 119.3199)" class="st7 st8">t</text>
	<text transform="matrix(1 0 0 1 491.86 119.3199)" class="st7 st8">er</text>
</g>
</svg>
