<svg xmlns="http://www.w3.org/2000/svg" viewBox="0 0 581.44 855"><defs><style>.cls-1{fill:#d2e0f3;}.cls-12,.cls-15,.cls-2,.cls-9{fill:#010101;}.cls-3,.cls-4{fill:none;}.cls-4,.cls-8{stroke:#d2e0f3;stroke-miterlimit:10;}.cls-4{stroke-width:6px;stroke-dasharray:12.04 12.04;}.cls-5{fill:#f4f4f5;}.cls-6{fill:#e6d9eb;}.cls-7,.cls-8{fill:#fff;}.cls-8{stroke-width:4px;}.cls-12,.cls-9{font-size:21px;font-family:IBMPlexSans, IBM Plex Sans;}.cls-9{letter-spacing:-0.02em;}.cls-10{letter-spacing:0em;}.cls-11{letter-spacing:0em;}.cls-13{letter-spacing:-0.01em;}.cls-14{letter-spacing:0em;}.cls-15{font-size:24px;font-family:IBMPlexSans-Bold, IBM Plex Sans;font-weight:700;}.cls-16{letter-spacing:-0.05em;}.cls-17{letter-spacing:-0.06em;}.cls-18{letter-spacing:0em;}.cls-19{letter-spacing:0em;}.cls-20{letter-spacing:-0.02em;}.cls-21{letter-spacing:-0.01em;}.cls-22{letter-spacing:-0.03em;}.cls-23{letter-spacing:-0.01em;}.cls-24{letter-spacing:-0.01em;}.cls-25{letter-spacing:-0.01em;}.cls-26{letter-spacing:-0.01em;}.cls-27{letter-spacing:0em;}</style></defs><g id="Layer_1" data-name="Layer 1"><rect class="cls-1" x="148.96" y="483.37" width="50" height="80"/><rect class="cls-1" x="268.96" y="483.37" width="50" height="80"/><rect class="cls-1" x="508.96" y="483.37" width="50" height="80"/><rect class="cls-1" x="388.96" y="483.37" width="50" height="80"/><g id="data--base"><path class="cls-2" d="M197,537.12H181a2,2,0,0,0-2,2v22a2,2,0,0,0,2,2h16a2,2,0,0,0,2-2v-22A2,2,0,0,0,197,537.12Zm0,2v6H181v-6Zm-16,14v-6h16v6Zm0,8v-6h16v6Z" transform="translate(-16.06 -12)"/><circle class="cls-2" cx="167.53" cy="529.92" r="1"/><circle class="cls-2" cx="167.53" cy="537.92" r="1"/><circle class="cls-2" cx="167.53" cy="545.92" r="1"/><rect id="_Transparent_Rectangle_" data-name=" Transparent Rectangle " class="cls-3" x="156.96" y="522.12" width="32" height="32"/></g><g id="data--base-2" data-name="data--base"><path class="cls-2" d="M316,537.24H300a2,2,0,0,0-2,2v22a2,2,0,0,0,2,2h16a2,2,0,0,0,2-2v-22A2,2,0,0,0,316,537.24Zm0,2v6H300v-6Zm-16,14v-6h16v6Zm0,8v-6h16v6Z" transform="translate(-16.06 -12)"/><circle class="cls-2" cx="286.53" cy="530.05" r="1"/><circle class="cls-2" cx="286.53" cy="538.05" r="1"/><circle class="cls-2" cx="286.53" cy="546.05" r="1"/><rect id="_Transparent_Rectangle_2" data-name=" Transparent Rectangle " class="cls-3" x="275.96" y="522.24" width="32" height="32"/></g><g id="data--base-3" data-name="data--base"><path class="cls-2" d="M437,536.87H421a2,2,0,0,0-2,2v22a2,2,0,0,0,2,2h16a2,2,0,0,0,2-2v-22A2,2,0,0,0,437,536.87Zm0,2v6H421v-6Zm-16,14v-6h16v6Zm0,8v-6h16v6Z" transform="translate(-16.06 -12)"/><circle class="cls-2" cx="407.53" cy="529.67" r="1"/><circle class="cls-2" cx="407.53" cy="537.67" r="1"/><circle class="cls-2" cx="407.53" cy="545.67" r="1"/><rect id="_Transparent_Rectangle_3" data-name=" Transparent Rectangle " class="cls-3" x="396.96" y="521.87" width="32" height="32"/></g><g id="data--base-4" data-name="data--base"><path class="cls-2" d="M556,537.62H540a2,2,0,0,0-2,2v22a2,2,0,0,0,2,2h16a2,2,0,0,0,2-2v-22A2,2,0,0,0,556,537.62Zm0,2v6H540v-6Zm-16,14v-6h16v6Zm0,8v-6h16v6Z" transform="translate(-16.06 -12)"/><circle class="cls-2" cx="526.53" cy="530.42" r="1"/><circle class="cls-2" cx="526.53" cy="538.42" r="1"/><circle class="cls-2" cx="526.53" cy="546.42" r="1"/><rect id="_Transparent_Rectangle_4" data-name=" Transparent Rectangle " class="cls-3" x="515.96" y="522.62" width="32" height="32"/></g><rect class="cls-1" x="115.44" y="75" width="50" height="80"/><rect class="cls-1" x="235.44" y="75" width="50" height="80"/><rect class="cls-1" x="475.44" y="75" width="50" height="80"/><rect class="cls-1" x="355.44" y="75" width="50" height="80"/><rect class="cls-4" x="65.44" y="16" width="513" height="716" rx="15"/><rect class="cls-5" x="74.3" y="732" width="145" height="74"/><rect class="cls-5" x="246.63" y="732" width="145" height="74"/><rect class="cls-5" x="421.36" y="732" width="145" height="74"/><rect class="cls-6" x="65.44" y="801.92" width="513" height="53.08" rx="19.96"/><rect class="cls-7" x="91.44" width="294" height="43"/><g id="data--base-5" data-name="data--base"><path class="cls-2" d="M163.5,128.31h-16a2,2,0,0,0-2,2v22a2,2,0,0,0,2,2h16a2,2,0,0,0,2-2v-22A2,2,0,0,0,163.5,128.31Zm0,2v6h-16v-6Zm-16,14v-6h16v6Zm0,8v-6h16v6Z" transform="translate(-16.06 -12)"/><circle class="cls-2" cx="134.02" cy="121.12" r="1"/><circle class="cls-2" cx="134.02" cy="129.12" r="1"/><circle class="cls-2" cx="134.02" cy="137.12" r="1"/><rect id="_Transparent_Rectangle_5" data-name=" Transparent Rectangle " class="cls-3" x="123.44" y="113.31" width="32" height="32"/></g><rect class="cls-8" x="79.44" y="45" width="487" height="58" rx="15"/><text x="-16.06" y="-12"/><g id="temperature--frigid"><polygon class="cls-2" points="330.29 756.89 324.85 753 330.29 749.11 332.81 749.95 333.44 748.05 331.13 747.28 331.13 745 329.13 745 329.13 747.49 324.13 751.06 324.13 745.23 326.68 743.52 325.57 741.86 323.13 743.49 320.68 741.86 319.57 743.52 322.13 745.23 322.13 750.92 319.13 748.77 319.13 751.23 321.41 752.86 319.13 754.49 319.13 756.95 322.13 754.8 322.13 761.56 325.57 763.86 326.68 762.2 324.13 760.49 324.13 754.8 329.13 758.38 329.13 761 331.13 761 331.13 758.72 333.44 757.95 332.81 756.05 330.29 756.89"/><path class="cls-2" d="M331.31,775a3,3,0,0,1-6,0Z" transform="translate(-16.06 -12)"/><path class="cls-2" d="M332.18,769.12V758a4.11,4.11,0,0,0-3.17-4.07,4,4,0,0,0-4.83,3.92v11.26A7,7,0,0,0,322.5,779a7.09,7.09,0,0,0,9.6,1.72,7,7,0,0,0,1.83-9.8A7.27,7.27,0,0,0,332.18,769.12Zm-4,10.74a5.08,5.08,0,0,1-4.16-7.92,3,3,0,0,1,1.07-1.06l1.09-.63V757.37a1.12,1.12,0,0,1,.33-.81c1.7-1.51,3.67-.34,3.67,1.3v12.39l1.41.81a2.81,2.81,0,0,1,1.25,1.49C334.24,776.7,331.44,779.86,328.18,779.86Z" transform="translate(-16.06 -12)"/><rect id="_Transparent_Rectangle_6" data-name=" Transparent Rectangle " class="cls-3" x="303.13" y="740" width="32" height="32"/></g><g id="connection-signal"><rect class="cls-2" x="492.86" y="753" width="2" height="18"/><path class="cls-2" d="M504.93,771a7,7,0,0,1-.56-9.88,5.92,5.92,0,0,1,.56-.56l1.34,1.49a5,5,0,0,0,0,7.46Z" transform="translate(-16.06 -12)"/><path class="cls-2" d="M514.27,771l-1.34-1.49a5,5,0,0,0,.4-7.06c-.13-.14-.26-.27-.4-.4l1.34-1.49a7,7,0,0,1,.55,9.88A5.83,5.83,0,0,1,514.27,771Z" transform="translate(-16.06 -12)"/><path class="cls-2" d="M502,774.54a11,11,0,0,1,0-17.6l1.2,1.6a9,9,0,0,0,0,14.4Z" transform="translate(-16.06 -12)"/><path class="cls-2" d="M517.2,774.54l-1.2-1.6a9,9,0,0,0,0-14.4l1.2-1.6a11,11,0,0,1,2.2,15.4A11.46,11.46,0,0,1,517.2,774.54Z" transform="translate(-16.06 -12)"/><rect id="_Transparent_Rectangle_7" data-name=" Transparent Rectangle " class="cls-3" x="477.86" y="741" width="32" height="32"/></g><g id="power"><path class="cls-2" d="M169.13,757.6l-1,1.73a11,11,0,1,1-15,4,11.12,11.12,0,0,1,4-4l-1-1.73a13,13,0,1,0,13,0Z" transform="translate(-16.06 -12)"/><rect class="cls-2" x="145.8" y="742" width="2" height="14"/><rect id="_Transparent_Rectangle_8" data-name=" Transparent Rectangle " class="cls-3" x="130.8" y="740" width="32" height="32"/></g><g id="data--base-6" data-name="data--base"><path class="cls-2" d="M282.5,128.56h-16a2,2,0,0,0-2,2v22a2,2,0,0,0,2,2h16a2,2,0,0,0,2-2v-22A2,2,0,0,0,282.5,128.56Zm0,2v6h-16v-6Zm-16,14v-6h16v6Zm0,8v-6h16v6Z" transform="translate(-16.06 -12)"/><circle class="cls-2" cx="253.02" cy="121.37" r="1"/><circle class="cls-2" cx="253.02" cy="129.37" r="1"/><circle class="cls-2" cx="253.02" cy="137.37" r="1"/><rect id="_Transparent_Rectangle_9" data-name=" Transparent Rectangle " class="cls-3" x="242.44" y="113.56" width="32" height="32"/></g><g id="data--base-7" data-name="data--base"><path class="cls-2" d="M403.5,127.81h-16a2,2,0,0,0-2,2v22a2,2,0,0,0,2,2h16a2,2,0,0,0,2-2v-22A2,2,0,0,0,403.5,127.81Zm0,2v6h-16v-6Zm-16,14v-6h16v6Zm0,8v-6h16v6Z" transform="translate(-16.06 -12)"/><circle class="cls-2" cx="374.02" cy="120.62" r="1"/><circle class="cls-2" cx="374.02" cy="128.62" r="1"/><circle class="cls-2" cx="374.02" cy="136.62" r="1"/><rect id="_Transparent_Rectangle_10" data-name=" Transparent Rectangle " class="cls-3" x="363.44" y="112.81" width="32" height="32"/></g><g id="data--base-8" data-name="data--base"><path class="cls-2" d="M522.5,129.31h-16a2,2,0,0,0-2,2v22a2,2,0,0,0,2,2h16a2,2,0,0,0,2-2v-22A2,2,0,0,0,522.5,129.31Zm0,2v6h-16v-6Zm-16,14v-6h16v6Zm0,8v-6h16v6Z" transform="translate(-16.06 -12)"/><circle class="cls-2" cx="493.02" cy="122.12" r="1"/><circle class="cls-2" cx="493.02" cy="130.12" r="1"/><circle class="cls-2" cx="493.02" cy="138.12" r="1"/><rect id="_Transparent_Rectangle_11" data-name=" Transparent Rectangle " class="cls-3" x="482.44" y="114.31" width="32" height="32"/></g><rect class="cls-1" x="118.65" y="206.68" width="166.8" height="80"/><rect class="cls-1" x="355.44" y="206.68" width="173.2" height="80"/><rect class="cls-8" x="79.44" y="176.68" width="487" height="58" rx="15"/><g id="ibm-security"><path id="IBM_Security_Shield" data-name="IBM Security Shield" class="cls-2" d="M218.5,256l-12,6v13.73a12.21,12.21,0,0,0,10,12.18,12,12,0,0,0,14-11.84V261.92Zm6.83,27.31-6.83-3.4v2.23l5,2.5a10,10,0,0,1-15-8.6V263.16l10-5,10,5v3.75l-10-5v2.23l10,5v3.75l-10-5v2.23l10,5V276a9.81,9.81,0,0,1-.37,2.69l-9.63-4.8v2.23l8.9,4.43A10,10,0,0,1,225.33,283.26Z" transform="translate(-16.06 -12)"/><rect id="_Transparent_Rectangle_12" data-name=" Transparent Rectangle " class="cls-3" x="186.44" y="244.2" width="32" height="32"/></g><g id="ibm-security-2" data-name="ibm-security"><path id="IBM_Security_Shield-2" data-name="IBM Security Shield" class="cls-2" d="M452.2,256l-12,6v13.73a12.21,12.21,0,0,0,10,12.18,12,12,0,0,0,14-11.84V261.92ZM459,283.26l-6.83-3.4v2.23l5,2.5a10,10,0,0,1-15-8.6V263.16l10-5,10,5v3.75l-10-5v2.23l10,5v3.75l-10-5v2.23l10,5V276a9.81,9.81,0,0,1-.37,2.69l-9.63-4.8v2.23l8.9,4.43A10,10,0,0,1,459,283.26Z" transform="translate(-16.06 -12)"/><rect id="_Transparent_Rectangle_13" data-name=" Transparent Rectangle " class="cls-3" x="420.15" y="244.2" width="32" height="32"/></g><rect class="cls-1" x="118.65" y="346.68" width="166.8" height="80"/><rect class="cls-1" x="355.44" y="346.68" width="173.2" height="80"/><rect class="cls-8" x="79.44" y="316.68" width="487" height="58" rx="15"/><g id="datastore"><circle class="cls-2" cx="209.44" cy="404.77" r="1"/><rect class="cls-2" x="194.44" y="404" width="12" height="2"/><circle class="cls-2" cx="209.44" cy="390.77" r="1"/><rect class="cls-2" x="194.44" y="390" width="12" height="2"/><path class="cls-2" d="M228.5,408a2,2,0,0,0,2-2v-6a2,2,0,0,0-2-2h-20a2,2,0,0,0-2,2v6a2,2,0,0,0,2,2h2v4h-2a2,2,0,0,0-2,2v6a2,2,0,0,0,2,2h20a2,2,0,0,0,2-2v-6a2,2,0,0,0-2-2h-2v-4Zm-20-8h20v6h-20Zm20,20h-20v-6h20Zm-4-8h-12v-4h12Z" transform="translate(-16.06 -12)"/><rect id="_Transparent_Rectangle_14" data-name=" Transparent Rectangle " class="cls-3" x="186.44" y="382" width="32" height="32"/></g><g id="datastore-2" data-name="datastore"><circle class="cls-2" cx="443.44" cy="404.77" r="1"/><rect class="cls-2" x="428.44" y="404" width="12" height="2"/><circle class="cls-2" cx="443.44" cy="390.77" r="1"/><rect class="cls-2" x="428.44" y="390" width="12" height="2"/><path class="cls-2" d="M462.5,408a2,2,0,0,0,2-2v-6a2,2,0,0,0-2-2h-20a2,2,0,0,0-2,2v6a2,2,0,0,0,2,2h2v4h-2a2,2,0,0,0-2,2v6a2,2,0,0,0,2,2h20a2,2,0,0,0,2-2v-6a2,2,0,0,0-2-2h-2v-4Zm-20-8h20v6h-20Zm20,20h-20v-6h20Zm-4-8h-12v-4h12Z" transform="translate(-16.06 -12)"/><rect id="_Transparent_Rectangle_15" data-name=" Transparent Rectangle " class="cls-3" x="420.44" y="382" width="32" height="32"/></g><rect class="cls-1" x="88.65" y="483.37" width="50" height="80"/><rect class="cls-1" x="208.65" y="483.37" width="50" height="80"/><rect class="cls-1" x="448.65" y="483.37" width="50" height="80"/><rect class="cls-1" x="328.65" y="483.37" width="50" height="80"/><g id="data--base-9" data-name="data--base"><path class="cls-2" d="M136.7,536.43h-16a2,2,0,0,0-2,2v22a2,2,0,0,0,2,2h16a2,2,0,0,0,2-2v-22A2,2,0,0,0,136.7,536.43Zm0,2v6h-16v-6Zm-16,14v-6h16v6Zm0,8v-6h16v6Z" transform="translate(-16.06 -12)"/><circle class="cls-2" cx="107.22" cy="529.23" r="1"/><circle class="cls-2" cx="107.22" cy="537.23" r="1"/><circle class="cls-2" cx="107.22" cy="545.23" r="1"/><rect id="_Transparent_Rectangle_16" data-name=" Transparent Rectangle " class="cls-3" x="96.65" y="521.43" width="32" height="32"/></g><rect class="cls-8" x="79.44" y="453.68" width="487" height="58" rx="15"/><g id="data--base-10" data-name="data--base"><path class="cls-2" d="M255.7,536.56h-16a2,2,0,0,0-2,2v22a2,2,0,0,0,2,2h16a2,2,0,0,0,2-2v-22A2,2,0,0,0,255.7,536.56Zm0,2v6h-16v-6Zm-16,14v-6h16v6Zm0,8v-6h16v6Z" transform="translate(-16.06 -12)"/><circle class="cls-2" cx="226.22" cy="529.36" r="1"/><circle class="cls-2" cx="226.22" cy="537.36" r="1"/><circle class="cls-2" cx="226.22" cy="545.36" r="1"/><rect id="_Transparent_Rectangle_17" data-name=" Transparent Rectangle " class="cls-3" x="215.65" y="521.56" width="32" height="32"/></g><g id="data--base-11" data-name="data--base"><path class="cls-2" d="M376.7,536.18h-16a2,2,0,0,0-2,2v22a2,2,0,0,0,2,2h16a2,2,0,0,0,2-2v-22A2,2,0,0,0,376.7,536.18Zm0,2v6h-16v-6Zm-16,14v-6h16v6Zm0,8v-6h16v6Z" transform="translate(-16.06 -12)"/><circle class="cls-2" cx="347.22" cy="528.98" r="1"/><circle class="cls-2" cx="347.22" cy="536.98" r="1"/><circle class="cls-2" cx="347.22" cy="544.98" r="1"/><rect id="_Transparent_Rectangle_18" data-name=" Transparent Rectangle " class="cls-3" x="336.65" y="521.18" width="32" height="32"/></g><g id="data--base-12" data-name="data--base"><path class="cls-2" d="M495.7,536.93h-16a2,2,0,0,0-2,2v22a2,2,0,0,0,2,2h16a2,2,0,0,0,2-2v-22A2,2,0,0,0,495.7,536.93Zm0,2v6h-16v-6Zm-16,14v-6h16v6Zm0,8v-6h16v6Z" transform="translate(-16.06 -12)"/><circle class="cls-2" cx="466.22" cy="529.73" r="1"/><circle class="cls-2" cx="466.22" cy="537.73" r="1"/><circle class="cls-2" cx="466.22" cy="545.73" r="1"/><rect id="_Transparent_Rectangle_19" data-name=" Transparent Rectangle " class="cls-3" x="455.65" y="521.93" width="32" height="32"/></g><rect class="cls-1" x="114.36" y="621.47" width="166.8" height="80"/><rect class="cls-1" x="351.16" y="621.47" width="173.2" height="80"/><rect class="cls-8" x="75.16" y="591.47" width="487" height="58" rx="15"/><g id="link"><path class="cls-2" d="M234.75,675.76a6,6,0,0,0-8.49,0h0l1.42,1.42a4,4,0,0,1,5.67,5.67l-8,8a4,4,0,1,1-5.67-5.66l1.41-1.42-1.41-1.42-1.42,1.42a6,6,0,0,0,0,8.49h0a6.07,6.07,0,0,0,8.52,0l8-8A6,6,0,0,0,234.75,675.76Z" transform="translate(-16.06 -12)"/><path class="cls-2" d="M209.69,693.82a4,4,0,0,1,0-5.66h0l8-8a4,4,0,0,1,5.66,0h0A3.94,3.94,0,0,1,224.5,683a4,4,0,0,1-1.17,2.85L221.21,688l1.42,1.42,2.12-2.12a6,6,0,0,0-8.51-8.51l-8,8a6,6,0,0,0,0,8.49l0,0a6,6,0,0,0,4.26,1.7,6.08,6.08,0,0,0,4.28-1.76l-1.42-1.42a4,4,0,0,1-5.66,0Z" transform="translate(-16.06 -12)"/><rect id="_Transparent_Rectangle_20" data-name=" Transparent Rectangle " class="cls-3" x="189.44" y="657" width="32" height="32"/></g><g id="link-2" data-name="link"><path class="cls-2" d="M463.75,675.76a6,6,0,0,0-8.49,0h0l1.42,1.42a4,4,0,0,1,5.67,5.67l-8,8a4,4,0,1,1-5.67-5.66l1.41-1.42-1.41-1.42-1.42,1.42a6,6,0,0,0,0,8.49h0a6.07,6.07,0,0,0,8.52,0l8-8A6,6,0,0,0,463.75,675.76Z" transform="translate(-16.06 -12)"/><path class="cls-2" d="M438.69,693.82a4,4,0,0,1,0-5.66h0l8-8a4,4,0,0,1,5.66,0h0A3.94,3.94,0,0,1,453.5,683a4,4,0,0,1-1.17,2.85L450.21,688l1.42,1.42,2.12-2.12a6,6,0,0,0-8.51-8.51l-8,8a6,6,0,0,0,0,8.49l0,0a6,6,0,0,0,4.26,1.7,6.08,6.08,0,0,0,4.28-1.76l-1.42-1.42a4,4,0,0,1-5.66,0Z" transform="translate(-16.06 -12)"/><rect id="_Transparent_Rectangle_21" data-name=" Transparent Rectangle " class="cls-3" x="418.44" y="657" width="32" height="32"/></g></g><g id="Text"><text class="cls-9" transform="translate(117.19 791.86)">P<tspan class="cls-10" x="12.31" y="0">ow</tspan><tspan class="cls-11" x="39.98" y="0">er</tspan></text><text class="cls-12" transform="translate(283.86 791.86)">Cooling</text><text class="cls-12" transform="translate(453.71 791.86)">Net<tspan class="cls-10" x="33.75" y="0">w</tspan><tspan x="49.77" y="0">ork</tspan></text><text class="cls-12" transform="translate(263.65 838.07)">Floor spa<tspan class="cls-13" x="87.25" y="0">c</tspan><tspan x="97.69" y="0">e</tspan></text><text class="cls-12" transform="translate(106.76 22.74)">Minimum <tspan class="cls-13" x="93.03" y="0">c</tspan><tspan x="103.47" y="0">onfi</tspan><tspan class="cls-14" x="139.06" y="0">g</tspan><tspan x="150.06" y="0">u</tspan><tspan class="cls-14" x="161.99" y="0">r</tspan><tspan x="169.62" y="0">ation </tspan><tspan class="cls-14" x="222.09" y="0">r</tspan><tspan x="229.72" y="0">ack</tspan></text><text class="cls-15" transform="translate(20.38 828.05) rotate(-90)"><tspan class="cls-16">Y</tspan><tspan x="14.38" y="0">OU</tspan></text><text class="cls-15" transform="translate(20.38 588.33) rotate(-90)">S<tspan class="cls-17" x="14.98" y="0">A</tspan><tspan x="29.86" y="0">TELL</tspan><tspan class="cls-18" x="83.88" y="0">I</tspan><tspan class="cls-19" x="94.15" y="0">TE INFRA</tspan><tspan class="cls-20" x="202.8" y="0">S</tspan><tspan class="cls-19" x="217.22" y="0">T</tspan><tspan class="cls-21" x="231.24" y="0">R</tspan><tspan x="247.08" y="0">UCTURE SE</tspan><tspan class="cls-22" x="375.98" y="0">R</tspan><tspan class="cls-19" x="391.44" y="0">VICE</tspan></text><text class="cls-12" transform="translate(209.36 81.91)">Mana<tspan class="cls-23" x="51.41" y="0">g</tspan><tspan class="cls-11" x="62.37" y="0">ement </tspan><tspan class="cls-10" x="128.01" y="0">r</tspan><tspan class="cls-11" x="135.62" y="0">esou</tspan><tspan class="cls-24" x="181.06" y="0">r</tspan><tspan class="cls-23" x="188.66" y="0">c</tspan><tspan class="cls-11" x="199.1" y="0">es</tspan></text><text class="cls-12" transform="translate(235.57 213.59)">Security fi<tspan class="cls-24" x="93.89" y="0">re</tspan><tspan class="cls-25" x="112.92" y="0">w</tspan><tspan x="128.85" y="0">a</tspan><tspan class="cls-10" x="140.07" y="0">l</tspan><tspan x="145.68" y="0">l</tspan></text><text class="cls-12" transform="translate(274.57 353.59)">S<tspan class="cls-14" x="12.2" y="0">t</tspan><tspan x="19.49" y="0">o</tspan><tspan class="cls-14" x="31.25" y="0">r</tspan><tspan x="38.87" y="0">a</tspan><tspan class="cls-13" x="50.08" y="0">g</tspan><tspan class="cls-11" x="61.05" y="0">e</tspan></text><text class="cls-12" transform="translate(219.57 490.59)">Compu<tspan class="cls-14" x="67.24" y="0">t</tspan><tspan class="cls-11" x="74.53" y="0">e </tspan><tspan class="cls-24" x="91.01" y="0">r</tspan><tspan x="98.61" y="0">esou</tspan><tspan class="cls-24" x="144.06" y="0">r</tspan><tspan class="cls-23" x="151.66" y="0">c</tspan><tspan class="cls-11" x="162.1" y="0">es</tspan></text><text class="cls-12" transform="translate(221.28 628.38)">Net<tspan class="cls-10" x="33.75" y="0">w</tspan><tspan x="49.77" y="0">orking </tspan><tspan class="cls-26" x="113.52" y="0">s</tspan><tspan class="cls-11" x="123.56" y="0">wi</tspan><tspan class="cls-14" x="144.94" y="0">t</tspan><tspan class="cls-27" x="152.23" y="0">ches</tspan></text></g></svg>