<?xml version="1.0" encoding="UTF-8"?><svg xmlns="http://www.w3.org/2000/svg" width="1644" height="815" viewBox="0 0 1644 815"><g id="a"><g><g><path d="M262.75,78.02H1342.48c12.51,0,22.66,10.15,22.66,22.66v63.41c0,12.51-10.15,22.66-22.66,22.66H262.75c-12.51,0-22.66-10.15-22.66-22.66v-63.4c0-12.51,10.15-22.66,22.66-22.66Z" style="fill:#fff;"/><path d="M1342.48,79.52c11.67,0,21.16,9.49,21.16,21.16v63.4c0,11.67-9.49,21.16-21.16,21.16H262.75c-11.67,0-21.16-9.49-21.16-21.16v-63.4c0-11.67,9.49-21.16,21.16-21.16H1342.48m0-3H262.75c-13.34,0-24.16,10.82-24.16,24.16v63.4c0,13.34,10.82,24.16,24.16,24.16H1342.48c13.34,0,24.16-10.82,24.16-24.16v-63.4c0-13.34-10.82-24.16-24.16-24.16h0Z" style="fill:#6835ff;"/></g><text transform="translate(730.76 143.65)" style="font-family:IBMPlexSans, IBM Plex Sans; font-size:37.28px;"><tspan x="0" y="0">En</tspan><tspan x="42.91" y="0" style="letter-spacing:0em;">t</tspan><tspan x="55.85" y="0">erprise</tspan></text><g><rect x="239.26" y="459.51" width="361.7" height="258.76" rx="33.26" ry="33.26" style="fill:#fff;"/><path d="M567.7,461.01c17.51,0,31.76,14.25,31.76,31.76v192.23c0,17.51-14.25,31.76-31.76,31.76H272.53c-17.51,0-31.76-14.25-31.76-31.76v-192.23c0-17.51,14.25-31.76,31.76-31.76h295.17m0-3H272.53c-19.2,0-34.76,15.56-34.76,34.76v192.23c0,19.2,15.56,34.76,34.76,34.76h295.17c19.2,0,34.76-15.56,34.76-34.76v-192.23c0-19.2-15.56-34.76-34.76-34.76h0Z" style="fill:#9e005d;"/></g><path d="M581.67,217.25c10,0,18.14,8.14,18.14,18.14v54.5c0,10-8.14,18.14-18.14,18.14H259.25c-10,0-18.14-8.14-18.14-18.14v-54.5c0-10,8.14-18.14,18.14-18.14h322.42m0-3H259.25c-11.67,0-21.14,9.46-21.14,21.14v54.5c0,11.67,9.46,21.14,21.14,21.14h322.42c11.67,0,21.14-9.46,21.14-21.14v-54.5c0-11.67-9.46-21.14-21.14-21.14h0Z" style="fill:#a66efa;"/><text transform="translate(296.25 273.89)" style="font-family:IBMPlexSans, IBM Plex Sans; font-size:37.28px;"><tspan x="0" y="0">A</tspan><tspan x="23.9" y="0" style="letter-spacing:0em;">cc</tspan><tspan x="60.96" y="0">ount G</tspan><tspan x="171.98" y="0" style="letter-spacing:0em;">r</tspan><tspan x="185.48" y="0">oup</tspan></text><g><rect x="239.61" y="341.01" width="361.7" height="92.3" rx="19.48" ry="19.48" style="fill:#fff;"/><path d="M581.83,342.51c9.91,0,17.98,8.06,17.98,17.98v53.34c0,9.91-8.06,17.98-17.98,17.98H259.09c-9.91,0-17.98-8.06-17.98-17.98v-53.34c0-9.91,8.06-17.98,17.98-17.98h322.75m0-3H259.09c-11.58,0-20.98,9.39-20.98,20.98v53.34c0,11.58,9.39,20.98,20.98,20.98h322.75c11.58,0,20.98-9.39,20.98-20.98v-53.34c0-11.58-9.39-20.98-20.98-20.98h0Z" style="fill:#009c98;"/></g><text transform="translate(351.72 397.43)" style="font-family:IBMPlexSans, IBM Plex Sans; font-size:37.28px;"><tspan x="0" y="0">A</tspan><tspan x="23.9" y="0" style="letter-spacing:0em;">cc</tspan><tspan x="60.96" y="0">ount</tspan></text><text transform="translate(362.44 519.24)" style="font-family:IBMPlexSans, IBM Plex Sans; font-size:37.28px;"><tspan x="0" y="0" style="letter-spacing:0em;">L</tspan><tspan x="18.31" y="0">ocation</tspan></text><text transform="translate(366.49 603.99)" style="font-family:IBMPlexSans, IBM Plex Sans; font-size:37.28px;"><tspan x="0" y="0">Clu</tspan><tspan x="54.47" y="0" style="letter-spacing:0em;">s</tspan><tspan x="72.36" y="0" style="letter-spacing:0em;">t</tspan><tspan x="85.3" y="0">er</tspan></text><text transform="translate(355.72 683.42)" style="font-family:IBMPlexSans, IBM Plex Sans; font-size:37.28px;"><tspan x="0" y="0">Se</tspan><tspan x="42.13" y="0" style="letter-spacing:0em;">r</tspan><tspan x="56.18" y="0">vi</tspan><tspan x="83.85" y="0" style="letter-spacing:0em;">c</tspan><tspan x="102.37" y="0">es</tspan></text><path d="M301.98,683.81l8.56-16.07,9.78,8.69c.62,.55,1.46,.78,2.28,.63,.82-.15,1.53-.68,1.9-1.43l7.39-14.72-2.44-1.21-7.35,14.73-9.78-8.69c-.6-.56-1.44-.81-2.25-.68-.8,.13-1.51,.63-1.9,1.34l-7.09,13.4v-30.81h-2.68v34.83c0,1.48,1.2,2.68,2.68,2.68h34.83v-2.68h-33.93Z" style="fill-rule:evenodd;"/><g><path d="M317.16,534.76c-.33,0-.49,0-.82-.16l-19.76-10.7c-.49-.33-.82-.82-.82-1.48v-21.41c0-.66,.33-1.15,.82-1.48l19.76-10.7c.49-.33,1.15-.33,1.65,0l19.76,10.7c.49,.33,.82,.82,.82,1.48v20.59h-3.29v-19.6l-18.12-9.88-18.12,9.88v19.43l18.12,9.72,11.69-6.92,1.65,2.8-12.52,7.25c-.33,.49-.49,.49-.82,.49Z" style="fill-rule:evenodd;"/><circle cx="305.63" cy="518.29" r="3.29"/><path d="M317.16,518.29c-3.62,0-6.59-2.96-6.59-6.59s2.96-6.59,6.59-6.59,6.59,2.96,6.59,6.59-2.96,6.59-6.59,6.59Zm0-9.88c-1.81,0-3.29,1.48-3.29,3.29s1.48,3.29,3.29,3.29,3.29-1.48,3.29-3.29-1.48-3.29-3.29-3.29Z" style="fill-rule:evenodd;"/><circle cx="328.68" cy="505.11" r="3.29"/></g><g><path d="M302.14,588.17c0-8.51,6.9-15.4,15.4-15.4,4.79,0,9.06,2.18,11.89,5.61l3.37-1.23c-3.42-4.73-8.98-7.81-15.26-7.81-10.4,0-18.82,8.43-18.82,18.82,0,.46,.02,.92,.05,1.37l3.37-1.23s0-.09,0-.14Zm3.51,9.79l-3.37,1.23c3.42,4.73,8.98,7.81,15.26,7.81,10.4,0,18.82-8.43,18.82-18.82,0-.46-.02-.92-.05-1.37l-3.37,1.23s0,.09,0,.14c0,8.51-6.9,15.4-15.4,15.4-4.79,0-9.06-2.18-11.89-5.61Z" style="fill-rule:evenodd;"/><path d="M331.12,578.54l7.24-2.63,1.17,3.22-7.24,2.63-1.17-3.22Z" style="fill-rule:evenodd;"/><path d="M300.31,589.76l7.24-2.63,1.17,3.22-7.24,2.63-1.17-3.22Z" style="fill-rule:evenodd;"/><path d="M294.79,597.76l7.24-2.63,1.17,3.22-7.24,2.63-1.17-3.22Z" style="fill-rule:evenodd;"/><path d="M326.84,586.09l7.24-2.63,1.17,3.22-7.24,2.63-1.17-3.22Z" style="fill-rule:evenodd;"/></g><g><rect x="630.84" y="459.51" width="361.7" height="258.76" rx="33.26" ry="33.26" style="fill:#fff;"/><path d="M959.27,461.01c17.51,0,31.76,14.25,31.76,31.76v192.23c0,17.51-14.25,31.76-31.76,31.76h-295.17c-17.51,0-31.76-14.25-31.76-31.76v-192.23c0-17.51,14.25-31.76,31.76-31.76h295.17m0-3h-295.17c-19.2,0-34.76,15.56-34.76,34.76v192.23c0,19.2,15.56,34.76,34.76,34.76h295.17c19.2,0,34.76-15.56,34.76-34.76v-192.23c0-19.2-15.56-34.76-34.76-34.76h0Z" style="fill:#9e005d;"/></g><path d="M973.25,217.25c10,0,18.14,8.14,18.14,18.14v54.5c0,10-8.14,18.14-18.14,18.14h-322.42c-10,0-18.14-8.14-18.14-18.14v-54.5c0-10,8.14-18.14,18.14-18.14h322.42m0-3h-322.42c-11.67,0-21.14,9.46-21.14,21.14v54.5c0,11.67,9.46,21.14,21.14,21.14h322.42c11.67,0,21.14-9.46,21.14-21.14v-54.5c0-11.67-9.46-21.14-21.14-21.14h0Z" style="fill:#a66efa;"/><text transform="translate(687.83 273.89)" style="font-family:IBMPlexSans, IBM Plex Sans; font-size:37.28px;"><tspan x="0" y="0">A</tspan><tspan x="23.9" y="0" style="letter-spacing:0em;">cc</tspan><tspan x="60.95" y="0">ount G</tspan><tspan x="171.98" y="0" style="letter-spacing:0em;">r</tspan><tspan x="185.47" y="0">oup</tspan></text><g><rect x="631.19" y="341.01" width="361.7" height="92.3" rx="19.48" ry="19.48" style="fill:#fff;"/><path d="M973.41,342.51c9.91,0,17.98,8.06,17.98,17.98v53.34c0,9.91-8.06,17.98-17.98,17.98h-322.75c-9.91,0-17.98-8.06-17.98-17.98v-53.34c0-9.91,8.06-17.98,17.98-17.98h322.75m0-3h-322.75c-11.58,0-20.98,9.39-20.98,20.98v53.34c0,11.58,9.39,20.98,20.98,20.98h322.75c11.58,0,20.98-9.39,20.98-20.98v-53.34c0-11.58-9.39-20.98-20.98-20.98h0Z" style="fill:#009c98;"/></g><text transform="translate(743.3 397.43)" style="font-family:IBMPlexSans, IBM Plex Sans; font-size:37.28px;"><tspan x="0" y="0">A</tspan><tspan x="23.9" y="0" style="letter-spacing:0em;">cc</tspan><tspan x="60.95" y="0">ount</tspan></text><text transform="translate(754.02 519.24)" style="font-family:IBMPlexSans, IBM Plex Sans; font-size:37.28px;"><tspan x="0" y="0" style="letter-spacing:-.01em;">L</tspan><tspan x="18.3" y="0">ocation</tspan></text><text transform="translate(758.07 603.99)" style="font-family:IBMPlexSans, IBM Plex Sans; font-size:37.28px;"><tspan x="0" y="0">Clu</tspan><tspan x="54.47" y="0" style="letter-spacing:0em;">s</tspan><tspan x="72.36" y="0" style="letter-spacing:0em;">t</tspan><tspan x="85.3" y="0">er</tspan></text><text transform="translate(747.29 683.42)" style="font-family:IBMPlexSans, IBM Plex Sans; font-size:37.28px;"><tspan x="0" y="0">Se</tspan><tspan x="42.13" y="0" style="letter-spacing:.01em;">r</tspan><tspan x="56.18" y="0">vi</tspan><tspan x="83.84" y="0" style="letter-spacing:0em;">c</tspan><tspan x="102.37" y="0">es</tspan></text><path d="M693.55,683.81l8.56-16.07,9.78,8.69c.62,.55,1.46,.78,2.28,.63,.82-.15,1.53-.68,1.9-1.43l7.39-14.72-2.44-1.21-7.35,14.73-9.78-8.69c-.6-.56-1.44-.81-2.25-.68-.8,.13-1.51,.63-1.9,1.34l-7.09,13.4v-30.81h-2.68v34.83c0,1.48,1.2,2.68,2.68,2.68h34.83v-2.68h-33.93Z" style="fill-rule:evenodd;"/><g><path d="M708.73,534.76c-.33,0-.49,0-.82-.16l-19.76-10.7c-.49-.33-.82-.82-.82-1.48v-21.41c0-.66,.33-1.15,.82-1.48l19.76-10.7c.49-.33,1.15-.33,1.65,0l19.76,10.7c.49,.33,.82,.82,.82,1.48v20.59h-3.29v-19.6l-18.12-9.88-18.12,9.88v19.43l18.12,9.72,11.69-6.92,1.65,2.8-12.52,7.25c-.33,.49-.49,.49-.82,.49Z" style="fill-rule:evenodd;"/><circle cx="697.2" cy="518.29" r="3.29"/><path d="M708.73,518.29c-3.62,0-6.59-2.96-6.59-6.59s2.96-6.59,6.59-6.59,6.59,2.96,6.59,6.59-2.96,6.59-6.59,6.59Zm0-9.88c-1.81,0-3.29,1.48-3.29,3.29s1.48,3.29,3.29,3.29,3.29-1.48,3.29-3.29-1.48-3.29-3.29-3.29Z" style="fill-rule:evenodd;"/><circle cx="720.26" cy="505.11" r="3.29"/></g><g><path d="M693.72,588.17c0-8.51,6.9-15.4,15.4-15.4,4.79,0,9.06,2.18,11.89,5.61l3.37-1.23c-3.42-4.73-8.98-7.81-15.26-7.81-10.4,0-18.82,8.43-18.82,18.82,0,.46,.02,.92,.05,1.37l3.37-1.23s0-.09,0-.14Zm3.51,9.79l-3.37,1.23c3.42,4.73,8.98,7.81,15.26,7.81,10.4,0,18.82-8.43,18.82-18.82,0-.46-.02-.92-.05-1.37l-3.37,1.23s0,.09,0,.14c0,8.51-6.9,15.4-15.4,15.4-4.79,0-9.06-2.18-11.89-5.61Z" style="fill-rule:evenodd;"/><path d="M722.69,578.54l7.24-2.63,1.17,3.22-7.24,2.63-1.17-3.22Z" style="fill-rule:evenodd;"/><path d="M691.89,589.76l7.24-2.63,1.17,3.22-7.24,2.63-1.17-3.22Z" style="fill-rule:evenodd;"/><path d="M686.36,597.76l7.24-2.63,1.17,3.22-7.24,2.63-1.17-3.22Z" style="fill-rule:evenodd;"/><path d="M718.41,586.09l7.24-2.63,1.17,3.22-7.24,2.63-1.17-3.22Z" style="fill-rule:evenodd;"/></g><g><rect x="1011.78" y="459.51" width="361.7" height="258.76" rx="33.26" ry="33.26" style="fill:#fff;"/><path d="M1340.21,461.01c17.51,0,31.76,14.25,31.76,31.76v192.23c0,17.51-14.25,31.76-31.76,31.76h-295.17c-17.51,0-31.76-14.25-31.76-31.76v-192.23c0-17.51,14.25-31.76,31.76-31.76h295.17m0-3h-295.17c-19.2,0-34.76,15.56-34.76,34.76v192.23c0,19.2,15.56,34.76,34.76,34.76h295.17c19.2,0,34.76-15.56,34.76-34.76v-192.23c0-19.2-15.56-34.76-34.76-34.76h0Z" style="fill:#9e005d;"/></g><path d="M1354.19,217.25c10,0,18.14,8.14,18.14,18.14v54.5c0,10-8.14,18.14-18.14,18.14h-322.42c-10,0-18.14-8.14-18.14-18.14v-54.5c0-10,8.14-18.14,18.14-18.14h322.42m0-3h-322.42c-11.67,0-21.14,9.46-21.14,21.14v54.5c0,11.67,9.46,21.14,21.14,21.14h322.42c11.67,0,21.14-9.46,21.14-21.14v-54.5c0-11.67-9.46-21.14-21.14-21.14h0Z" style="fill:#a66efa;"/><text transform="translate(1068.77 273.89)" style="font-family:IBMPlexSans, IBM Plex Sans; font-size:37.28px;"><tspan x="0" y="0">A</tspan><tspan x="23.9" y="0" style="letter-spacing:0em;">cc</tspan><tspan x="60.95" y="0">ount G</tspan><tspan x="171.98" y="0" style="letter-spacing:0em;">r</tspan><tspan x="185.47" y="0">oup</tspan></text><g><rect x="1012.13" y="341.01" width="361.7" height="92.3" rx="19.48" ry="19.48" style="fill:#fff;"/><path d="M1354.35,342.51c9.91,0,17.98,8.06,17.98,17.98v53.34c0,9.91-8.06,17.98-17.98,17.98h-322.75c-9.91,0-17.98-8.06-17.98-17.98v-53.34c0-9.91,8.06-17.98,17.98-17.98h322.75m0-3h-322.75c-11.58,0-20.98,9.39-20.98,20.98v53.34c0,11.58,9.39,20.98,20.98,20.98h322.75c11.58,0,20.98-9.39,20.98-20.98v-53.34c0-11.58-9.39-20.98-20.98-20.98h0Z" style="fill:#009c98;"/></g><text transform="translate(1124.23 397.43)" style="font-family:IBMPlexSans, IBM Plex Sans; font-size:37.28px;"><tspan x="0" y="0">A</tspan><tspan x="23.9" y="0" style="letter-spacing:0em;">cc</tspan><tspan x="60.95" y="0">ount</tspan></text><text transform="translate(1134.96 519.24)" style="font-family:IBMPlexSans, IBM Plex Sans; font-size:37.28px;"><tspan x="0" y="0" style="letter-spacing:-.01em;">L</tspan><tspan x="18.3" y="0">ocation</tspan></text><text transform="translate(1139 603.99)" style="font-family:IBMPlexSans, IBM Plex Sans; font-size:37.28px;"><tspan x="0" y="0">Clu</tspan><tspan x="54.47" y="0" style="letter-spacing:0em;">s</tspan><tspan x="72.36" y="0" style="letter-spacing:0em;">t</tspan><tspan x="85.3" y="0">er</tspan></text><text transform="translate(1128.23 683.42)" style="font-family:IBMPlexSans, IBM Plex Sans; font-size:37.28px;"><tspan x="0" y="0">Se</tspan><tspan x="42.13" y="0" style="letter-spacing:.01em;">r</tspan><tspan x="56.18" y="0">vi</tspan><tspan x="83.84" y="0" style="letter-spacing:0em;">c</tspan><tspan x="102.37" y="0">es</tspan></text><path d="M1074.49,683.81l8.56-16.07,9.78,8.69c.62,.55,1.46,.78,2.28,.63,.82-.15,1.53-.68,1.9-1.43l7.39-14.72-2.44-1.21-7.35,14.73-9.78-8.69c-.6-.56-1.44-.81-2.25-.68-.8,.13-1.51,.63-1.9,1.34l-7.09,13.4v-30.81h-2.68v34.83c0,1.48,1.2,2.68,2.68,2.68h34.83v-2.68h-33.93Z" style="fill-rule:evenodd;"/><g><path d="M1089.67,534.76c-.33,0-.49,0-.82-.16l-19.76-10.7c-.49-.33-.82-.82-.82-1.48v-21.41c0-.66,.33-1.15,.82-1.48l19.76-10.7c.49-.33,1.15-.33,1.65,0l19.76,10.7c.49,.33,.82,.82,.82,1.48v20.59h-3.29v-19.6l-18.12-9.88-18.12,9.88v19.43l18.12,9.72,11.69-6.92,1.65,2.8-12.52,7.25c-.33,.49-.49,.49-.82,.49Z" style="fill-rule:evenodd;"/><circle cx="1078.14" cy="518.29" r="3.29"/><path d="M1089.67,518.29c-3.62,0-6.59-2.96-6.59-6.59s2.96-6.59,6.59-6.59,6.59,2.96,6.59,6.59-2.96,6.59-6.59,6.59Zm0-9.88c-1.81,0-3.29,1.48-3.29,3.29s1.48,3.29,3.29,3.29,3.29-1.48,3.29-3.29-1.48-3.29-3.29-3.29Z" style="fill-rule:evenodd;"/><circle cx="1101.2" cy="505.11" r="3.29"/></g><g><path d="M1074.66,588.17c0-8.51,6.9-15.4,15.4-15.4,4.79,0,9.06,2.18,11.89,5.61l3.37-1.23c-3.42-4.73-8.98-7.81-15.26-7.81-10.4,0-18.82,8.43-18.82,18.82,0,.46,.02,.92,.05,1.37l3.37-1.23s0-.09,0-.14Zm3.51,9.79l-3.37,1.23c3.42,4.73,8.98,7.81,15.26,7.81,10.4,0,18.82-8.43,18.82-18.82,0-.46-.02-.92-.05-1.37l-3.37,1.23s0,.09,0,.14c0,8.51-6.9,15.4-15.4,15.4-4.79,0-9.06-2.18-11.89-5.61Z" style="fill-rule:evenodd;"/><path d="M1103.63,578.54l7.24-2.63,1.17,3.22-7.24,2.63-1.17-3.22Z" style="fill-rule:evenodd;"/><path d="M1072.83,589.76l7.24-2.63,1.17,3.22-7.24,2.63-1.17-3.22Z" style="fill-rule:evenodd;"/><path d="M1067.3,597.76l7.24-2.63,1.17,3.22-7.24,2.63-1.17-3.22Z" style="fill-rule:evenodd;"/><path d="M1099.35,586.09l7.24-2.63,1.17,3.22-7.24,2.63-1.17-3.22Z" style="fill-rule:evenodd;"/></g></g></g><g id="b"/></svg>